<?xml version="1.0" encoding="UTF-8" standalone="no"?>
<svg width="1000" height="1000"
     xmlns="http://www.w3.org/2000/svg"
     xmlns:inkscape="http://www.inkscape.org/namespaces/inkscape"
     xmlns:svg="http://www.w3.org/2000/svg">
<g inkscape:label="Room" inkscape:groupmode="layer" id="room">
<rect style="fill:none;stroke:#000000" x="0" y="0" width="1000" height="1000" />
<rect style="fill:none;stroke:#ff0000" x="0" y="0" width="1000" height="20" />
</g>
<g inkscape:label="Attendees" inkscape:groupmode="layer" id="attendees">
<circle style="fill:none;stroke:#000000" cx="240" cy="21" r="5" />
<circle style="fill:#a2d48c;stroke:#000000" cx="542" cy="34" r="5" />
<circle style="fill:#a2d48c;stroke:#000000" cx="788" cy="28" r="5" />
<circle style="fill:none;stroke:#000000" cx="81" cy="32" r="5" />
<circle style="fill:#a2d48c;stroke:#000000" cx="127" cy="29" r="5" />
<circle style="fill:#808080;stroke:#000000" cx="487" cy="32" r="5" />
<circle style="fill:none;stroke:#000000" cx="94" cy="30" r="5" />
<circle style="fill:#808080;stroke:#000000" cx="22" cy="28" r="5" />
<circle style="fill:none;stroke:#000000" cx="642" cy="44" r="5" />
<circle style="fill:none;stroke:#000000" cx="784" cy="30" r="5" />
<circle style="fill:#a2d48c;stroke:#000000" cx="595" cy="40" r="5" />
<circle style="fill:none;stroke:#000000" cx="17" cy="44" r="5" />
<circle style="fill:#808080;stroke:#000000" cx="504" cy="34" r="5" />
<circle style="fill:#c8a9a0;stroke:#000000" cx="632" cy="35" r="5" />
<circle style="fill:none;stroke:#000000" cx="331" cy="53" r="5" />
<circle style="fill:#c8a9a0;stroke:#000000" cx="371" cy="34" r="5" />
<circle style="fill:none;stroke:#000000" cx="809" cy="58" r="5" />
<circle style="fill:#a2d48c;stroke:#000000" cx="64" cy="42" r="5" />
<circle style="fill:none;stroke:#000000" cx="637" cy="36" r="5" />
<circle style="fill:#808080;stroke:#000000" cx="897" cy="44" r="5" />
<circle style="fill:none;stroke:#000000" cx="143" cy="56" r="5" />
<circle style="fill:none;stroke:#000000" cx="494" cy="66" r="5" />
<circle style="fill:#c8a9a0;stroke:#000000" cx="670" cy="64" r="5" />
<circle style="fill:#c8a9a0;stroke:#000000" cx="15" cy="66" r="5" />
<circle style="fill:#c8a9a0;stroke:#000000" cx="150" cy="52" r="5" />
<circle style="fill:#808080;stroke:#000000" cx="458" cy="61" r="5" />
<circle style="fill:#c8a9a0;stroke:#000000" cx="990" cy="83" r="5" />
<circle style="fill:none;stroke:#000000" cx="576" cy="97" r="5" />
<circle style="fill:#808080;stroke:#000000" cx="208" cy="76" r="5" />
<circle style="fill:#c8a9a0;stroke:#000000" cx="770" cy="72" r="5" />
<circle style="fill:#808080;stroke:#000000" cx="351" cy="73" r="5" />
<circle style="fill:none;stroke:#000000" cx="315" cy="101" r="5" />
<circle style="fill:#808080;stroke:#000000" cx="792" cy="85" r="5" />
<circle style="fill:#c8a9a0;stroke:#000000" cx="537" cy="70" r="5" />
<circle style="fill:#c8a9a0;stroke:#000000" cx="739" cy="95" r="5" />
<circle style="fill:#808080;stroke:#000000" cx="917" cy="66" r="5" />
<circle style="fill:#808080;stroke:#000000" cx="402" cy="79" r="5" />
<circle style="fill:#a2d48c;stroke:#000000" cx="14" cy="78" r="5" />
<circle style="fill:#a2d48c;stroke:#000000" cx="236" cy="125" r="5" />
<circle style="fill:none;stroke:#000000" cx="738" cy="112" r="5" />
<circle style="fill:none;stroke:#000000" cx="869" cy="142" r="5" />
<circle style="fill:none;stroke:#000000" cx="558" cy="79" r="5" />
<circle style="fill:#808080;stroke:#000000" cx="419" cy="97" r="5" />
<circle style="fill:none;stroke:#000000" cx="886" cy="103" r="5" />
<circle style="fill:#808080;stroke:#000000" cx="96" cy="95" r="5" />
<circle style="fill:#808080;stroke:#000000" cx="568" cy="99" r="5" />
<circle style="fill:#808080;stroke:#000000" cx="580" cy="114" r="5" />
<circle style="fill:none;stroke:#000000" cx="633" cy="112" r="5" />
<circle style="fill:none;stroke:#000000" cx="410" cy="140" r="5" />
<circle style="fill:none;stroke:#000000" cx="362" cy="120" r="5" />
<circle style="fill:#a2d48c;stroke:#000000" cx="801" cy="130" r="5" />
<circle style="fill:none;stroke:#000000" cx="807" cy="117" r="5" />
<circle style="fill:#c8a9a0;stroke:#000000" cx="325" cy="87" r="5" />
<circle style="fill:#a2d48c;stroke:#000000" cx="351" cy="129" r="5" />
<circle style="fill:#c8a9a0;stroke:#000000" cx="92" cy="110" r="5" />
<circle style="fill:#a2d48c;stroke:#000000" cx="518" cy="140" r="5" />
<circle style="fill:none;stroke:#000000" cx="49" cy="165" r="5" />
<circle style="fill:#808080;stroke:#000000" cx="448" cy="90" r="5" />
<circle style="fill:#808080;stroke:#000000" cx="333" cy="148" r="5" />
<circle style="fill:none;stroke:#000000" cx="162" cy="181" r="5" />
<circle style="fill:#a2d48c;stroke:#000000" cx="889" cy="153" r="5" />
<circle style="fill:#a2d48c;stroke:#000000" cx="231" cy="138" r="5" />
<circle style="fill:#c8a9a0;stroke:#000000" cx="743" cy="134" r="5" />
<circle style="fill:#a2d48c;stroke:#000000" cx="50" cy="143" r="5" />
<circle style="fill:#a2d48c;stroke:#000000" cx="393" cy="156" r="5" />
<circle style="fill:none;stroke:#000000" cx="843" cy="173" r="5" />
<circle style="fill:#808080;stroke:#000000" cx="202" cy="179" r="5" />
<circle style="fill:none;stroke:#000000" cx="690" cy="161" r="5" />
<circle style="fill:none;stroke:#000000" cx="270" cy="156" r="5" />
<circle style="fill:#808080;stroke:#000000" cx="659" cy="174" r="5" />
<circle style="fill:#c8a9a0;stroke:#000000" cx="116" cy="127" r="5" />
<circle style="fill:#a2d48c;stroke:#000000" cx="755" cy="182" r="5" />
<circle style="fill:#c8a9a0;stroke:#000000" cx="592" cy="141" r="5" />
<circle style="fill:#c8a9a0;stroke:#000000" cx="682" cy="167" r="5" />
<circle style="fill:none;stroke:#000000" cx="147" cy="232" r="5" />
<circle style="fill:#a2d48c;stroke:#000000" cx="511" cy="188" r="5" />
<circle style="fill:none;stroke:#000000" cx="27" cy="216" r="5" />
<circle style="fill:none;stroke:#000000" cx="960" cy="235" r="5" />
<circle style="fill:#808080;stroke:#000000" cx="696" cy="168" r="5" />
<circle style="fill:none;stroke:#000000" cx="194" cy="224" r="5" />
<circle style="fill:#c8a9a0;stroke:#000000" cx="337" cy="214" r="5" />
<circle style="fill:none;stroke:#000000" cx="350" cy="190" r="5" />
<circle style="fill:#c8a9a0;stroke:#000000" cx="754" cy="153" r="5" />
<circle style="fill:none;stroke:#000000" cx="496" cy="209" r="5" />
<circle style="fill:none;stroke:#000000" cx="784" cy="197" r="5" />
<circle style="fill:#c8a9a0;stroke:#000000" cx="261" cy="208" r="5" />
<circle style="fill:none;stroke:#000000" cx="132" cy="283" r="5" />
<circle style="fill:#c8a9a0;stroke:#000000" cx="986" cy="199" r="5" />
<circle style="fill:#a2d48c;stroke:#000000" cx="559" cy="158" r="5" />
<circle style="fill:#a2d48c;stroke:#000000" cx="685" cy="154" r="5" />
<circle style="fill:#c8a9a0;stroke:#000000" cx="778" cy="212" r="5" />
<circle style="fill:#808080;stroke:#000000" cx="917" cy="184" r="5" />
<circle style="fill:#a2d48c;stroke:#000000" cx="133" cy="230" r="5" />
<circle style="fill:#c8a9a0;stroke:#000000" cx="79" cy="173" r="5" />
<circle style="fill:#c8a9a0;stroke:#000000" cx="1" cy="173" r="5" />
<circle style="fill:none;stroke:#000000" cx="929" cy="279" r="5" />
<circle style="fill:none;stroke:#000000" cx="276" cy="221" r="5" />
<circle style="fill:none;stroke:#000000" cx="55" cy="215" r="5" />
<circle style="fill:#c8a9a0;stroke:#000000" cx="115" cy="181" r="5" />
<circle style="fill:#c8a9a0;stroke:#000000" cx="49" cy="243" r="5" />
<circle style="fill:none;stroke:#000000" cx="866" cy="222" r="5" />
<circle style="fill:none;stroke:#000000" cx="750" cy="262" r="5" />
<circle style="fill:#808080;stroke:#000000" cx="333" cy="196" r="5" />
<circle style="fill:none;stroke:#000000" cx="750" cy="210" r="5" />
<circle style="fill:none;stroke:#000000" cx="620" cy="272" r="5" />
<circle style="fill:#c8a9a0;stroke:#000000" cx="380" cy="123" r="5" />
<circle style="fill:none;stroke:#000000" cx="847" cy="279" r="5" />
<circle style="fill:#c8a9a0;stroke:#000000" cx="413" cy="169" r="5" />
<circle style="fill:#808080;stroke:#000000" cx="348" cy="204" r="5" />
<circle style="fill:none;stroke:#000000" cx="816" cy="236" r="5" />
<circle style="fill:#c8a9a0;stroke:#000000" cx="960" cy="280" r="5" />
<circle style="fill:#a2d48c;stroke:#000000" cx="731" cy="272" r="5" />
<circle style="fill:#c8a9a0;stroke:#000000" cx="437" cy="167" r="5" />
<circle style="fill:#c8a9a0;stroke:#000000" cx="870" cy="289" r="5" />
<circle style="fill:#a2d48c;stroke:#000000" cx="687" cy="229" r="5" />
<circle style="fill:#c8a9a0;stroke:#000000" cx="831" cy="299" r="5" />
<circle style="fill:#808080;stroke:#000000" cx="280" cy="204" r="5" />
<circle style="fill:none;stroke:#000000" cx="629" cy="176" r="5" />
<circle style="fill:#c8a9a0;stroke:#000000" cx="187" cy="228" r="5" />
<circle style="fill:#808080;stroke:#000000" cx="723" cy="270" r="5" />
<circle style="fill:#808080;stroke:#000000" cx="901" cy="276" r="5" />
<circle style="fill:none;stroke:#000000" cx="500" cy="306" r="5" />
<circle style="fill:none;stroke:#000000" cx="50" cy="312" r="5" />
<circle style="fill:none;stroke:#000000" cx="473" cy="318" r="5" />
<circle style="fill:#c8a9a0;stroke:#000000" cx="789" cy="256" r="5" />
<circle style="fill:#a2d48c;stroke:#000000" cx="77" cy="272" r="5" />
<circle style="fill:#808080;stroke:#000000" cx="439" cy="260" r="5" />
<circle style="fill:#a2d48c;stroke:#000000" cx="322" cy="325" r="5" />
<circle style="fill:#a2d48c;stroke:#000000" cx="25" cy="311" r="5" />
<circle style="fill:none;stroke:#000000" cx="879" cy="346" r="5" />
<circle style="fill:#a2d48c;stroke:#000000" cx="5" cy="351" r="5" />
<circle style="fill:#c8a9a0;stroke:#000000" cx="959" cy="325" r="5" />
<circle style="fill:none;stroke:#000000" cx="840" cy="316" r="5" />
<circle style="fill:none;stroke:#000000" cx="37" cy="334" r="5" />
<circle style="fill:#808080;stroke:#000000" cx="137" cy="341" r="5" />
<circle style="fill:none;stroke:#000000" cx="165" cy="313" r="5" />
<circle style="fill:none;stroke:#000000" cx="771" cy="373" r="5" />
<circle style="fill:#c8a9a0;stroke:#000000" cx="245" cy="330" r="5" />
<circle style="fill:#a2d48c;stroke:#000000" cx="994" cy="358" r="5" />
<circle style="fill:#a2d48c;stroke:#000000" cx="943" cy="263" r="5" />
<circle style="fill:#a2d48c;stroke:#000000" cx="41" cy="368" r="5" />
<circle style="fill:#a2d48c;stroke:#000000" cx="957" cy="392" r="5" />
<circle style="fill:#a2d48c;stroke:#000000" cx="183" cy="298" r="5" />
<circle style="fill:#a2d48c;stroke:#000000" cx="434" cy="226" r="5" />
<circle style="fill:#c8a9a0;stroke:#000000" cx="137" cy="220" r="5" />
<circle style="fill:#a2d48c;stroke:#000000" cx="337" cy="148" r="5" />
<circle style="fill:#a2d48c;stroke:#000000" cx="95" cy="355" r="5" />
<circle style="fill:#a2d48c;stroke:#000000" cx="586" cy="280" r="5" />
<circle style="fill:none;stroke:#000000" cx="319" cy="345" r="5" />
<circle style="fill:#808080;stroke:#000000" cx="191" cy="275" r="5" />
<circle style="fill:none;stroke:#000000" cx="554" cy="372" r="5" />
<circle style="fill:#808080;stroke:#000000" cx="254" cy="321" r="5" />
<circle style="fill:none;stroke:#000000" cx="707" cy="275" r="5" />
<circle style="fill:none;stroke:#000000" cx="428" cy="315" r="5" />
<circle style="fill:#c8a9a0;stroke:#000000" cx="86" cy="348" r="5" />
<circle style="fill:#c8a9a0;stroke:#000000" cx="746" cy="350" r="5" />
<circle style="fill:#c8a9a0;stroke:#000000" cx="34" cy="398" r="5" />
<circle style="fill:none;stroke:#000000" cx="244" cy="354" r="5" />
<circle style="fill:none;stroke:#000000" cx="845" cy="301" r="5" />
<circle style="fill:#c8a9a0;stroke:#000000" cx="483" cy="348" r="5" />
<circle style="fill:none;stroke:#000000" cx="703" cy="366" r="5" />
<circle style="fill:#a2d48c;stroke:#000000" cx="64" cy="385" r="5" />
<circle style="fill:#a2d48c;stroke:#000000" cx="2" cy="381" r="5" />
<circle style="fill:#c8a9a0;stroke:#000000" cx="491" cy="293" r="5" />
<circle style="fill:#c8a9a0;stroke:#000000" cx="197" cy="311" r="5" />
<circle style="fill:#c8a9a0;stroke:#000000" cx="437" cy="252" r="5" />
<circle style="fill:#c8a9a0;stroke:#000000" cx="412" cy="352" r="5" />
<circle style="fill:none;stroke:#000000" cx="106" cy="369" r="5" />
<circle style="fill:none;stroke:#000000" cx="208" cy="403" r="5" />
<circle style="fill:none;stroke:#000000" cx="431" cy="379" r="5" />
<circle style="fill:#808080;stroke:#000000" cx="904" cy="423" r="5" />
<circle style="fill:#808080;stroke:#000000" cx="437" cy="297" r="5" />
<circle style="fill:#a2d48c;stroke:#000000" cx="863" cy="458" r="5" />
<circle style="fill:#808080;stroke:#000000" cx="511" cy="287" r="5" />
<circle style="fill:none;stroke:#000000" cx="921" cy="312" r="5" />
<circle style="fill:#a2d48c;stroke:#000000" cx="798" cy="302" r="5" />
<circle style="fill:#a2d48c;stroke:#000000" cx="256" cy="379" r="5" />
<circle style="fill:#a2d48c;stroke:#000000" cx="182" cy="369" r="5" />
<circle style="fill:#c8a9a0;stroke:#000000" cx="189" cy="211" r="5" />
<circle style="fill:#808080;stroke:#000000" cx="710" cy="367" r="5" />
<circle style="fill:none;stroke:#000000" cx="52" cy="376" r="5" />
<circle style="fill:#c8a9a0;stroke:#000000" cx="450" cy="343" r="5" />
<circle style="fill:#808080;stroke:#000000" cx="905" cy="274" r="5" />
<circle style="fill:none;stroke:#000000" cx="75" cy="457" r="5" />
<circle style="fill:none;stroke:#000000" cx="919" cy="461" r="5" />
<circle style="fill:#c8a9a0;stroke:#000000" cx="21" cy="321" r="5" />
<circle style="fill:none;stroke:#000000" cx="673" cy="391" r="5" />
<circle style="fill:#808080;stroke:#000000" cx="893" cy="177" r="5" />
<circle style="fill:none;stroke:#000000" cx="693" cy="405" r="5" />
<circle style="fill:#a2d48c;stroke:#000000" cx="390" cy="373" r="5" />
<circle style="fill:none;stroke:#000000" cx="11" cy="465" r="5" />
<circle style="fill:#a2d48c;stroke:#000000" cx="296" cy="401" r="5" />
<circle style="fill:#a2d48c;stroke:#000000" cx="907" cy="410" r="5" />
<circle style="fill:#a2d48c;stroke:#000000" cx="215" cy="458" r="5" />
<circle style="fill:#a2d48c;stroke:#000000" cx="204" cy="396" r="5" />
<circle style="fill:#c8a9a0;stroke:#000000" cx="723" cy="447" r="5" />
<circle style="fill:#a2d48c;stroke:#000000" cx="320" cy="309" r="5" />
<circle style="fill:#c8a9a0;stroke:#000000" cx="791" cy="294" r="5" />
<circle style="fill:#a2d48c;stroke:#000000" cx="526" cy="328" r="5" />
<circle style="fill:#808080;stroke:#000000" cx="867" cy="342" r="5" />
<circle style="fill:none;stroke:#000000" cx="577" cy="371" r="5" />
<circle style="fill:#c8a9a0;stroke:#000000" cx="942" cy="502" r="5" />
<circle style="fill:#c8a9a0;stroke:#000000" cx="495" cy="285" r="5" />
<circle style="fill:#808080;stroke:#000000" cx="347" cy="423" r="5" />
<circle style="fill:#a2d48c;stroke:#000000" cx="225" cy="343" r="5" />
<circle style="fill:none;stroke:#000000" cx="86" cy="462" r="5" />
<circle style="fill:none;stroke:#000000" cx="673" cy="247" r="5" />
<circle style="fill:#a2d48c;stroke:#000000" cx="849" cy="306" r="5" />
<circle style="fill:none;stroke:#000000" cx="91" cy="495" r="5" />
<circle style="fill:none;stroke:#000000" cx="392" cy="424" r="5" />
<circle style="fill:#c8a9a0;stroke:#000000" cx="462" cy="459" r="5" />
<circle style="fill:#808080;stroke:#000000" cx="395" cy="425" r="5" />
<circle style="fill:#c8a9a0;stroke:#000000" cx="967" cy="519" r="5" />
<circle style="fill:none;stroke:#000000" cx="283" cy="460" r="5" />
<circle style="fill:#808080;stroke:#000000" cx="620" cy="381" r="5" />
<circle style="fill:#a2d48c;stroke:#000000" cx="674" cy="462" r="5" />
<circle style="fill:none;stroke:#000000" cx="422" cy="348" r="5" />
<circle style="fill:none;stroke:#000000" cx="566" cy="503" r="5" />
<circle style="fill:#a2d48c;stroke:#000000" cx="994" cy="464" r="5" />
<circle style="fill:#808080;stroke:#000000" cx="997" cy="330" r="5" />
<circle style="fill:none;stroke:#000000" cx="734" cy="498" r="5" />
<circle style="fill:none;stroke:#000000" cx="84" cy="452" r="5" />
<circle style="fill:#c8a9a0;stroke:#000000" cx="97" cy="471" r="5" />
<circle style="fill:#c8a9a0;stroke:#000000" cx="985" cy="472" r="5" />
<circle style="fill:#c8a9a0;stroke:#000000" cx="238" cy="535" r="5" />
<circle style="fill:#808080;stroke:#000000" cx="326" cy="410" r="5" />
<circle style="fill:#808080;stroke:#000000" cx="620" cy="392" r="5" />
<circle style="fill:none;stroke:#000000" cx="435" cy="472" r="5" />
<circle style="fill:#808080;stroke:#000000" cx="134" cy="447" r="5" />
<circle style="fill:#808080;stroke:#000000" cx="818" cy="367" r="5" />
<circle style="fill:#c8a9a0;stroke:#000000" cx="727" cy="427" r="5" />
<circle style="fill:none;stroke:#000000" cx="976" cy="468" r="5" />
<circle style="fill:#808080;stroke:#000000" cx="8" cy="519" r="5" />
<circle style="fill:#808080;stroke:#000000" cx="113" cy="408" r="5" />
<circle style="fill:#808080;stroke:#000000" cx="291" cy="449" r="5" />
<circle style="fill:#808080;stroke:#000000" cx="1" cy="472" r="5" />
<circle style="fill:#a2d48c;stroke:#000000" cx="531" cy="355" r="5" />
<circle style="fill:#808080;stroke:#000000" cx="603" cy="458" r="5" />
<circle style="fill:none;stroke:#000000" cx="597" cy="504" r="5" />
<circle style="fill:#808080;stroke:#000000" cx="55" cy="536" r="5" />
<circle style="fill:none;stroke:#000000" cx="297" cy="447" r="5" />
<circle style="fill:#a2d48c;stroke:#000000" cx="10" cy="554" r="5" />
<circle style="fill:#a2d48c;stroke:#000000" cx="644" cy="605" r="5" />
<circle style="fill:#808080;stroke:#000000" cx="567" cy="438" r="5" />
<circle style="fill:#c8a9a0;stroke:#000000" cx="789" cy="475" r="5" />
<circle style="fill:#a2d48c;stroke:#000000" cx="829" cy="354" r="5" />
<circle style="fill:#c8a9a0;stroke:#000000" cx="849" cy="608" r="5" />
<circle style="fill:none;stroke:#000000" cx="658" cy="456" r="5" />
<circle style="fill:none;stroke:#000000" cx="436" cy="405" r="5" />
<circle style="fill:none;stroke:#000000" cx="532" cy="538" r="5" />
<circle style="fill:#808080;stroke:#000000" cx="306" cy="574" r="5" />
<circle style="fill:#808080;stroke:#000000" cx="289" cy="431" r="5" />
<circle style="fill:none;stroke:#000000" cx="488" cy="469" r="5" />
<circle style="fill:#a2d48c;stroke:#000000" cx="214" cy="506" r="5" />
<circle style="fill:#808080;stroke:#000000" cx="353" cy="385" r="5" />
<circle style="fill:none;stroke:#000000" cx="270" cy="570" r="5" />
<circle style="fill:#a2d48c;stroke:#000000" cx="641" cy="499" r="5" />
<circle style="fill:#808080;stroke:#000000" cx="159" cy="598" r="5" />
<circle style="fill:#a2d48c;stroke:#000000" cx="565" cy="502" r="5" />
<circle style="fill:#a2d48c;stroke:#000000" cx="349" cy="468" r="5" />
<circle style="fill:#808080;stroke:#000000" cx="80" cy="473" r="5" />
<circle style="fill:#808080;stroke:#000000" cx="268" cy="485" r="5" />
<circle style="fill:#808080;stroke:#000000" cx="899" cy="481" r="5" />
<circle style="fill:#a2d48c;stroke:#000000" cx="820" cy="564" r="5" />
<circle style="fill:none;stroke:#000000" cx="593" cy="566" r="5" />
<circle style="fill:none;stroke:#000000" cx="810" cy="630" r="5" />
<circle style="fill:none;stroke:#000000" cx="492" cy="513" r="5" />
<circle style="fill:#808080;stroke:#000000" cx="0" cy="620" r="5" />
<circle style="fill:#808080;stroke:#000000" cx="68" cy="499" r="5" />
<circle style="fill:#c8a9a0;stroke:#000000" cx="926" cy="437" r="5" />
<circle style="fill:#808080;stroke:#000000" cx="785" cy="540" r="5" />
<circle style="fill:#a2d48c;stroke:#000000" cx="384" cy="487" r="5" />
<circle style="fill:#a2d48c;stroke:#000000" cx="582" cy="559" r="5" />
<circle style="fill:none;stroke:#000000" cx="877" cy="590" r="5" />
<circle style="fill:none;stroke:#000000" cx="845" cy="668" r="5" />
<circle style="fill:#a2d48c;stroke:#000000" cx="502" cy="581" r="5" />
<circle style="fill:#808080;stroke:#000000" cx="304" cy="381" r="5" />
<circle style="fill:#c8a9a0;stroke:#000000" cx="432" cy="533" r="5" />
<circle style="fill:none;stroke:#000000" cx="318" cy="586" r="5" />
<circle style="fill:none;stroke:#000000" cx="949" cy="681" r="5" />
<circle style="fill:#808080;stroke:#000000" cx="705" cy="494" r="5" />
<circle style="fill:#a2d48c;stroke:#000000" cx="7" cy="625" r="5" />
<circle style="fill:none;stroke:#000000" cx="473" cy="361" r="5" />
<circle style="fill:none;stroke:#000000" cx="577" cy="582" r="5" />
<circle style="fill:#808080;stroke:#000000" cx="492" cy="520" r="5" />
<circle style="fill:none;stroke:#000000" cx="205" cy="709" r="5" />
<circle style="fill:none;stroke:#000000" cx="164" cy="532" r="5" />
<circle style="fill:#808080;stroke:#000000" cx="227" cy="509" r="5" />
<circle style="fill:#a2d48c;stroke:#000000" cx="952" cy="575" r="5" />
<circle style="fill:#c8a9a0;stroke:#000000" cx="356" cy="605" r="5" />
<circle style="fill:none;stroke:#000000" cx="723" cy="515" r="5" />
<circle style="fill:#808080;stroke:#000000" cx="700" cy="646" r="5" />
<circle style="fill:#a2d48c;stroke:#000000" cx="200" cy="633" r="5" />
<circle style="fill:none;stroke:#000000" cx="955" cy="681" r="5" />
<circle style="fill:#808080;stroke:#000000" cx="281" cy="607" r="5" />
<circle style="fill:#a2d48c;stroke:#000000" cx="585" cy="511" r="5" />
<circle style="fill:#808080;stroke:#000000" cx="895" cy="489" r="5" />
<circle style="fill:none;stroke:#000000" cx="609" cy="544" r="5" />
<circle style="fill:none;stroke:#000000" cx="702" cy="673" r="5" />
<circle style="fill:none;stroke:#000000" cx="657" cy="656" r="5" />
<circle style="fill:#a2d48c;stroke:#000000" cx="422" cy="530" r="5" />
<circle style="fill:#c8a9a0;stroke:#000000" cx="207" cy="538" r="5" />
<circle style="fill:#a2d48c;stroke:#000000" cx="869" cy="670" r="5" />
<circle style="fill:#a2d48c;stroke:#000000" cx="925" cy="732" r="5" />
<circle style="fill:#a2d48c;stroke:#000000" cx="936" cy="429" r="5" />
<circle style="fill:none;stroke:#000000" cx="948" cy="814" r="5" />
<circle style="fill:#c8a9a0;stroke:#000000" cx="763" cy="602" r="5" />
<circle style="fill:#c8a9a0;stroke:#000000" cx="243" cy="619" r="5" />
<circle style="fill:#808080;stroke:#000000" cx="505" cy="503" r="5" />
<circle style="fill:none;stroke:#000000" cx="354" cy="674" r="5" />
<circle style="fill:none;stroke:#000000" cx="515" cy="713" r="5" />
<circle style="fill:#808080;stroke:#000000" cx="891" cy="601" r="5" />
<circle style="fill:#808080;stroke:#000000" cx="423" cy="562" r="5" />
<circle style="fill:none;stroke:#000000" cx="561" cy="722" r="5" />
<circle style="fill:#c8a9a0;stroke:#000000" cx="837" cy="758" r="5" />
<circle style="fill:none;stroke:#000000" cx="777" cy="720" r="5" />
<circle style="fill:none;stroke:#000000" cx="125" cy="797" r="5" />
<circle style="fill:#808080;stroke:#000000" cx="916" cy="785" r="5" />
<circle style="fill:#a2d48c;stroke:#000000" cx="112" cy="422" r="5" />
<circle style="fill:#808080;stroke:#000000" cx="330" cy="600" r="5" />
<circle style="fill:#a2d48c;stroke:#000000" cx="906" cy="520" r="5" />
<circle style="fill:none;stroke:#000000" cx="172" cy="675" r="5" />
<circle style="fill:#a2d48c;stroke:#000000" cx="221" cy="760" r="5" />
<circle style="fill:#a2d48c;stroke:#000000" cx="850" cy="771" r="5" />
<circle style="fill:#808080;stroke:#000000" cx="596" cy="546" r="5" />
<circle style="fill:#c8a9a0;stroke:#000000" cx="47" cy="883" r="5" />
<circle style="fill:#a2d48c;stroke:#000000" cx="466" cy="529" r="5" />
<circle style="fill:none;stroke:#000000" cx="469" cy="546" r="5" />
<circle style="fill:#c8a9a0;stroke:#000000" cx="298" cy="684" r="5" />
<circle style="fill:none;stroke:#000000" cx="815" cy="701" r="5" />
<circle style="fill:none;stroke:#000000" cx="871" cy="787" r="5" />
<circle style="fill:none;stroke:#000000" cx="784" cy="789" r="5" />
<circle style="fill:#c8a9a0;stroke:#000000" cx="470" cy="515" r="5" />
<circle style="fill:#c8a9a0;stroke:#000000" cx="758" cy="551" r="5" />
<circle style="fill:#c8a9a0;stroke:#000000" cx="32" cy="788" r="5" />
<circle style="fill:none;stroke:#000000" cx="635" cy="657" r="5" />
<circle style="fill:#808080;stroke:#000000" cx="616" cy="479" r="5" />
<circle style="fill:none;stroke:#000000" cx="953" cy="944" r="5" />
<circle style="fill:#c8a9a0;stroke:#000000" cx="904" cy="830" r="5" />
<circle style="fill:#a2d48c;stroke:#000000" cx="289" cy="822" r="5" />
<circle style="fill:#c8a9a0;stroke:#000000" cx="62" cy="872" r="5" />
<circle style="fill:#808080;stroke:#000000" cx="938" cy="729" r="5" />
<circle style="fill:#c8a9a0;stroke:#000000" cx="820" cy="828" r="5" />
<circle style="fill:#c8a9a0;stroke:#000000" cx="734" cy="587" r="5" />
<circle style="fill:#a2d48c;stroke:#000000" cx="6" cy="828" r="5" />
<circle style="fill:#c8a9a0;stroke:#000000" cx="449" cy="692" r="5" />
<circle style="fill:none;stroke:#000000" cx="330" cy="819" r="5" />
<circle style="fill:#c8a9a0;stroke:#000000" cx="875" cy="881" r="5" />
<circle style="fill:#a2d48c;stroke:#000000" cx="58" cy="890" r="5" />
<circle style="fill:none;stroke:#000000" cx="46" cy="867" r="5" />
<circle style="fill:#a2d48c;stroke:#000000" cx="370" cy="770" r="5" />
<circle style="fill:#a2d48c;stroke:#000000" cx="850" cy="775" r="5" />
<circle style="fill:#a2d48c;stroke:#000000" cx="380" cy="619" r="5" />
<circle style="fill:none;stroke:#000000" cx="975" cy="935" r="5" />
<circle style="fill:none;stroke:#000000" cx="94" cy="972" r="5" />
<circle style="fill:none;stroke:#000000" cx="764" cy="812" r="5" />
<circle style="fill:#808080;stroke:#000000" cx="932" cy="748" r="5" />
<circle style="fill:none;stroke:#000000" cx="265" cy="946" r="5" />
<circle style="fill:#808080;stroke:#000000" cx="156" cy="830" r="5" />
<circle style="fill:#c8a9a0;stroke:#000000" cx="935" cy="989" r="5" />
<circle style="fill:none;stroke:#000000" cx="980" cy="981" r="5" />
<circle style="fill:#c8a9a0;stroke:#000000" cx="569" cy="763" r="5" />
<circle style="fill:#a2d48c;stroke:#000000" cx="486" cy="747" r="5" />
<circle style="fill:#a2d48c;stroke:#000000" cx="797" cy="821" r="5" />
<circle style="fill:#808080;stroke:#000000" cx="591" cy="541" r="5" />
<circle style="fill:#808080;stroke:#000000" cx="446" cy="587" r="5" />
<circle style="fill:#c8a9a0;stroke:#000000" cx="634" cy="757" r="5" />
<circle style="fill:#808080;stroke:#000000" cx="255" cy="797" r="5" />
<circle style="fill:none;stroke:#000000" cx="393" cy="792" r="5" />
<circle style="fill:none;stroke:#000000" cx="136" cy="843" r="5" />
<circle style="fill:#808080;stroke:#000000" cx="262" cy="640" r="5" />
<circle style="fill:#a2d48c;stroke:#000000" cx="384" cy="846" r="5" />
<circle style="fill:none;stroke:#000000" cx="504" cy="836" r="5" />
<circle style="fill:#a2d48c;stroke:#000000" cx="325" cy="677" r="5" />
<circle style="fill:#808080;stroke:#000000" cx="427" cy="789" r="5" />
<circle style="fill:#a2d48c;stroke:#000000" cx="303" cy="900" r="5" />
<circle style="fill:none;stroke:#000000" cx="307" cy="946" r="5" />
<circle style="fill:#a2d48c;stroke:#000000" cx="651" cy="840" r="5" />
<circle style="fill:#808080;stroke:#000000" cx="343" cy="714" r="5" />
<circle style="fill:#808080;stroke:#000000" cx="42" cy="802" r="5" />
<circle style="fill:#a2d48c;stroke:#000000" cx="924" cy="835" r="5" />
<circle style="fill:#808080;stroke:#000000" cx="388" cy="514" r="5" />
<circle style="fill:#c8a9a0;stroke:#000000" cx="502" cy="454" r="5" />
<circle style="fill:#a2d48c;stroke:#000000" cx="364" cy="857" r="5" />
<circle style="fill:#808080;stroke:#000000" cx="519" cy="722" r="5" />
<circle style="fill:#808080;stroke:#000000" cx="527" cy="688" r="5" />
<circle style="fill:#808080;stroke:#000000" cx="22" cy="865" r="5" />
<circle style="fill:#808080;stroke:#000000" cx="311" cy="721" r="5" />
<circle style="fill:#a2d48c;stroke:#000000" cx="773" cy="791" r="5" />
<circle style="fill:#808080;stroke:#000000" cx="167" cy="852" r="5" />
<circle style="fill:#c8a9a0;stroke:#000000" cx="374" cy="733" r="5" />
<circle style="fill:none;stroke:#000000" cx="520" cy="609" r="5" />
<circle style="fill:none;stroke:#000000" cx="303" cy="853" r="5" />
<circle style="fill:none;stroke:#000000" cx="612" cy="955" r="5" />
<circle style="fill:#808080;stroke:#000000" cx="79" cy="871" r="5" />
<circle style="fill:#808080;stroke:#000000" cx="28" cy="908" r="5" />
<circle style="fill:#a2d48c;stroke:#000000" cx="278" cy="611" r="5" />
<circle style="fill:#808080;stroke:#000000" cx="873" cy="798" r="5" />
<circle style="fill:#a2d48c;stroke:#000000" cx="273" cy="756" r="5" />
<circle style="fill:#808080;stroke:#000000" cx="330" cy="685" r="5" />
<circle style="fill:#c8a9a0;stroke:#000000" cx="271" cy="736" r="5" />
<circle style="fill:#808080;stroke:#000000" cx="180" cy="795" r="5" />
<circle style="fill:none;stroke:#000000" cx="399" cy="915" r="5" />
<circle style="fill:#c8a9a0;stroke:#000000" cx="478" cy="753" r="5" />
<circle style="fill:#a2d48c;stroke:#000000" cx="802" cy="856" r="5" />
<circle style="fill:#a2d48c;stroke:#000000" cx="912" cy="805" r="5" />
<circle style="fill:none;stroke:#000000" cx="440" cy="805" r="5" />
<circle style="fill:none;stroke:#000000" cx="387" cy="896" r="5" />
<circle style="fill:none;stroke:#000000" cx="613" cy="773" r="5" />
<circle style="fill:#c8a9a0;stroke:#000000" cx="456" cy="737" r="5" />
<circle style="fill:none;stroke:#000000" cx="365" cy="888" r="5" />
<circle style="fill:none;stroke:#000000" cx="199" cy="913" r="5" />
<circle style="fill:#a2d48c;stroke:#000000" cx="580" cy="887" r="5" />
<circle style="fill:#a2d48c;stroke:#000000" cx="156" cy="952" r="5" />
<circle style="fill:#c8a9a0;stroke:#000000" cx="163" cy="694" r="5" />
<circle style="fill:#808080;stroke:#000000" cx="147" cy="860" r="5" />
<circle style="fill:none;stroke:#000000" cx="548" cy="927" r="5" />
<circle style="fill:#808080;stroke:#000000" cx="899" cy="839" r="5" />
<circle style="fill:none;stroke:#000000" cx="278" cy="791" r="5" />
<circle style="fill:#c8a9a0;stroke:#000000" cx="984" cy="684" r="5" />
<circle style="fill:#808080;stroke:#000000" cx="253" cy="615" r="5" />
<circle style="fill:#808080;stroke:#000000" cx="659" cy="812" r="5" />
<circle style="fill:#808080;stroke:#000000" cx="985" cy="894" r="5" />
<circle style="fill:#808080;stroke:#000000" cx="877" cy="899" r="5" />
<circle style="fill:none;stroke:#000000" cx="867" cy="945" r="5" />
<circle style="fill:#c8a9a0;stroke:#000000" cx="571" cy="516" r="5" />
<circle style="fill:#808080;stroke:#000000" cx="532" cy="737" r="5" />
<circle style="fill:#808080;stroke:#000000" cx="445" cy="819" r="5" />
<circle style="fill:none;stroke:#000000" cx="517" cy="983" r="5" />
<circle style="fill:#c8a9a0;stroke:#000000" cx="75" cy="906" r="5" />
<circle style="fill:#c8a9a0;stroke:#000000" cx="339" cy="701" r="5" />
<circle style="fill:none;stroke:#000000" cx="567" cy="900" r="5" />
<circle style="fill:#a2d48c;stroke:#000000" cx="357" cy="835" r="5" />
<circle style="fill:#808080;stroke:#000000" cx="2" cy="991" r="5" />
<circle style="fill:#a2d48c;stroke:#000000" cx="427" cy="710" r="5" />
<circle style="fill:#c8a9a0;stroke:#000000" cx="342" cy="896" r="5" />
<circle style="fill:#808080;stroke:#000000" cx="820" cy="988" r="5" />
<circle style="fill:#808080;stroke:#000000" cx="365" cy="843" r="5" />
<circle style="fill:none;stroke:#000000" cx="837" cy="879" r="5" />
<circle style="fill:#808080;stroke:#000000" cx="749" cy="741" r="5" />
<circle style="fill:#808080;stroke:#000000" cx="750" cy="847" r="5" />
<circle style="fill:none;stroke:#000000" cx="313" cy="860" r="5" />
<circle style="fill:#c8a9a0;stroke:#000000" cx="779" cy="988" r="5" />
<circle style="fill:#a2d48c;stroke:#000000" cx="997" cy="820" r="5" />
<circle style="fill:#c8a9a0;stroke:#000000" cx="840" cy="866" r="5" />
<circle style="fill:#c8a9a0;stroke:#000000" cx="667" cy="975" r="5" />
<circle style="fill:#a2d48c;stroke:#000000" cx="607" cy="733" r="5" />
<circle style="fill:#a2d48c;stroke:#000000" cx="346" cy="986" r="5" />
<circle style="fill:#a2d48c;stroke:#000000" cx="72" cy="832" r="5" />
<circle style="fill:#808080;stroke:#000000" cx="568" cy="801" r="5" />
<circle style="fill:#a2d48c;stroke:#000000" cx="263" cy="710" r="5" />
<circle style="fill:#a2d48c;stroke:#000000" cx="136" cy="908" r="5" />
<circle style="fill:#c8a9a0;stroke:#000000" cx="311" cy="775" r="5" />
<circle style="fill:#c8a9a0;stroke:#000000" cx="283" cy="965" r="5" />
<circle style="fill:#808080;stroke:#000000" cx="35" cy="918" r="5" />
<circle style="fill:#a2d48c;stroke:#000000" cx="202" cy="907" r="5" />
<circle style="fill:#808080;stroke:#000000" cx="722" cy="939" r="5" />
<circle style="fill:#c8a9a0;stroke:#000000" cx="724" cy="867" r="5" />
<circle style="fill:#808080;stroke:#000000" cx="935" cy="822" r="5" />
<circle style="fill:none;stroke:#000000" cx="439" cy="924" r="5" />
<circle style="fill:#808080;stroke:#000000" cx="621" cy="805" r="5" />
<circle style="fill:none;stroke:#000000" cx="500" cy="931" r="5" />
<circle style="fill:#808080;stroke:#000000" cx="301" cy="961" r="5" />
<circle style="fill:#808080;stroke:#000000" cx="242" cy="940" r="5" />
<circle style="fill:#c8a9a0;stroke:#000000" cx="692" cy="964" r="5" />
<circle style="fill:#c8a9a0;stroke:#000000" cx="420" cy="801" r="5" />
<circle style="fill:#c8a9a0;stroke:#000000" cx="153" cy="986" r="5" />
<circle style="fill:#808080;stroke:#000000" cx="514" cy="694" r="5" />
<circle style="fill:none;stroke:#000000" cx="151" cy="946" r="5" />
<circle style="fill:#c8a9a0;stroke:#000000" cx="569" cy="853" r="5" />
<circle style="fill:#a2d48c;stroke:#000000" cx="278" cy="775" r="5" />
<circle style="fill:#a2d48c;stroke:#000000" cx="24" cy="980" r="5" />
<circle style="fill:#c8a9a0;stroke:#000000" cx="609" cy="743" r="5" />
<circle style="fill:#808080;stroke:#000000" cx="420" cy="987" r="5" />
<circle style="fill:#c8a9a0;stroke:#000000" cx="312" cy="854" r="5" />
<circle style="fill:#a2d48c;stroke:#000000" cx="308" cy="898" r="5" />
<circle style="fill:#a2d48c;stroke:#000000" cx="97" cy="951" r="5" />
<circle style="fill:#a2d48c;stroke:#000000" cx="689" cy="777" r="5" />
<circle style="fill:#c8a9a0;stroke:#000000" cx="941" cy="923" r="5" />
<circle style="fill:#808080;stroke:#000000" cx="639" cy="988" r="5" />
<circle style="fill:#c8a9a0;stroke:#000000" cx="598" cy="914" r="5" />
<circle style="fill:#808080;stroke:#000000" cx="531" cy="979" r="5" />
<circle style="fill:#a2d48c;stroke:#000000" cx="384" cy="962" r="5" />
<circle style="fill:none;stroke:#000000" cx="393" cy="993" r="5" />
<circle style="fill:#808080;stroke:#000000" cx="325" cy="940" r="5" />
<circle style="fill:#808080;stroke:#000000" cx="29" cy="677" r="5" />
<circle style="fill:#808080;stroke:#000000" cx="410" cy="859" r="5" />
<circle style="fill:#a2d48c;stroke:#000000" cx="361" cy="977" r="5" />
<circle style="fill:#a2d48c;stroke:#000000" cx="373" cy="997" r="5" />
<circle style="fill:#c8a9a0;stroke:#000000" cx="267" cy="969" r="5" />
<circle style="fill:#a2d48c;stroke:#000000" cx="335" cy="816" r="5" />
<circle style="fill:#a2d48c;stroke:#000000" cx="663" cy="833" r="5" />
<circle style="fill:#a2d48c;stroke:#000000" cx="460" cy="987" r="5" />
<circle style="fill:#c8a9a0;stroke:#000000" cx="700" cy="991" r="5" />
<circle style="fill:#c8a9a0;stroke:#000000" cx="480" cy="930" r="5" />
<circle style="fill:#808080;stroke:#000000" cx="289" cy="969" r="5" />
<circle style="fill:#808080;stroke:#000000" cx="602" cy="979" r="5" />
<circle style="fill:#808080;stroke:#000000" cx="491" cy="972" r="5" />
<circle style="fill:#c8a9a0;stroke:#000000" cx="643" cy="994" r="5" />
<circle style="fill:#c8a9a0;stroke:#000000" cx="602" cy="994" r="5" />
</g>
<g inkscape:label="Musicians" inkscape:groupmode="layer" id="musicians">
<circle style="fill:#808080;stroke:#0000ff" cx="800" cy="10" r="10" id="m0_0" />
<circle style="fill:#a2d48c;stroke:#0000ff" cx="250" cy="10" r="10" id="m1_1" />
<circle style="fill:#c8a9a0;stroke:#0000ff" cx="540" cy="10" r="10" id="m2_2" />
<circle style="fill:#808080;stroke:#0000ff" cx="90" cy="10" r="10" id="m3_0" />
<circle style="fill:#808080;stroke:#0000ff" cx="790" cy="10" r="10" id="m4_0" />
<circle style="fill:#808080;stroke:#0000ff" cx="110" cy="10" r="10" id="m5_0" />
<circle style="fill:#c8a9a0;stroke:#0000ff" cx="550" cy="10" r="10" id="m6_2" />
<circle style="fill:#808080;stroke:#0000ff" cx="130" cy="10" r="10" id="m7_0" />
<circle style="fill:#a2d48c;stroke:#0000ff" cx="230" cy="10" r="10" id="m8_1" />
<circle style="fill:#c8a9a0;stroke:#0000ff" cx="10" cy="10" r="10" id="m9_2" />
<circle style="fill:#c8a9a0;stroke:#0000ff" cx="20" cy="10" r="10" id="m10_2" />
<circle style="fill:#808080;stroke:#0000ff" cx="100" cy="10" r="10" id="m11_0" />
<circle style="fill:#808080;stroke:#0000ff" cx="780" cy="10" r="10" id="m12_0" />
<circle style="fill:#808080;stroke:#0000ff" cx="80" cy="10" r="10" id="m13_0" />
<circle style="fill:#a2d48c;stroke:#0000ff" cx="240" cy="10" r="10" id="m14_1" />
</g>
<g inkscape:label="Labels" inkscape:groupmode="layer" id="labels">
<text text-anchor="start" x="0" y="-2" style="font-family:sans-serif;font-size:20;fill:#ff0000;fill-opacity:1;stroke:#ffffff;stroke-opacity:1;stroke-width:3;paint-order:stroke fill">Score = 553436840</text>
<text text-anchor="start" x="0" y="-22" style="font-family:sans-serif;font-size:20;fill:#ff0000;fill-opacity:1;stroke:#ffffff;stroke-opacity:1;stroke-width:3;paint-order:stroke fill">Counters = [44,310,2453,55]</text>
<text text-anchor="end" x="1000" y="40" style="font-family:sans-serif;font-size:20;fill:#ff0000;fill-opacity:1;stroke:#ffffff;stroke-opacity:1;stroke-width:3;paint-order:stroke fill">Score = 553436840</text>
<text text-anchor="end" x="1000" y="60" style="font-family:sans-serif;font-size:20;fill:#ff0000;fill-opacity:1;stroke:#ffffff;stroke-opacity:1;stroke-width:3;paint-order:stroke fill">Counters = [44,310,2453,55]</text>
</g>
</svg>
