<?xml version="1.0" encoding="UTF-8" standalone="no"?>
<svg width="1000" height="1000"
     xmlns="http://www.w3.org/2000/svg"
     xmlns:inkscape="http://www.inkscape.org/namespaces/inkscape"
     xmlns:svg="http://www.w3.org/2000/svg">
<g inkscape:label="Room" inkscape:groupmode="layer" id="room">
<rect style="fill:none;stroke:#000000" x="0" y="0" width="1000" height="1000" />
<rect style="fill:none;stroke:#ff0000" x="529" y="621" width="148" height="169" />
</g>
<g inkscape:label="Attendees" inkscape:groupmode="layer" id="attendees">
<circle style="fill:none;stroke:#000000" cx="540" cy="799" r="5" />
<circle style="fill:#808080;stroke:#000000" cx="700" cy="739" r="5" />
<circle style="fill:none;stroke:#000000" cx="632" cy="811" r="5" />
<circle style="fill:#a2d48c;stroke:#000000" cx="705" cy="632" r="5" />
<circle style="fill:#a2d48c;stroke:#000000" cx="706" cy="650" r="5" />
<circle style="fill:#a2d48c;stroke:#000000" cx="693" cy="663" r="5" />
<circle style="fill:#808080;stroke:#000000" cx="687" cy="597" r="5" />
<circle style="fill:#a2d48c;stroke:#000000" cx="470" cy="685" r="5" />
<circle style="fill:#808080;stroke:#000000" cx="593" cy="851" r="5" />
<circle style="fill:#808080;stroke:#000000" cx="482" cy="736" r="5" />
<circle style="fill:#a2d48c;stroke:#000000" cx="764" cy="638" r="5" />
<circle style="fill:none;stroke:#000000" cx="402" cy="743" r="5" />
<circle style="fill:none;stroke:#000000" cx="456" cy="738" r="5" />
<circle style="fill:#808080;stroke:#000000" cx="789" cy="535" r="5" />
<circle style="fill:#a2d48c;stroke:#000000" cx="774" cy="574" r="5" />
<circle style="fill:#808080;stroke:#000000" cx="726" cy="482" r="5" />
<circle style="fill:#a2d48c;stroke:#000000" cx="457" cy="856" r="5" />
<circle style="fill:#808080;stroke:#000000" cx="605" cy="491" r="5" />
<circle style="fill:none;stroke:#000000" cx="353" cy="610" r="5" />
<circle style="fill:#a2d48c;stroke:#000000" cx="735" cy="871" r="5" />
<circle style="fill:#808080;stroke:#000000" cx="829" cy="589" r="5" />
<circle style="fill:#a2d48c;stroke:#000000" cx="538" cy="426" r="5" />
<circle style="fill:none;stroke:#000000" cx="843" cy="497" r="5" />
<circle style="fill:#a2d48c;stroke:#000000" cx="367" cy="667" r="5" />
<circle style="fill:none;stroke:#000000" cx="783" cy="417" r="5" />
<circle style="fill:#808080;stroke:#000000" cx="323" cy="592" r="5" />
<circle style="fill:none;stroke:#000000" cx="412" cy="910" r="5" />
<circle style="fill:#808080;stroke:#000000" cx="840" cy="658" r="5" />
<circle style="fill:#808080;stroke:#000000" cx="812" cy="957" r="5" />
<circle style="fill:#808080;stroke:#000000" cx="410" cy="475" r="5" />
<circle style="fill:none;stroke:#000000" cx="548" cy="380" r="5" />
<circle style="fill:#808080;stroke:#000000" cx="369" cy="441" r="5" />
<circle style="fill:#808080;stroke:#000000" cx="366" cy="728" r="5" />
<circle style="fill:#a2d48c;stroke:#000000" cx="311" cy="804" r="5" />
<circle style="fill:#808080;stroke:#000000" cx="337" cy="468" r="5" />
<circle style="fill:#a2d48c;stroke:#000000" cx="446" cy="859" r="5" />
<circle style="fill:#808080;stroke:#000000" cx="365" cy="990" r="5" />
<circle style="fill:#808080;stroke:#000000" cx="868" cy="436" r="5" />
<circle style="fill:#a2d48c;stroke:#000000" cx="225" cy="870" r="5" />
<circle style="fill:#a2d48c;stroke:#000000" cx="930" cy="548" r="5" />
<circle style="fill:none;stroke:#000000" cx="235" cy="475" r="5" />
<circle style="fill:#808080;stroke:#000000" cx="907" cy="629" r="5" />
<circle style="fill:#808080;stroke:#000000" cx="503" cy="312" r="5" />
<circle style="fill:#a2d48c;stroke:#000000" cx="216" cy="718" r="5" />
<circle style="fill:none;stroke:#000000" cx="937" cy="503" r="5" />
<circle style="fill:#a2d48c;stroke:#000000" cx="992" cy="789" r="5" />
<circle style="fill:#a2d48c;stroke:#000000" cx="422" cy="557" r="5" />
<circle style="fill:none;stroke:#000000" cx="955" cy="400" r="5" />
<circle style="fill:#a2d48c;stroke:#000000" cx="979" cy="820" r="5" />
<circle style="fill:#808080;stroke:#000000" cx="226" cy="733" r="5" />
<circle style="fill:#a2d48c;stroke:#000000" cx="161" cy="390" r="5" />
<circle style="fill:#808080;stroke:#000000" cx="936" cy="384" r="5" />
<circle style="fill:#a2d48c;stroke:#000000" cx="157" cy="725" r="5" />
<circle style="fill:none;stroke:#000000" cx="823" cy="187" r="5" />
<circle style="fill:#808080;stroke:#000000" cx="964" cy="981" r="5" />
<circle style="fill:#808080;stroke:#000000" cx="255" cy="807" r="5" />
<circle style="fill:#808080;stroke:#000000" cx="648" cy="167" r="5" />
<circle style="fill:none;stroke:#000000" cx="464" cy="118" r="5" />
<circle style="fill:#808080;stroke:#000000" cx="720" cy="255" r="5" />
<circle style="fill:#808080;stroke:#000000" cx="366" cy="114" r="5" />
<circle style="fill:#808080;stroke:#000000" cx="663" cy="171" r="5" />
<circle style="fill:#a2d48c;stroke:#000000" cx="24" cy="855" r="5" />
<circle style="fill:#808080;stroke:#000000" cx="107" cy="953" r="5" />
<circle style="fill:#a2d48c;stroke:#000000" cx="93" cy="402" r="5" />
<circle style="fill:#808080;stroke:#000000" cx="670" cy="117" r="5" />
<circle style="fill:#a2d48c;stroke:#000000" cx="745" cy="207" r="5" />
<circle style="fill:#a2d48c;stroke:#000000" cx="792" cy="124" r="5" />
<circle style="fill:#a2d48c;stroke:#000000" cx="396" cy="155" r="5" />
<circle style="fill:none;stroke:#000000" cx="47" cy="452" r="5" />
<circle style="fill:#a2d48c;stroke:#000000" cx="401" cy="74" r="5" />
<circle style="fill:#a2d48c;stroke:#000000" cx="997" cy="446" r="5" />
<circle style="fill:#808080;stroke:#000000" cx="922" cy="425" r="5" />
<circle style="fill:none;stroke:#000000" cx="200" cy="997" r="5" />
<circle style="fill:#a2d48c;stroke:#000000" cx="986" cy="390" r="5" />
<circle style="fill:#808080;stroke:#000000" cx="440" cy="107" r="5" />
<circle style="fill:#808080;stroke:#000000" cx="5" cy="782" r="5" />
<circle style="fill:#a2d48c;stroke:#000000" cx="979" cy="344" r="5" />
<circle style="fill:none;stroke:#000000" cx="806" cy="40" r="5" />
<circle style="fill:#a2d48c;stroke:#000000" cx="993" cy="163" r="5" />
<circle style="fill:none;stroke:#000000" cx="860" cy="126" r="5" />
<circle style="fill:#a2d48c;stroke:#000000" cx="110" cy="99" r="5" />
<circle style="fill:#a2d48c;stroke:#000000" cx="59" cy="461" r="5" />
<circle style="fill:none;stroke:#000000" cx="72" cy="223" r="5" />
<circle style="fill:#808080;stroke:#000000" cx="836" cy="145" r="5" />
<circle style="fill:#a2d48c;stroke:#000000" cx="421" cy="301" r="5" />
<circle style="fill:#a2d48c;stroke:#000000" cx="544" cy="35" r="5" />
<circle style="fill:#a2d48c;stroke:#000000" cx="31" cy="612" r="5" />
<circle style="fill:#808080;stroke:#000000" cx="240" cy="111" r="5" />
<circle style="fill:none;stroke:#000000" cx="15" cy="588" r="5" />
<circle style="fill:#808080;stroke:#000000" cx="249" cy="5" r="5" />
<circle style="fill:none;stroke:#000000" cx="934" cy="0" r="5" />
<circle style="fill:#a2d48c;stroke:#000000" cx="255" cy="91" r="5" />
<circle style="fill:#a2d48c;stroke:#000000" cx="924" cy="174" r="5" />
<circle style="fill:#a2d48c;stroke:#000000" cx="23" cy="154" r="5" />
<circle style="fill:#808080;stroke:#000000" cx="70" cy="112" r="5" />
<circle style="fill:#a2d48c;stroke:#000000" cx="57" cy="659" r="5" />
<circle style="fill:none;stroke:#000000" cx="706" cy="15" r="5" />
<circle style="fill:#a2d48c;stroke:#000000" cx="13" cy="437" r="5" />
<circle style="fill:#a2d48c;stroke:#000000" cx="66" cy="302" r="5" />
<circle style="fill:#808080;stroke:#000000" cx="8" cy="235" r="5" />
</g>
<g inkscape:label="Musicians" inkscape:groupmode="layer" id="musicians">
<circle style="fill:#808080;stroke:#0000ff" cx="539" cy="771" r="10" id="m0_0" />
<circle style="fill:#a2d48c;stroke:#0000ff" cx="619" cy="771" r="10" id="m1_1" />
<circle style="fill:#808080;stroke:#0000ff" cx="549" cy="771" r="10" id="m2_0" />
<circle style="fill:#808080;stroke:#0000ff" cx="559" cy="771" r="10" id="m3_0" />
<circle style="fill:#a2d48c;stroke:#0000ff" cx="639" cy="771" r="10" id="m4_1" />
</g>
<g inkscape:label="Labels" inkscape:groupmode="layer" id="labels">
<text text-anchor="start" x="529" y="619" style="font-family:sans-serif;font-size:20;fill:#ff0000;fill-opacity:1;stroke:#ffffff;stroke-opacity:1;stroke-width:3;paint-order:stroke fill">Score = 38967750</text>
<text text-anchor="start" x="529" y="599" style="font-family:sans-serif;font-size:20;fill:#ff0000;fill-opacity:1;stroke:#ffffff;stroke-opacity:1;stroke-width:3;paint-order:stroke fill">Counters = [0,0,0,0]</text>
<text text-anchor="end" x="677" y="810" style="font-family:sans-serif;font-size:20;fill:#ff0000;fill-opacity:1;stroke:#ffffff;stroke-opacity:1;stroke-width:3;paint-order:stroke fill">Score = 38967750</text>
<text text-anchor="end" x="677" y="830" style="font-family:sans-serif;font-size:20;fill:#ff0000;fill-opacity:1;stroke:#ffffff;stroke-opacity:1;stroke-width:3;paint-order:stroke fill">Counters = [0,0,0,0]</text>
</g>
</svg>
