<?xml version="1.0" encoding="UTF-8" standalone="no"?>
<svg width="8531" height="3600"
     xmlns="http://www.w3.org/2000/svg"
     xmlns:inkscape="http://www.inkscape.org/namespaces/inkscape"
     xmlns:svg="http://www.w3.org/2000/svg">
<g inkscape:label="Room" inkscape:groupmode="layer" id="room">
<rect style="fill:none;stroke:#000000" x="0" y="0" width="8531" height="3600" />
<rect style="fill:none;stroke:#ff0000" x="0" y="0" width="216" height="1126" />
</g>
<g inkscape:label="Attendees" inkscape:groupmode="layer" id="attendees">
<circle style="fill:none;stroke:#000000" cx="322" cy="322" r="5" />
<circle style="fill:none;stroke:#000000" cx="392" cy="6" r="5" />
<circle style="fill:none;stroke:#000000" cx="392" cy="822" r="5" />
<circle style="fill:none;stroke:#000000" cx="86" cy="1375" r="5" />
<circle style="fill:none;stroke:#000000" cx="250" cy="1546" r="5" />
<circle style="fill:none;stroke:#000000" cx="696" cy="522" r="5" />
<circle style="fill:none;stroke:#000000" cx="671" cy="1676" r="5" />
<circle style="fill:none;stroke:#000000" cx="803" cy="731" r="5" />
<circle style="fill:none;stroke:#000000" cx="893" cy="480" r="5" />
<circle style="fill:none;stroke:#000000" cx="355" cy="1942" r="5" />
<circle style="fill:none;stroke:#000000" cx="950" cy="860" r="5" />
<circle style="fill:none;stroke:#000000" cx="1008" cy="1724" r="5" />
<circle style="fill:none;stroke:#000000" cx="397" cy="2009" r="5" />
<circle style="fill:none;stroke:#000000" cx="523" cy="2166" r="5" />
<circle style="fill:none;stroke:#000000" cx="1057" cy="310" r="5" />
<circle style="fill:none;stroke:#000000" cx="864" cy="2141" r="5" />
<circle style="fill:none;stroke:#000000" cx="792" cy="1983" r="5" />
<circle style="fill:none;stroke:#000000" cx="158" cy="2245" r="5" />
<circle style="fill:none;stroke:#000000" cx="137" cy="2239" r="5" />
<circle style="fill:none;stroke:#000000" cx="1176" cy="1414" r="5" />
<circle style="fill:none;stroke:#000000" cx="540" cy="2378" r="5" />
<circle style="fill:none;stroke:#000000" cx="992" cy="2578" r="5" />
<circle style="fill:none;stroke:#000000" cx="1569" cy="766" r="5" />
<circle style="fill:none;stroke:#000000" cx="1487" cy="2032" r="5" />
<circle style="fill:none;stroke:#000000" cx="1705" cy="1766" r="5" />
<circle style="fill:none;stroke:#000000" cx="266" cy="2647" r="5" />
<circle style="fill:none;stroke:#000000" cx="642" cy="2973" r="5" />
<circle style="fill:none;stroke:#000000" cx="15" cy="3081" r="5" />
<circle style="fill:none;stroke:#000000" cx="1680" cy="707" r="5" />
<circle style="fill:none;stroke:#000000" cx="1992" cy="1734" r="5" />
<circle style="fill:none;stroke:#000000" cx="2095" cy="1763" r="5" />
<circle style="fill:none;stroke:#000000" cx="1203" cy="2713" r="5" />
<circle style="fill:none;stroke:#000000" cx="1431" cy="2685" r="5" />
<circle style="fill:none;stroke:#000000" cx="1884" cy="145" r="5" />
<circle style="fill:none;stroke:#000000" cx="253" cy="3050" r="5" />
<circle style="fill:none;stroke:#000000" cx="1439" cy="2779" r="5" />
<circle style="fill:none;stroke:#000000" cx="1346" cy="2649" r="5" />
<circle style="fill:none;stroke:#000000" cx="2002" cy="2518" r="5" />
<circle style="fill:none;stroke:#000000" cx="829" cy="3473" r="5" />
<circle style="fill:none;stroke:#000000" cx="196" cy="3281" r="5" />
<circle style="fill:none;stroke:#000000" cx="1853" cy="2196" r="5" />
<circle style="fill:none;stroke:#000000" cx="1061" cy="3103" r="5" />
<circle style="fill:none;stroke:#000000" cx="1990" cy="1844" r="5" />
<circle style="fill:none;stroke:#000000" cx="1810" cy="2963" r="5" />
<circle style="fill:none;stroke:#000000" cx="1811" cy="2916" r="5" />
<circle style="fill:none;stroke:#000000" cx="2262" cy="1447" r="5" />
<circle style="fill:none;stroke:#000000" cx="2344" cy="2658" r="5" />
<circle style="fill:none;stroke:#000000" cx="1896" cy="561" r="5" />
<circle style="fill:none;stroke:#000000" cx="1876" cy="3075" r="5" />
<circle style="fill:none;stroke:#000000" cx="2622" cy="1128" r="5" />
<circle style="fill:none;stroke:#000000" cx="2228" cy="254" r="5" />
<circle style="fill:none;stroke:#000000" cx="2777" cy="2050" r="5" />
<circle style="fill:none;stroke:#000000" cx="3007" cy="2280" r="5" />
<circle style="fill:none;stroke:#000000" cx="2499" cy="1049" r="5" />
<circle style="fill:none;stroke:#000000" cx="3017" cy="1739" r="5" />
<circle style="fill:none;stroke:#000000" cx="3018" cy="1692" r="5" />
<circle style="fill:none;stroke:#000000" cx="2818" cy="1755" r="5" />
<circle style="fill:none;stroke:#000000" cx="2979" cy="2083" r="5" />
<circle style="fill:none;stroke:#000000" cx="2757" cy="2743" r="5" />
<circle style="fill:none;stroke:#000000" cx="2886" cy="62" r="5" />
<circle style="fill:none;stroke:#000000" cx="2974" cy="2313" r="5" />
<circle style="fill:none;stroke:#000000" cx="2555" cy="3012" r="5" />
<circle style="fill:none;stroke:#000000" cx="2783" cy="2722" r="5" />
<circle style="fill:none;stroke:#000000" cx="1288" cy="3402" r="5" />
<circle style="fill:none;stroke:#000000" cx="2977" cy="1296" r="5" />
<circle style="fill:none;stroke:#000000" cx="2946" cy="1956" r="5" />
<circle style="fill:none;stroke:#000000" cx="3235" cy="2050" r="5" />
<circle style="fill:none;stroke:#000000" cx="2689" cy="2858" r="5" />
<circle style="fill:none;stroke:#000000" cx="3120" cy="1915" r="5" />
<circle style="fill:none;stroke:#000000" cx="2998" cy="1373" r="5" />
<circle style="fill:none;stroke:#000000" cx="1850" cy="3057" r="5" />
<circle style="fill:none;stroke:#000000" cx="3599" cy="1680" r="5" />
<circle style="fill:none;stroke:#000000" cx="3107" cy="3166" r="5" />
<circle style="fill:none;stroke:#000000" cx="2931" cy="2779" r="5" />
<circle style="fill:none;stroke:#000000" cx="3385" cy="1419" r="5" />
<circle style="fill:none;stroke:#000000" cx="2822" cy="255" r="5" />
<circle style="fill:none;stroke:#000000" cx="3459" cy="2551" r="5" />
<circle style="fill:none;stroke:#000000" cx="2998" cy="3525" r="5" />
<circle style="fill:none;stroke:#000000" cx="3152" cy="1529" r="5" />
<circle style="fill:none;stroke:#000000" cx="3360" cy="2671" r="5" />
<circle style="fill:none;stroke:#000000" cx="3703" cy="2298" r="5" />
<circle style="fill:none;stroke:#000000" cx="2979" cy="777" r="5" />
<circle style="fill:none;stroke:#000000" cx="3162" cy="1910" r="5" />
<circle style="fill:none;stroke:#000000" cx="3328" cy="1310" r="5" />
<circle style="fill:none;stroke:#000000" cx="2740" cy="3289" r="5" />
<circle style="fill:none;stroke:#000000" cx="2736" cy="204" r="5" />
<circle style="fill:none;stroke:#000000" cx="3480" cy="1287" r="5" />
<circle style="fill:none;stroke:#000000" cx="3259" cy="532" r="5" />
<circle style="fill:none;stroke:#000000" cx="4466" cy="2999" r="5" />
<circle style="fill:none;stroke:#000000" cx="3601" cy="47" r="5" />
<circle style="fill:none;stroke:#000000" cx="2504" cy="2058" r="5" />
<circle style="fill:none;stroke:#000000" cx="3395" cy="63" r="5" />
<circle style="fill:none;stroke:#000000" cx="3866" cy="2217" r="5" />
<circle style="fill:none;stroke:#000000" cx="4411" cy="2989" r="5" />
<circle style="fill:none;stroke:#000000" cx="4171" cy="1720" r="5" />
<circle style="fill:none;stroke:#000000" cx="3792" cy="2151" r="5" />
<circle style="fill:none;stroke:#000000" cx="3864" cy="539" r="5" />
<circle style="fill:none;stroke:#000000" cx="3540" cy="1417" r="5" />
<circle style="fill:none;stroke:#000000" cx="4172" cy="1860" r="5" />
<circle style="fill:none;stroke:#000000" cx="4200" cy="2093" r="5" />
<circle style="fill:none;stroke:#000000" cx="4887" cy="3287" r="5" />
<circle style="fill:none;stroke:#000000" cx="3671" cy="658" r="5" />
<circle style="fill:none;stroke:#000000" cx="4488" cy="3083" r="5" />
<circle style="fill:none;stroke:#000000" cx="4234" cy="2586" r="5" />
<circle style="fill:none;stroke:#000000" cx="4075" cy="3016" r="5" />
<circle style="fill:none;stroke:#000000" cx="4291" cy="2244" r="5" />
<circle style="fill:none;stroke:#000000" cx="4493" cy="2517" r="5" />
<circle style="fill:none;stroke:#000000" cx="3770" cy="591" r="5" />
<circle style="fill:none;stroke:#000000" cx="3374" cy="597" r="5" />
<circle style="fill:none;stroke:#000000" cx="4604" cy="3077" r="5" />
<circle style="fill:none;stroke:#000000" cx="3980" cy="754" r="5" />
<circle style="fill:none;stroke:#000000" cx="4753" cy="2131" r="5" />
<circle style="fill:none;stroke:#000000" cx="4833" cy="2447" r="5" />
<circle style="fill:none;stroke:#000000" cx="5214" cy="2232" r="5" />
<circle style="fill:none;stroke:#000000" cx="5929" cy="3487" r="5" />
<circle style="fill:none;stroke:#000000" cx="4940" cy="3555" r="5" />
<circle style="fill:none;stroke:#000000" cx="5122" cy="1475" r="5" />
<circle style="fill:none;stroke:#000000" cx="4538" cy="897" r="5" />
<circle style="fill:none;stroke:#000000" cx="5623" cy="3267" r="5" />
<circle style="fill:none;stroke:#000000" cx="4937" cy="1179" r="5" />
<circle style="fill:none;stroke:#000000" cx="4973" cy="1539" r="5" />
<circle style="fill:none;stroke:#000000" cx="5661" cy="3174" r="5" />
<circle style="fill:none;stroke:#000000" cx="5593" cy="2174" r="5" />
<circle style="fill:none;stroke:#000000" cx="5277" cy="3530" r="5" />
<circle style="fill:none;stroke:#000000" cx="4570" cy="696" r="5" />
<circle style="fill:none;stroke:#000000" cx="5556" cy="2154" r="5" />
<circle style="fill:none;stroke:#000000" cx="5936" cy="3394" r="5" />
<circle style="fill:none;stroke:#000000" cx="5042" cy="313" r="5" />
<circle style="fill:none;stroke:#000000" cx="5501" cy="2370" r="5" />
<circle style="fill:none;stroke:#000000" cx="6556" cy="2997" r="5" />
<circle style="fill:none;stroke:#000000" cx="4966" cy="891" r="5" />
<circle style="fill:none;stroke:#000000" cx="5804" cy="1849" r="5" />
<circle style="fill:none;stroke:#000000" cx="5550" cy="1500" r="5" />
<circle style="fill:none;stroke:#000000" cx="5298" cy="1502" r="5" />
<circle style="fill:none;stroke:#000000" cx="4357" cy="1269" r="5" />
<circle style="fill:none;stroke:#000000" cx="4015" cy="276" r="5" />
<circle style="fill:none;stroke:#000000" cx="5135" cy="1056" r="5" />
<circle style="fill:none;stroke:#000000" cx="5311" cy="842" r="5" />
<circle style="fill:none;stroke:#000000" cx="5617" cy="471" r="5" />
<circle style="fill:none;stroke:#000000" cx="5858" cy="3460" r="5" />
<circle style="fill:none;stroke:#000000" cx="6401" cy="1390" r="5" />
<circle style="fill:none;stroke:#000000" cx="5432" cy="272" r="5" />
<circle style="fill:none;stroke:#000000" cx="7600" cy="2925" r="5" />
<circle style="fill:none;stroke:#000000" cx="5819" cy="141" r="5" />
<circle style="fill:none;stroke:#000000" cx="6583" cy="1396" r="5" />
<circle style="fill:none;stroke:#000000" cx="6266" cy="951" r="5" />
<circle style="fill:none;stroke:#000000" cx="6497" cy="3593" r="5" />
<circle style="fill:none;stroke:#000000" cx="6194" cy="64" r="5" />
<circle style="fill:none;stroke:#000000" cx="7176" cy="2261" r="5" />
<circle style="fill:none;stroke:#000000" cx="7162" cy="3582" r="5" />
<circle style="fill:none;stroke:#000000" cx="7086" cy="3497" r="5" />
<circle style="fill:none;stroke:#000000" cx="7494" cy="2513" r="5" />
<circle style="fill:none;stroke:#000000" cx="6296" cy="1429" r="5" />
<circle style="fill:none;stroke:#000000" cx="6849" cy="2944" r="5" />
<circle style="fill:none;stroke:#000000" cx="6377" cy="426" r="5" />
<circle style="fill:none;stroke:#000000" cx="5714" cy="243" r="5" />
<circle style="fill:none;stroke:#000000" cx="7245" cy="3021" r="5" />
<circle style="fill:none;stroke:#000000" cx="7295" cy="2334" r="5" />
<circle style="fill:none;stroke:#000000" cx="6863" cy="1988" r="5" />
<circle style="fill:none;stroke:#000000" cx="7907" cy="2081" r="5" />
<circle style="fill:none;stroke:#000000" cx="6230" cy="576" r="5" />
<circle style="fill:none;stroke:#000000" cx="6595" cy="2683" r="5" />
<circle style="fill:none;stroke:#000000" cx="6141" cy="582" r="5" />
<circle style="fill:none;stroke:#000000" cx="6196" cy="291" r="5" />
<circle style="fill:none;stroke:#000000" cx="8052" cy="3117" r="5" />
<circle style="fill:none;stroke:#000000" cx="6919" cy="3351" r="5" />
<circle style="fill:none;stroke:#000000" cx="7626" cy="3160" r="5" />
<circle style="fill:none;stroke:#000000" cx="8002" cy="3410" r="5" />
<circle style="fill:none;stroke:#000000" cx="6774" cy="1352" r="5" />
<circle style="fill:none;stroke:#000000" cx="7167" cy="2463" r="5" />
<circle style="fill:none;stroke:#000000" cx="7600" cy="2413" r="5" />
<circle style="fill:none;stroke:#000000" cx="6295" cy="841" r="5" />
<circle style="fill:none;stroke:#000000" cx="8469" cy="3162" r="5" />
<circle style="fill:none;stroke:#000000" cx="5934" cy="809" r="5" />
<circle style="fill:none;stroke:#000000" cx="7317" cy="517" r="5" />
<circle style="fill:none;stroke:#000000" cx="6686" cy="105" r="5" />
<circle style="fill:none;stroke:#000000" cx="7607" cy="2003" r="5" />
<circle style="fill:none;stroke:#000000" cx="6798" cy="1330" r="5" />
<circle style="fill:none;stroke:#000000" cx="8031" cy="357" r="5" />
<circle style="fill:none;stroke:#000000" cx="7451" cy="863" r="5" />
<circle style="fill:none;stroke:#000000" cx="7808" cy="1317" r="5" />
<circle style="fill:none;stroke:#000000" cx="7770" cy="1221" r="5" />
<circle style="fill:none;stroke:#000000" cx="8197" cy="865" r="5" />
<circle style="fill:none;stroke:#000000" cx="7189" cy="243" r="5" />
<circle style="fill:none;stroke:#000000" cx="8299" cy="1372" r="5" />
<circle style="fill:none;stroke:#000000" cx="7884" cy="709" r="5" />
<circle style="fill:none;stroke:#000000" cx="7563" cy="174" r="5" />
<circle style="fill:none;stroke:#000000" cx="7190" cy="1701" r="5" />
<circle style="fill:none;stroke:#000000" cx="7608" cy="2533" r="5" />
<circle style="fill:none;stroke:#000000" cx="7658" cy="907" r="5" />
<circle style="fill:none;stroke:#000000" cx="8400" cy="994" r="5" />
<circle style="fill:none;stroke:#000000" cx="8254" cy="34" r="5" />
<circle style="fill:none;stroke:#000000" cx="8279" cy="545" r="5" />
<circle style="fill:none;stroke:#000000" cx="7728" cy="1003" r="5" />
<circle style="fill:none;stroke:#000000" cx="8222" cy="155" r="5" />
<circle style="fill:none;stroke:#000000" cx="8326" cy="592" r="5" />
<circle style="fill:none;stroke:#000000" cx="8390" cy="1096" r="5" />
<circle style="fill:none;stroke:#000000" cx="8176" cy="1630" r="5" />
<circle style="fill:none;stroke:#000000" cx="8130" cy="488" r="5" />
<circle style="fill:none;stroke:#000000" cx="8335" cy="639" r="5" />
</g>
<g inkscape:label="Musicians" inkscape:groupmode="layer" id="musicians">
<circle style="fill:#808080;stroke:#0000ff" cx="200" cy="280" r="10" id="m0_0" />
<circle style="fill:#a2d48c;stroke:#0000ff" cx="200" cy="420" r="10" id="m1_1" />
<circle style="fill:#c8a9a0;stroke:#0000ff" cx="200" cy="350" r="10" id="m2_2" />
<circle style="fill:#f1bbcb;stroke:#0000ff" cx="200" cy="130" r="10" id="m3_3" />
<circle style="fill:#beffd4;stroke:#0000ff" cx="200" cy="250" r="10" id="m4_4" />
<circle style="fill:#cdf6c5;stroke:#0000ff" cx="200" cy="300" r="10" id="m5_5" />
<circle style="fill:#cdafd4;stroke:#0000ff" cx="170" cy="70" r="10" id="m6_6" />
<circle style="fill:#cdf6c5;stroke:#0000ff" cx="200" cy="340" r="10" id="m7_5" />
<circle style="fill:#c8a9a0;stroke:#0000ff" cx="200" cy="460" r="10" id="m8_2" />
<circle style="fill:#cdafd4;stroke:#0000ff" cx="200" cy="70" r="10" id="m9_6" />
<circle style="fill:#f1bbcb;stroke:#0000ff" cx="200" cy="180" r="10" id="m10_3" />
<circle style="fill:#a2d48c;stroke:#0000ff" cx="200" cy="220" r="10" id="m11_1" />
<circle style="fill:#beffd4;stroke:#0000ff" cx="200" cy="240" r="10" id="m12_4" />
<circle style="fill:#808080;stroke:#0000ff" cx="200" cy="190" r="10" id="m13_0" />
<circle style="fill:#808080;stroke:#0000ff" cx="200" cy="170" r="10" id="m14_0" />
<circle style="fill:#cdf6c5;stroke:#0000ff" cx="200" cy="290" r="10" id="m15_5" />
<circle style="fill:#f1bbcb;stroke:#0000ff" cx="200" cy="500" r="10" id="m16_3" />
<circle style="fill:#beffd4;stroke:#0000ff" cx="200" cy="210" r="10" id="m17_4" />
<circle style="fill:#a2d48c;stroke:#0000ff" cx="200" cy="330" r="10" id="m18_1" />
<circle style="fill:#a2d48c;stroke:#0000ff" cx="200" cy="320" r="10" id="m19_1" />
<circle style="fill:#cdafd4;stroke:#0000ff" cx="200" cy="200" r="10" id="m20_6" />
<circle style="fill:#f1bbcb;stroke:#0000ff" cx="200" cy="440" r="10" id="m21_3" />
<circle style="fill:#a2d48c;stroke:#0000ff" cx="200" cy="430" r="10" id="m22_1" />
<circle style="fill:#beffd4;stroke:#0000ff" cx="200" cy="230" r="10" id="m23_4" />
<circle style="fill:#c8a9a0;stroke:#0000ff" cx="200" cy="360" r="10" id="m24_2" />
<circle style="fill:#c8a9a0;stroke:#0000ff" cx="200" cy="480" r="10" id="m25_2" />
<circle style="fill:#cdafd4;stroke:#0000ff" cx="200" cy="160" r="10" id="m26_6" />
<circle style="fill:#cdf6c5;stroke:#0000ff" cx="200" cy="310" r="10" id="m27_5" />
<circle style="fill:#c8a9a0;stroke:#0000ff" cx="200" cy="410" r="10" id="m28_2" />
<circle style="fill:#beffd4;stroke:#0000ff" cx="200" cy="390" r="10" id="m29_4" />
<circle style="fill:#c8a9a0;stroke:#0000ff" cx="200" cy="370" r="10" id="m30_2" />
<circle style="fill:#cdf6c5;stroke:#0000ff" cx="200" cy="260" r="10" id="m31_5" />
<circle style="fill:#808080;stroke:#0000ff" cx="200" cy="380" r="10" id="m32_0" />
<circle style="fill:#cdafd4;stroke:#0000ff" cx="200" cy="150" r="10" id="m33_6" />
<circle style="fill:#f1bbcb;stroke:#0000ff" cx="200" cy="520" r="10" id="m34_3" />
<circle style="fill:#c8a9a0;stroke:#0000ff" cx="200" cy="400" r="10" id="m35_2" />
<circle style="fill:#cdafd4;stroke:#0000ff" cx="200" cy="110" r="10" id="m36_6" />
<circle style="fill:#cdf6c5;stroke:#0000ff" cx="200" cy="270" r="10" id="m37_5" />
</g>
<g inkscape:label="Labels" inkscape:groupmode="layer" id="labels">
<text text-anchor="start" x="0" y="-2" style="font-family:sans-serif;font-size:20;fill:#ff0000;fill-opacity:1;stroke:#ffffff;stroke-opacity:1;stroke-width:3;paint-order:stroke fill">Score = 16479540</text>
<text text-anchor="start" x="0" y="-22" style="font-family:sans-serif;font-size:20;fill:#ff0000;fill-opacity:1;stroke:#ffffff;stroke-opacity:1;stroke-width:3;paint-order:stroke fill">Counters = [0,0,0,0]</text>
<text text-anchor="end" x="216" y="1146" style="font-family:sans-serif;font-size:20;fill:#ff0000;fill-opacity:1;stroke:#ffffff;stroke-opacity:1;stroke-width:3;paint-order:stroke fill">Score = 16479540</text>
<text text-anchor="end" x="216" y="1166" style="font-family:sans-serif;font-size:20;fill:#ff0000;fill-opacity:1;stroke:#ffffff;stroke-opacity:1;stroke-width:3;paint-order:stroke fill">Counters = [0,0,0,0]</text>
</g>
</svg>
