<?xml version="1.0" encoding="UTF-8" standalone="no"?>
<svg width="6863" height="7049"
     xmlns="http://www.w3.org/2000/svg"
     xmlns:inkscape="http://www.inkscape.org/namespaces/inkscape"
     xmlns:svg="http://www.w3.org/2000/svg">
<g inkscape:label="Room" inkscape:groupmode="layer" id="room">
<rect style="fill:none;stroke:#000000" x="0" y="0" width="6863" height="7049" />
<rect style="fill:none;stroke:#ff0000" x="0" y="0" width="1546" height="2328" />
</g>
<g inkscape:label="Attendees" inkscape:groupmode="layer" id="attendees">
<circle style="fill:none;stroke:#000000" cx="1561" cy="2068" r="5" />
<circle style="fill:none;stroke:#000000" cx="1604" cy="456" r="5" />
<circle style="fill:none;stroke:#000000" cx="1035" cy="2434" r="5" />
<circle style="fill:none;stroke:#000000" cx="1693" cy="2092" r="5" />
<circle style="fill:none;stroke:#000000" cx="705" cy="2452" r="5" />
<circle style="fill:none;stroke:#000000" cx="623" cy="2499" r="5" />
<circle style="fill:none;stroke:#000000" cx="1690" cy="1115" r="5" />
<circle style="fill:none;stroke:#000000" cx="7" cy="2504" r="5" />
<circle style="fill:none;stroke:#000000" cx="1828" cy="849" r="5" />
<circle style="fill:none;stroke:#000000" cx="1250" cy="2657" r="5" />
<circle style="fill:none;stroke:#000000" cx="1918" cy="1669" r="5" />
<circle style="fill:none;stroke:#000000" cx="2003" cy="34" r="5" />
<circle style="fill:none;stroke:#000000" cx="2017" cy="2027" r="5" />
<circle style="fill:none;stroke:#000000" cx="1526" cy="2634" r="5" />
<circle style="fill:none;stroke:#000000" cx="1840" cy="2596" r="5" />
<circle style="fill:none;stroke:#000000" cx="1083" cy="2820" r="5" />
<circle style="fill:none;stroke:#000000" cx="1997" cy="390" r="5" />
<circle style="fill:none;stroke:#000000" cx="1892" cy="1568" r="5" />
<circle style="fill:none;stroke:#000000" cx="2137" cy="2021" r="5" />
<circle style="fill:none;stroke:#000000" cx="217" cy="2698" r="5" />
<circle style="fill:none;stroke:#000000" cx="2239" cy="1259" r="5" />
<circle style="fill:none;stroke:#000000" cx="2182" cy="85" r="5" />
<circle style="fill:none;stroke:#000000" cx="1106" cy="2997" r="5" />
<circle style="fill:none;stroke:#000000" cx="2286" cy="479" r="5" />
<circle style="fill:none;stroke:#000000" cx="2188" cy="1630" r="5" />
<circle style="fill:none;stroke:#000000" cx="1263" cy="2926" r="5" />
<circle style="fill:none;stroke:#000000" cx="2508" cy="1269" r="5" />
<circle style="fill:none;stroke:#000000" cx="1495" cy="3201" r="5" />
<circle style="fill:none;stroke:#000000" cx="2297" cy="1503" r="5" />
<circle style="fill:none;stroke:#000000" cx="2269" cy="1568" r="5" />
<circle style="fill:none;stroke:#000000" cx="1341" cy="3193" r="5" />
<circle style="fill:none;stroke:#000000" cx="2169" cy="2543" r="5" />
<circle style="fill:none;stroke:#000000" cx="1537" cy="3309" r="5" />
<circle style="fill:none;stroke:#000000" cx="1527" cy="3285" r="5" />
<circle style="fill:none;stroke:#000000" cx="2779" cy="1993" r="5" />
<circle style="fill:none;stroke:#000000" cx="2319" cy="2105" r="5" />
<circle style="fill:none;stroke:#000000" cx="622" cy="3499" r="5" />
<circle style="fill:none;stroke:#000000" cx="1566" cy="3469" r="5" />
<circle style="fill:none;stroke:#000000" cx="2794" cy="2326" r="5" />
<circle style="fill:none;stroke:#000000" cx="2324" cy="3214" r="5" />
<circle style="fill:none;stroke:#000000" cx="1930" cy="3504" r="5" />
<circle style="fill:none;stroke:#000000" cx="1219" cy="3760" r="5" />
<circle style="fill:none;stroke:#000000" cx="2433" cy="2686" r="5" />
<circle style="fill:none;stroke:#000000" cx="2657" cy="937" r="5" />
<circle style="fill:none;stroke:#000000" cx="2407" cy="1521" r="5" />
<circle style="fill:none;stroke:#000000" cx="2764" cy="278" r="5" />
<circle style="fill:none;stroke:#000000" cx="2714" cy="2407" r="5" />
<circle style="fill:none;stroke:#000000" cx="1934" cy="3557" r="5" />
<circle style="fill:none;stroke:#000000" cx="2378" cy="2864" r="5" />
<circle style="fill:none;stroke:#000000" cx="3085" cy="33" r="5" />
<circle style="fill:none;stroke:#000000" cx="2479" cy="509" r="5" />
<circle style="fill:none;stroke:#000000" cx="788" cy="3066" r="5" />
<circle style="fill:none;stroke:#000000" cx="3077" cy="2346" r="5" />
<circle style="fill:none;stroke:#000000" cx="1194" cy="4030" r="5" />
<circle style="fill:none;stroke:#000000" cx="2159" cy="3239" r="5" />
<circle style="fill:none;stroke:#000000" cx="2851" cy="2059" r="5" />
<circle style="fill:none;stroke:#000000" cx="2864" cy="1831" r="5" />
<circle style="fill:none;stroke:#000000" cx="1481" cy="3265" r="5" />
<circle style="fill:none;stroke:#000000" cx="2781" cy="2029" r="5" />
<circle style="fill:none;stroke:#000000" cx="3346" cy="189" r="5" />
<circle style="fill:none;stroke:#000000" cx="2864" cy="1292" r="5" />
<circle style="fill:none;stroke:#000000" cx="2523" cy="1687" r="5" />
<circle style="fill:none;stroke:#000000" cx="2890" cy="2175" r="5" />
<circle style="fill:none;stroke:#000000" cx="2075" cy="2734" r="5" />
<circle style="fill:none;stroke:#000000" cx="1330" cy="3385" r="5" />
<circle style="fill:none;stroke:#000000" cx="1316" cy="4053" r="5" />
<circle style="fill:none;stroke:#000000" cx="2115" cy="4083" r="5" />
<circle style="fill:none;stroke:#000000" cx="3259" cy="670" r="5" />
<circle style="fill:none;stroke:#000000" cx="3153" cy="1748" r="5" />
<circle style="fill:none;stroke:#000000" cx="2761" cy="1426" r="5" />
<circle style="fill:none;stroke:#000000" cx="3623" cy="1407" r="5" />
<circle style="fill:none;stroke:#000000" cx="2459" cy="3374" r="5" />
<circle style="fill:none;stroke:#000000" cx="3102" cy="1371" r="5" />
<circle style="fill:none;stroke:#000000" cx="3294" cy="755" r="5" />
<circle style="fill:none;stroke:#000000" cx="3233" cy="3500" r="5" />
<circle style="fill:none;stroke:#000000" cx="2972" cy="1700" r="5" />
<circle style="fill:none;stroke:#000000" cx="3571" cy="2904" r="5" />
<circle style="fill:none;stroke:#000000" cx="2362" cy="4088" r="5" />
<circle style="fill:none;stroke:#000000" cx="2885" cy="2056" r="5" />
<circle style="fill:none;stroke:#000000" cx="3251" cy="2651" r="5" />
<circle style="fill:none;stroke:#000000" cx="2263" cy="3669" r="5" />
<circle style="fill:none;stroke:#000000" cx="2665" cy="3904" r="5" />
<circle style="fill:none;stroke:#000000" cx="2684" cy="2544" r="5" />
<circle style="fill:none;stroke:#000000" cx="3021" cy="831" r="5" />
<circle style="fill:none;stroke:#000000" cx="3217" cy="107" r="5" />
<circle style="fill:none;stroke:#000000" cx="2274" cy="4328" r="5" />
<circle style="fill:none;stroke:#000000" cx="3291" cy="755" r="5" />
<circle style="fill:none;stroke:#000000" cx="3811" cy="460" r="5" />
<circle style="fill:none;stroke:#000000" cx="7" cy="4789" r="5" />
<circle style="fill:none;stroke:#000000" cx="4187" cy="2248" r="5" />
<circle style="fill:none;stroke:#000000" cx="1609" cy="4703" r="5" />
<circle style="fill:none;stroke:#000000" cx="3584" cy="3839" r="5" />
<circle style="fill:none;stroke:#000000" cx="3448" cy="137" r="5" />
<circle style="fill:none;stroke:#000000" cx="3757" cy="335" r="5" />
<circle style="fill:none;stroke:#000000" cx="4166" cy="882" r="5" />
<circle style="fill:none;stroke:#000000" cx="4016" cy="2573" r="5" />
<circle style="fill:none;stroke:#000000" cx="3956" cy="847" r="5" />
<circle style="fill:none;stroke:#000000" cx="2913" cy="4211" r="5" />
<circle style="fill:none;stroke:#000000" cx="870" cy="4366" r="5" />
<circle style="fill:none;stroke:#000000" cx="2899" cy="4460" r="5" />
<circle style="fill:none;stroke:#000000" cx="1372" cy="5041" r="5" />
<circle style="fill:none;stroke:#000000" cx="4050" cy="1256" r="5" />
<circle style="fill:none;stroke:#000000" cx="135" cy="4953" r="5" />
<circle style="fill:none;stroke:#000000" cx="2565" cy="4773" r="5" />
<circle style="fill:none;stroke:#000000" cx="2105" cy="5390" r="5" />
<circle style="fill:none;stroke:#000000" cx="2150" cy="5034" r="5" />
<circle style="fill:none;stroke:#000000" cx="2828" cy="4782" r="5" />
<circle style="fill:none;stroke:#000000" cx="3631" cy="436" r="5" />
<circle style="fill:none;stroke:#000000" cx="2811" cy="2987" r="5" />
<circle style="fill:none;stroke:#000000" cx="3968" cy="2509" r="5" />
<circle style="fill:none;stroke:#000000" cx="3411" cy="1457" r="5" />
<circle style="fill:none;stroke:#000000" cx="2887" cy="4289" r="5" />
<circle style="fill:none;stroke:#000000" cx="4089" cy="2972" r="5" />
<circle style="fill:none;stroke:#000000" cx="3250" cy="2076" r="5" />
<circle style="fill:none;stroke:#000000" cx="2934" cy="4329" r="5" />
<circle style="fill:none;stroke:#000000" cx="3771" cy="3150" r="5" />
<circle style="fill:none;stroke:#000000" cx="3589" cy="3751" r="5" />
<circle style="fill:none;stroke:#000000" cx="4174" cy="3518" r="5" />
<circle style="fill:none;stroke:#000000" cx="72" cy="4275" r="5" />
<circle style="fill:none;stroke:#000000" cx="4365" cy="1280" r="5" />
<circle style="fill:none;stroke:#000000" cx="160" cy="5501" r="5" />
<circle style="fill:none;stroke:#000000" cx="3558" cy="2196" r="5" />
<circle style="fill:none;stroke:#000000" cx="3208" cy="3103" r="5" />
<circle style="fill:none;stroke:#000000" cx="1042" cy="5111" r="5" />
<circle style="fill:none;stroke:#000000" cx="3807" cy="1952" r="5" />
<circle style="fill:none;stroke:#000000" cx="1037" cy="5541" r="5" />
<circle style="fill:none;stroke:#000000" cx="887" cy="4627" r="5" />
<circle style="fill:none;stroke:#000000" cx="4292" cy="4107" r="5" />
<circle style="fill:none;stroke:#000000" cx="3999" cy="3016" r="5" />
<circle style="fill:none;stroke:#000000" cx="4372" cy="3022" r="5" />
<circle style="fill:none;stroke:#000000" cx="3110" cy="157" r="5" />
<circle style="fill:none;stroke:#000000" cx="4844" cy="1606" r="5" />
<circle style="fill:none;stroke:#000000" cx="3405" cy="5212" r="5" />
<circle style="fill:none;stroke:#000000" cx="1144" cy="5268" r="5" />
<circle style="fill:none;stroke:#000000" cx="3654" cy="4278" r="5" />
<circle style="fill:none;stroke:#000000" cx="4019" cy="2547" r="5" />
<circle style="fill:none;stroke:#000000" cx="4968" cy="152" r="5" />
<circle style="fill:none;stroke:#000000" cx="4817" cy="3100" r="5" />
<circle style="fill:none;stroke:#000000" cx="1731" cy="5863" r="5" />
<circle style="fill:none;stroke:#000000" cx="3425" cy="3620" r="5" />
<circle style="fill:none;stroke:#000000" cx="3586" cy="2204" r="5" />
<circle style="fill:none;stroke:#000000" cx="4471" cy="2181" r="5" />
<circle style="fill:none;stroke:#000000" cx="4162" cy="3356" r="5" />
<circle style="fill:none;stroke:#000000" cx="2767" cy="5512" r="5" />
<circle style="fill:none;stroke:#000000" cx="1802" cy="4893" r="5" />
<circle style="fill:none;stroke:#000000" cx="5356" cy="4284" r="5" />
<circle style="fill:none;stroke:#000000" cx="750" cy="6255" r="5" />
<circle style="fill:none;stroke:#000000" cx="41" cy="4667" r="5" />
<circle style="fill:none;stroke:#000000" cx="3382" cy="4455" r="5" />
<circle style="fill:none;stroke:#000000" cx="5097" cy="2620" r="5" />
<circle style="fill:none;stroke:#000000" cx="4420" cy="2282" r="5" />
<circle style="fill:none;stroke:#000000" cx="2656" cy="4508" r="5" />
<circle style="fill:none;stroke:#000000" cx="5219" cy="1048" r="5" />
<circle style="fill:none;stroke:#000000" cx="143" cy="4858" r="5" />
<circle style="fill:none;stroke:#000000" cx="3886" cy="5472" r="5" />
<circle style="fill:none;stroke:#000000" cx="3647" cy="4306" r="5" />
<circle style="fill:none;stroke:#000000" cx="3249" cy="2993" r="5" />
<circle style="fill:none;stroke:#000000" cx="3922" cy="901" r="5" />
<circle style="fill:none;stroke:#000000" cx="2788" cy="5139" r="5" />
<circle style="fill:none;stroke:#000000" cx="5490" cy="1238" r="5" />
<circle style="fill:none;stroke:#000000" cx="5315" cy="1833" r="5" />
<circle style="fill:none;stroke:#000000" cx="5539" cy="2038" r="5" />
<circle style="fill:none;stroke:#000000" cx="3314" cy="3915" r="5" />
<circle style="fill:none;stroke:#000000" cx="4388" cy="3921" r="5" />
<circle style="fill:none;stroke:#000000" cx="2185" cy="6265" r="5" />
<circle style="fill:none;stroke:#000000" cx="1441" cy="6080" r="5" />
<circle style="fill:none;stroke:#000000" cx="3320" cy="3614" r="5" />
<circle style="fill:none;stroke:#000000" cx="4397" cy="3676" r="5" />
<circle style="fill:none;stroke:#000000" cx="2005" cy="6561" r="5" />
<circle style="fill:none;stroke:#000000" cx="3344" cy="5189" r="5" />
<circle style="fill:none;stroke:#000000" cx="5521" cy="408" r="5" />
<circle style="fill:none;stroke:#000000" cx="5412" cy="1040" r="5" />
<circle style="fill:none;stroke:#000000" cx="5906" cy="3689" r="5" />
<circle style="fill:none;stroke:#000000" cx="2925" cy="6027" r="5" />
<circle style="fill:none;stroke:#000000" cx="5609" cy="5007" r="5" />
<circle style="fill:none;stroke:#000000" cx="3908" cy="5358" r="5" />
<circle style="fill:none;stroke:#000000" cx="5747" cy="3850" r="5" />
<circle style="fill:none;stroke:#000000" cx="5899" cy="105" r="5" />
<circle style="fill:none;stroke:#000000" cx="5074" cy="3769" r="5" />
<circle style="fill:none;stroke:#000000" cx="127" cy="5804" r="5" />
<circle style="fill:none;stroke:#000000" cx="5502" cy="3442" r="5" />
<circle style="fill:none;stroke:#000000" cx="215" cy="6683" r="5" />
<circle style="fill:none;stroke:#000000" cx="3262" cy="5860" r="5" />
<circle style="fill:none;stroke:#000000" cx="4610" cy="4253" r="5" />
<circle style="fill:none;stroke:#000000" cx="6109" cy="1735" r="5" />
<circle style="fill:none;stroke:#000000" cx="6098" cy="2084" r="5" />
<circle style="fill:none;stroke:#000000" cx="5214" cy="1803" r="5" />
<circle style="fill:none;stroke:#000000" cx="3644" cy="4559" r="5" />
<circle style="fill:none;stroke:#000000" cx="5291" cy="972" r="5" />
<circle style="fill:none;stroke:#000000" cx="6133" cy="2782" r="5" />
<circle style="fill:none;stroke:#000000" cx="5863" cy="5067" r="5" />
<circle style="fill:none;stroke:#000000" cx="3116" cy="6566" r="5" />
<circle style="fill:none;stroke:#000000" cx="3919" cy="6007" r="5" />
<circle style="fill:none;stroke:#000000" cx="3443" cy="4164" r="5" />
<circle style="fill:none;stroke:#000000" cx="3471" cy="6785" r="5" />
<circle style="fill:none;stroke:#000000" cx="5422" cy="5027" r="5" />
<circle style="fill:none;stroke:#000000" cx="3157" cy="5746" r="5" />
<circle style="fill:none;stroke:#000000" cx="1330" cy="6164" r="5" />
<circle style="fill:none;stroke:#000000" cx="3545" cy="2553" r="5" />
<circle style="fill:none;stroke:#000000" cx="6497" cy="3266" r="5" />
<circle style="fill:none;stroke:#000000" cx="4100" cy="6032" r="5" />
<circle style="fill:none;stroke:#000000" cx="3032" cy="5595" r="5" />
<circle style="fill:none;stroke:#000000" cx="4375" cy="5798" r="5" />
<circle style="fill:none;stroke:#000000" cx="4856" cy="5594" r="5" />
<circle style="fill:none;stroke:#000000" cx="106" cy="4270" r="5" />
<circle style="fill:none;stroke:#000000" cx="5894" cy="2632" r="5" />
<circle style="fill:none;stroke:#000000" cx="5899" cy="1801" r="5" />
<circle style="fill:none;stroke:#000000" cx="5494" cy="2218" r="5" />
<circle style="fill:none;stroke:#000000" cx="4529" cy="5982" r="5" />
<circle style="fill:none;stroke:#000000" cx="6543" cy="3621" r="5" />
<circle style="fill:none;stroke:#000000" cx="5035" cy="5228" r="5" />
<circle style="fill:none;stroke:#000000" cx="4145" cy="6961" r="5" />
<circle style="fill:none;stroke:#000000" cx="4685" cy="656" r="5" />
<circle style="fill:none;stroke:#000000" cx="6738" cy="4547" r="5" />
<circle style="fill:none;stroke:#000000" cx="6351" cy="787" r="5" />
<circle style="fill:none;stroke:#000000" cx="1933" cy="6384" r="5" />
<circle style="fill:none;stroke:#000000" cx="4758" cy="5643" r="5" />
<circle style="fill:none;stroke:#000000" cx="3957" cy="5451" r="5" />
<circle style="fill:none;stroke:#000000" cx="4987" cy="5155" r="5" />
<circle style="fill:none;stroke:#000000" cx="2555" cy="6064" r="5" />
<circle style="fill:none;stroke:#000000" cx="4048" cy="6487" r="5" />
<circle style="fill:none;stroke:#000000" cx="4865" cy="5354" r="5" />
<circle style="fill:none;stroke:#000000" cx="5930" cy="3167" r="5" />
<circle style="fill:none;stroke:#000000" cx="4537" cy="4059" r="5" />
<circle style="fill:none;stroke:#000000" cx="5586" cy="278" r="5" />
<circle style="fill:none;stroke:#000000" cx="4412" cy="6769" r="5" />
<circle style="fill:none;stroke:#000000" cx="5342" cy="959" r="5" />
<circle style="fill:none;stroke:#000000" cx="6772" cy="4215" r="5" />
<circle style="fill:none;stroke:#000000" cx="6374" cy="4253" r="5" />
<circle style="fill:none;stroke:#000000" cx="6139" cy="1876" r="5" />
<circle style="fill:none;stroke:#000000" cx="6841" cy="2713" r="5" />
<circle style="fill:none;stroke:#000000" cx="6269" cy="447" r="5" />
<circle style="fill:none;stroke:#000000" cx="3916" cy="6841" r="5" />
<circle style="fill:none;stroke:#000000" cx="5327" cy="1501" r="5" />
<circle style="fill:none;stroke:#000000" cx="1017" cy="5903" r="5" />
<circle style="fill:none;stroke:#000000" cx="4131" cy="6127" r="5" />
<circle style="fill:none;stroke:#000000" cx="5893" cy="1944" r="5" />
<circle style="fill:none;stroke:#000000" cx="7" cy="6697" r="5" />
<circle style="fill:none;stroke:#000000" cx="5815" cy="3140" r="5" />
<circle style="fill:none;stroke:#000000" cx="6157" cy="5400" r="5" />
<circle style="fill:none;stroke:#000000" cx="2334" cy="4490" r="5" />
<circle style="fill:none;stroke:#000000" cx="6303" cy="2792" r="5" />
<circle style="fill:none;stroke:#000000" cx="6194" cy="1208" r="5" />
<circle style="fill:none;stroke:#000000" cx="5904" cy="5299" r="5" />
<circle style="fill:none;stroke:#000000" cx="1172" cy="6695" r="5" />
<circle style="fill:none;stroke:#000000" cx="3281" cy="6344" r="5" />
<circle style="fill:none;stroke:#000000" cx="6252" cy="5245" r="5" />
<circle style="fill:none;stroke:#000000" cx="5718" cy="114" r="5" />
<circle style="fill:none;stroke:#000000" cx="6787" cy="6290" r="5" />
<circle style="fill:none;stroke:#000000" cx="6147" cy="446" r="5" />
<circle style="fill:none;stroke:#000000" cx="66" cy="5827" r="5" />
<circle style="fill:none;stroke:#000000" cx="5936" cy="3064" r="5" />
<circle style="fill:none;stroke:#000000" cx="6388" cy="5612" r="5" />
<circle style="fill:none;stroke:#000000" cx="6293" cy="3980" r="5" />
<circle style="fill:none;stroke:#000000" cx="5794" cy="5392" r="5" />
<circle style="fill:none;stroke:#000000" cx="5854" cy="5140" r="5" />
<circle style="fill:none;stroke:#000000" cx="2592" cy="6398" r="5" />
<circle style="fill:none;stroke:#000000" cx="5286" cy="3262" r="5" />
<circle style="fill:none;stroke:#000000" cx="5516" cy="6802" r="5" />
<circle style="fill:none;stroke:#000000" cx="5475" cy="4860" r="5" />
<circle style="fill:none;stroke:#000000" cx="5063" cy="5471" r="5" />
<circle style="fill:none;stroke:#000000" cx="6836" cy="5448" r="5" />
<circle style="fill:none;stroke:#000000" cx="866" cy="6833" r="5" />
<circle style="fill:none;stroke:#000000" cx="6149" cy="3286" r="5" />
<circle style="fill:none;stroke:#000000" cx="5038" cy="1936" r="5" />
<circle style="fill:none;stroke:#000000" cx="4855" cy="6776" r="5" />
<circle style="fill:none;stroke:#000000" cx="6197" cy="1163" r="5" />
<circle style="fill:none;stroke:#000000" cx="6269" cy="5789" r="5" />
<circle style="fill:none;stroke:#000000" cx="4862" cy="4573" r="5" />
<circle style="fill:none;stroke:#000000" cx="2533" cy="5772" r="5" />
<circle style="fill:none;stroke:#000000" cx="6133" cy="4504" r="5" />
<circle style="fill:none;stroke:#000000" cx="6481" cy="6267" r="5" />
<circle style="fill:none;stroke:#000000" cx="5627" cy="3587" r="5" />
<circle style="fill:none;stroke:#000000" cx="6142" cy="2762" r="5" />
<circle style="fill:none;stroke:#000000" cx="5958" cy="3551" r="5" />
<circle style="fill:none;stroke:#000000" cx="5549" cy="232" r="5" />
<circle style="fill:none;stroke:#000000" cx="5854" cy="6556" r="5" />
<circle style="fill:none;stroke:#000000" cx="1125" cy="5020" r="5" />
<circle style="fill:none;stroke:#000000" cx="6677" cy="1215" r="5" />
<circle style="fill:none;stroke:#000000" cx="6583" cy="6754" r="5" />
<circle style="fill:none;stroke:#000000" cx="5651" cy="2606" r="5" />
<circle style="fill:none;stroke:#000000" cx="6801" cy="493" r="5" />
<circle style="fill:none;stroke:#000000" cx="6693" cy="4014" r="5" />
<circle style="fill:none;stroke:#000000" cx="1482" cy="6676" r="5" />
<circle style="fill:none;stroke:#000000" cx="6316" cy="5273" r="5" />
<circle style="fill:none;stroke:#000000" cx="6413" cy="1959" r="5" />
<circle style="fill:none;stroke:#000000" cx="3674" cy="5449" r="5" />
<circle style="fill:none;stroke:#000000" cx="2792" cy="6589" r="5" />
<circle style="fill:none;stroke:#000000" cx="5735" cy="6385" r="5" />
<circle style="fill:none;stroke:#000000" cx="1584" cy="6247" r="5" />
<circle style="fill:none;stroke:#000000" cx="6592" cy="5213" r="5" />
<circle style="fill:none;stroke:#000000" cx="5366" cy="6620" r="5" />
<circle style="fill:none;stroke:#000000" cx="6178" cy="5677" r="5" />
<circle style="fill:none;stroke:#000000" cx="4793" cy="6126" r="5" />
<circle style="fill:none;stroke:#000000" cx="5891" cy="567" r="5" />
<circle style="fill:none;stroke:#000000" cx="5552" cy="3857" r="5" />
<circle style="fill:none;stroke:#000000" cx="5943" cy="6742" r="5" />
<circle style="fill:none;stroke:#000000" cx="5589" cy="6820" r="5" />
<circle style="fill:none;stroke:#000000" cx="6336" cy="6707" r="5" />
<circle style="fill:none;stroke:#000000" cx="6762" cy="1704" r="5" />
</g>
<g inkscape:label="Musicians" inkscape:groupmode="layer" id="musicians">
<circle style="fill:#808080;stroke:#0000ff" cx="1530" cy="2060" r="10" id="m0_0" />
<circle style="fill:#a2d48c;stroke:#0000ff" cx="1530" cy="2110" r="10" id="m1_1" />
<circle style="fill:#a2d48c;stroke:#0000ff" cx="1530" cy="2020" r="10" id="m2_1" />
<circle style="fill:#808080;stroke:#0000ff" cx="1530" cy="2070" r="10" id="m3_0" />
<circle style="fill:#808080;stroke:#0000ff" cx="1530" cy="2050" r="10" id="m4_0" />
<circle style="fill:#a2d48c;stroke:#0000ff" cx="1530" cy="2220" r="10" id="m5_1" />
<circle style="fill:#a2d48c;stroke:#0000ff" cx="1530" cy="2030" r="10" id="m6_1" />
<circle style="fill:#808080;stroke:#0000ff" cx="1530" cy="2080" r="10" id="m7_0" />
<circle style="fill:#a2d48c;stroke:#0000ff" cx="1530" cy="2120" r="10" id="m8_1" />
<circle style="fill:#a2d48c;stroke:#0000ff" cx="1530" cy="2180" r="10" id="m9_1" />
<circle style="fill:#808080;stroke:#0000ff" cx="1530" cy="2090" r="10" id="m10_0" />
<circle style="fill:#a2d48c;stroke:#0000ff" cx="640" cy="2310" r="10" id="m11_1" />
<circle style="fill:#a2d48c;stroke:#0000ff" cx="1530" cy="2160" r="10" id="m12_1" />
<circle style="fill:#808080;stroke:#0000ff" cx="1530" cy="2040" r="10" id="m13_0" />
<circle style="fill:#a2d48c;stroke:#0000ff" cx="1530" cy="2140" r="10" id="m14_1" />
<circle style="fill:#a2d48c;stroke:#0000ff" cx="1530" cy="1980" r="10" id="m15_1" />
<circle style="fill:#a2d48c;stroke:#0000ff" cx="1530" cy="2000" r="10" id="m16_1" />
<circle style="fill:#808080;stroke:#0000ff" cx="1530" cy="2100" r="10" id="m17_0" />
<circle style="fill:#a2d48c;stroke:#0000ff" cx="1530" cy="1940" r="10" id="m18_1" />
</g>
<g inkscape:label="Labels" inkscape:groupmode="layer" id="labels">
<text text-anchor="start" x="0" y="-2" style="font-family:sans-serif;font-size:20;fill:#ff0000;fill-opacity:1;stroke:#ffffff;stroke-opacity:1;stroke-width:3;paint-order:stroke fill">Score = 39152340</text>
<text text-anchor="start" x="0" y="-22" style="font-family:sans-serif;font-size:20;fill:#ff0000;fill-opacity:1;stroke:#ffffff;stroke-opacity:1;stroke-width:3;paint-order:stroke fill">Counters = [0,0,0,0]</text>
<text text-anchor="end" x="1546" y="2348" style="font-family:sans-serif;font-size:20;fill:#ff0000;fill-opacity:1;stroke:#ffffff;stroke-opacity:1;stroke-width:3;paint-order:stroke fill">Score = 39152340</text>
<text text-anchor="end" x="1546" y="2368" style="font-family:sans-serif;font-size:20;fill:#ff0000;fill-opacity:1;stroke:#ffffff;stroke-opacity:1;stroke-width:3;paint-order:stroke fill">Counters = [0,0,0,0]</text>
</g>
</svg>
