<?xml version="1.0" encoding="UTF-8" standalone="no"?>
<svg width="7151" height="3876"
     xmlns="http://www.w3.org/2000/svg"
     xmlns:inkscape="http://www.inkscape.org/namespaces/inkscape"
     xmlns:svg="http://www.w3.org/2000/svg">
<g inkscape:label="Room" inkscape:groupmode="layer" id="room">
<rect style="fill:none;stroke:#000000" x="0" y="0" width="7151" height="3876" />
<rect style="fill:none;stroke:#ff0000" x="6740" y="732" width="181" height="1273" />
</g>
<g inkscape:label="Attendees" inkscape:groupmode="layer" id="attendees">
<circle style="fill:none;stroke:#000000" cx="6703" cy="1802" r="5" />
<circle style="fill:none;stroke:#000000" cx="6914" cy="2066" r="5" />
<circle style="fill:none;stroke:#000000" cx="6980" cy="1807" r="5" />
<circle style="fill:none;stroke:#000000" cx="6648" cy="1349" r="5" />
<circle style="fill:none;stroke:#000000" cx="6611" cy="887" r="5" />
<circle style="fill:none;stroke:#000000" cx="6600" cy="1591" r="5" />
<circle style="fill:none;stroke:#000000" cx="6533" cy="1917" r="5" />
<circle style="fill:none;stroke:#000000" cx="6532" cy="1815" r="5" />
<circle style="fill:none;stroke:#000000" cx="7124" cy="1300" r="5" />
<circle style="fill:none;stroke:#000000" cx="6424" cy="2080" r="5" />
<circle style="fill:none;stroke:#000000" cx="6385" cy="2000" r="5" />
<circle style="fill:none;stroke:#000000" cx="6428" cy="1533" r="5" />
<circle style="fill:none;stroke:#000000" cx="6951" cy="343" r="5" />
<circle style="fill:none;stroke:#000000" cx="6433" cy="465" r="5" />
<circle style="fill:none;stroke:#000000" cx="7018" cy="347" r="5" />
<circle style="fill:none;stroke:#000000" cx="6310" cy="638" r="5" />
<circle style="fill:none;stroke:#000000" cx="6308" cy="1714" r="5" />
<circle style="fill:none;stroke:#000000" cx="6717" cy="2511" r="5" />
<circle style="fill:none;stroke:#000000" cx="6406" cy="2386" r="5" />
<circle style="fill:none;stroke:#000000" cx="6651" cy="2471" r="5" />
<circle style="fill:none;stroke:#000000" cx="6410" cy="2422" r="5" />
<circle style="fill:none;stroke:#000000" cx="6328" cy="337" r="5" />
<circle style="fill:none;stroke:#000000" cx="6212" cy="1183" r="5" />
<circle style="fill:none;stroke:#000000" cx="6865" cy="145" r="5" />
<circle style="fill:none;stroke:#000000" cx="6692" cy="2567" r="5" />
<circle style="fill:none;stroke:#000000" cx="7113" cy="2536" r="5" />
<circle style="fill:none;stroke:#000000" cx="6224" cy="1446" r="5" />
<circle style="fill:none;stroke:#000000" cx="6182" cy="550" r="5" />
<circle style="fill:none;stroke:#000000" cx="7027" cy="2567" r="5" />
<circle style="fill:none;stroke:#000000" cx="6254" cy="2396" r="5" />
<circle style="fill:none;stroke:#000000" cx="6179" cy="452" r="5" />
<circle style="fill:none;stroke:#000000" cx="6960" cy="2633" r="5" />
<circle style="fill:none;stroke:#000000" cx="6153" cy="1693" r="5" />
<circle style="fill:none;stroke:#000000" cx="6513" cy="29" r="5" />
<circle style="fill:none;stroke:#000000" cx="6138" cy="2386" r="5" />
<circle style="fill:none;stroke:#000000" cx="6074" cy="1977" r="5" />
<circle style="fill:none;stroke:#000000" cx="6105" cy="1851" r="5" />
<circle style="fill:none;stroke:#000000" cx="6979" cy="2691" r="5" />
<circle style="fill:none;stroke:#000000" cx="6069" cy="577" r="5" />
<circle style="fill:none;stroke:#000000" cx="6151" cy="1466" r="5" />
<circle style="fill:none;stroke:#000000" cx="6017" cy="2032" r="5" />
<circle style="fill:none;stroke:#000000" cx="6032" cy="1996" r="5" />
<circle style="fill:none;stroke:#000000" cx="6380" cy="110" r="5" />
<circle style="fill:none;stroke:#000000" cx="6355" cy="2628" r="5" />
<circle style="fill:none;stroke:#000000" cx="6384" cy="2731" r="5" />
<circle style="fill:none;stroke:#000000" cx="6004" cy="2382" r="5" />
<circle style="fill:none;stroke:#000000" cx="7029" cy="2775" r="5" />
<circle style="fill:none;stroke:#000000" cx="6635" cy="2819" r="5" />
<circle style="fill:none;stroke:#000000" cx="6921" cy="2795" r="5" />
<circle style="fill:none;stroke:#000000" cx="6012" cy="1064" r="5" />
<circle style="fill:none;stroke:#000000" cx="5952" cy="292" r="5" />
<circle style="fill:none;stroke:#000000" cx="5878" cy="2251" r="5" />
<circle style="fill:none;stroke:#000000" cx="5952" cy="1294" r="5" />
<circle style="fill:none;stroke:#000000" cx="5950" cy="268" r="5" />
<circle style="fill:none;stroke:#000000" cx="6020" cy="155" r="5" />
<circle style="fill:none;stroke:#000000" cx="7028" cy="2970" r="5" />
<circle style="fill:none;stroke:#000000" cx="6623" cy="3029" r="5" />
<circle style="fill:none;stroke:#000000" cx="7141" cy="2907" r="5" />
<circle style="fill:none;stroke:#000000" cx="5921" cy="2490" r="5" />
<circle style="fill:none;stroke:#000000" cx="5867" cy="2629" r="5" />
<circle style="fill:none;stroke:#000000" cx="5813" cy="1784" r="5" />
<circle style="fill:none;stroke:#000000" cx="5792" cy="2500" r="5" />
<circle style="fill:none;stroke:#000000" cx="5832" cy="1235" r="5" />
<circle style="fill:none;stroke:#000000" cx="5827" cy="42" r="5" />
<circle style="fill:none;stroke:#000000" cx="5684" cy="2222" r="5" />
<circle style="fill:none;stroke:#000000" cx="5742" cy="1090" r="5" />
<circle style="fill:none;stroke:#000000" cx="7117" cy="3096" r="5" />
<circle style="fill:none;stroke:#000000" cx="6534" cy="3123" r="5" />
<circle style="fill:none;stroke:#000000" cx="5618" cy="1933" r="5" />
<circle style="fill:none;stroke:#000000" cx="5728" cy="1200" r="5" />
<circle style="fill:none;stroke:#000000" cx="6081" cy="2957" r="5" />
<circle style="fill:none;stroke:#000000" cx="6716" cy="3147" r="5" />
<circle style="fill:none;stroke:#000000" cx="6908" cy="3336" r="5" />
<circle style="fill:none;stroke:#000000" cx="6149" cy="3190" r="5" />
<circle style="fill:none;stroke:#000000" cx="6629" cy="3406" r="5" />
<circle style="fill:none;stroke:#000000" cx="6226" cy="3176" r="5" />
<circle style="fill:none;stroke:#000000" cx="5710" cy="2848" r="5" />
<circle style="fill:none;stroke:#000000" cx="5556" cy="1897" r="5" />
<circle style="fill:none;stroke:#000000" cx="5694" cy="1265" r="5" />
<circle style="fill:none;stroke:#000000" cx="5703" cy="1298" r="5" />
<circle style="fill:none;stroke:#000000" cx="5468" cy="2230" r="5" />
<circle style="fill:none;stroke:#000000" cx="5392" cy="387" r="5" />
<circle style="fill:none;stroke:#000000" cx="5463" cy="225" r="5" />
<circle style="fill:none;stroke:#000000" cx="5497" cy="2543" r="5" />
<circle style="fill:none;stroke:#000000" cx="5469" cy="858" r="5" />
<circle style="fill:none;stroke:#000000" cx="5484" cy="1119" r="5" />
<circle style="fill:none;stroke:#000000" cx="6991" cy="3541" r="5" />
<circle style="fill:none;stroke:#000000" cx="5411" cy="2731" r="5" />
<circle style="fill:none;stroke:#000000" cx="5548" cy="1589" r="5" />
<circle style="fill:none;stroke:#000000" cx="6095" cy="3466" r="5" />
<circle style="fill:none;stroke:#000000" cx="5395" cy="1033" r="5" />
<circle style="fill:none;stroke:#000000" cx="6553" cy="3522" r="5" />
<circle style="fill:none;stroke:#000000" cx="5218" cy="292" r="5" />
<circle style="fill:none;stroke:#000000" cx="5328" cy="1152" r="5" />
<circle style="fill:none;stroke:#000000" cx="5576" cy="3058" r="5" />
<circle style="fill:none;stroke:#000000" cx="6537" cy="3728" r="5" />
<circle style="fill:none;stroke:#000000" cx="5399" cy="2929" r="5" />
<circle style="fill:none;stroke:#000000" cx="5337" cy="627" r="5" />
<circle style="fill:none;stroke:#000000" cx="5124" cy="2372" r="5" />
<circle style="fill:none;stroke:#000000" cx="5443" cy="1330" r="5" />
<circle style="fill:none;stroke:#000000" cx="5173" cy="370" r="5" />
<circle style="fill:none;stroke:#000000" cx="5541" cy="3184" r="5" />
<circle style="fill:none;stroke:#000000" cx="5411" cy="3005" r="5" />
<circle style="fill:none;stroke:#000000" cx="6034" cy="3654" r="5" />
<circle style="fill:none;stroke:#000000" cx="5211" cy="2019" r="5" />
<circle style="fill:none;stroke:#000000" cx="5320" cy="3110" r="5" />
<circle style="fill:none;stroke:#000000" cx="5636" cy="3454" r="5" />
<circle style="fill:none;stroke:#000000" cx="5489" cy="3012" r="5" />
<circle style="fill:none;stroke:#000000" cx="6915" cy="3822" r="5" />
<circle style="fill:none;stroke:#000000" cx="5091" cy="2451" r="5" />
<circle style="fill:none;stroke:#000000" cx="6053" cy="3722" r="5" />
<circle style="fill:none;stroke:#000000" cx="5258" cy="1130" r="5" />
<circle style="fill:none;stroke:#000000" cx="4958" cy="36" r="5" />
<circle style="fill:none;stroke:#000000" cx="5238" cy="3045" r="5" />
<circle style="fill:none;stroke:#000000" cx="5827" cy="3747" r="5" />
<circle style="fill:none;stroke:#000000" cx="6014" cy="3868" r="5" />
<circle style="fill:none;stroke:#000000" cx="5250" cy="3259" r="5" />
<circle style="fill:none;stroke:#000000" cx="4940" cy="207" r="5" />
<circle style="fill:none;stroke:#000000" cx="4986" cy="2932" r="5" />
<circle style="fill:none;stroke:#000000" cx="5353" cy="3354" r="5" />
<circle style="fill:none;stroke:#000000" cx="5048" cy="3219" r="5" />
<circle style="fill:none;stroke:#000000" cx="5150" cy="3177" r="5" />
<circle style="fill:none;stroke:#000000" cx="4968" cy="2647" r="5" />
<circle style="fill:none;stroke:#000000" cx="5217" cy="1305" r="5" />
<circle style="fill:none;stroke:#000000" cx="4938" cy="2234" r="5" />
<circle style="fill:none;stroke:#000000" cx="5128" cy="1717" r="5" />
<circle style="fill:none;stroke:#000000" cx="4839" cy="117" r="5" />
<circle style="fill:none;stroke:#000000" cx="4931" cy="1961" r="5" />
<circle style="fill:none;stroke:#000000" cx="5270" cy="3623" r="5" />
<circle style="fill:none;stroke:#000000" cx="4839" cy="2346" r="5" />
<circle style="fill:none;stroke:#000000" cx="4999" cy="1829" r="5" />
<circle style="fill:none;stroke:#000000" cx="4884" cy="878" r="5" />
<circle style="fill:none;stroke:#000000" cx="4969" cy="3026" r="5" />
<circle style="fill:none;stroke:#000000" cx="4669" cy="2316" r="5" />
<circle style="fill:none;stroke:#000000" cx="4802" cy="3516" r="5" />
<circle style="fill:none;stroke:#000000" cx="4602" cy="41" r="5" />
<circle style="fill:none;stroke:#000000" cx="4908" cy="1517" r="5" />
<circle style="fill:none;stroke:#000000" cx="4552" cy="2672" r="5" />
<circle style="fill:none;stroke:#000000" cx="4649" cy="2348" r="5" />
<circle style="fill:none;stroke:#000000" cx="5125" cy="3800" r="5" />
<circle style="fill:none;stroke:#000000" cx="4858" cy="3758" r="5" />
<circle style="fill:none;stroke:#000000" cx="4560" cy="2632" r="5" />
<circle style="fill:none;stroke:#000000" cx="4711" cy="565" r="5" />
<circle style="fill:none;stroke:#000000" cx="4656" cy="556" r="5" />
<circle style="fill:none;stroke:#000000" cx="4671" cy="3468" r="5" />
<circle style="fill:none;stroke:#000000" cx="4526" cy="447" r="5" />
<circle style="fill:none;stroke:#000000" cx="4746" cy="1115" r="5" />
<circle style="fill:none;stroke:#000000" cx="4467" cy="466" r="5" />
<circle style="fill:none;stroke:#000000" cx="4602" cy="2627" r="5" />
<circle style="fill:none;stroke:#000000" cx="4366" cy="232" r="5" />
<circle style="fill:none;stroke:#000000" cx="4478" cy="3158" r="5" />
<circle style="fill:none;stroke:#000000" cx="4495" cy="3663" r="5" />
<circle style="fill:none;stroke:#000000" cx="4575" cy="3824" r="5" />
<circle style="fill:none;stroke:#000000" cx="4404" cy="2299" r="5" />
<circle style="fill:none;stroke:#000000" cx="4256" cy="2381" r="5" />
<circle style="fill:none;stroke:#000000" cx="4317" cy="124" r="5" />
<circle style="fill:none;stroke:#000000" cx="4386" cy="2921" r="5" />
<circle style="fill:none;stroke:#000000" cx="4727" cy="1210" r="5" />
<circle style="fill:none;stroke:#000000" cx="4357" cy="656" r="5" />
<circle style="fill:none;stroke:#000000" cx="4239" cy="2760" r="5" />
<circle style="fill:none;stroke:#000000" cx="4247" cy="3480" r="5" />
<circle style="fill:none;stroke:#000000" cx="4158" cy="2744" r="5" />
<circle style="fill:none;stroke:#000000" cx="4303" cy="1908" r="5" />
<circle style="fill:none;stroke:#000000" cx="4359" cy="3492" r="5" />
<circle style="fill:none;stroke:#000000" cx="4137" cy="3538" r="5" />
<circle style="fill:none;stroke:#000000" cx="3952" cy="137" r="5" />
<circle style="fill:none;stroke:#000000" cx="3998" cy="2291" r="5" />
<circle style="fill:none;stroke:#000000" cx="4092" cy="3202" r="5" />
<circle style="fill:none;stroke:#000000" cx="3862" cy="3371" r="5" />
<circle style="fill:none;stroke:#000000" cx="4489" cy="1231" r="5" />
<circle style="fill:none;stroke:#000000" cx="3819" cy="3293" r="5" />
<circle style="fill:none;stroke:#000000" cx="3829" cy="2923" r="5" />
<circle style="fill:none;stroke:#000000" cx="3869" cy="2337" r="5" />
<circle style="fill:none;stroke:#000000" cx="3810" cy="108" r="5" />
<circle style="fill:none;stroke:#000000" cx="3883" cy="432" r="5" />
<circle style="fill:none;stroke:#000000" cx="3873" cy="2455" r="5" />
<circle style="fill:none;stroke:#000000" cx="3835" cy="3462" r="5" />
<circle style="fill:none;stroke:#000000" cx="3747" cy="3834" r="5" />
<circle style="fill:none;stroke:#000000" cx="3739" cy="3732" r="5" />
<circle style="fill:none;stroke:#000000" cx="3999" cy="3703" r="5" />
<circle style="fill:none;stroke:#000000" cx="3509" cy="3041" r="5" />
<circle style="fill:none;stroke:#000000" cx="4232" cy="1523" r="5" />
<circle style="fill:none;stroke:#000000" cx="3781" cy="3859" r="5" />
<circle style="fill:none;stroke:#000000" cx="4159" cy="1532" r="5" />
<circle style="fill:none;stroke:#000000" cx="4243" cy="1469" r="5" />
<circle style="fill:none;stroke:#000000" cx="3711" cy="2064" r="5" />
<circle style="fill:none;stroke:#000000" cx="3856" cy="827" r="5" />
<circle style="fill:none;stroke:#000000" cx="3673" cy="305" r="5" />
<circle style="fill:none;stroke:#000000" cx="3700" cy="706" r="5" />
<circle style="fill:none;stroke:#000000" cx="3852" cy="855" r="5" />
<circle style="fill:none;stroke:#000000" cx="3576" cy="2803" r="5" />
<circle style="fill:none;stroke:#000000" cx="3971" cy="1801" r="5" />
<circle style="fill:none;stroke:#000000" cx="3604" cy="3385" r="5" />
<circle style="fill:none;stroke:#000000" cx="3225" cy="3348" r="5" />
<circle style="fill:none;stroke:#000000" cx="3329" cy="280" r="5" />
<circle style="fill:none;stroke:#000000" cx="3723" cy="806" r="5" />
<circle style="fill:none;stroke:#000000" cx="3235" cy="3497" r="5" />
<circle style="fill:none;stroke:#000000" cx="3176" cy="3591" r="5" />
<circle style="fill:none;stroke:#000000" cx="3501" cy="3847" r="5" />
<circle style="fill:none;stroke:#000000" cx="3301" cy="396" r="5" />
<circle style="fill:none;stroke:#000000" cx="3512" cy="643" r="5" />
<circle style="fill:none;stroke:#000000" cx="3163" cy="2837" r="5" />
<circle style="fill:none;stroke:#000000" cx="3304" cy="3859" r="5" />
<circle style="fill:none;stroke:#000000" cx="3344" cy="571" r="5" />
<circle style="fill:none;stroke:#000000" cx="3438" cy="599" r="5" />
<circle style="fill:none;stroke:#000000" cx="3174" cy="2507" r="5" />
<circle style="fill:none;stroke:#000000" cx="3838" cy="1735" r="5" />
<circle style="fill:none;stroke:#000000" cx="3312" cy="280" r="5" />
<circle style="fill:none;stroke:#000000" cx="3196" cy="2514" r="5" />
<circle style="fill:none;stroke:#000000" cx="3233" cy="580" r="5" />
<circle style="fill:none;stroke:#000000" cx="2896" cy="3592" r="5" />
<circle style="fill:none;stroke:#000000" cx="3183" cy="370" r="5" />
<circle style="fill:none;stroke:#000000" cx="3098" cy="2974" r="5" />
<circle style="fill:none;stroke:#000000" cx="3200" cy="44" r="5" />
<circle style="fill:none;stroke:#000000" cx="3067" cy="3050" r="5" />
<circle style="fill:none;stroke:#000000" cx="2867" cy="3444" r="5" />
<circle style="fill:none;stroke:#000000" cx="2898" cy="3447" r="5" />
<circle style="fill:none;stroke:#000000" cx="3648" cy="1610" r="5" />
<circle style="fill:none;stroke:#000000" cx="3452" cy="1731" r="5" />
<circle style="fill:none;stroke:#000000" cx="3543" cy="1184" r="5" />
<circle style="fill:none;stroke:#000000" cx="3084" cy="2082" r="5" />
<circle style="fill:none;stroke:#000000" cx="3338" cy="668" r="5" />
<circle style="fill:none;stroke:#000000" cx="2755" cy="3841" r="5" />
<circle style="fill:none;stroke:#000000" cx="2674" cy="3200" r="5" />
<circle style="fill:none;stroke:#000000" cx="2996" cy="2331" r="5" />
<circle style="fill:none;stroke:#000000" cx="2583" cy="3013" r="5" />
<circle style="fill:none;stroke:#000000" cx="2931" cy="155" r="5" />
<circle style="fill:none;stroke:#000000" cx="2935" cy="2931" r="5" />
<circle style="fill:none;stroke:#000000" cx="2789" cy="160" r="5" />
<circle style="fill:none;stroke:#000000" cx="3368" cy="1547" r="5" />
<circle style="fill:none;stroke:#000000" cx="2599" cy="3345" r="5" />
<circle style="fill:none;stroke:#000000" cx="2390" cy="3211" r="5" />
<circle style="fill:none;stroke:#000000" cx="2467" cy="3081" r="5" />
<circle style="fill:none;stroke:#000000" cx="3306" cy="1014" r="5" />
<circle style="fill:none;stroke:#000000" cx="2400" cy="3354" r="5" />
<circle style="fill:none;stroke:#000000" cx="2612" cy="334" r="5" />
<circle style="fill:none;stroke:#000000" cx="3040" cy="1790" r="5" />
<circle style="fill:none;stroke:#000000" cx="2684" cy="2242" r="5" />
<circle style="fill:none;stroke:#000000" cx="2823" cy="2062" r="5" />
<circle style="fill:none;stroke:#000000" cx="2430" cy="18" r="5" />
<circle style="fill:none;stroke:#000000" cx="2587" cy="2564" r="5" />
<circle style="fill:none;stroke:#000000" cx="2482" cy="2573" r="5" />
<circle style="fill:none;stroke:#000000" cx="2524" cy="230" r="5" />
<circle style="fill:none;stroke:#000000" cx="2173" cy="3528" r="5" />
<circle style="fill:none;stroke:#000000" cx="2643" cy="2046" r="5" />
<circle style="fill:none;stroke:#000000" cx="2900" cy="1891" r="5" />
<circle style="fill:none;stroke:#000000" cx="2017" cy="3244" r="5" />
<circle style="fill:none;stroke:#000000" cx="2130" cy="43" r="5" />
<circle style="fill:none;stroke:#000000" cx="2191" cy="3059" r="5" />
<circle style="fill:none;stroke:#000000" cx="1993" cy="3513" r="5" />
<circle style="fill:none;stroke:#000000" cx="2973" cy="1058" r="5" />
<circle style="fill:none;stroke:#000000" cx="1873" cy="3151" r="5" />
<circle style="fill:none;stroke:#000000" cx="2965" cy="1700" r="5" />
<circle style="fill:none;stroke:#000000" cx="2039" cy="3737" r="5" />
<circle style="fill:none;stroke:#000000" cx="2002" cy="3710" r="5" />
<circle style="fill:none;stroke:#000000" cx="2869" cy="1019" r="5" />
<circle style="fill:none;stroke:#000000" cx="2620" cy="2328" r="5" />
<circle style="fill:none;stroke:#000000" cx="2402" cy="508" r="5" />
<circle style="fill:none;stroke:#000000" cx="2424" cy="338" r="5" />
<circle style="fill:none;stroke:#000000" cx="2303" cy="2325" r="5" />
<circle style="fill:none;stroke:#000000" cx="3226" cy="1275" r="5" />
<circle style="fill:none;stroke:#000000" cx="2075" cy="3524" r="5" />
<circle style="fill:none;stroke:#000000" cx="2643" cy="815" r="5" />
<circle style="fill:none;stroke:#000000" cx="2752" cy="1070" r="5" />
<circle style="fill:none;stroke:#000000" cx="2814" cy="1125" r="5" />
<circle style="fill:none;stroke:#000000" cx="2337" cy="2264" r="5" />
<circle style="fill:none;stroke:#000000" cx="2947" cy="1422" r="5" />
<circle style="fill:none;stroke:#000000" cx="2090" cy="2646" r="5" />
<circle style="fill:none;stroke:#000000" cx="1817" cy="3592" r="5" />
<circle style="fill:none;stroke:#000000" cx="2540" cy="2104" r="5" />
<circle style="fill:none;stroke:#000000" cx="2627" cy="1077" r="5" />
<circle style="fill:none;stroke:#000000" cx="2598" cy="2242" r="5" />
<circle style="fill:none;stroke:#000000" cx="1862" cy="2793" r="5" />
<circle style="fill:none;stroke:#000000" cx="2330" cy="2379" r="5" />
<circle style="fill:none;stroke:#000000" cx="2078" cy="127" r="5" />
<circle style="fill:none;stroke:#000000" cx="3007" cy="1547" r="5" />
<circle style="fill:none;stroke:#000000" cx="2715" cy="1230" r="5" />
<circle style="fill:none;stroke:#000000" cx="1510" cy="3820" r="5" />
<circle style="fill:none;stroke:#000000" cx="2815" cy="1354" r="5" />
<circle style="fill:none;stroke:#000000" cx="1586" cy="2922" r="5" />
<circle style="fill:none;stroke:#000000" cx="1466" cy="3782" r="5" />
<circle style="fill:none;stroke:#000000" cx="2441" cy="1976" r="5" />
<circle style="fill:none;stroke:#000000" cx="1716" cy="2533" r="5" />
<circle style="fill:none;stroke:#000000" cx="2362" cy="1960" r="5" />
<circle style="fill:none;stroke:#000000" cx="2961" cy="1210" r="5" />
<circle style="fill:none;stroke:#000000" cx="2481" cy="1014" r="5" />
<circle style="fill:none;stroke:#000000" cx="1611" cy="3792" r="5" />
<circle style="fill:none;stroke:#000000" cx="1745" cy="151" r="5" />
<circle style="fill:none;stroke:#000000" cx="1967" cy="197" r="5" />
<circle style="fill:none;stroke:#000000" cx="2170" cy="2038" r="5" />
<circle style="fill:none;stroke:#000000" cx="1964" cy="2067" r="5" />
<circle style="fill:none;stroke:#000000" cx="1356" cy="2987" r="5" />
<circle style="fill:none;stroke:#000000" cx="2000" cy="690" r="5" />
<circle style="fill:none;stroke:#000000" cx="2384" cy="1752" r="5" />
<circle style="fill:none;stroke:#000000" cx="1594" cy="3328" r="5" />
<circle style="fill:none;stroke:#000000" cx="2002" cy="2584" r="5" />
<circle style="fill:none;stroke:#000000" cx="2779" cy="1374" r="5" />
<circle style="fill:none;stroke:#000000" cx="2280" cy="2002" r="5" />
<circle style="fill:none;stroke:#000000" cx="1804" cy="486" r="5" />
<circle style="fill:none;stroke:#000000" cx="1414" cy="2732" r="5" />
<circle style="fill:none;stroke:#000000" cx="1291" cy="2914" r="5" />
<circle style="fill:none;stroke:#000000" cx="1662" cy="2524" r="5" />
<circle style="fill:none;stroke:#000000" cx="1729" cy="140" r="5" />
<circle style="fill:none;stroke:#000000" cx="2327" cy="983" r="5" />
<circle style="fill:none;stroke:#000000" cx="1213" cy="3251" r="5" />
<circle style="fill:none;stroke:#000000" cx="1670" cy="2290" r="5" />
<circle style="fill:none;stroke:#000000" cx="2236" cy="1602" r="5" />
<circle style="fill:none;stroke:#000000" cx="1878" cy="786" r="5" />
<circle style="fill:none;stroke:#000000" cx="1417" cy="2817" r="5" />
<circle style="fill:none;stroke:#000000" cx="1568" cy="271" r="5" />
<circle style="fill:none;stroke:#000000" cx="2628" cy="1512" r="5" />
<circle style="fill:none;stroke:#000000" cx="1358" cy="3007" r="5" />
<circle style="fill:none;stroke:#000000" cx="1388" cy="2402" r="5" />
<circle style="fill:none;stroke:#000000" cx="1630" cy="2248" r="5" />
<circle style="fill:none;stroke:#000000" cx="2345" cy="1844" r="5" />
<circle style="fill:none;stroke:#000000" cx="1267" cy="3300" r="5" />
<circle style="fill:none;stroke:#000000" cx="925" cy="3069" r="5" />
<circle style="fill:none;stroke:#000000" cx="1121" cy="2965" r="5" />
<circle style="fill:none;stroke:#000000" cx="1414" cy="99" r="5" />
<circle style="fill:none;stroke:#000000" cx="1632" cy="2334" r="5" />
<circle style="fill:none;stroke:#000000" cx="2054" cy="1058" r="5" />
<circle style="fill:none;stroke:#000000" cx="1956" cy="1768" r="5" />
<circle style="fill:none;stroke:#000000" cx="1134" cy="2663" r="5" />
<circle style="fill:none;stroke:#000000" cx="1002" cy="18" r="5" />
<circle style="fill:none;stroke:#000000" cx="1864" cy="1658" r="5" />
<circle style="fill:none;stroke:#000000" cx="589" cy="3583" r="5" />
<circle style="fill:none;stroke:#000000" cx="741" cy="3293" r="5" />
<circle style="fill:none;stroke:#000000" cx="1826" cy="1896" r="5" />
<circle style="fill:none;stroke:#000000" cx="1600" cy="1936" r="5" />
<circle style="fill:none;stroke:#000000" cx="1790" cy="1840" r="5" />
<circle style="fill:none;stroke:#000000" cx="1754" cy="1645" r="5" />
<circle style="fill:none;stroke:#000000" cx="914" cy="3210" r="5" />
<circle style="fill:none;stroke:#000000" cx="1919" cy="920" r="5" />
<circle style="fill:none;stroke:#000000" cx="867" cy="2669" r="5" />
<circle style="fill:none;stroke:#000000" cx="648" cy="3063" r="5" />
<circle style="fill:none;stroke:#000000" cx="609" cy="3745" r="5" />
<circle style="fill:none;stroke:#000000" cx="1858" cy="945" r="5" />
<circle style="fill:none;stroke:#000000" cx="1608" cy="1846" r="5" />
<circle style="fill:none;stroke:#000000" cx="285" cy="3548" r="5" />
<circle style="fill:none;stroke:#000000" cx="1713" cy="1792" r="5" />
<circle style="fill:none;stroke:#000000" cx="611" cy="3160" r="5" />
<circle style="fill:none;stroke:#000000" cx="1743" cy="1472" r="5" />
<circle style="fill:none;stroke:#000000" cx="372" cy="2894" r="5" />
<circle style="fill:none;stroke:#000000" cx="1488" cy="1950" r="5" />
<circle style="fill:none;stroke:#000000" cx="1150" cy="537" r="5" />
<circle style="fill:none;stroke:#000000" cx="1588" cy="1647" r="5" />
<circle style="fill:none;stroke:#000000" cx="1045" cy="514" r="5" />
<circle style="fill:none;stroke:#000000" cx="1404" cy="2022" r="5" />
<circle style="fill:none;stroke:#000000" cx="1686" cy="1223" r="5" />
<circle style="fill:none;stroke:#000000" cx="962" cy="2016" r="5" />
<circle style="fill:none;stroke:#000000" cx="916" cy="2294" r="5" />
<circle style="fill:none;stroke:#000000" cx="1188" cy="2090" r="5" />
<circle style="fill:none;stroke:#000000" cx="1477" cy="1595" r="5" />
<circle style="fill:none;stroke:#000000" cx="714" cy="346" r="5" />
<circle style="fill:none;stroke:#000000" cx="818" cy="3" r="5" />
<circle style="fill:none;stroke:#000000" cx="913" cy="2233" r="5" />
<circle style="fill:none;stroke:#000000" cx="881" cy="685" r="5" />
<circle style="fill:none;stroke:#000000" cx="549" cy="2379" r="5" />
<circle style="fill:none;stroke:#000000" cx="1230" cy="2025" r="5" />
<circle style="fill:none;stroke:#000000" cx="380" cy="2938" r="5" />
<circle style="fill:none;stroke:#000000" cx="57" cy="3154" r="5" />
<circle style="fill:none;stroke:#000000" cx="481" cy="500" r="5" />
<circle style="fill:none;stroke:#000000" cx="153" cy="3180" r="5" />
<circle style="fill:none;stroke:#000000" cx="254" cy="3665" r="5" />
<circle style="fill:none;stroke:#000000" cx="378" cy="86" r="5" />
<circle style="fill:none;stroke:#000000" cx="373" cy="2674" r="5" />
<circle style="fill:none;stroke:#000000" cx="1017" cy="793" r="5" />
<circle style="fill:none;stroke:#000000" cx="840" cy="2079" r="5" />
<circle style="fill:none;stroke:#000000" cx="326" cy="2435" r="5" />
<circle style="fill:none;stroke:#000000" cx="374" cy="2185" r="5" />
<circle style="fill:none;stroke:#000000" cx="937" cy="1741" r="5" />
<circle style="fill:none;stroke:#000000" cx="394" cy="2482" r="5" />
<circle style="fill:none;stroke:#000000" cx="1168" cy="1541" r="5" />
<circle style="fill:none;stroke:#000000" cx="686" cy="2072" r="5" />
<circle style="fill:none;stroke:#000000" cx="1099" cy="1594" r="5" />
<circle style="fill:none;stroke:#000000" cx="785" cy="1957" r="5" />
<circle style="fill:none;stroke:#000000" cx="504" cy="650" r="5" />
<circle style="fill:none;stroke:#000000" cx="101" cy="26" r="5" />
<circle style="fill:none;stroke:#000000" cx="1342" cy="1363" r="5" />
<circle style="fill:none;stroke:#000000" cx="1373" cy="1489" r="5" />
<circle style="fill:none;stroke:#000000" cx="270" cy="24" r="5" />
<circle style="fill:none;stroke:#000000" cx="145" cy="412" r="5" />
<circle style="fill:none;stroke:#000000" cx="1491" cy="1478" r="5" />
<circle style="fill:none;stroke:#000000" cx="132" cy="626" r="5" />
<circle style="fill:none;stroke:#000000" cx="1038" cy="889" r="5" />
<circle style="fill:none;stroke:#000000" cx="436" cy="684" r="5" />
<circle style="fill:none;stroke:#000000" cx="777" cy="2010" r="5" />
<circle style="fill:none;stroke:#000000" cx="987" cy="923" r="5" />
<circle style="fill:none;stroke:#000000" cx="823" cy="1623" r="5" />
<circle style="fill:none;stroke:#000000" cx="689" cy="1691" r="5" />
<circle style="fill:none;stroke:#000000" cx="418" cy="1744" r="5" />
<circle style="fill:none;stroke:#000000" cx="227" cy="497" r="5" />
<circle style="fill:none;stroke:#000000" cx="624" cy="1855" r="5" />
<circle style="fill:none;stroke:#000000" cx="637" cy="1128" r="5" />
<circle style="fill:none;stroke:#000000" cx="456" cy="1203" r="5" />
<circle style="fill:none;stroke:#000000" cx="790" cy="1649" r="5" />
<circle style="fill:none;stroke:#000000" cx="37" cy="1937" r="5" />
<circle style="fill:none;stroke:#000000" cx="804" cy="838" r="5" />
<circle style="fill:none;stroke:#000000" cx="373" cy="1369" r="5" />
<circle style="fill:none;stroke:#000000" cx="641" cy="1454" r="5" />
</g>
<g inkscape:label="Musicians" inkscape:groupmode="layer" id="musicians">
<circle style="fill:#808080;stroke:#0000ff" cx="6840" cy="1992" r="10" id="m0_0" />
<circle style="fill:#a2d48c;stroke:#0000ff" cx="6750" cy="1862" r="10" id="m1_1" />
<circle style="fill:#c8a9a0;stroke:#0000ff" cx="6870" cy="1992" r="10" id="m2_2" />
<circle style="fill:#f1bbcb;stroke:#0000ff" cx="6750" cy="1732" r="10" id="m3_3" />
<circle style="fill:#beffd4;stroke:#0000ff" cx="6910" cy="1782" r="10" id="m4_4" />
<circle style="fill:#cdf6c5;stroke:#0000ff" cx="6750" cy="1782" r="10" id="m5_5" />
<circle style="fill:#cdafd4;stroke:#0000ff" cx="6750" cy="1742" r="10" id="m6_6" />
<circle style="fill:#aba49b;stroke:#0000ff" cx="6900" cy="1992" r="10" id="m7_7" />
<circle style="fill:#feffa9;stroke:#0000ff" cx="6750" cy="1722" r="10" id="m8_8" />
<circle style="fill:#81a8f1;stroke:#0000ff" cx="6880" cy="1992" r="10" id="m9_9" />
<circle style="fill:#97ec83;stroke:#0000ff" cx="6750" cy="1872" r="10" id="m10_10" />
<circle style="fill:#b787db;stroke:#0000ff" cx="6910" cy="1812" r="10" id="m11_11" />
<circle style="fill:#fdb3b5;stroke:#0000ff" cx="6750" cy="1822" r="10" id="m12_12" />
<circle style="fill:#c7b7dc;stroke:#0000ff" cx="6750" cy="1342" r="10" id="m13_13" />
<circle style="fill:#94f7f9;stroke:#0000ff" cx="6910" cy="1792" r="10" id="m14_14" />
<circle style="fill:#e1f8dc;stroke:#0000ff" cx="6750" cy="1832" r="10" id="m15_15" />
<circle style="fill:#fcffd2;stroke:#0000ff" cx="6910" cy="1802" r="10" id="m16_16" />
<circle style="fill:#b8e7a1;stroke:#0000ff" cx="6890" cy="1992" r="10" id="m17_17" />
<circle style="fill:#87d0eb;stroke:#0000ff" cx="6750" cy="1762" r="10" id="m18_18" />
<circle style="fill:#a7fe85;stroke:#0000ff" cx="6750" cy="1802" r="10" id="m19_19" />
<circle style="fill:#bcb7da;stroke:#0000ff" cx="6750" cy="1852" r="10" id="m20_20" />
<circle style="fill:#fdf6a3;stroke:#0000ff" cx="6910" cy="1992" r="10" id="m21_21" />
<circle style="fill:#aeacaa;stroke:#0000ff" cx="6750" cy="1362" r="10" id="m22_22" />
<circle style="fill:#a3d7ea;stroke:#0000ff" cx="6750" cy="1812" r="10" id="m23_23" />
<circle style="fill:#fae6eb;stroke:#0000ff" cx="6750" cy="1922" r="10" id="m24_24" />
<circle style="fill:#85f896;stroke:#0000ff" cx="6910" cy="1842" r="10" id="m25_25" />
<circle style="fill:#d2efc0;stroke:#0000ff" cx="6750" cy="1982" r="10" id="m26_26" />
<circle style="fill:#e7c2af;stroke:#0000ff" cx="6910" cy="1832" r="10" id="m27_27" />
<circle style="fill:#e1c196;stroke:#0000ff" cx="6750" cy="1772" r="10" id="m28_28" />
<circle style="fill:#e782e6;stroke:#0000ff" cx="6750" cy="1752" r="10" id="m29_29" />
<circle style="fill:#dcd5b4;stroke:#0000ff" cx="6750" cy="1792" r="10" id="m30_30" />
<circle style="fill:#a0bd89;stroke:#0000ff" cx="6750" cy="1672" r="10" id="m31_31" />
<circle style="fill:#fafea5;stroke:#0000ff" cx="6750" cy="1842" r="10" id="m32_32" />
<circle style="fill:#dd9e84;stroke:#0000ff" cx="6750" cy="1882" r="10" id="m33_33" />
</g>
<g inkscape:label="Labels" inkscape:groupmode="layer" id="labels">
<text text-anchor="start" x="6740" y="730" style="font-family:sans-serif;font-size:20;fill:#ff0000;fill-opacity:1;stroke:#ffffff;stroke-opacity:1;stroke-width:3;paint-order:stroke fill">Score = 75201110</text>
<text text-anchor="start" x="6740" y="710" style="font-family:sans-serif;font-size:20;fill:#ff0000;fill-opacity:1;stroke:#ffffff;stroke-opacity:1;stroke-width:3;paint-order:stroke fill">Counters = [0,0,0,0]</text>
<text text-anchor="end" x="6921" y="2025" style="font-family:sans-serif;font-size:20;fill:#ff0000;fill-opacity:1;stroke:#ffffff;stroke-opacity:1;stroke-width:3;paint-order:stroke fill">Score = 75201110</text>
<text text-anchor="end" x="6921" y="2045" style="font-family:sans-serif;font-size:20;fill:#ff0000;fill-opacity:1;stroke:#ffffff;stroke-opacity:1;stroke-width:3;paint-order:stroke fill">Counters = [0,0,0,0]</text>
</g>
</svg>
