<?xml version="1.0" encoding="UTF-8" standalone="no"?>
<svg width="7314" height="6807"
     xmlns="http://www.w3.org/2000/svg"
     xmlns:inkscape="http://www.inkscape.org/namespaces/inkscape"
     xmlns:svg="http://www.w3.org/2000/svg">
<g inkscape:label="Room" inkscape:groupmode="layer" id="room">
<rect style="fill:none;stroke:#000000" x="0" y="0" width="7314" height="6807" />
<rect style="fill:none;stroke:#ff0000" x="2076" y="3506" width="542" height="1606" />
</g>
<g inkscape:label="Attendees" inkscape:groupmode="layer" id="attendees">
<circle style="fill:none;stroke:#000000" cx="2027" cy="4431" r="5" />
<circle style="fill:none;stroke:#000000" cx="2698" cy="4472" r="5" />
<circle style="fill:none;stroke:#000000" cx="1956" cy="4069" r="5" />
<circle style="fill:none;stroke:#000000" cx="1904" cy="3750" r="5" />
<circle style="fill:none;stroke:#000000" cx="1921" cy="4051" r="5" />
<circle style="fill:none;stroke:#000000" cx="2506" cy="3338" r="5" />
<circle style="fill:none;stroke:#000000" cx="2733" cy="4086" r="5" />
<circle style="fill:none;stroke:#000000" cx="1900" cy="5105" r="5" />
<circle style="fill:none;stroke:#000000" cx="2227" cy="5344" r="5" />
<circle style="fill:none;stroke:#000000" cx="1989" cy="3251" r="5" />
<circle style="fill:none;stroke:#000000" cx="1689" cy="5069" r="5" />
<circle style="fill:none;stroke:#000000" cx="2950" cy="3828" r="5" />
<circle style="fill:none;stroke:#000000" cx="2940" cy="4897" r="5" />
<circle style="fill:none;stroke:#000000" cx="2928" cy="5277" r="5" />
<circle style="fill:none;stroke:#000000" cx="2942" cy="4386" r="5" />
<circle style="fill:none;stroke:#000000" cx="2740" cy="5443" r="5" />
<circle style="fill:none;stroke:#000000" cx="1643" cy="4511" r="5" />
<circle style="fill:none;stroke:#000000" cx="2996" cy="4246" r="5" />
<circle style="fill:none;stroke:#000000" cx="2440" cy="2995" r="5" />
<circle style="fill:none;stroke:#000000" cx="2976" cy="3777" r="5" />
<circle style="fill:none;stroke:#000000" cx="2588" cy="3135" r="5" />
<circle style="fill:none;stroke:#000000" cx="2122" cy="3066" r="5" />
<circle style="fill:none;stroke:#000000" cx="1731" cy="4897" r="5" />
<circle style="fill:none;stroke:#000000" cx="1670" cy="4046" r="5" />
<circle style="fill:none;stroke:#000000" cx="2580" cy="5739" r="5" />
<circle style="fill:none;stroke:#000000" cx="2411" cy="5646" r="5" />
<circle style="fill:none;stroke:#000000" cx="1558" cy="3049" r="5" />
<circle style="fill:none;stroke:#000000" cx="2453" cy="5664" r="5" />
<circle style="fill:none;stroke:#000000" cx="3220" cy="3596" r="5" />
<circle style="fill:none;stroke:#000000" cx="2104" cy="5503" r="5" />
<circle style="fill:none;stroke:#000000" cx="3302" cy="3859" r="5" />
<circle style="fill:none;stroke:#000000" cx="1403" cy="5634" r="5" />
<circle style="fill:none;stroke:#000000" cx="3011" cy="5611" r="5" />
<circle style="fill:none;stroke:#000000" cx="1372" cy="4146" r="5" />
<circle style="fill:none;stroke:#000000" cx="3374" cy="3679" r="5" />
<circle style="fill:none;stroke:#000000" cx="1379" cy="3662" r="5" />
<circle style="fill:none;stroke:#000000" cx="3278" cy="5556" r="5" />
<circle style="fill:none;stroke:#000000" cx="1450" cy="5598" r="5" />
<circle style="fill:none;stroke:#000000" cx="3391" cy="5352" r="5" />
<circle style="fill:none;stroke:#000000" cx="3470" cy="4331" r="5" />
<circle style="fill:none;stroke:#000000" cx="1351" cy="5673" r="5" />
<circle style="fill:none;stroke:#000000" cx="1936" cy="2941" r="5" />
<circle style="fill:none;stroke:#000000" cx="2863" cy="2805" r="5" />
<circle style="fill:none;stroke:#000000" cx="1139" cy="3954" r="5" />
<circle style="fill:none;stroke:#000000" cx="2967" cy="2735" r="5" />
<circle style="fill:none;stroke:#000000" cx="1379" cy="2756" r="5" />
<circle style="fill:none;stroke:#000000" cx="1533" cy="2561" r="5" />
<circle style="fill:none;stroke:#000000" cx="1179" cy="4077" r="5" />
<circle style="fill:none;stroke:#000000" cx="1583" cy="3008" r="5" />
<circle style="fill:none;stroke:#000000" cx="1207" cy="3716" r="5" />
<circle style="fill:none;stroke:#000000" cx="1144" cy="3518" r="5" />
<circle style="fill:none;stroke:#000000" cx="3636" cy="3246" r="5" />
<circle style="fill:none;stroke:#000000" cx="1862" cy="2370" r="5" />
<circle style="fill:none;stroke:#000000" cx="1096" cy="3050" r="5" />
<circle style="fill:none;stroke:#000000" cx="1317" cy="3981" r="5" />
<circle style="fill:none;stroke:#000000" cx="2453" cy="6194" r="5" />
<circle style="fill:none;stroke:#000000" cx="3392" cy="5015" r="5" />
<circle style="fill:none;stroke:#000000" cx="3559" cy="5573" r="5" />
<circle style="fill:none;stroke:#000000" cx="3808" cy="5426" r="5" />
<circle style="fill:none;stroke:#000000" cx="1543" cy="2626" r="5" />
<circle style="fill:none;stroke:#000000" cx="959" cy="4710" r="5" />
<circle style="fill:none;stroke:#000000" cx="1041" cy="3163" r="5" />
<circle style="fill:none;stroke:#000000" cx="2449" cy="6195" r="5" />
<circle style="fill:none;stroke:#000000" cx="3450" cy="3301" r="5" />
<circle style="fill:none;stroke:#000000" cx="1239" cy="5921" r="5" />
<circle style="fill:none;stroke:#000000" cx="3313" cy="2909" r="5" />
<circle style="fill:none;stroke:#000000" cx="3459" cy="2689" r="5" />
<circle style="fill:none;stroke:#000000" cx="1687" cy="2585" r="5" />
<circle style="fill:none;stroke:#000000" cx="1827" cy="2487" r="5" />
<circle style="fill:none;stroke:#000000" cx="952" cy="4286" r="5" />
<circle style="fill:none;stroke:#000000" cx="1907" cy="6366" r="5" />
<circle style="fill:none;stroke:#000000" cx="1851" cy="2694" r="5" />
<circle style="fill:none;stroke:#000000" cx="1526" cy="5975" r="5" />
<circle style="fill:none;stroke:#000000" cx="3580" cy="3801" r="5" />
<circle style="fill:none;stroke:#000000" cx="1395" cy="6073" r="5" />
<circle style="fill:none;stroke:#000000" cx="949" cy="4549" r="5" />
<circle style="fill:none;stroke:#000000" cx="3405" cy="5757" r="5" />
<circle style="fill:none;stroke:#000000" cx="1006" cy="4878" r="5" />
<circle style="fill:none;stroke:#000000" cx="1051" cy="3874" r="5" />
<circle style="fill:none;stroke:#000000" cx="3819" cy="3655" r="5" />
<circle style="fill:none;stroke:#000000" cx="1203" cy="6269" r="5" />
<circle style="fill:none;stroke:#000000" cx="1374" cy="6079" r="5" />
<circle style="fill:none;stroke:#000000" cx="913" cy="4239" r="5" />
<circle style="fill:none;stroke:#000000" cx="763" cy="3396" r="5" />
<circle style="fill:none;stroke:#000000" cx="1532" cy="5889" r="5" />
<circle style="fill:none;stroke:#000000" cx="2821" cy="2180" r="5" />
<circle style="fill:none;stroke:#000000" cx="910" cy="4733" r="5" />
<circle style="fill:none;stroke:#000000" cx="3748" cy="3700" r="5" />
<circle style="fill:none;stroke:#000000" cx="3654" cy="4903" r="5" />
<circle style="fill:none;stroke:#000000" cx="2142" cy="6457" r="5" />
<circle style="fill:none;stroke:#000000" cx="930" cy="5206" r="5" />
<circle style="fill:none;stroke:#000000" cx="2789" cy="2353" r="5" />
<circle style="fill:none;stroke:#000000" cx="2290" cy="2053" r="5" />
<circle style="fill:none;stroke:#000000" cx="2824" cy="2180" r="5" />
<circle style="fill:none;stroke:#000000" cx="3805" cy="2996" r="5" />
<circle style="fill:none;stroke:#000000" cx="877" cy="3845" r="5" />
<circle style="fill:none;stroke:#000000" cx="978" cy="5732" r="5" />
<circle style="fill:none;stroke:#000000" cx="1983" cy="6668" r="5" />
<circle style="fill:none;stroke:#000000" cx="4127" cy="3529" r="5" />
<circle style="fill:none;stroke:#000000" cx="853" cy="3523" r="5" />
<circle style="fill:none;stroke:#000000" cx="1027" cy="4010" r="5" />
<circle style="fill:none;stroke:#000000" cx="2978" cy="2377" r="5" />
<circle style="fill:none;stroke:#000000" cx="844" cy="3945" r="5" />
<circle style="fill:none;stroke:#000000" cx="3987" cy="3722" r="5" />
<circle style="fill:none;stroke:#000000" cx="2243" cy="6575" r="5" />
<circle style="fill:none;stroke:#000000" cx="2395" cy="6596" r="5" />
<circle style="fill:none;stroke:#000000" cx="851" cy="5863" r="5" />
<circle style="fill:none;stroke:#000000" cx="3785" cy="6189" r="5" />
<circle style="fill:none;stroke:#000000" cx="3977" cy="4197" r="5" />
<circle style="fill:none;stroke:#000000" cx="898" cy="4268" r="5" />
<circle style="fill:none;stroke:#000000" cx="3143" cy="2038" r="5" />
<circle style="fill:none;stroke:#000000" cx="4046" cy="5583" r="5" />
<circle style="fill:none;stroke:#000000" cx="663" cy="3324" r="5" />
<circle style="fill:none;stroke:#000000" cx="3961" cy="3943" r="5" />
<circle style="fill:none;stroke:#000000" cx="3438" cy="2527" r="5" />
<circle style="fill:none;stroke:#000000" cx="959" cy="2336" r="5" />
<circle style="fill:none;stroke:#000000" cx="4118" cy="2706" r="5" />
<circle style="fill:none;stroke:#000000" cx="1665" cy="6524" r="5" />
<circle style="fill:none;stroke:#000000" cx="4227" cy="3756" r="5" />
<circle style="fill:none;stroke:#000000" cx="4193" cy="3595" r="5" />
<circle style="fill:none;stroke:#000000" cx="4071" cy="5024" r="5" />
<circle style="fill:none;stroke:#000000" cx="2850" cy="1890" r="5" />
<circle style="fill:none;stroke:#000000" cx="2795" cy="6485" r="5" />
<circle style="fill:none;stroke:#000000" cx="4323" cy="5286" r="5" />
<circle style="fill:none;stroke:#000000" cx="1490" cy="2077" r="5" />
<circle style="fill:none;stroke:#000000" cx="3171" cy="1830" r="5" />
<circle style="fill:none;stroke:#000000" cx="4225" cy="2749" r="5" />
<circle style="fill:none;stroke:#000000" cx="2666" cy="1569" r="5" />
<circle style="fill:none;stroke:#000000" cx="645" cy="2847" r="5" />
<circle style="fill:none;stroke:#000000" cx="772" cy="2888" r="5" />
<circle style="fill:none;stroke:#000000" cx="3936" cy="3537" r="5" />
<circle style="fill:none;stroke:#000000" cx="1444" cy="1725" r="5" />
<circle style="fill:none;stroke:#000000" cx="4161" cy="4812" r="5" />
<circle style="fill:none;stroke:#000000" cx="3244" cy="6502" r="5" />
<circle style="fill:none;stroke:#000000" cx="1813" cy="6323" r="5" />
<circle style="fill:none;stroke:#000000" cx="1037" cy="5765" r="5" />
<circle style="fill:none;stroke:#000000" cx="813" cy="1969" r="5" />
<circle style="fill:none;stroke:#000000" cx="3875" cy="5927" r="5" />
<circle style="fill:none;stroke:#000000" cx="3173" cy="2062" r="5" />
<circle style="fill:none;stroke:#000000" cx="3430" cy="5976" r="5" />
<circle style="fill:none;stroke:#000000" cx="779" cy="4974" r="5" />
<circle style="fill:none;stroke:#000000" cx="3929" cy="6403" r="5" />
<circle style="fill:none;stroke:#000000" cx="4032" cy="2806" r="5" />
<circle style="fill:none;stroke:#000000" cx="3163" cy="1546" r="5" />
<circle style="fill:none;stroke:#000000" cx="2793" cy="1902" r="5" />
<circle style="fill:none;stroke:#000000" cx="252" cy="4851" r="5" />
<circle style="fill:none;stroke:#000000" cx="3716" cy="6724" r="5" />
<circle style="fill:none;stroke:#000000" cx="1349" cy="1656" r="5" />
<circle style="fill:none;stroke:#000000" cx="336" cy="2348" r="5" />
<circle style="fill:none;stroke:#000000" cx="1709" cy="6740" r="5" />
<circle style="fill:none;stroke:#000000" cx="682" cy="2129" r="5" />
<circle style="fill:none;stroke:#000000" cx="2690" cy="1661" r="5" />
<circle style="fill:none;stroke:#000000" cx="2441" cy="2013" r="5" />
<circle style="fill:none;stroke:#000000" cx="4460" cy="4853" r="5" />
<circle style="fill:none;stroke:#000000" cx="4135" cy="2612" r="5" />
<circle style="fill:none;stroke:#000000" cx="1773" cy="1233" r="5" />
<circle style="fill:none;stroke:#000000" cx="4057" cy="5175" r="5" />
<circle style="fill:none;stroke:#000000" cx="4055" cy="2131" r="5" />
<circle style="fill:none;stroke:#000000" cx="2404" cy="2071" r="5" />
<circle style="fill:none;stroke:#000000" cx="303" cy="3422" r="5" />
<circle style="fill:none;stroke:#000000" cx="355" cy="4716" r="5" />
<circle style="fill:none;stroke:#000000" cx="3462" cy="1901" r="5" />
<circle style="fill:none;stroke:#000000" cx="1372" cy="1097" r="5" />
<circle style="fill:none;stroke:#000000" cx="4353" cy="3600" r="5" />
<circle style="fill:none;stroke:#000000" cx="4031" cy="6761" r="5" />
<circle style="fill:none;stroke:#000000" cx="4603" cy="2485" r="5" />
<circle style="fill:none;stroke:#000000" cx="36" cy="5654" r="5" />
<circle style="fill:none;stroke:#000000" cx="4498" cy="4029" r="5" />
<circle style="fill:none;stroke:#000000" cx="490" cy="4309" r="5" />
<circle style="fill:none;stroke:#000000" cx="4630" cy="4005" r="5" />
<circle style="fill:none;stroke:#000000" cx="270" cy="5821" r="5" />
<circle style="fill:none;stroke:#000000" cx="4549" cy="4760" r="5" />
<circle style="fill:none;stroke:#000000" cx="4638" cy="2391" r="5" />
<circle style="fill:none;stroke:#000000" cx="217" cy="2469" r="5" />
<circle style="fill:none;stroke:#000000" cx="4550" cy="3705" r="5" />
<circle style="fill:none;stroke:#000000" cx="4372" cy="2385" r="5" />
<circle style="fill:none;stroke:#000000" cx="1206" cy="2378" r="5" />
<circle style="fill:none;stroke:#000000" cx="4243" cy="5067" r="5" />
<circle style="fill:none;stroke:#000000" cx="3529" cy="1284" r="5" />
<circle style="fill:none;stroke:#000000" cx="58" cy="4278" r="5" />
<circle style="fill:none;stroke:#000000" cx="151" cy="5425" r="5" />
<circle style="fill:none;stroke:#000000" cx="1494" cy="1337" r="5" />
<circle style="fill:none;stroke:#000000" cx="4335" cy="1944" r="5" />
<circle style="fill:none;stroke:#000000" cx="293" cy="3283" r="5" />
<circle style="fill:none;stroke:#000000" cx="3329" cy="1424" r="5" />
<circle style="fill:none;stroke:#000000" cx="4340" cy="1368" r="5" />
<circle style="fill:none;stroke:#000000" cx="77" cy="3905" r="5" />
<circle style="fill:none;stroke:#000000" cx="4640" cy="3864" r="5" />
<circle style="fill:none;stroke:#000000" cx="4214" cy="2512" r="5" />
<circle style="fill:none;stroke:#000000" cx="4061" cy="1755" r="5" />
<circle style="fill:none;stroke:#000000" cx="4682" cy="2250" r="5" />
<circle style="fill:none;stroke:#000000" cx="4455" cy="5895" r="5" />
<circle style="fill:none;stroke:#000000" cx="25" cy="5395" r="5" />
<circle style="fill:none;stroke:#000000" cx="3597" cy="1129" r="5" />
<circle style="fill:none;stroke:#000000" cx="4440" cy="2360" r="5" />
<circle style="fill:none;stroke:#000000" cx="3651" cy="1234" r="5" />
<circle style="fill:none;stroke:#000000" cx="63" cy="4078" r="5" />
<circle style="fill:none;stroke:#000000" cx="4764" cy="5421" r="5" />
<circle style="fill:none;stroke:#000000" cx="4674" cy="6709" r="5" />
<circle style="fill:none;stroke:#000000" cx="4934" cy="3654" r="5" />
<circle style="fill:none;stroke:#000000" cx="4451" cy="2148" r="5" />
<circle style="fill:none;stroke:#000000" cx="2722" cy="1301" r="5" />
<circle style="fill:none;stroke:#000000" cx="4579" cy="2089" r="5" />
<circle style="fill:none;stroke:#000000" cx="4984" cy="3742" r="5" />
<circle style="fill:none;stroke:#000000" cx="547" cy="4113" r="5" />
<circle style="fill:none;stroke:#000000" cx="4456" cy="6425" r="5" />
<circle style="fill:none;stroke:#000000" cx="369" cy="2268" r="5" />
<circle style="fill:none;stroke:#000000" cx="3980" cy="6590" r="5" />
<circle style="fill:none;stroke:#000000" cx="861" cy="938" r="5" />
<circle style="fill:none;stroke:#000000" cx="4551" cy="2316" r="5" />
<circle style="fill:none;stroke:#000000" cx="4354" cy="1517" r="5" />
<circle style="fill:none;stroke:#000000" cx="423" cy="1343" r="5" />
<circle style="fill:none;stroke:#000000" cx="1410" cy="1236" r="5" />
<circle style="fill:none;stroke:#000000" cx="4049" cy="1290" r="5" />
<circle style="fill:none;stroke:#000000" cx="4465" cy="5825" r="5" />
<circle style="fill:none;stroke:#000000" cx="382" cy="1222" r="5" />
<circle style="fill:none;stroke:#000000" cx="4657" cy="5518" r="5" />
<circle style="fill:none;stroke:#000000" cx="4591" cy="1755" r="5" />
<circle style="fill:none;stroke:#000000" cx="5101" cy="2489" r="5" />
<circle style="fill:none;stroke:#000000" cx="5258" cy="2947" r="5" />
<circle style="fill:none;stroke:#000000" cx="5347" cy="2817" r="5" />
<circle style="fill:none;stroke:#000000" cx="1962" cy="1451" r="5" />
<circle style="fill:none;stroke:#000000" cx="4731" cy="6083" r="5" />
<circle style="fill:none;stroke:#000000" cx="4447" cy="6692" r="5" />
<circle style="fill:none;stroke:#000000" cx="203" cy="1311" r="5" />
<circle style="fill:none;stroke:#000000" cx="4701" cy="4213" r="5" />
<circle style="fill:none;stroke:#000000" cx="1055" cy="1169" r="5" />
<circle style="fill:none;stroke:#000000" cx="52" cy="1836" r="5" />
<circle style="fill:none;stroke:#000000" cx="2177" cy="517" r="5" />
<circle style="fill:none;stroke:#000000" cx="4863" cy="1995" r="5" />
<circle style="fill:none;stroke:#000000" cx="4012" cy="5028" r="5" />
<circle style="fill:none;stroke:#000000" cx="1117" cy="700" r="5" />
<circle style="fill:none;stroke:#000000" cx="3790" cy="843" r="5" />
<circle style="fill:none;stroke:#000000" cx="4930" cy="3294" r="5" />
<circle style="fill:none;stroke:#000000" cx="1414" cy="609" r="5" />
<circle style="fill:none;stroke:#000000" cx="4435" cy="1109" r="5" />
<circle style="fill:none;stroke:#000000" cx="5133" cy="3322" r="5" />
<circle style="fill:none;stroke:#000000" cx="5171" cy="5422" r="5" />
<circle style="fill:none;stroke:#000000" cx="5266" cy="3379" r="5" />
<circle style="fill:none;stroke:#000000" cx="4266" cy="1305" r="5" />
<circle style="fill:none;stroke:#000000" cx="5182" cy="3326" r="5" />
<circle style="fill:none;stroke:#000000" cx="1080" cy="870" r="5" />
<circle style="fill:none;stroke:#000000" cx="4603" cy="2944" r="5" />
<circle style="fill:none;stroke:#000000" cx="4146" cy="863" r="5" />
<circle style="fill:none;stroke:#000000" cx="5411" cy="5748" r="5" />
<circle style="fill:none;stroke:#000000" cx="4222" cy="1047" r="5" />
<circle style="fill:none;stroke:#000000" cx="3492" cy="845" r="5" />
<circle style="fill:none;stroke:#000000" cx="4725" cy="1633" r="5" />
<circle style="fill:none;stroke:#000000" cx="4780" cy="4290" r="5" />
<circle style="fill:none;stroke:#000000" cx="951" cy="591" r="5" />
<circle style="fill:none;stroke:#000000" cx="5292" cy="6727" r="5" />
<circle style="fill:none;stroke:#000000" cx="5203" cy="6318" r="5" />
<circle style="fill:none;stroke:#000000" cx="5137" cy="3312" r="5" />
<circle style="fill:none;stroke:#000000" cx="4568" cy="1856" r="5" />
<circle style="fill:none;stroke:#000000" cx="5154" cy="6672" r="5" />
<circle style="fill:none;stroke:#000000" cx="4957" cy="3506" r="5" />
<circle style="fill:none;stroke:#000000" cx="5785" cy="5946" r="5" />
<circle style="fill:none;stroke:#000000" cx="5828" cy="3363" r="5" />
<circle style="fill:none;stroke:#000000" cx="1631" cy="214" r="5" />
<circle style="fill:none;stroke:#000000" cx="5674" cy="3962" r="5" />
<circle style="fill:none;stroke:#000000" cx="1627" cy="491" r="5" />
<circle style="fill:none;stroke:#000000" cx="5474" cy="2125" r="5" />
<circle style="fill:none;stroke:#000000" cx="5670" cy="2295" r="5" />
<circle style="fill:none;stroke:#000000" cx="4260" cy="1346" r="5" />
<circle style="fill:none;stroke:#000000" cx="4318" cy="666" r="5" />
<circle style="fill:none;stroke:#000000" cx="4860" cy="3731" r="5" />
<circle style="fill:none;stroke:#000000" cx="5252" cy="3402" r="5" />
<circle style="fill:none;stroke:#000000" cx="630" cy="516" r="5" />
<circle style="fill:none;stroke:#000000" cx="5283" cy="6204" r="5" />
<circle style="fill:none;stroke:#000000" cx="5315" cy="1908" r="5" />
<circle style="fill:none;stroke:#000000" cx="975" cy="506" r="5" />
<circle style="fill:none;stroke:#000000" cx="5443" cy="1094" r="5" />
<circle style="fill:none;stroke:#000000" cx="5544" cy="1707" r="5" />
<circle style="fill:none;stroke:#000000" cx="5870" cy="2296" r="5" />
<circle style="fill:none;stroke:#000000" cx="5294" cy="2798" r="5" />
<circle style="fill:none;stroke:#000000" cx="5768" cy="3666" r="5" />
<circle style="fill:none;stroke:#000000" cx="1344" cy="602" r="5" />
<circle style="fill:none;stroke:#000000" cx="5852" cy="5282" r="5" />
<circle style="fill:none;stroke:#000000" cx="5040" cy="2087" r="5" />
<circle style="fill:none;stroke:#000000" cx="6045" cy="2830" r="5" />
<circle style="fill:none;stroke:#000000" cx="5630" cy="4669" r="5" />
<circle style="fill:none;stroke:#000000" cx="5729" cy="1089" r="5" />
<circle style="fill:none;stroke:#000000" cx="47" cy="329" r="5" />
<circle style="fill:none;stroke:#000000" cx="1781" cy="302" r="5" />
<circle style="fill:none;stroke:#000000" cx="4728" cy="769" r="5" />
<circle style="fill:none;stroke:#000000" cx="2148" cy="19" r="5" />
<circle style="fill:none;stroke:#000000" cx="5406" cy="1242" r="5" />
<circle style="fill:none;stroke:#000000" cx="5500" cy="2506" r="5" />
<circle style="fill:none;stroke:#000000" cx="5447" cy="6265" r="5" />
<circle style="fill:none;stroke:#000000" cx="2758" cy="234" r="5" />
<circle style="fill:none;stroke:#000000" cx="3017" cy="239" r="5" />
<circle style="fill:none;stroke:#000000" cx="5981" cy="5495" r="5" />
<circle style="fill:none;stroke:#000000" cx="47" cy="282" r="5" />
<circle style="fill:none;stroke:#000000" cx="6249" cy="1875" r="5" />
<circle style="fill:none;stroke:#000000" cx="5582" cy="6600" r="5" />
<circle style="fill:none;stroke:#000000" cx="5688" cy="5800" r="5" />
<circle style="fill:none;stroke:#000000" cx="5993" cy="6426" r="5" />
<circle style="fill:none;stroke:#000000" cx="1551" cy="232" r="5" />
<circle style="fill:none;stroke:#000000" cx="408" cy="1161" r="5" />
<circle style="fill:none;stroke:#000000" cx="6441" cy="6792" r="5" />
<circle style="fill:none;stroke:#000000" cx="3234" cy="179" r="5" />
<circle style="fill:none;stroke:#000000" cx="5210" cy="550" r="5" />
<circle style="fill:none;stroke:#000000" cx="5351" cy="1053" r="5" />
<circle style="fill:none;stroke:#000000" cx="5146" cy="89" r="5" />
<circle style="fill:none;stroke:#000000" cx="5971" cy="5535" r="5" />
<circle style="fill:none;stroke:#000000" cx="6304" cy="1850" r="5" />
<circle style="fill:none;stroke:#000000" cx="5673" cy="4128" r="5" />
<circle style="fill:none;stroke:#000000" cx="6256" cy="1543" r="5" />
<circle style="fill:none;stroke:#000000" cx="5580" cy="4430" r="5" />
<circle style="fill:none;stroke:#000000" cx="5542" cy="2367" r="5" />
<circle style="fill:none;stroke:#000000" cx="5967" cy="5464" r="5" />
<circle style="fill:none;stroke:#000000" cx="5768" cy="6084" r="5" />
<circle style="fill:none;stroke:#000000" cx="6096" cy="2311" r="5" />
<circle style="fill:none;stroke:#000000" cx="5849" cy="4214" r="5" />
<circle style="fill:none;stroke:#000000" cx="1103" cy="226" r="5" />
<circle style="fill:none;stroke:#000000" cx="6310" cy="6414" r="5" />
<circle style="fill:none;stroke:#000000" cx="6557" cy="6358" r="5" />
<circle style="fill:none;stroke:#000000" cx="5601" cy="6561" r="5" />
<circle style="fill:none;stroke:#000000" cx="5859" cy="4807" r="5" />
<circle style="fill:none;stroke:#000000" cx="5325" cy="6707" r="5" />
<circle style="fill:none;stroke:#000000" cx="346" cy="334" r="5" />
<circle style="fill:none;stroke:#000000" cx="4388" cy="428" r="5" />
<circle style="fill:none;stroke:#000000" cx="5259" cy="106" r="5" />
<circle style="fill:none;stroke:#000000" cx="6695" cy="2655" r="5" />
<circle style="fill:none;stroke:#000000" cx="5654" cy="3820" r="5" />
<circle style="fill:none;stroke:#000000" cx="5653" cy="1836" r="5" />
<circle style="fill:none;stroke:#000000" cx="5758" cy="5569" r="5" />
<circle style="fill:none;stroke:#000000" cx="6447" cy="5720" r="5" />
<circle style="fill:none;stroke:#000000" cx="6639" cy="3103" r="5" />
<circle style="fill:none;stroke:#000000" cx="6430" cy="2440" r="5" />
<circle style="fill:none;stroke:#000000" cx="6071" cy="946" r="5" />
<circle style="fill:none;stroke:#000000" cx="5715" cy="5092" r="5" />
<circle style="fill:none;stroke:#000000" cx="5751" cy="4260" r="5" />
<circle style="fill:none;stroke:#000000" cx="6205" cy="3135" r="5" />
<circle style="fill:none;stroke:#000000" cx="6829" cy="5992" r="5" />
<circle style="fill:none;stroke:#000000" cx="6382" cy="835" r="5" />
<circle style="fill:none;stroke:#000000" cx="5569" cy="695" r="5" />
<circle style="fill:none;stroke:#000000" cx="6562" cy="2699" r="5" />
<circle style="fill:none;stroke:#000000" cx="5061" cy="1970" r="5" />
<circle style="fill:none;stroke:#000000" cx="6646" cy="3197" r="5" />
<circle style="fill:none;stroke:#000000" cx="6766" cy="3559" r="5" />
<circle style="fill:none;stroke:#000000" cx="6002" cy="3190" r="5" />
<circle style="fill:none;stroke:#000000" cx="5910" cy="49" r="5" />
<circle style="fill:none;stroke:#000000" cx="6671" cy="2476" r="5" />
<circle style="fill:none;stroke:#000000" cx="5934" cy="1440" r="5" />
<circle style="fill:none;stroke:#000000" cx="4289" cy="263" r="5" />
<circle style="fill:none;stroke:#000000" cx="5836" cy="1098" r="5" />
<circle style="fill:none;stroke:#000000" cx="6954" cy="1150" r="5" />
<circle style="fill:none;stroke:#000000" cx="6900" cy="2556" r="5" />
<circle style="fill:none;stroke:#000000" cx="6878" cy="2425" r="5" />
<circle style="fill:none;stroke:#000000" cx="6820" cy="2287" r="5" />
<circle style="fill:none;stroke:#000000" cx="7125" cy="1026" r="5" />
<circle style="fill:none;stroke:#000000" cx="6803" cy="2291" r="5" />
<circle style="fill:none;stroke:#000000" cx="6951" cy="1876" r="5" />
<circle style="fill:none;stroke:#000000" cx="5333" cy="311" r="5" />
<circle style="fill:none;stroke:#000000" cx="7025" cy="1412" r="5" />
<circle style="fill:none;stroke:#000000" cx="6358" cy="4140" r="5" />
<circle style="fill:none;stroke:#000000" cx="7071" cy="6390" r="5" />
<circle style="fill:none;stroke:#000000" cx="6681" cy="4210" r="5" />
<circle style="fill:none;stroke:#000000" cx="7042" cy="6522" r="5" />
<circle style="fill:none;stroke:#000000" cx="6124" cy="12" r="5" />
<circle style="fill:none;stroke:#000000" cx="6687" cy="5122" r="5" />
<circle style="fill:none;stroke:#000000" cx="6598" cy="3536" r="5" />
<circle style="fill:none;stroke:#000000" cx="6773" cy="2656" r="5" />
<circle style="fill:none;stroke:#000000" cx="6921" cy="3272" r="5" />
<circle style="fill:none;stroke:#000000" cx="7156" cy="5764" r="5" />
<circle style="fill:none;stroke:#000000" cx="6014" cy="1166" r="5" />
<circle style="fill:none;stroke:#000000" cx="6137" cy="1007" r="5" />
<circle style="fill:none;stroke:#000000" cx="5801" cy="635" r="5" />
<circle style="fill:none;stroke:#000000" cx="6643" cy="3257" r="5" />
<circle style="fill:none;stroke:#000000" cx="6704" cy="874" r="5" />
<circle style="fill:none;stroke:#000000" cx="5891" cy="2918" r="5" />
<circle style="fill:none;stroke:#000000" cx="6445" cy="1957" r="5" />
<circle style="fill:none;stroke:#000000" cx="6316" cy="3744" r="5" />
<circle style="fill:none;stroke:#000000" cx="7224" cy="3240" r="5" />
<circle style="fill:none;stroke:#000000" cx="7178" cy="218" r="5" />
<circle style="fill:none;stroke:#000000" cx="6326" cy="1518" r="5" />
<circle style="fill:none;stroke:#000000" cx="6789" cy="309" r="5" />
<circle style="fill:none;stroke:#000000" cx="7092" cy="427" r="5" />
<circle style="fill:none;stroke:#000000" cx="6627" cy="2751" r="5" />
<circle style="fill:none;stroke:#000000" cx="7286" cy="5343" r="5" />
<circle style="fill:none;stroke:#000000" cx="6979" cy="4569" r="5" />
<circle style="fill:none;stroke:#000000" cx="7098" cy="6047" r="5" />
<circle style="fill:none;stroke:#000000" cx="7000" cy="1741" r="5" />
<circle style="fill:none;stroke:#000000" cx="6011" cy="4427" r="5" />
<circle style="fill:none;stroke:#000000" cx="7053" cy="5232" r="5" />
<circle style="fill:none;stroke:#000000" cx="6663" cy="219" r="5" />
<circle style="fill:none;stroke:#000000" cx="7101" cy="4160" r="5" />
<circle style="fill:none;stroke:#000000" cx="7171" cy="4910" r="5" />
<circle style="fill:none;stroke:#000000" cx="6530" cy="432" r="5" />
<circle style="fill:none;stroke:#000000" cx="6837" cy="1555" r="5" />
<circle style="fill:none;stroke:#000000" cx="6935" cy="5331" r="5" />
<circle style="fill:none;stroke:#000000" cx="6949" cy="4290" r="5" />
<circle style="fill:none;stroke:#000000" cx="6438" cy="1920" r="5" />
<circle style="fill:none;stroke:#000000" cx="6890" cy="4407" r="5" />
<circle style="fill:none;stroke:#000000" cx="6633" cy="3480" r="5" />
<circle style="fill:none;stroke:#000000" cx="6754" cy="4834" r="5" />
<circle style="fill:none;stroke:#000000" cx="7032" cy="2789" r="5" />
<circle style="fill:none;stroke:#000000" cx="7050" cy="5223" r="5" />
<circle style="fill:none;stroke:#000000" cx="6814" cy="3606" r="5" />
</g>
<g inkscape:label="Musicians" inkscape:groupmode="layer" id="musicians">
<circle style="fill:#808080;stroke:#0000ff" cx="2086" cy="4086" r="10" id="m0_0" />
<circle style="fill:#a2d48c;stroke:#0000ff" cx="2606" cy="4416" r="10" id="m1_1" />
<circle style="fill:#c8a9a0;stroke:#0000ff" cx="2086" cy="4496" r="10" id="m2_2" />
<circle style="fill:#f1bbcb;stroke:#0000ff" cx="2086" cy="3976" r="10" id="m3_3" />
<circle style="fill:#beffd4;stroke:#0000ff" cx="2606" cy="4456" r="10" id="m4_4" />
<circle style="fill:#cdf6c5;stroke:#0000ff" cx="2086" cy="4486" r="10" id="m5_5" />
<circle style="fill:#808080;stroke:#0000ff" cx="2086" cy="4116" r="10" id="m6_0" />
<circle style="fill:#808080;stroke:#0000ff" cx="2086" cy="4046" r="10" id="m7_0" />
<circle style="fill:#beffd4;stroke:#0000ff" cx="2606" cy="4476" r="10" id="m8_4" />
<circle style="fill:#beffd4;stroke:#0000ff" cx="2086" cy="4436" r="10" id="m9_4" />
<circle style="fill:#beffd4;stroke:#0000ff" cx="2086" cy="4426" r="10" id="m10_4" />
<circle style="fill:#cdf6c5;stroke:#0000ff" cx="2606" cy="4496" r="10" id="m11_5" />
<circle style="fill:#f1bbcb;stroke:#0000ff" cx="2086" cy="4476" r="10" id="m12_3" />
<circle style="fill:#beffd4;stroke:#0000ff" cx="2086" cy="4456" r="10" id="m13_4" />
<circle style="fill:#c8a9a0;stroke:#0000ff" cx="2606" cy="4086" r="10" id="m14_2" />
<circle style="fill:#808080;stroke:#0000ff" cx="2086" cy="4036" r="10" id="m15_0" />
<circle style="fill:#beffd4;stroke:#0000ff" cx="2086" cy="4446" r="10" id="m16_4" />
<circle style="fill:#cdf6c5;stroke:#0000ff" cx="2086" cy="4396" r="10" id="m17_5" />
<circle style="fill:#808080;stroke:#0000ff" cx="2086" cy="4066" r="10" id="m18_0" />
<circle style="fill:#cdf6c5;stroke:#0000ff" cx="2086" cy="4466" r="10" id="m19_5" />
<circle style="fill:#cdf6c5;stroke:#0000ff" cx="2086" cy="4366" r="10" id="m20_5" />
<circle style="fill:#a2d48c;stroke:#0000ff" cx="2606" cy="4436" r="10" id="m21_1" />
<circle style="fill:#808080;stroke:#0000ff" cx="2086" cy="4016" r="10" id="m22_0" />
<circle style="fill:#beffd4;stroke:#0000ff" cx="2086" cy="4416" r="10" id="m23_4" />
<circle style="fill:#beffd4;stroke:#0000ff" cx="2086" cy="4386" r="10" id="m24_4" />
<circle style="fill:#c8a9a0;stroke:#0000ff" cx="2086" cy="4406" r="10" id="m25_2" />
</g>
<g inkscape:label="Labels" inkscape:groupmode="layer" id="labels">
<text text-anchor="start" x="2076" y="3504" style="font-family:sans-serif;font-size:20;fill:#ff0000;fill-opacity:1;stroke:#ffffff;stroke-opacity:1;stroke-width:3;paint-order:stroke fill">Score = 35751000</text>
<text text-anchor="start" x="2076" y="3484" style="font-family:sans-serif;font-size:20;fill:#ff0000;fill-opacity:1;stroke:#ffffff;stroke-opacity:1;stroke-width:3;paint-order:stroke fill">Counters = [0,0,0,0]</text>
<text text-anchor="end" x="2618" y="5132" style="font-family:sans-serif;font-size:20;fill:#ff0000;fill-opacity:1;stroke:#ffffff;stroke-opacity:1;stroke-width:3;paint-order:stroke fill">Score = 35751000</text>
<text text-anchor="end" x="2618" y="5152" style="font-family:sans-serif;font-size:20;fill:#ff0000;fill-opacity:1;stroke:#ffffff;stroke-opacity:1;stroke-width:3;paint-order:stroke fill">Counters = [0,0,0,0]</text>
</g>
</svg>
