<?xml version="1.0" encoding="UTF-8" standalone="no"?>
<svg width="4200" height="6234"
     xmlns="http://www.w3.org/2000/svg"
     xmlns:inkscape="http://www.inkscape.org/namespaces/inkscape"
     xmlns:svg="http://www.w3.org/2000/svg">
<g inkscape:label="Room" inkscape:groupmode="layer" id="room">
<rect style="fill:none;stroke:#000000" x="0" y="0" width="4200" height="6234" />
<rect style="fill:none;stroke:#ff0000" x="1076" y="2395" width="198" height="909" />
</g>
<g inkscape:label="Attendees" inkscape:groupmode="layer" id="attendees">
<circle style="fill:none;stroke:#000000" cx="1320" cy="3234" r="5" />
<circle style="fill:none;stroke:#000000" cx="1337" cy="2488" r="5" />
<circle style="fill:none;stroke:#000000" cx="1338" cy="2961" r="5" />
<circle style="fill:none;stroke:#000000" cx="1371" cy="2729" r="5" />
<circle style="fill:none;stroke:#000000" cx="1143" cy="3352" r="5" />
<circle style="fill:none;stroke:#000000" cx="1413" cy="2263" r="5" />
<circle style="fill:none;stroke:#000000" cx="1499" cy="2307" r="5" />
<circle style="fill:none;stroke:#000000" cx="791" cy="2591" r="5" />
<circle style="fill:none;stroke:#000000" cx="868" cy="2564" r="5" />
<circle style="fill:none;stroke:#000000" cx="1236" cy="2123" r="5" />
<circle style="fill:none;stroke:#000000" cx="758" cy="3063" r="5" />
<circle style="fill:none;stroke:#000000" cx="734" cy="2700" r="5" />
<circle style="fill:none;stroke:#000000" cx="814" cy="3405" r="5" />
<circle style="fill:none;stroke:#000000" cx="1160" cy="3717" r="5" />
<circle style="fill:none;stroke:#000000" cx="773" cy="2709" r="5" />
<circle style="fill:none;stroke:#000000" cx="959" cy="2058" r="5" />
<circle style="fill:none;stroke:#000000" cx="1655" cy="3193" r="5" />
<circle style="fill:none;stroke:#000000" cx="1120" cy="1972" r="5" />
<circle style="fill:none;stroke:#000000" cx="577" cy="2474" r="5" />
<circle style="fill:none;stroke:#000000" cx="1585" cy="3487" r="5" />
<circle style="fill:none;stroke:#000000" cx="1342" cy="2084" r="5" />
<circle style="fill:none;stroke:#000000" cx="1621" cy="1914" r="5" />
<circle style="fill:none;stroke:#000000" cx="841" cy="3651" r="5" />
<circle style="fill:none;stroke:#000000" cx="1805" cy="3273" r="5" />
<circle style="fill:none;stroke:#000000" cx="1806" cy="2386" r="5" />
<circle style="fill:none;stroke:#000000" cx="740" cy="3784" r="5" />
<circle style="fill:none;stroke:#000000" cx="1841" cy="3094" r="5" />
<circle style="fill:none;stroke:#000000" cx="1361" cy="3818" r="5" />
<circle style="fill:none;stroke:#000000" cx="1258" cy="1688" r="5" />
<circle style="fill:none;stroke:#000000" cx="497" cy="2082" r="5" />
<circle style="fill:none;stroke:#000000" cx="522" cy="3201" r="5" />
<circle style="fill:none;stroke:#000000" cx="917" cy="1787" r="5" />
<circle style="fill:none;stroke:#000000" cx="647" cy="3877" r="5" />
<circle style="fill:none;stroke:#000000" cx="555" cy="2991" r="5" />
<circle style="fill:none;stroke:#000000" cx="764" cy="3936" r="5" />
<circle style="fill:none;stroke:#000000" cx="1204" cy="1608" r="5" />
<circle style="fill:none;stroke:#000000" cx="1771" cy="2474" r="5" />
<circle style="fill:none;stroke:#000000" cx="450" cy="2680" r="5" />
<circle style="fill:none;stroke:#000000" cx="1335" cy="1549" r="5" />
<circle style="fill:none;stroke:#000000" cx="1704" cy="4000" r="5" />
<circle style="fill:none;stroke:#000000" cx="571" cy="2784" r="5" />
<circle style="fill:none;stroke:#000000" cx="1146" cy="1927" r="5" />
<circle style="fill:none;stroke:#000000" cx="404" cy="2809" r="5" />
<circle style="fill:none;stroke:#000000" cx="948" cy="3939" r="5" />
<circle style="fill:none;stroke:#000000" cx="1519" cy="4128" r="5" />
<circle style="fill:none;stroke:#000000" cx="1206" cy="1461" r="5" />
<circle style="fill:none;stroke:#000000" cx="1661" cy="4052" r="5" />
<circle style="fill:none;stroke:#000000" cx="636" cy="3270" r="5" />
<circle style="fill:none;stroke:#000000" cx="282" cy="2352" r="5" />
<circle style="fill:none;stroke:#000000" cx="1992" cy="2211" r="5" />
<circle style="fill:none;stroke:#000000" cx="1217" cy="1324" r="5" />
<circle style="fill:none;stroke:#000000" cx="1645" cy="4244" r="5" />
<circle style="fill:none;stroke:#000000" cx="1645" cy="4078" r="5" />
<circle style="fill:none;stroke:#000000" cx="872" cy="4303" r="5" />
<circle style="fill:none;stroke:#000000" cx="1001" cy="4254" r="5" />
<circle style="fill:none;stroke:#000000" cx="2035" cy="3804" r="5" />
<circle style="fill:none;stroke:#000000" cx="309" cy="1463" r="5" />
<circle style="fill:none;stroke:#000000" cx="533" cy="1683" r="5" />
<circle style="fill:none;stroke:#000000" cx="133" cy="3837" r="5" />
<circle style="fill:none;stroke:#000000" cx="307" cy="1834" r="5" />
<circle style="fill:none;stroke:#000000" cx="1994" cy="3913" r="5" />
<circle style="fill:none;stroke:#000000" cx="1549" cy="4362" r="5" />
<circle style="fill:none;stroke:#000000" cx="2037" cy="2207" r="5" />
<circle style="fill:none;stroke:#000000" cx="1638" cy="4276" r="5" />
<circle style="fill:none;stroke:#000000" cx="1499" cy="1472" r="5" />
<circle style="fill:none;stroke:#000000" cx="505" cy="1257" r="5" />
<circle style="fill:none;stroke:#000000" cx="2310" cy="2413" r="5" />
<circle style="fill:none;stroke:#000000" cx="1230" cy="4573" r="5" />
<circle style="fill:none;stroke:#000000" cx="113" cy="3977" r="5" />
<circle style="fill:none;stroke:#000000" cx="1846" cy="4279" r="5" />
<circle style="fill:none;stroke:#000000" cx="1321" cy="4311" r="5" />
<circle style="fill:none;stroke:#000000" cx="2191" cy="3846" r="5" />
<circle style="fill:none;stroke:#000000" cx="1329" cy="4604" r="5" />
<circle style="fill:none;stroke:#000000" cx="1258" cy="1145" r="5" />
<circle style="fill:none;stroke:#000000" cx="935" cy="4436" r="5" />
<circle style="fill:none;stroke:#000000" cx="480" cy="4512" r="5" />
<circle style="fill:none;stroke:#000000" cx="2272" cy="2133" r="5" />
<circle style="fill:none;stroke:#000000" cx="1953" cy="1419" r="5" />
<circle style="fill:none;stroke:#000000" cx="587" cy="1007" r="5" />
<circle style="fill:none;stroke:#000000" cx="318" cy="1370" r="5" />
<circle style="fill:none;stroke:#000000" cx="2006" cy="1913" r="5" />
<circle style="fill:none;stroke:#000000" cx="118" cy="1945" r="5" />
<circle style="fill:none;stroke:#000000" cx="68" cy="2753" r="5" />
<circle style="fill:none;stroke:#000000" cx="1907" cy="4459" r="5" />
<circle style="fill:none;stroke:#000000" cx="2172" cy="3795" r="5" />
<circle style="fill:none;stroke:#000000" cx="2317" cy="2730" r="5" />
<circle style="fill:none;stroke:#000000" cx="2152" cy="3248" r="5" />
<circle style="fill:none;stroke:#000000" cx="1554" cy="1085" r="5" />
<circle style="fill:none;stroke:#000000" cx="2574" cy="3876" r="5" />
<circle style="fill:none;stroke:#000000" cx="2154" cy="4400" r="5" />
<circle style="fill:none;stroke:#000000" cx="505" cy="4518" r="5" />
<circle style="fill:none;stroke:#000000" cx="2352" cy="3135" r="5" />
<circle style="fill:none;stroke:#000000" cx="2418" cy="3481" r="5" />
<circle style="fill:none;stroke:#000000" cx="1215" cy="4318" r="5" />
<circle style="fill:none;stroke:#000000" cx="2483" cy="1684" r="5" />
<circle style="fill:none;stroke:#000000" cx="1987" cy="970" r="5" />
<circle style="fill:none;stroke:#000000" cx="2583" cy="3557" r="5" />
<circle style="fill:none;stroke:#000000" cx="421" cy="2644" r="5" />
<circle style="fill:none;stroke:#000000" cx="1361" cy="942" r="5" />
<circle style="fill:none;stroke:#000000" cx="2417" cy="1967" r="5" />
<circle style="fill:none;stroke:#000000" cx="2474" cy="4267" r="5" />
<circle style="fill:none;stroke:#000000" cx="247" cy="4727" r="5" />
<circle style="fill:none;stroke:#000000" cx="2726" cy="2220" r="5" />
<circle style="fill:none;stroke:#000000" cx="1107" cy="4727" r="5" />
<circle style="fill:none;stroke:#000000" cx="2296" cy="4795" r="5" />
<circle style="fill:none;stroke:#000000" cx="662" cy="684" r="5" />
<circle style="fill:none;stroke:#000000" cx="778" cy="5021" r="5" />
<circle style="fill:none;stroke:#000000" cx="2362" cy="2843" r="5" />
<circle style="fill:none;stroke:#000000" cx="2665" cy="4476" r="5" />
<circle style="fill:none;stroke:#000000" cx="2323" cy="4138" r="5" />
<circle style="fill:none;stroke:#000000" cx="878" cy="5083" r="5" />
<circle style="fill:none;stroke:#000000" cx="1884" cy="4139" r="5" />
<circle style="fill:none;stroke:#000000" cx="2532" cy="2317" r="5" />
<circle style="fill:none;stroke:#000000" cx="2315" cy="1110" r="5" />
<circle style="fill:none;stroke:#000000" cx="1069" cy="509" r="5" />
<circle style="fill:none;stroke:#000000" cx="2533" cy="3495" r="5" />
<circle style="fill:none;stroke:#000000" cx="1854" cy="5042" r="5" />
<circle style="fill:none;stroke:#000000" cx="2721" cy="1950" r="5" />
<circle style="fill:none;stroke:#000000" cx="2140" cy="4886" r="5" />
<circle style="fill:none;stroke:#000000" cx="2237" cy="810" r="5" />
<circle style="fill:none;stroke:#000000" cx="580" cy="4795" r="5" />
<circle style="fill:none;stroke:#000000" cx="525" cy="484" r="5" />
<circle style="fill:none;stroke:#000000" cx="772" cy="5124" r="5" />
<circle style="fill:none;stroke:#000000" cx="2596" cy="2649" r="5" />
<circle style="fill:none;stroke:#000000" cx="1783" cy="441" r="5" />
<circle style="fill:none;stroke:#000000" cx="2916" cy="1166" r="5" />
<circle style="fill:none;stroke:#000000" cx="2420" cy="4286" r="5" />
<circle style="fill:none;stroke:#000000" cx="822" cy="5405" r="5" />
<circle style="fill:none;stroke:#000000" cx="2066" cy="806" r="5" />
<circle style="fill:none;stroke:#000000" cx="3001" cy="3412" r="5" />
<circle style="fill:none;stroke:#000000" cx="2704" cy="2886" r="5" />
<circle style="fill:none;stroke:#000000" cx="3248" cy="1977" r="5" />
<circle style="fill:none;stroke:#000000" cx="2380" cy="3451" r="5" />
<circle style="fill:none;stroke:#000000" cx="3049" cy="2083" r="5" />
<circle style="fill:none;stroke:#000000" cx="2427" cy="889" r="5" />
<circle style="fill:none;stroke:#000000" cx="49" cy="577" r="5" />
<circle style="fill:none;stroke:#000000" cx="1527" cy="449" r="5" />
<circle style="fill:none;stroke:#000000" cx="302" cy="548" r="5" />
<circle style="fill:none;stroke:#000000" cx="3174" cy="1696" r="5" />
<circle style="fill:none;stroke:#000000" cx="2642" cy="1696" r="5" />
<circle style="fill:none;stroke:#000000" cx="1749" cy="641" r="5" />
<circle style="fill:none;stroke:#000000" cx="247" cy="5264" r="5" />
<circle style="fill:none;stroke:#000000" cx="373" cy="5484" r="5" />
<circle style="fill:none;stroke:#000000" cx="2924" cy="1406" r="5" />
<circle style="fill:none;stroke:#000000" cx="1316" cy="681" r="5" />
<circle style="fill:none;stroke:#000000" cx="2500" cy="623" r="5" />
<circle style="fill:none;stroke:#000000" cx="2998" cy="4546" r="5" />
<circle style="fill:none;stroke:#000000" cx="3013" cy="1410" r="5" />
<circle style="fill:none;stroke:#000000" cx="1872" cy="816" r="5" />
<circle style="fill:none;stroke:#000000" cx="2192" cy="5495" r="5" />
<circle style="fill:none;stroke:#000000" cx="1137" cy="542" r="5" />
<circle style="fill:none;stroke:#000000" cx="155" cy="5107" r="5" />
<circle style="fill:none;stroke:#000000" cx="2207" cy="347" r="5" />
<circle style="fill:none;stroke:#000000" cx="2777" cy="4769" r="5" />
<circle style="fill:none;stroke:#000000" cx="589" cy="4146" r="5" />
<circle style="fill:none;stroke:#000000" cx="2927" cy="3027" r="5" />
<circle style="fill:none;stroke:#000000" cx="3108" cy="2475" r="5" />
<circle style="fill:none;stroke:#000000" cx="1633" cy="386" r="5" />
<circle style="fill:none;stroke:#000000" cx="2653" cy="3452" r="5" />
<circle style="fill:none;stroke:#000000" cx="1605" cy="478" r="5" />
<circle style="fill:none;stroke:#000000" cx="3008" cy="4219" r="5" />
<circle style="fill:none;stroke:#000000" cx="2467" cy="1403" r="5" />
<circle style="fill:none;stroke:#000000" cx="342" cy="1355" r="5" />
<circle style="fill:none;stroke:#000000" cx="3116" cy="4049" r="5" />
<circle style="fill:none;stroke:#000000" cx="3163" cy="1293" r="5" />
<circle style="fill:none;stroke:#000000" cx="655" cy="5576" r="5" />
<circle style="fill:none;stroke:#000000" cx="1440" cy="494" r="5" />
<circle style="fill:none;stroke:#000000" cx="2092" cy="5319" r="5" />
<circle style="fill:none;stroke:#000000" cx="3023" cy="4339" r="5" />
<circle style="fill:none;stroke:#000000" cx="3361" cy="1853" r="5" />
<circle style="fill:none;stroke:#000000" cx="954" cy="5329" r="5" />
<circle style="fill:none;stroke:#000000" cx="2032" cy="5747" r="5" />
<circle style="fill:none;stroke:#000000" cx="2503" cy="5263" r="5" />
<circle style="fill:none;stroke:#000000" cx="2941" cy="3701" r="5" />
<circle style="fill:none;stroke:#000000" cx="2481" cy="5339" r="5" />
<circle style="fill:none;stroke:#000000" cx="2398" cy="136" r="5" />
<circle style="fill:none;stroke:#000000" cx="1683" cy="5271" r="5" />
<circle style="fill:none;stroke:#000000" cx="2541" cy="4117" r="5" />
<circle style="fill:none;stroke:#000000" cx="1244" cy="103" r="5" />
<circle style="fill:none;stroke:#000000" cx="2597" cy="493" r="5" />
<circle style="fill:none;stroke:#000000" cx="408" cy="5531" r="5" />
<circle style="fill:none;stroke:#000000" cx="704" cy="5776" r="5" />
<circle style="fill:none;stroke:#000000" cx="409" cy="81" r="5" />
<circle style="fill:none;stroke:#000000" cx="930" cy="6049" r="5" />
<circle style="fill:none;stroke:#000000" cx="3331" cy="4928" r="5" />
<circle style="fill:none;stroke:#000000" cx="420" cy="5373" r="5" />
<circle style="fill:none;stroke:#000000" cx="2771" cy="333" r="5" />
<circle style="fill:none;stroke:#000000" cx="410" cy="150" r="5" />
<circle style="fill:none;stroke:#000000" cx="3436" cy="3870" r="5" />
<circle style="fill:none;stroke:#000000" cx="148" cy="94" r="5" />
<circle style="fill:none;stroke:#000000" cx="2586" cy="5515" r="5" />
<circle style="fill:none;stroke:#000000" cx="1528" cy="5509" r="5" />
<circle style="fill:none;stroke:#000000" cx="3347" cy="1428" r="5" />
<circle style="fill:none;stroke:#000000" cx="1343" cy="574" r="5" />
<circle style="fill:none;stroke:#000000" cx="22" cy="5313" r="5" />
<circle style="fill:none;stroke:#000000" cx="32" cy="5956" r="5" />
<circle style="fill:none;stroke:#000000" cx="659" cy="177" r="5" />
<circle style="fill:none;stroke:#000000" cx="3262" cy="5121" r="5" />
<circle style="fill:none;stroke:#000000" cx="3324" cy="4397" r="5" />
<circle style="fill:none;stroke:#000000" cx="3236" cy="2387" r="5" />
<circle style="fill:none;stroke:#000000" cx="1542" cy="4832" r="5" />
<circle style="fill:none;stroke:#000000" cx="1138" cy="5636" r="5" />
<circle style="fill:none;stroke:#000000" cx="2771" cy="5373" r="5" />
<circle style="fill:none;stroke:#000000" cx="1582" cy="6084" r="5" />
<circle style="fill:none;stroke:#000000" cx="1796" cy="294" r="5" />
<circle style="fill:none;stroke:#000000" cx="3392" cy="772" r="5" />
<circle style="fill:none;stroke:#000000" cx="2996" cy="1241" r="5" />
<circle style="fill:none;stroke:#000000" cx="2143" cy="75" r="5" />
<circle style="fill:none;stroke:#000000" cx="3043" cy="2934" r="5" />
<circle style="fill:none;stroke:#000000" cx="2414" cy="112" r="5" />
<circle style="fill:none;stroke:#000000" cx="614" cy="6113" r="5" />
<circle style="fill:none;stroke:#000000" cx="333" cy="5540" r="5" />
<circle style="fill:none;stroke:#000000" cx="3931" cy="4117" r="5" />
<circle style="fill:none;stroke:#000000" cx="1406" cy="334" r="5" />
<circle style="fill:none;stroke:#000000" cx="2848" cy="1940" r="5" />
<circle style="fill:none;stroke:#000000" cx="3642" cy="5234" r="5" />
<circle style="fill:none;stroke:#000000" cx="368" cy="6012" r="5" />
<circle style="fill:none;stroke:#000000" cx="2678" cy="5214" r="5" />
<circle style="fill:none;stroke:#000000" cx="1468" cy="6174" r="5" />
<circle style="fill:none;stroke:#000000" cx="3674" cy="4396" r="5" />
<circle style="fill:none;stroke:#000000" cx="42" cy="6130" r="5" />
<circle style="fill:none;stroke:#000000" cx="3538" cy="3668" r="5" />
<circle style="fill:none;stroke:#000000" cx="3648" cy="3504" r="5" />
<circle style="fill:none;stroke:#000000" cx="3416" cy="3639" r="5" />
<circle style="fill:none;stroke:#000000" cx="3205" cy="2936" r="5" />
<circle style="fill:none;stroke:#000000" cx="3065" cy="687" r="5" />
<circle style="fill:none;stroke:#000000" cx="699" cy="60" r="5" />
<circle style="fill:none;stroke:#000000" cx="4160" cy="4885" r="5" />
<circle style="fill:none;stroke:#000000" cx="3567" cy="3362" r="5" />
<circle style="fill:none;stroke:#000000" cx="821" cy="5879" r="5" />
<circle style="fill:none;stroke:#000000" cx="3934" cy="1379" r="5" />
<circle style="fill:none;stroke:#000000" cx="659" cy="161" r="5" />
<circle style="fill:none;stroke:#000000" cx="3592" cy="3556" r="5" />
<circle style="fill:none;stroke:#000000" cx="4138" cy="1744" r="5" />
<circle style="fill:none;stroke:#000000" cx="3013" cy="3068" r="5" />
<circle style="fill:none;stroke:#000000" cx="3404" cy="1959" r="5" />
<circle style="fill:none;stroke:#000000" cx="2925" cy="5664" r="5" />
<circle style="fill:none;stroke:#000000" cx="3829" cy="1907" r="5" />
<circle style="fill:none;stroke:#000000" cx="4097" cy="2107" r="5" />
<circle style="fill:none;stroke:#000000" cx="2855" cy="6212" r="5" />
<circle style="fill:none;stroke:#000000" cx="2234" cy="3" r="5" />
<circle style="fill:none;stroke:#000000" cx="3932" cy="1665" r="5" />
<circle style="fill:none;stroke:#000000" cx="3675" cy="2346" r="5" />
<circle style="fill:none;stroke:#000000" cx="321" cy="6144" r="5" />
<circle style="fill:none;stroke:#000000" cx="3398" cy="4860" r="5" />
<circle style="fill:none;stroke:#000000" cx="4056" cy="5044" r="5" />
<circle style="fill:none;stroke:#000000" cx="2716" cy="6189" r="5" />
<circle style="fill:none;stroke:#000000" cx="3732" cy="163" r="5" />
<circle style="fill:none;stroke:#000000" cx="3468" cy="530" r="5" />
<circle style="fill:none;stroke:#000000" cx="3796" cy="1829" r="5" />
<circle style="fill:none;stroke:#000000" cx="2802" cy="25" r="5" />
<circle style="fill:none;stroke:#000000" cx="3361" cy="4604" r="5" />
<circle style="fill:none;stroke:#000000" cx="2479" cy="6150" r="5" />
<circle style="fill:none;stroke:#000000" cx="3421" cy="5656" r="5" />
<circle style="fill:none;stroke:#000000" cx="1118" cy="5761" r="5" />
<circle style="fill:none;stroke:#000000" cx="4171" cy="1689" r="5" />
<circle style="fill:none;stroke:#000000" cx="3407" cy="5567" r="5" />
<circle style="fill:none;stroke:#000000" cx="3289" cy="5667" r="5" />
<circle style="fill:none;stroke:#000000" cx="3894" cy="5" r="5" />
<circle style="fill:none;stroke:#000000" cx="3736" cy="1817" r="5" />
<circle style="fill:none;stroke:#000000" cx="4075" cy="4411" r="5" />
<circle style="fill:none;stroke:#000000" cx="3938" cy="138" r="5" />
<circle style="fill:none;stroke:#000000" cx="4096" cy="636" r="5" />
<circle style="fill:none;stroke:#000000" cx="3616" cy="4616" r="5" />
<circle style="fill:none;stroke:#000000" cx="3962" cy="682" r="5" />
<circle style="fill:none;stroke:#000000" cx="3067" cy="6032" r="5" />
<circle style="fill:none;stroke:#000000" cx="3186" cy="5781" r="5" />
<circle style="fill:none;stroke:#000000" cx="4196" cy="982" r="5" />
<circle style="fill:none;stroke:#000000" cx="4101" cy="1830" r="5" />
<circle style="fill:none;stroke:#000000" cx="3932" cy="2504" r="5" />
<circle style="fill:none;stroke:#000000" cx="3847" cy="5122" r="5" />
<circle style="fill:none;stroke:#000000" cx="3565" cy="107" r="5" />
<circle style="fill:none;stroke:#000000" cx="3919" cy="2866" r="5" />
<circle style="fill:none;stroke:#000000" cx="2795" cy="6122" r="5" />
<circle style="fill:none;stroke:#000000" cx="3164" cy="5957" r="5" />
<circle style="fill:none;stroke:#000000" cx="2869" cy="5844" r="5" />
<circle style="fill:none;stroke:#000000" cx="3502" cy="196" r="5" />
<circle style="fill:none;stroke:#000000" cx="3979" cy="2636" r="5" />
<circle style="fill:none;stroke:#000000" cx="2904" cy="1071" r="5" />
<circle style="fill:none;stroke:#000000" cx="3943" cy="3010" r="5" />
<circle style="fill:none;stroke:#000000" cx="3841" cy="1331" r="5" />
<circle style="fill:none;stroke:#000000" cx="4189" cy="2805" r="5" />
<circle style="fill:none;stroke:#000000" cx="4139" cy="1155" r="5" />
<circle style="fill:none;stroke:#000000" cx="3895" cy="2404" r="5" />
<circle style="fill:none;stroke:#000000" cx="3944" cy="5635" r="5" />
<circle style="fill:none;stroke:#000000" cx="3464" cy="6199" r="5" />
<circle style="fill:none;stroke:#000000" cx="3870" cy="4347" r="5" />
<circle style="fill:none;stroke:#000000" cx="4114" cy="4506" r="5" />
<circle style="fill:none;stroke:#000000" cx="3997" cy="5422" r="5" />
<circle style="fill:none;stroke:#000000" cx="3790" cy="246" r="5" />
<circle style="fill:none;stroke:#000000" cx="3814" cy="4230" r="5" />
<circle style="fill:none;stroke:#000000" cx="4094" cy="1741" r="5" />
<circle style="fill:none;stroke:#000000" cx="4034" cy="2610" r="5" />
<circle style="fill:none;stroke:#000000" cx="3949" cy="6113" r="5" />
<circle style="fill:none;stroke:#000000" cx="1139" cy="233" r="5" />
<circle style="fill:none;stroke:#000000" cx="4068" cy="498" r="5" />
<circle style="fill:none;stroke:#000000" cx="4025" cy="2665" r="5" />
<circle style="fill:none;stroke:#000000" cx="4124" cy="6042" r="5" />
<circle style="fill:none;stroke:#000000" cx="3717" cy="3093" r="5" />
<circle style="fill:none;stroke:#000000" cx="3064" cy="2895" r="5" />
</g>
<g inkscape:label="Musicians" inkscape:groupmode="layer" id="musicians">
<circle style="fill:#808080;stroke:#0000ff" cx="1256" cy="3245" r="10" id="m0_0" />
<circle style="fill:#a2d48c;stroke:#0000ff" cx="1256" cy="2485" r="10" id="m1_1" />
<circle style="fill:#c8a9a0;stroke:#0000ff" cx="1256" cy="3215" r="10" id="m2_2" />
</g>
<g inkscape:label="Labels" inkscape:groupmode="layer" id="labels">
<text text-anchor="start" x="1076" y="2393" style="font-family:sans-serif;font-size:20;fill:#ff0000;fill-opacity:1;stroke:#ffffff;stroke-opacity:1;stroke-width:3;paint-order:stroke fill">Score = 7394330</text>
<text text-anchor="start" x="1076" y="2373" style="font-family:sans-serif;font-size:20;fill:#ff0000;fill-opacity:1;stroke:#ffffff;stroke-opacity:1;stroke-width:3;paint-order:stroke fill">Counters = [0,0,0,0]</text>
<text text-anchor="end" x="1274" y="3324" style="font-family:sans-serif;font-size:20;fill:#ff0000;fill-opacity:1;stroke:#ffffff;stroke-opacity:1;stroke-width:3;paint-order:stroke fill">Score = 7394330</text>
<text text-anchor="end" x="1274" y="3344" style="font-family:sans-serif;font-size:20;fill:#ff0000;fill-opacity:1;stroke:#ffffff;stroke-opacity:1;stroke-width:3;paint-order:stroke fill">Counters = [0,0,0,0]</text>
</g>
</svg>
