<?xml version="1.0" encoding="UTF-8" standalone="no"?>
<svg width="4504" height="4115"
     xmlns="http://www.w3.org/2000/svg"
     xmlns:inkscape="http://www.inkscape.org/namespaces/inkscape"
     xmlns:svg="http://www.w3.org/2000/svg">
<g inkscape:label="Room" inkscape:groupmode="layer" id="room">
<rect style="fill:none;stroke:#000000" x="0" y="0" width="4504" height="4115" />
<rect style="fill:none;stroke:#ff0000" x="1291" y="1885" width="448" height="1193" />
<circle style="fill:none;stroke:#ff0000" cx="4458" cy="1991" r="21" />
<circle style="fill:none;stroke:#ff0000" cx="2132" cy="3228" r="74" />
<circle style="fill:none;stroke:#ff0000" cx="2455" cy="2299" r="69" />
<circle style="fill:none;stroke:#ff0000" cx="69" cy="3658" r="32" />
<circle style="fill:none;stroke:#ff0000" cx="3054" cy="2070" r="14" />
<circle style="fill:none;stroke:#ff0000" cx="704" cy="2565" r="83" />
<circle style="fill:none;stroke:#ff0000" cx="1185" cy="3321" r="75" />
<circle style="fill:none;stroke:#ff0000" cx="3743" cy="1286" r="24" />
<circle style="fill:none;stroke:#ff0000" cx="1168" cy="871" r="18" />
<circle style="fill:none;stroke:#ff0000" cx="3346" cy="2716" r="25" />
<circle style="fill:none;stroke:#ff0000" cx="3307" cy="2879" r="31" />
<circle style="fill:none;stroke:#ff0000" cx="2500" cy="553" r="64" />
<circle style="fill:none;stroke:#ff0000" cx="2681" cy="1676" r="33" />
<circle style="fill:none;stroke:#ff0000" cx="533" cy="444" r="43" />
<circle style="fill:none;stroke:#ff0000" cx="582" cy="2033" r="24" />
<circle style="fill:none;stroke:#ff0000" cx="1633" cy="1462" r="20" />
<circle style="fill:none;stroke:#ff0000" cx="1994" cy="2514" r="81" />
<circle style="fill:none;stroke:#ff0000" cx="662" cy="3208" r="67" />
<circle style="fill:none;stroke:#ff0000" cx="2379" cy="716" r="36" />
<circle style="fill:none;stroke:#ff0000" cx="1716" cy="1083" r="10" />
<circle style="fill:none;stroke:#ff0000" cx="1695" cy="378" r="5" />
<circle style="fill:none;stroke:#ff0000" cx="2590" cy="3658" r="60" />
<circle style="fill:none;stroke:#ff0000" cx="2764" cy="1782" r="63" />
<circle style="fill:none;stroke:#ff0000" cx="3327" cy="965" r="82" />
<circle style="fill:none;stroke:#ff0000" cx="1571" cy="827" r="37" />
<circle style="fill:none;stroke:#ff0000" cx="345" cy="2293" r="74" />
<circle style="fill:none;stroke:#ff0000" cx="202" cy="1626" r="74" />
<circle style="fill:none;stroke:#ff0000" cx="2622" cy="2348" r="46" />
<circle style="fill:none;stroke:#ff0000" cx="4156" cy="3183" r="57" />
<circle style="fill:none;stroke:#ff0000" cx="693" cy="1140" r="56" />
<circle style="fill:none;stroke:#ff0000" cx="2261" cy="1965" r="36" />
<circle style="fill:none;stroke:#ff0000" cx="2744" cy="3275" r="14" />
<circle style="fill:none;stroke:#ff0000" cx="3822" cy="2491" r="30" />
<circle style="fill:none;stroke:#ff0000" cx="3032" cy="1891" r="48" />
<circle style="fill:none;stroke:#ff0000" cx="2379" cy="3573" r="49" />
<circle style="fill:none;stroke:#ff0000" cx="1783" cy="3236" r="31" />
<circle style="fill:none;stroke:#ff0000" cx="3951" cy="2386" r="63" />
<circle style="fill:none;stroke:#ff0000" cx="3085" cy="1347" r="6" />
<circle style="fill:none;stroke:#ff0000" cx="3751" cy="2835" r="45" />
<circle style="fill:none;stroke:#ff0000" cx="1897" cy="540" r="51" />
<circle style="fill:none;stroke:#ff0000" cx="72" cy="2253" r="69" />
<circle style="fill:none;stroke:#ff0000" cx="2654" cy="1598" r="73" />
<circle style="fill:none;stroke:#ff0000" cx="1945" cy="1502" r="11" />
<circle style="fill:none;stroke:#ff0000" cx="1127" cy="710" r="23" />
<circle style="fill:none;stroke:#ff0000" cx="2024" cy="915" r="55" />
<circle style="fill:none;stroke:#ff0000" cx="4392" cy="87" r="66" />
<circle style="fill:none;stroke:#ff0000" cx="1470" cy="3883" r="36" />
<circle style="fill:none;stroke:#ff0000" cx="1621" cy="962" r="78" />
<circle style="fill:none;stroke:#ff0000" cx="2571" cy="341" r="51" />
<circle style="fill:none;stroke:#ff0000" cx="3947" cy="3858" r="12" />
<circle style="fill:none;stroke:#ff0000" cx="2562" cy="351" r="54" />
<circle style="fill:none;stroke:#ff0000" cx="2348" cy="2104" r="42" />
<circle style="fill:none;stroke:#ff0000" cx="4271" cy="1861" r="51" />
<circle style="fill:none;stroke:#ff0000" cx="1113" cy="3716" r="8" />
<circle style="fill:none;stroke:#ff0000" cx="3191" cy="103" r="65" />
<circle style="fill:none;stroke:#ff0000" cx="2877" cy="1443" r="15" />
<circle style="fill:none;stroke:#ff0000" cx="2902" cy="3111" r="18" />
<circle style="fill:none;stroke:#ff0000" cx="3389" cy="3664" r="6" />
<circle style="fill:none;stroke:#ff0000" cx="2537" cy="3966" r="69" />
<circle style="fill:none;stroke:#ff0000" cx="3116" cy="3853" r="42" />
<circle style="fill:none;stroke:#ff0000" cx="3874" cy="1135" r="46" />
<circle style="fill:none;stroke:#ff0000" cx="302" cy="1708" r="43" />
<circle style="fill:none;stroke:#ff0000" cx="3642" cy="3605" r="25" />
<circle style="fill:none;stroke:#ff0000" cx="3788" cy="312" r="36" />
<circle style="fill:none;stroke:#ff0000" cx="2525" cy="1520" r="71" />
<circle style="fill:none;stroke:#ff0000" cx="121" cy="722" r="44" />
<circle style="fill:none;stroke:#ff0000" cx="1360" cy="272" r="57" />
<circle style="fill:none;stroke:#ff0000" cx="1586" cy="687" r="45" />
<circle style="fill:none;stroke:#ff0000" cx="976" cy="2828" r="80" />
<circle style="fill:none;stroke:#ff0000" cx="2670" cy="507" r="35" />
<circle style="fill:none;stroke:#ff0000" cx="1365" cy="397" r="38" />
<circle style="fill:none;stroke:#ff0000" cx="3096" cy="776" r="28" />
<circle style="fill:none;stroke:#ff0000" cx="2438" cy="2878" r="44" />
<circle style="fill:none;stroke:#ff0000" cx="1206" cy="92" r="26" />
<circle style="fill:none;stroke:#ff0000" cx="2860" cy="4002" r="45" />
<circle style="fill:none;stroke:#ff0000" cx="3651" cy="2106" r="69" />
</g>
<g inkscape:label="Attendees" inkscape:groupmode="layer" id="attendees">
<circle style="fill:none;stroke:#000000" cx="1285" cy="2170" r="5" />
<circle style="fill:none;stroke:#000000" cx="1726" cy="1861" r="5" />
<circle style="fill:#c8a9a0;stroke:#000000" cx="1749" cy="2551" r="5" />
<circle style="fill:#c8a9a0;stroke:#000000" cx="1776" cy="2290" r="5" />
<circle style="fill:#808080;stroke:#000000" cx="1789" cy="2321" r="5" />
<circle style="fill:none;stroke:#000000" cx="1301" cy="1821" r="5" />
<circle style="fill:none;stroke:#000000" cx="1214" cy="2467" r="5" />
<circle style="fill:none;stroke:#000000" cx="1841" cy="3142" r="5" />
<circle style="fill:none;stroke:#000000" cx="1796" cy="2333" r="5" />
<circle style="fill:none;stroke:#000000" cx="1857" cy="2515" r="5" />
<circle style="fill:#c8a9a0;stroke:#000000" cx="1900" cy="2521" r="5" />
<circle style="fill:none;stroke:#000000" cx="1864" cy="2572" r="5" />
<circle style="fill:#a2d48c;stroke:#000000" cx="1125" cy="2654" r="5" />
<circle style="fill:#808080;stroke:#000000" cx="1740" cy="3228" r="5" />
<circle style="fill:#c8a9a0;stroke:#000000" cx="1561" cy="1665" r="5" />
<circle style="fill:#c8a9a0;stroke:#000000" cx="1580" cy="1698" r="5" />
<circle style="fill:#a2d48c;stroke:#000000" cx="1103" cy="1892" r="5" />
<circle style="fill:#a2d48c;stroke:#000000" cx="1322" cy="1664" r="5" />
<circle style="fill:none;stroke:#000000" cx="1523" cy="1688" r="5" />
<circle style="fill:#808080;stroke:#000000" cx="1905" cy="2740" r="5" />
<circle style="fill:#c8a9a0;stroke:#000000" cx="1094" cy="3294" r="5" />
<circle style="fill:none;stroke:#000000" cx="1000" cy="2335" r="5" />
<circle style="fill:#808080;stroke:#000000" cx="1052" cy="3070" r="5" />
<circle style="fill:#a2d48c;stroke:#000000" cx="2013" cy="2391" r="5" />
<circle style="fill:#808080;stroke:#000000" cx="1932" cy="3219" r="5" />
<circle style="fill:#808080;stroke:#000000" cx="1556" cy="3277" r="5" />
<circle style="fill:#c8a9a0;stroke:#000000" cx="1810" cy="1591" r="5" />
<circle style="fill:none;stroke:#000000" cx="2090" cy="1771" r="5" />
<circle style="fill:#c8a9a0;stroke:#000000" cx="2090" cy="2173" r="5" />
<circle style="fill:none;stroke:#000000" cx="1762" cy="1481" r="5" />
<circle style="fill:#a2d48c;stroke:#000000" cx="1989" cy="3369" r="5" />
<circle style="fill:#808080;stroke:#000000" cx="914" cy="2687" r="5" />
<circle style="fill:#808080;stroke:#000000" cx="2070" cy="1918" r="5" />
<circle style="fill:#a2d48c;stroke:#000000" cx="2102" cy="2876" r="5" />
<circle style="fill:none;stroke:#000000" cx="2166" cy="2035" r="5" />
<circle style="fill:#c8a9a0;stroke:#000000" cx="1061" cy="2124" r="5" />
<circle style="fill:#a2d48c;stroke:#000000" cx="963" cy="3073" r="5" />
<circle style="fill:#808080;stroke:#000000" cx="2162" cy="2445" r="5" />
<circle style="fill:#c8a9a0;stroke:#000000" cx="877" cy="2021" r="5" />
<circle style="fill:none;stroke:#000000" cx="1109" cy="1564" r="5" />
<circle style="fill:#a2d48c;stroke:#000000" cx="2007" cy="1582" r="5" />
<circle style="fill:none;stroke:#000000" cx="1559" cy="1468" r="5" />
<circle style="fill:#c8a9a0;stroke:#000000" cx="2010" cy="1957" r="5" />
<circle style="fill:none;stroke:#000000" cx="2264" cy="2458" r="5" />
<circle style="fill:none;stroke:#000000" cx="879" cy="2201" r="5" />
<circle style="fill:none;stroke:#000000" cx="2191" cy="2163" r="5" />
<circle style="fill:#c8a9a0;stroke:#000000" cx="878" cy="2909" r="5" />
<circle style="fill:#c8a9a0;stroke:#000000" cx="2147" cy="2551" r="5" />
<circle style="fill:#a2d48c;stroke:#000000" cx="939" cy="2214" r="5" />
<circle style="fill:none;stroke:#000000" cx="2183" cy="2167" r="5" />
<circle style="fill:none;stroke:#000000" cx="2057" cy="1385" r="5" />
<circle style="fill:none;stroke:#000000" cx="731" cy="2384" r="5" />
<circle style="fill:#808080;stroke:#000000" cx="886" cy="2515" r="5" />
<circle style="fill:#c8a9a0;stroke:#000000" cx="951" cy="2551" r="5" />
<circle style="fill:#c8a9a0;stroke:#000000" cx="775" cy="2021" r="5" />
<circle style="fill:#a2d48c;stroke:#000000" cx="1764" cy="3508" r="5" />
<circle style="fill:none;stroke:#000000" cx="2198" cy="2942" r="5" />
<circle style="fill:#a2d48c;stroke:#000000" cx="1713" cy="1387" r="5" />
<circle style="fill:#a2d48c;stroke:#000000" cx="861" cy="3371" r="5" />
<circle style="fill:#808080;stroke:#000000" cx="1690" cy="1232" r="5" />
<circle style="fill:none;stroke:#000000" cx="809" cy="1612" r="5" />
<circle style="fill:#808080;stroke:#000000" cx="2175" cy="3161" r="5" />
<circle style="fill:#c8a9a0;stroke:#000000" cx="887" cy="2214" r="5" />
<circle style="fill:none;stroke:#000000" cx="1899" cy="3340" r="5" />
<circle style="fill:#a2d48c;stroke:#000000" cx="2309" cy="2437" r="5" />
<circle style="fill:#808080;stroke:#000000" cx="813" cy="2592" r="5" />
<circle style="fill:#a2d48c;stroke:#000000" cx="1988" cy="3554" r="5" />
<circle style="fill:#a2d48c;stroke:#000000" cx="2114" cy="3493" r="5" />
<circle style="fill:#a2d48c;stroke:#000000" cx="2106" cy="1476" r="5" />
<circle style="fill:#a2d48c;stroke:#000000" cx="809" cy="2433" r="5" />
<circle style="fill:none;stroke:#000000" cx="1130" cy="3666" r="5" />
<circle style="fill:#c8a9a0;stroke:#000000" cx="963" cy="3457" r="5" />
<circle style="fill:none;stroke:#000000" cx="647" cy="1688" r="5" />
<circle style="fill:none;stroke:#000000" cx="618" cy="2796" r="5" />
<circle style="fill:#c8a9a0;stroke:#000000" cx="827" cy="1912" r="5" />
<circle style="fill:#808080;stroke:#000000" cx="947" cy="1520" r="5" />
<circle style="fill:#a2d48c;stroke:#000000" cx="668" cy="1680" r="5" />
<circle style="fill:none;stroke:#000000" cx="522" cy="1603" r="5" />
<circle style="fill:#c8a9a0;stroke:#000000" cx="832" cy="3421" r="5" />
<circle style="fill:#c8a9a0;stroke:#000000" cx="1910" cy="3778" r="5" />
<circle style="fill:#808080;stroke:#000000" cx="1839" cy="1115" r="5" />
<circle style="fill:#808080;stroke:#000000" cx="750" cy="3431" r="5" />
<circle style="fill:#a2d48c;stroke:#000000" cx="1114" cy="3809" r="5" />
<circle style="fill:#c8a9a0;stroke:#000000" cx="900" cy="1196" r="5" />
<circle style="fill:#808080;stroke:#000000" cx="685" cy="2403" r="5" />
<circle style="fill:#a2d48c;stroke:#000000" cx="599" cy="1972" r="5" />
<circle style="fill:none;stroke:#000000" cx="2442" cy="3046" r="5" />
<circle style="fill:#a2d48c;stroke:#000000" cx="1351" cy="3811" r="5" />
<circle style="fill:#c8a9a0;stroke:#000000" cx="637" cy="2306" r="5" />
<circle style="fill:#808080;stroke:#000000" cx="2015" cy="1254" r="5" />
<circle style="fill:#a2d48c;stroke:#000000" cx="737" cy="1501" r="5" />
<circle style="fill:#808080;stroke:#000000" cx="744" cy="3524" r="5" />
<circle style="fill:#808080;stroke:#000000" cx="1995" cy="3863" r="5" />
<circle style="fill:none;stroke:#000000" cx="2475" cy="1864" r="5" />
<circle style="fill:none;stroke:#000000" cx="2335" cy="1513" r="5" />
<circle style="fill:none;stroke:#000000" cx="2219" cy="1235" r="5" />
<circle style="fill:#808080;stroke:#000000" cx="2498" cy="2505" r="5" />
<circle style="fill:#808080;stroke:#000000" cx="650" cy="3139" r="5" />
<circle style="fill:#a2d48c;stroke:#000000" cx="962" cy="3894" r="5" />
<circle style="fill:none;stroke:#000000" cx="470" cy="2854" r="5" />
<circle style="fill:#a2d48c;stroke:#000000" cx="1833" cy="3813" r="5" />
<circle style="fill:#a2d48c;stroke:#000000" cx="563" cy="1910" r="5" />
<circle style="fill:#c8a9a0;stroke:#000000" cx="1702" cy="1129" r="5" />
<circle style="fill:#c8a9a0;stroke:#000000" cx="2081" cy="3735" r="5" />
<circle style="fill:none;stroke:#000000" cx="417" cy="1397" r="5" />
<circle style="fill:none;stroke:#000000" cx="554" cy="1098" r="5" />
<circle style="fill:#808080;stroke:#000000" cx="652" cy="2839" r="5" />
<circle style="fill:none;stroke:#000000" cx="2608" cy="2882" r="5" />
<circle style="fill:none;stroke:#000000" cx="404" cy="2194" r="5" />
<circle style="fill:none;stroke:#000000" cx="559" cy="3677" r="5" />
<circle style="fill:#a2d48c;stroke:#000000" cx="1872" cy="713" r="5" />
<circle style="fill:#a2d48c;stroke:#000000" cx="2334" cy="1053" r="5" />
<circle style="fill:#a2d48c;stroke:#000000" cx="884" cy="949" r="5" />
<circle style="fill:#808080;stroke:#000000" cx="2303" cy="3721" r="5" />
<circle style="fill:none;stroke:#000000" cx="1793" cy="4036" r="5" />
<circle style="fill:#c8a9a0;stroke:#000000" cx="2316" cy="1004" r="5" />
<circle style="fill:#a2d48c;stroke:#000000" cx="574" cy="3799" r="5" />
<circle style="fill:#c8a9a0;stroke:#000000" cx="1380" cy="1005" r="5" />
<circle style="fill:none;stroke:#000000" cx="2204" cy="3899" r="5" />
<circle style="fill:#c8a9a0;stroke:#000000" cx="567" cy="2783" r="5" />
<circle style="fill:#a2d48c;stroke:#000000" cx="2549" cy="3582" r="5" />
<circle style="fill:#a2d48c;stroke:#000000" cx="1316" cy="1208" r="5" />
<circle style="fill:#a2d48c;stroke:#000000" cx="514" cy="2328" r="5" />
<circle style="fill:#c8a9a0;stroke:#000000" cx="918" cy="3378" r="5" />
<circle style="fill:#a2d48c;stroke:#000000" cx="290" cy="2583" r="5" />
<circle style="fill:#808080;stroke:#000000" cx="2451" cy="1849" r="5" />
<circle style="fill:none;stroke:#000000" cx="706" cy="857" r="5" />
<circle style="fill:none;stroke:#000000" cx="2284" cy="4014" r="5" />
<circle style="fill:#c8a9a0;stroke:#000000" cx="2095" cy="2394" r="5" />
<circle style="fill:none;stroke:#000000" cx="1383" cy="624" r="5" />
<circle style="fill:#808080;stroke:#000000" cx="665" cy="3628" r="5" />
<circle style="fill:#c8a9a0;stroke:#000000" cx="2501" cy="1313" r="5" />
<circle style="fill:none;stroke:#000000" cx="629" cy="3939" r="5" />
<circle style="fill:#808080;stroke:#000000" cx="545" cy="1241" r="5" />
<circle style="fill:#a2d48c;stroke:#000000" cx="2279" cy="1103" r="5" />
<circle style="fill:#a2d48c;stroke:#000000" cx="261" cy="1494" r="5" />
<circle style="fill:none;stroke:#000000" cx="530" cy="1865" r="5" />
<circle style="fill:#a2d48c;stroke:#000000" cx="584" cy="1493" r="5" />
<circle style="fill:#808080;stroke:#000000" cx="2585" cy="2970" r="5" />
<circle style="fill:#c8a9a0;stroke:#000000" cx="901" cy="3830" r="5" />
<circle style="fill:#a2d48c;stroke:#000000" cx="2797" cy="2983" r="5" />
<circle style="fill:#a2d48c;stroke:#000000" cx="487" cy="3720" r="5" />
<circle style="fill:#a2d48c;stroke:#000000" cx="2897" cy="1649" r="5" />
<circle style="fill:#c8a9a0;stroke:#000000" cx="396" cy="1030" r="5" />
<circle style="fill:#808080;stroke:#000000" cx="400" cy="1470" r="5" />
<circle style="fill:#a2d48c;stroke:#000000" cx="1023" cy="4020" r="5" />
<circle style="fill:#c8a9a0;stroke:#000000" cx="808" cy="1011" r="5" />
<circle style="fill:#a2d48c;stroke:#000000" cx="398" cy="3977" r="5" />
<circle style="fill:#808080;stroke:#000000" cx="218" cy="1518" r="5" />
<circle style="fill:none;stroke:#000000" cx="2561" cy="787" r="5" />
<circle style="fill:none;stroke:#000000" cx="272" cy="954" r="5" />
<circle style="fill:none;stroke:#000000" cx="72" cy="1458" r="5" />
<circle style="fill:none;stroke:#000000" cx="303" cy="2051" r="5" />
<circle style="fill:#808080;stroke:#000000" cx="821" cy="843" r="5" />
<circle style="fill:#a2d48c;stroke:#000000" cx="578" cy="1922" r="5" />
<circle style="fill:#a2d48c;stroke:#000000" cx="194" cy="2554" r="5" />
<circle style="fill:#c8a9a0;stroke:#000000" cx="392" cy="3169" r="5" />
<circle style="fill:#808080;stroke:#000000" cx="220" cy="3303" r="5" />
<circle style="fill:#808080;stroke:#000000" cx="2840" cy="2258" r="5" />
<circle style="fill:none;stroke:#000000" cx="1251" cy="676" r="5" />
<circle style="fill:none;stroke:#000000" cx="1085" cy="848" r="5" />
<circle style="fill:#808080;stroke:#000000" cx="355" cy="2930" r="5" />
<circle style="fill:#808080;stroke:#000000" cx="2754" cy="2623" r="5" />
<circle style="fill:#808080;stroke:#000000" cx="387" cy="3530" r="5" />
<circle style="fill:#a2d48c;stroke:#000000" cx="98" cy="2098" r="5" />
<circle style="fill:#a2d48c;stroke:#000000" cx="2770" cy="2448" r="5" />
<circle style="fill:#808080;stroke:#000000" cx="556" cy="3698" r="5" />
<circle style="fill:none;stroke:#000000" cx="1126" cy="4023" r="5" />
<circle style="fill:none;stroke:#000000" cx="2047" cy="660" r="5" />
<circle style="fill:#c8a9a0;stroke:#000000" cx="2757" cy="923" r="5" />
<circle style="fill:none;stroke:#000000" cx="37" cy="2581" r="5" />
<circle style="fill:#808080;stroke:#000000" cx="1020" cy="587" r="5" />
<circle style="fill:none;stroke:#000000" cx="438" cy="3861" r="5" />
<circle style="fill:none;stroke:#000000" cx="2404" cy="4030" r="5" />
<circle style="fill:#c8a9a0;stroke:#000000" cx="2652" cy="1360" r="5" />
<circle style="fill:none;stroke:#000000" cx="2790" cy="4093" r="5" />
<circle style="fill:#c8a9a0;stroke:#000000" cx="1212" cy="941" r="5" />
<circle style="fill:none;stroke:#000000" cx="254" cy="3162" r="5" />
<circle style="fill:#a2d48c;stroke:#000000" cx="2890" cy="2153" r="5" />
<circle style="fill:#a2d48c;stroke:#000000" cx="2417" cy="1019" r="5" />
<circle style="fill:#c8a9a0;stroke:#000000" cx="78" cy="3726" r="5" />
<circle style="fill:#c8a9a0;stroke:#000000" cx="3026" cy="2248" r="5" />
<circle style="fill:#a2d48c;stroke:#000000" cx="246" cy="3281" r="5" />
<circle style="fill:#a2d48c;stroke:#000000" cx="2861" cy="3421" r="5" />
<circle style="fill:#c8a9a0;stroke:#000000" cx="1354" cy="729" r="5" />
<circle style="fill:none;stroke:#000000" cx="2159" cy="214" r="5" />
<circle style="fill:#c8a9a0;stroke:#000000" cx="286" cy="1509" r="5" />
<circle style="fill:#a2d48c;stroke:#000000" cx="398" cy="3760" r="5" />
<circle style="fill:#a2d48c;stroke:#000000" cx="2892" cy="1022" r="5" />
<circle style="fill:#808080;stroke:#000000" cx="1869" cy="690" r="5" />
<circle style="fill:#a2d48c;stroke:#000000" cx="1091" cy="573" r="5" />
<circle style="fill:#a2d48c;stroke:#000000" cx="671" cy="491" r="5" />
<circle style="fill:#a2d48c;stroke:#000000" cx="3094" cy="3220" r="5" />
<circle style="fill:#c8a9a0;stroke:#000000" cx="1718" cy="234" r="5" />
<circle style="fill:none;stroke:#000000" cx="7" cy="3136" r="5" />
<circle style="fill:#808080;stroke:#000000" cx="210" cy="1282" r="5" />
<circle style="fill:#a2d48c;stroke:#000000" cx="810" cy="772" r="5" />
<circle style="fill:#a2d48c;stroke:#000000" cx="1068" cy="899" r="5" />
<circle style="fill:#c8a9a0;stroke:#000000" cx="1432" cy="1072" r="5" />
<circle style="fill:none;stroke:#000000" cx="2587" cy="3774" r="5" />
<circle style="fill:#808080;stroke:#000000" cx="586" cy="783" r="5" />
<circle style="fill:#a2d48c;stroke:#000000" cx="1095" cy="248" r="5" />
<circle style="fill:none;stroke:#000000" cx="95" cy="1317" r="5" />
<circle style="fill:none;stroke:#000000" cx="65" cy="940" r="5" />
<circle style="fill:#808080;stroke:#000000" cx="24" cy="3786" r="5" />
<circle style="fill:#808080;stroke:#000000" cx="3127" cy="2870" r="5" />
<circle style="fill:#a2d48c;stroke:#000000" cx="525" cy="3258" r="5" />
<circle style="fill:#808080;stroke:#000000" cx="2866" cy="2587" r="5" />
<circle style="fill:#808080;stroke:#000000" cx="1402" cy="4007" r="5" />
<circle style="fill:none;stroke:#000000" cx="719" cy="1087" r="5" />
<circle style="fill:none;stroke:#000000" cx="199" cy="955" r="5" />
<circle style="fill:#808080;stroke:#000000" cx="2966" cy="2062" r="5" />
<circle style="fill:none;stroke:#000000" cx="1400" cy="54" r="5" />
<circle style="fill:#c8a9a0;stroke:#000000" cx="2058" cy="532" r="5" />
<circle style="fill:#a2d48c;stroke:#000000" cx="2911" cy="2308" r="5" />
<circle style="fill:#808080;stroke:#000000" cx="2854" cy="1798" r="5" />
<circle style="fill:#a2d48c;stroke:#000000" cx="2691" cy="951" r="5" />
<circle style="fill:#c8a9a0;stroke:#000000" cx="228" cy="436" r="5" />
<circle style="fill:none;stroke:#000000" cx="1379" cy="861" r="5" />
<circle style="fill:#c8a9a0;stroke:#000000" cx="2779" cy="1910" r="5" />
<circle style="fill:none;stroke:#000000" cx="2700" cy="365" r="5" />
<circle style="fill:#c8a9a0;stroke:#000000" cx="2674" cy="2448" r="5" />
<circle style="fill:#c8a9a0;stroke:#000000" cx="166" cy="1214" r="5" />
<circle style="fill:#808080;stroke:#000000" cx="1743" cy="306" r="5" />
<circle style="fill:#808080;stroke:#000000" cx="2014" cy="563" r="5" />
<circle style="fill:#c8a9a0;stroke:#000000" cx="114" cy="2431" r="5" />
<circle style="fill:#c8a9a0;stroke:#000000" cx="1163" cy="102" r="5" />
<circle style="fill:#c8a9a0;stroke:#000000" cx="3131" cy="2435" r="5" />
<circle style="fill:#c8a9a0;stroke:#000000" cx="3052" cy="3142" r="5" />
<circle style="fill:#c8a9a0;stroke:#000000" cx="368" cy="2216" r="5" />
<circle style="fill:#808080;stroke:#000000" cx="3291" cy="2697" r="5" />
<circle style="fill:#a2d48c;stroke:#000000" cx="3062" cy="3299" r="5" />
<circle style="fill:none;stroke:#000000" cx="3272" cy="1333" r="5" />
<circle style="fill:none;stroke:#000000" cx="3678" cy="3148" r="5" />
<circle style="fill:#a2d48c;stroke:#000000" cx="2133" cy="547" r="5" />
<circle style="fill:#a2d48c;stroke:#000000" cx="2699" cy="387" r="5" />
<circle style="fill:#c8a9a0;stroke:#000000" cx="3265" cy="1722" r="5" />
<circle style="fill:#a2d48c;stroke:#000000" cx="302" cy="1814" r="5" />
<circle style="fill:none;stroke:#000000" cx="95" cy="2643" r="5" />
<circle style="fill:#a2d48c;stroke:#000000" cx="3083" cy="3216" r="5" />
<circle style="fill:#c8a9a0;stroke:#000000" cx="2984" cy="3488" r="5" />
<circle style="fill:#808080;stroke:#000000" cx="2975" cy="1029" r="5" />
<circle style="fill:none;stroke:#000000" cx="588" cy="144" r="5" />
<circle style="fill:#c8a9a0;stroke:#000000" cx="116" cy="263" r="5" />
<circle style="fill:#c8a9a0;stroke:#000000" cx="3313" cy="1787" r="5" />
<circle style="fill:#808080;stroke:#000000" cx="652" cy="328" r="5" />
<circle style="fill:none;stroke:#000000" cx="94" cy="1048" r="5" />
<circle style="fill:#c8a9a0;stroke:#000000" cx="2976" cy="2177" r="5" />
<circle style="fill:none;stroke:#000000" cx="3184" cy="1116" r="5" />
<circle style="fill:none;stroke:#000000" cx="3615" cy="3060" r="5" />
<circle style="fill:#c8a9a0;stroke:#000000" cx="934" cy="418" r="5" />
<circle style="fill:#a2d48c;stroke:#000000" cx="3191" cy="1342" r="5" />
<circle style="fill:#808080;stroke:#000000" cx="242" cy="826" r="5" />
<circle style="fill:#808080;stroke:#000000" cx="3352" cy="2946" r="5" />
<circle style="fill:#a2d48c;stroke:#000000" cx="358" cy="848" r="5" />
<circle style="fill:none;stroke:#000000" cx="3310" cy="472" r="5" />
<circle style="fill:#808080;stroke:#000000" cx="2109" cy="266" r="5" />
<circle style="fill:#808080;stroke:#000000" cx="809" cy="78" r="5" />
<circle style="fill:#808080;stroke:#000000" cx="3424" cy="1784" r="5" />
<circle style="fill:none;stroke:#000000" cx="3577" cy="1471" r="5" />
<circle style="fill:#c8a9a0;stroke:#000000" cx="3055" cy="1832" r="5" />
<circle style="fill:#a2d48c;stroke:#000000" cx="3716" cy="3569" r="5" />
<circle style="fill:none;stroke:#000000" cx="3286" cy="2747" r="5" />
<circle style="fill:#a2d48c;stroke:#000000" cx="3091" cy="4046" r="5" />
<circle style="fill:#a2d48c;stroke:#000000" cx="3467" cy="432" r="5" />
<circle style="fill:#c8a9a0;stroke:#000000" cx="3394" cy="1627" r="5" />
<circle style="fill:#808080;stroke:#000000" cx="2316" cy="327" r="5" />
<circle style="fill:none;stroke:#000000" cx="4060" cy="3037" r="5" />
<circle style="fill:#a2d48c;stroke:#000000" cx="107" cy="449" r="5" />
<circle style="fill:#808080;stroke:#000000" cx="329" cy="553" r="5" />
<circle style="fill:#a2d48c;stroke:#000000" cx="2996" cy="558" r="5" />
<circle style="fill:#a2d48c;stroke:#000000" cx="3259" cy="771" r="5" />
<circle style="fill:none;stroke:#000000" cx="3073" cy="702" r="5" />
<circle style="fill:#a2d48c;stroke:#000000" cx="3216" cy="2293" r="5" />
<circle style="fill:#c8a9a0;stroke:#000000" cx="3108" cy="488" r="5" />
<circle style="fill:#a2d48c;stroke:#000000" cx="460" cy="50" r="5" />
<circle style="fill:#808080;stroke:#000000" cx="980" cy="391" r="5" />
<circle style="fill:none;stroke:#000000" cx="3219" cy="1309" r="5" />
<circle style="fill:#808080;stroke:#000000" cx="2745" cy="951" r="5" />
<circle style="fill:#808080;stroke:#000000" cx="3376" cy="1062" r="5" />
<circle style="fill:none;stroke:#000000" cx="1023" cy="317" r="5" />
<circle style="fill:none;stroke:#000000" cx="3676" cy="1733" r="5" />
<circle style="fill:none;stroke:#000000" cx="3735" cy="3150" r="5" />
<circle style="fill:none;stroke:#000000" cx="2758" cy="787" r="5" />
<circle style="fill:#808080;stroke:#000000" cx="3506" cy="2573" r="5" />
<circle style="fill:#a2d48c;stroke:#000000" cx="768" cy="151" r="5" />
<circle style="fill:none;stroke:#000000" cx="3937" cy="2190" r="5" />
<circle style="fill:none;stroke:#000000" cx="4059" cy="1273" r="5" />
<circle style="fill:#a2d48c;stroke:#000000" cx="2811" cy="3661" r="5" />
<circle style="fill:#a2d48c;stroke:#000000" cx="3218" cy="2053" r="5" />
<circle style="fill:none;stroke:#000000" cx="3342" cy="1967" r="5" />
<circle style="fill:none;stroke:#000000" cx="558" cy="307" r="5" />
<circle style="fill:#808080;stroke:#000000" cx="454" cy="170" r="5" />
<circle style="fill:#808080;stroke:#000000" cx="3567" cy="3870" r="5" />
<circle style="fill:#a2d48c;stroke:#000000" cx="3475" cy="1922" r="5" />
<circle style="fill:none;stroke:#000000" cx="3797" cy="2453" r="5" />
<circle style="fill:none;stroke:#000000" cx="3802" cy="2608" r="5" />
<circle style="fill:#808080;stroke:#000000" cx="3921" cy="3365" r="5" />
<circle style="fill:#808080;stroke:#000000" cx="3377" cy="2536" r="5" />
<circle style="fill:none;stroke:#000000" cx="3398" cy="3026" r="5" />
<circle style="fill:none;stroke:#000000" cx="3091" cy="86" r="5" />
<circle style="fill:none;stroke:#000000" cx="3782" cy="3633" r="5" />
<circle style="fill:none;stroke:#000000" cx="3631" cy="4063" r="5" />
<circle style="fill:none;stroke:#000000" cx="3010" cy="16" r="5" />
<circle style="fill:#808080;stroke:#000000" cx="3954" cy="3410" r="5" />
<circle style="fill:#a2d48c;stroke:#000000" cx="3345" cy="428" r="5" />
<circle style="fill:#808080;stroke:#000000" cx="3240" cy="2547" r="5" />
<circle style="fill:none;stroke:#000000" cx="3842" cy="1466" r="5" />
<circle style="fill:#c8a9a0;stroke:#000000" cx="3918" cy="3430" r="5" />
<circle style="fill:none;stroke:#000000" cx="4012" cy="2200" r="5" />
<circle style="fill:#c8a9a0;stroke:#000000" cx="3748" cy="3533" r="5" />
<circle style="fill:none;stroke:#000000" cx="390" cy="208" r="5" />
<circle style="fill:#a2d48c;stroke:#000000" cx="3920" cy="2206" r="5" />
<circle style="fill:#a2d48c;stroke:#000000" cx="3307" cy="3906" r="5" />
<circle style="fill:#808080;stroke:#000000" cx="3449" cy="3681" r="5" />
<circle style="fill:none;stroke:#000000" cx="3518" cy="4021" r="5" />
<circle style="fill:#c8a9a0;stroke:#000000" cx="3646" cy="480" r="5" />
<circle style="fill:#a2d48c;stroke:#000000" cx="3570" cy="3035" r="5" />
<circle style="fill:none;stroke:#000000" cx="3692" cy="429" r="5" />
<circle style="fill:#c8a9a0;stroke:#000000" cx="1847" cy="633" r="5" />
<circle style="fill:#808080;stroke:#000000" cx="3651" cy="3373" r="5" />
<circle style="fill:#808080;stroke:#000000" cx="3462" cy="3108" r="5" />
<circle style="fill:#a2d48c;stroke:#000000" cx="4022" cy="2218" r="5" />
<circle style="fill:none;stroke:#000000" cx="1" cy="328" r="5" />
<circle style="fill:#c8a9a0;stroke:#000000" cx="3469" cy="1488" r="5" />
<circle style="fill:#a2d48c;stroke:#000000" cx="4100" cy="1898" r="5" />
<circle style="fill:#808080;stroke:#000000" cx="3736" cy="1792" r="5" />
<circle style="fill:#808080;stroke:#000000" cx="3992" cy="2014" r="5" />
<circle style="fill:#c8a9a0;stroke:#000000" cx="3749" cy="293" r="5" />
<circle style="fill:#c8a9a0;stroke:#000000" cx="4097" cy="3435" r="5" />
<circle style="fill:#c8a9a0;stroke:#000000" cx="3956" cy="1652" r="5" />
<circle style="fill:#a2d48c;stroke:#000000" cx="3087" cy="1363" r="5" />
<circle style="fill:#c8a9a0;stroke:#000000" cx="3537" cy="1285" r="5" />
<circle style="fill:#808080;stroke:#000000" cx="3822" cy="3679" r="5" />
<circle style="fill:#808080;stroke:#000000" cx="4262" cy="1613" r="5" />
<circle style="fill:#808080;stroke:#000000" cx="4483" cy="3476" r="5" />
<circle style="fill:none;stroke:#000000" cx="4080" cy="788" r="5" />
<circle style="fill:#808080;stroke:#000000" cx="3995" cy="3943" r="5" />
<circle style="fill:none;stroke:#000000" cx="4102" cy="3916" r="5" />
<circle style="fill:#c8a9a0;stroke:#000000" cx="4287" cy="3973" r="5" />
<circle style="fill:#808080;stroke:#000000" cx="4328" cy="1760" r="5" />
<circle style="fill:#c8a9a0;stroke:#000000" cx="3278" cy="332" r="5" />
<circle style="fill:#c8a9a0;stroke:#000000" cx="3814" cy="3474" r="5" />
<circle style="fill:#808080;stroke:#000000" cx="3901" cy="3444" r="5" />
<circle style="fill:#c8a9a0;stroke:#000000" cx="4290" cy="3869" r="5" />
<circle style="fill:#a2d48c;stroke:#000000" cx="4313" cy="1578" r="5" />
<circle style="fill:#c8a9a0;stroke:#000000" cx="3685" cy="557" r="5" />
<circle style="fill:none;stroke:#000000" cx="4477" cy="2744" r="5" />
<circle style="fill:#c8a9a0;stroke:#000000" cx="3906" cy="1606" r="5" />
<circle style="fill:#808080;stroke:#000000" cx="3660" cy="2816" r="5" />
<circle style="fill:#808080;stroke:#000000" cx="3416" cy="607" r="5" />
<circle style="fill:none;stroke:#000000" cx="4061" cy="298" r="5" />
<circle style="fill:none;stroke:#000000" cx="4223" cy="3550" r="5" />
<circle style="fill:#c8a9a0;stroke:#000000" cx="3406" cy="1023" r="5" />
<circle style="fill:#808080;stroke:#000000" cx="3054" cy="160" r="5" />
<circle style="fill:none;stroke:#000000" cx="4368" cy="1995" r="5" />
<circle style="fill:none;stroke:#000000" cx="4497" cy="1928" r="5" />
<circle style="fill:#808080;stroke:#000000" cx="4435" cy="4096" r="5" />
<circle style="fill:#808080;stroke:#000000" cx="4208" cy="2735" r="5" />
<circle style="fill:#808080;stroke:#000000" cx="3406" cy="613" r="5" />
<circle style="fill:#808080;stroke:#000000" cx="4334" cy="2253" r="5" />
<circle style="fill:#a2d48c;stroke:#000000" cx="4415" cy="3366" r="5" />
<circle style="fill:none;stroke:#000000" cx="4425" cy="972" r="5" />
<circle style="fill:#808080;stroke:#000000" cx="3996" cy="795" r="5" />
<circle style="fill:#c8a9a0;stroke:#000000" cx="4292" cy="3070" r="5" />
<circle style="fill:#a2d48c;stroke:#000000" cx="4458" cy="3550" r="5" />
<circle style="fill:#c8a9a0;stroke:#000000" cx="3807" cy="1153" r="5" />
<circle style="fill:#a2d48c;stroke:#000000" cx="4403" cy="1253" r="5" />
<circle style="fill:#c8a9a0;stroke:#000000" cx="4010" cy="574" r="5" />
<circle style="fill:#a2d48c;stroke:#000000" cx="4215" cy="54" r="5" />
<circle style="fill:#a2d48c;stroke:#000000" cx="4243" cy="1777" r="5" />
<circle style="fill:#808080;stroke:#000000" cx="4240" cy="1769" r="5" />
<circle style="fill:none;stroke:#000000" cx="4491" cy="843" r="5" />
<circle style="fill:#c8a9a0;stroke:#000000" cx="4238" cy="2722" r="5" />
<circle style="fill:#a2d48c;stroke:#000000" cx="4249" cy="2462" r="5" />
<circle style="fill:#c8a9a0;stroke:#000000" cx="4459" cy="888" r="5" />
<circle style="fill:none;stroke:#000000" cx="4165" cy="2312" r="5" />
<circle style="fill:none;stroke:#000000" cx="3074" cy="1285" r="5" />
<circle style="fill:#c8a9a0;stroke:#000000" cx="2065" cy="752" r="5" />
<circle style="fill:#808080;stroke:#000000" cx="4284" cy="3854" r="5" />
<circle style="fill:#a2d48c;stroke:#000000" cx="4345" cy="576" r="5" />
<circle style="fill:#c8a9a0;stroke:#000000" cx="4352" cy="2898" r="5" />
<circle style="fill:#c8a9a0;stroke:#000000" cx="4397" cy="1004" r="5" />
<circle style="fill:#a2d48c;stroke:#000000" cx="4375" cy="755" r="5" />
<circle style="fill:none;stroke:#000000" cx="3841" cy="306" r="5" />
<circle style="fill:none;stroke:#000000" cx="1649" cy="280" r="5" />
<circle style="fill:none;stroke:#000000" cx="73" cy="686" r="5" />
<circle style="fill:#808080;stroke:#000000" cx="2658" cy="4105" r="5" />
<circle style="fill:none;stroke:#000000" cx="3764" cy="673" r="5" />
<circle style="fill:#c8a9a0;stroke:#000000" cx="1940" cy="399" r="5" />
<circle style="fill:#c8a9a0;stroke:#000000" cx="3849" cy="252" r="5" />
<circle style="fill:#a2d48c;stroke:#000000" cx="1611" cy="498" r="5" />
<circle style="fill:none;stroke:#000000" cx="2506" cy="488" r="5" />
<circle style="fill:#c8a9a0;stroke:#000000" cx="2909" cy="1329" r="5" />
<circle style="fill:none;stroke:#000000" cx="3677" cy="1170" r="5" />
<circle style="fill:#808080;stroke:#000000" cx="3081" cy="1872" r="5" />
<circle style="fill:#a2d48c;stroke:#000000" cx="4402" cy="3248" r="5" />
<circle style="fill:#a2d48c;stroke:#000000" cx="1378" cy="126" r="5" />
<circle style="fill:#a2d48c;stroke:#000000" cx="1327" cy="76" r="5" />
<circle style="fill:#808080;stroke:#000000" cx="4386" cy="3243" r="5" />
</g>
<g inkscape:label="Musicians" inkscape:groupmode="layer" id="musicians">
<circle style="fill:#808080;stroke:#0000ff" cx="1721" cy="1895" r="10" id="m0_0" />
<circle style="fill:#a2d48c;stroke:#0000ff" cx="1321" cy="1895" r="10" id="m1_1" />
<circle style="fill:#c8a9a0;stroke:#0000ff" cx="1301" cy="2175" r="10" id="m2_2" />
<circle style="fill:#a2d48c;stroke:#0000ff" cx="1301" cy="1905" r="10" id="m3_1" />
<circle style="fill:#c8a9a0;stroke:#0000ff" cx="1301" cy="2155" r="10" id="m4_2" />
<circle style="fill:#c8a9a0;stroke:#0000ff" cx="1301" cy="2195" r="10" id="m5_2" />
<circle style="fill:#808080;stroke:#0000ff" cx="1711" cy="1895" r="10" id="m6_0" />
<circle style="fill:#c8a9a0;stroke:#0000ff" cx="1301" cy="2215" r="10" id="m7_2" />
<circle style="fill:#c8a9a0;stroke:#0000ff" cx="1311" cy="2185" r="10" id="m8_2" />
<circle style="fill:#808080;stroke:#0000ff" cx="1721" cy="2285" r="10" id="m9_0" />
<circle style="fill:#c8a9a0;stroke:#0000ff" cx="1311" cy="2195" r="10" id="m10_2" />
<circle style="fill:#a2d48c;stroke:#0000ff" cx="1301" cy="2025" r="10" id="m11_1" />
<circle style="fill:#808080;stroke:#0000ff" cx="1701" cy="1895" r="10" id="m12_0" />
<circle style="fill:#808080;stroke:#0000ff" cx="1691" cy="1895" r="10" id="m13_0" />
<circle style="fill:#c8a9a0;stroke:#0000ff" cx="1311" cy="2175" r="10" id="m14_2" />
<circle style="fill:#808080;stroke:#0000ff" cx="1721" cy="1905" r="10" id="m15_0" />
<circle style="fill:#a2d48c;stroke:#0000ff" cx="1311" cy="1955" r="10" id="m16_1" />
<circle style="fill:#808080;stroke:#0000ff" cx="1661" cy="1895" r="10" id="m17_0" />
<circle style="fill:#c8a9a0;stroke:#0000ff" cx="1301" cy="2135" r="10" id="m18_2" />
<circle style="fill:#808080;stroke:#0000ff" cx="1711" cy="1905" r="10" id="m19_0" />
<circle style="fill:#a2d48c;stroke:#0000ff" cx="1301" cy="2035" r="10" id="m20_1" />
<circle style="fill:#a2d48c;stroke:#0000ff" cx="1301" cy="1895" r="10" id="m21_1" />
<circle style="fill:#a2d48c;stroke:#0000ff" cx="1721" cy="2385" r="10" id="m22_1" />
<circle style="fill:#c8a9a0;stroke:#0000ff" cx="1301" cy="2245" r="10" id="m23_2" />
<circle style="fill:#c8a9a0;stroke:#0000ff" cx="1301" cy="2165" r="10" id="m24_2" />
<circle style="fill:#a2d48c;stroke:#0000ff" cx="1341" cy="1905" r="10" id="m25_1" />
<circle style="fill:#808080;stroke:#0000ff" cx="1701" cy="1905" r="10" id="m26_0" />
<circle style="fill:#a2d48c;stroke:#0000ff" cx="1311" cy="1925" r="10" id="m27_1" />
<circle style="fill:#a2d48c;stroke:#0000ff" cx="1331" cy="1905" r="10" id="m28_1" />
<circle style="fill:#c8a9a0;stroke:#0000ff" cx="1311" cy="2165" r="10" id="m29_2" />
<circle style="fill:#c8a9a0;stroke:#0000ff" cx="1301" cy="2285" r="10" id="m30_2" />
<circle style="fill:#a2d48c;stroke:#0000ff" cx="1321" cy="1955" r="10" id="m31_1" />
<circle style="fill:#c8a9a0;stroke:#0000ff" cx="1311" cy="2155" r="10" id="m32_2" />
<circle style="fill:#808080;stroke:#0000ff" cx="1311" cy="2215" r="10" id="m33_0" />
<circle style="fill:#808080;stroke:#0000ff" cx="1681" cy="1895" r="10" id="m34_0" />
<circle style="fill:#808080;stroke:#0000ff" cx="1671" cy="1895" r="10" id="m35_0" />
<circle style="fill:#c8a9a0;stroke:#0000ff" cx="1311" cy="2145" r="10" id="m36_2" />
<circle style="fill:#808080;stroke:#0000ff" cx="1691" cy="1905" r="10" id="m37_0" />
<circle style="fill:#808080;stroke:#0000ff" cx="1681" cy="1905" r="10" id="m38_0" />
<circle style="fill:#a2d48c;stroke:#0000ff" cx="1361" cy="1915" r="10" id="m39_1" />
<circle style="fill:#c8a9a0;stroke:#0000ff" cx="1301" cy="2145" r="10" id="m40_2" />
<circle style="fill:#808080;stroke:#0000ff" cx="1721" cy="1915" r="10" id="m41_0" />
<circle style="fill:#c8a9a0;stroke:#0000ff" cx="1311" cy="2205" r="10" id="m42_2" />
<circle style="fill:#808080;stroke:#0000ff" cx="1711" cy="1915" r="10" id="m43_0" />
<circle style="fill:#c8a9a0;stroke:#0000ff" cx="1301" cy="2185" r="10" id="m44_2" />
<circle style="fill:#a2d48c;stroke:#0000ff" cx="1371" cy="1895" r="10" id="m45_1" />
<circle style="fill:#808080;stroke:#0000ff" cx="1701" cy="1915" r="10" id="m46_0" />
<circle style="fill:#808080;stroke:#0000ff" cx="1691" cy="1915" r="10" id="m47_0" />
<circle style="fill:#c8a9a0;stroke:#0000ff" cx="1301" cy="2115" r="10" id="m48_2" />
<circle style="fill:#808080;stroke:#0000ff" cx="1701" cy="2295" r="10" id="m49_0" />
<circle style="fill:#808080;stroke:#0000ff" cx="1671" cy="1905" r="10" id="m50_0" />
<circle style="fill:#c8a9a0;stroke:#0000ff" cx="1321" cy="2185" r="10" id="m51_2" />
<circle style="fill:#c8a9a0;stroke:#0000ff" cx="1311" cy="2135" r="10" id="m52_2" />
<circle style="fill:#808080;stroke:#0000ff" cx="1641" cy="1895" r="10" id="m53_0" />
<circle style="fill:#c8a9a0;stroke:#0000ff" cx="1311" cy="2225" r="10" id="m54_2" />
<circle style="fill:#c8a9a0;stroke:#0000ff" cx="1321" cy="2195" r="10" id="m55_2" />
<circle style="fill:#a2d48c;stroke:#0000ff" cx="1461" cy="1905" r="10" id="m56_1" />
<circle style="fill:#c8a9a0;stroke:#0000ff" cx="1301" cy="2085" r="10" id="m57_2" />
<circle style="fill:#808080;stroke:#0000ff" cx="1711" cy="2265" r="10" id="m58_0" />
<circle style="fill:#808080;stroke:#0000ff" cx="1721" cy="2275" r="10" id="m59_0" />
<circle style="fill:#c8a9a0;stroke:#0000ff" cx="1321" cy="2175" r="10" id="m60_2" />
</g>
<g inkscape:label="Labels" inkscape:groupmode="layer" id="labels">
<text text-anchor="start" x="1291" y="1883" style="font-family:sans-serif;font-size:20;fill:#ff0000;fill-opacity:1;stroke:#ffffff;stroke-opacity:1;stroke-width:3;paint-order:stroke fill">Score = 381597479</text>
<text text-anchor="start" x="1291" y="1863" style="font-family:sans-serif;font-size:20;fill:#ff0000;fill-opacity:1;stroke:#ffffff;stroke-opacity:1;stroke-width:3;paint-order:stroke fill">Counters = [0,0,0,0]</text>
<text text-anchor="end" x="1739" y="3098" style="font-family:sans-serif;font-size:20;fill:#ff0000;fill-opacity:1;stroke:#ffffff;stroke-opacity:1;stroke-width:3;paint-order:stroke fill">Score = 381597479</text>
<text text-anchor="end" x="1739" y="3118" style="font-family:sans-serif;font-size:20;fill:#ff0000;fill-opacity:1;stroke:#ffffff;stroke-opacity:1;stroke-width:3;paint-order:stroke fill">Counters = [0,0,0,0]</text>
</g>
</svg>
