<?xml version="1.0" encoding="UTF-8" standalone="no"?>
<svg width="1000" height="1000" xmlns="http://www.w3.org/2000/svg" xmlns:svg="http://www.w3.org/2000/svg">
<rect style="fill:none;stroke:#000000" x="0" y="0" width="1000" height="1000" />
<rect style="fill:none;stroke:#ff0000" x="0" y="0" width="1000" height="20" />
<circle style="fill:none;stroke:#000000" cx="29" cy="50" r="5" /><circle style="fill:none;stroke:#000000" cx="72" cy="24" r="5" /><circle style="fill:none;stroke:#000000" cx="953" cy="51" r="5" /><circle style="fill:none;stroke:#000000" cx="959" cy="69" r="5" /><circle style="fill:none;stroke:#000000" cx="99" cy="40" r="5" /><circle style="fill:none;stroke:#000000" cx="917" cy="49" r="5" /><circle style="fill:none;stroke:#000000" cx="107" cy="93" r="5" /><circle style="fill:none;stroke:#000000" cx="98" cy="69" r="5" /><circle style="fill:none;stroke:#000000" cx="875" cy="59" r="5" /><circle style="fill:none;stroke:#000000" cx="68" cy="93" r="5" /><circle style="fill:none;stroke:#000000" cx="80" cy="102" r="5" /><circle style="fill:none;stroke:#000000" cx="947" cy="131" r="5" /><circle style="fill:none;stroke:#000000" cx="121" cy="88" r="5" /><circle style="fill:none;stroke:#000000" cx="112" cy="90" r="5" /><circle style="fill:none;stroke:#000000" cx="966" cy="137" r="5" /><circle style="fill:none;stroke:#000000" cx="888" cy="94" r="5" /><circle style="fill:none;stroke:#000000" cx="166" cy="31" r="5" /><circle style="fill:none;stroke:#000000" cx="956" cy="202" r="5" /><circle style="fill:none;stroke:#000000" cx="84" cy="168" r="5" /><circle style="fill:none;stroke:#000000" cx="20" cy="181" r="5" /><circle style="fill:none;stroke:#000000" cx="878" cy="155" r="5" /><circle style="fill:none;stroke:#000000" cx="978" cy="196" r="5" /><circle style="fill:none;stroke:#000000" cx="833" cy="136" r="5" /><circle style="fill:none;stroke:#000000" cx="128" cy="183" r="5" /><circle style="fill:none;stroke:#000000" cx="873" cy="160" r="5" /><circle style="fill:none;stroke:#000000" cx="223" cy="27" r="5" /><circle style="fill:none;stroke:#000000" cx="131" cy="164" r="5" /><circle style="fill:none;stroke:#000000" cx="856" cy="121" r="5" /><circle style="fill:none;stroke:#000000" cx="992" cy="238" r="5" /><circle style="fill:none;stroke:#000000" cx="51" cy="220" r="5" /><circle style="fill:none;stroke:#000000" cx="828" cy="202" r="5" /><circle style="fill:none;stroke:#000000" cx="748" cy="156" r="5" /><circle style="fill:none;stroke:#000000" cx="744" cy="77" r="5" /><circle style="fill:none;stroke:#000000" cx="191" cy="252" r="5" /><circle style="fill:none;stroke:#000000" cx="14" cy="268" r="5" /><circle style="fill:none;stroke:#000000" cx="789" cy="35" r="5" /><circle style="fill:none;stroke:#000000" cx="764" cy="76" r="5" /><circle style="fill:none;stroke:#000000" cx="833" cy="224" r="5" /><circle style="fill:none;stroke:#000000" cx="252" cy="154" r="5" /><circle style="fill:none;stroke:#000000" cx="702" cy="26" r="5" /><circle style="fill:none;stroke:#000000" cx="0" cy="294" r="5" /><circle style="fill:none;stroke:#000000" cx="858" cy="204" r="5" /><circle style="fill:none;stroke:#000000" cx="150" cy="265" r="5" /><circle style="fill:none;stroke:#000000" cx="285" cy="149" r="5" /><circle style="fill:none;stroke:#000000" cx="879" cy="257" r="5" /><circle style="fill:none;stroke:#000000" cx="290" cy="143" r="5" /><circle style="fill:none;stroke:#000000" cx="826" cy="210" r="5" /><circle style="fill:none;stroke:#000000" cx="124" cy="295" r="5" /><circle style="fill:none;stroke:#000000" cx="729" cy="64" r="5" /><circle style="fill:none;stroke:#000000" cx="132" cy="308" r="5" /><circle style="fill:none;stroke:#000000" cx="228" cy="278" r="5" /><circle style="fill:none;stroke:#000000" cx="1" cy="313" r="5" /><circle style="fill:none;stroke:#000000" cx="64" cy="309" r="5" /><circle style="fill:none;stroke:#000000" cx="117" cy="291" r="5" /><circle style="fill:none;stroke:#000000" cx="47" cy="327" r="5" /><circle style="fill:none;stroke:#000000" cx="710" cy="105" r="5" /><circle style="fill:none;stroke:#000000" cx="307" cy="102" r="5" /><circle style="fill:none;stroke:#000000" cx="267" cy="213" r="5" /><circle style="fill:none;stroke:#000000" cx="854" cy="257" r="5" /><circle style="fill:none;stroke:#000000" cx="77" cy="353" r="5" /><circle style="fill:none;stroke:#000000" cx="740" cy="225" r="5" /><circle style="fill:none;stroke:#000000" cx="771" cy="238" r="5" /><circle style="fill:none;stroke:#000000" cx="230" cy="205" r="5" /><circle style="fill:none;stroke:#000000" cx="261" cy="204" r="5" /><circle style="fill:none;stroke:#000000" cx="297" cy="235" r="5" /><circle style="fill:none;stroke:#000000" cx="311" cy="106" r="5" /><circle style="fill:none;stroke:#000000" cx="776" cy="282" r="5" /><circle style="fill:none;stroke:#000000" cx="296" cy="75" r="5" /><circle style="fill:none;stroke:#000000" cx="647" cy="84" r="5" /><circle style="fill:none;stroke:#000000" cx="868" cy="264" r="5" /><circle style="fill:none;stroke:#000000" cx="757" cy="251" r="5" /><circle style="fill:none;stroke:#000000" cx="122" cy="367" r="5" /><circle style="fill:none;stroke:#000000" cx="31" cy="434" r="5" /><circle style="fill:none;stroke:#000000" cx="346" cy="103" r="5" /><circle style="fill:none;stroke:#000000" cx="291" cy="244" r="5" /><circle style="fill:none;stroke:#000000" cx="829" cy="329" r="5" /><circle style="fill:none;stroke:#000000" cx="362" cy="94" r="5" /><circle style="fill:none;stroke:#000000" cx="930" cy="362" r="5" /><circle style="fill:none;stroke:#000000" cx="119" cy="349" r="5" /><circle style="fill:none;stroke:#000000" cx="69" cy="353" r="5" /><circle style="fill:none;stroke:#000000" cx="693" cy="161" r="5" /><circle style="fill:none;stroke:#000000" cx="712" cy="193" r="5" /><circle style="fill:none;stroke:#000000" cx="746" cy="237" r="5" /><circle style="fill:none;stroke:#000000" cx="334" cy="116" r="5" /><circle style="fill:none;stroke:#000000" cx="258" cy="198" r="5" /><circle style="fill:none;stroke:#000000" cx="108" cy="364" r="5" /><circle style="fill:none;stroke:#000000" cx="245" cy="293" r="5" /><circle style="fill:none;stroke:#000000" cx="706" cy="216" r="5" /><circle style="fill:none;stroke:#000000" cx="219" cy="356" r="5" /><circle style="fill:none;stroke:#000000" cx="919" cy="398" r="5" /><circle style="fill:none;stroke:#000000" cx="657" cy="215" r="5" /><circle style="fill:none;stroke:#000000" cx="790" cy="377" r="5" /><circle style="fill:none;stroke:#000000" cx="101" cy="408" r="5" /><circle style="fill:none;stroke:#000000" cx="254" cy="245" r="5" /><circle style="fill:none;stroke:#000000" cx="346" cy="243" r="5" /><circle style="fill:none;stroke:#000000" cx="288" cy="222" r="5" /><circle style="fill:none;stroke:#000000" cx="894" cy="446" r="5" /><circle style="fill:none;stroke:#000000" cx="813" cy="365" r="5" /><circle style="fill:none;stroke:#000000" cx="308" cy="338" r="5" /><circle style="fill:none;stroke:#000000" cx="845" cy="362" r="5" /><circle style="fill:none;stroke:#000000" cx="832" cy="323" r="5" /><circle style="fill:none;stroke:#000000" cx="331" cy="160" r="5" /><circle style="fill:none;stroke:#000000" cx="331" cy="179" r="5" /><circle style="fill:none;stroke:#000000" cx="761" cy="325" r="5" /><circle style="fill:none;stroke:#000000" cx="744" cy="422" r="5" /><circle style="fill:none;stroke:#000000" cx="89" cy="417" r="5" /><circle style="fill:none;stroke:#000000" cx="732" cy="303" r="5" /><circle style="fill:none;stroke:#000000" cx="871" cy="461" r="5" /><circle style="fill:none;stroke:#000000" cx="721" cy="265" r="5" /><circle style="fill:none;stroke:#000000" cx="649" cy="240" r="5" /><circle style="fill:none;stroke:#000000" cx="657" cy="368" r="5" /><circle style="fill:none;stroke:#000000" cx="785" cy="468" r="5" /><circle style="fill:none;stroke:#000000" cx="374" cy="97" r="5" /><circle style="fill:none;stroke:#000000" cx="714" cy="286" r="5" /><circle style="fill:none;stroke:#000000" cx="323" cy="274" r="5" /><circle style="fill:none;stroke:#000000" cx="911" cy="497" r="5" /><circle style="fill:none;stroke:#000000" cx="388" cy="224" r="5" /><circle style="fill:none;stroke:#000000" cx="321" cy="246" r="5" /><circle style="fill:none;stroke:#000000" cx="116" cy="496" r="5" /><circle style="fill:none;stroke:#000000" cx="970" cy="418" r="5" /><circle style="fill:none;stroke:#000000" cx="607" cy="63" r="5" /><circle style="fill:none;stroke:#000000" cx="108" cy="379" r="5" /><circle style="fill:none;stroke:#000000" cx="777" cy="442" r="5" /><circle style="fill:none;stroke:#000000" cx="209" cy="497" r="5" /><circle style="fill:none;stroke:#000000" cx="734" cy="351" r="5" /><circle style="fill:none;stroke:#000000" cx="33" cy="502" r="5" /><circle style="fill:none;stroke:#000000" cx="612" cy="268" r="5" /><circle style="fill:none;stroke:#000000" cx="673" cy="255" r="5" /><circle style="fill:none;stroke:#000000" cx="710" cy="284" r="5" /><circle style="fill:none;stroke:#000000" cx="847" cy="399" r="5" /><circle style="fill:none;stroke:#000000" cx="863" cy="464" r="5" /><circle style="fill:none;stroke:#000000" cx="368" cy="147" r="5" /><circle style="fill:none;stroke:#000000" cx="70" cy="522" r="5" /><circle style="fill:none;stroke:#000000" cx="250" cy="357" r="5" /><circle style="fill:none;stroke:#000000" cx="825" cy="475" r="5" /><circle style="fill:none;stroke:#000000" cx="769" cy="509" r="5" /><circle style="fill:none;stroke:#000000" cx="973" cy="554" r="5" /><circle style="fill:none;stroke:#000000" cx="964" cy="479" r="5" /><circle style="fill:none;stroke:#000000" cx="85" cy="489" r="5" /><circle style="fill:none;stroke:#000000" cx="194" cy="565" r="5" /><circle style="fill:none;stroke:#000000" cx="2" cy="572" r="5" /><circle style="fill:none;stroke:#000000" cx="286" cy="426" r="5" /><circle style="fill:none;stroke:#000000" cx="597" cy="191" r="5" /><circle style="fill:none;stroke:#000000" cx="752" cy="469" r="5" /><circle style="fill:none;stroke:#000000" cx="192" cy="519" r="5" /><circle style="fill:none;stroke:#000000" cx="430" cy="124" r="5" /><circle style="fill:none;stroke:#000000" cx="39" cy="595" r="5" /><circle style="fill:none;stroke:#000000" cx="302" cy="377" r="5" /><circle style="fill:none;stroke:#000000" cx="292" cy="466" r="5" /><circle style="fill:none;stroke:#000000" cx="774" cy="470" r="5" /><circle style="fill:none;stroke:#000000" cx="403" cy="170" r="5" /><circle style="fill:none;stroke:#000000" cx="225" cy="500" r="5" /><circle style="fill:none;stroke:#000000" cx="213" cy="459" r="5" /><circle style="fill:none;stroke:#000000" cx="920" cy="565" r="5" /><circle style="fill:none;stroke:#000000" cx="407" cy="181" r="5" /><circle style="fill:none;stroke:#000000" cx="441" cy="95" r="5" /><circle style="fill:none;stroke:#000000" cx="428" cy="149" r="5" /><circle style="fill:none;stroke:#000000" cx="272" cy="483" r="5" /><circle style="fill:none;stroke:#000000" cx="70" cy="615" r="5" /><circle style="fill:none;stroke:#000000" cx="13" cy="503" r="5" /><circle style="fill:none;stroke:#000000" cx="642" cy="273" r="5" /><circle style="fill:none;stroke:#000000" cx="850" cy="584" r="5" /><circle style="fill:none;stroke:#000000" cx="562" cy="109" r="5" /><circle style="fill:none;stroke:#000000" cx="608" cy="350" r="5" /><circle style="fill:none;stroke:#000000" cx="115" cy="546" r="5" /><circle style="fill:none;stroke:#000000" cx="379" cy="297" r="5" /><circle style="fill:none;stroke:#000000" cx="585" cy="70" r="5" /><circle style="fill:none;stroke:#000000" cx="946" cy="479" r="5" /><circle style="fill:none;stroke:#000000" cx="109" cy="627" r="5" /><circle style="fill:none;stroke:#000000" cx="722" cy="519" r="5" /><circle style="fill:none;stroke:#000000" cx="570" cy="174" r="5" /><circle style="fill:none;stroke:#000000" cx="735" cy="598" r="5" /><circle style="fill:none;stroke:#000000" cx="685" cy="290" r="5" /><circle style="fill:none;stroke:#000000" cx="113" cy="635" r="5" /><circle style="fill:none;stroke:#000000" cx="271" cy="572" r="5" /><circle style="fill:none;stroke:#000000" cx="243" cy="566" r="5" /><circle style="fill:none;stroke:#000000" cx="90" cy="583" r="5" /><circle style="fill:none;stroke:#000000" cx="123" cy="679" r="5" /><circle style="fill:none;stroke:#000000" cx="120" cy="641" r="5" /><circle style="fill:none;stroke:#000000" cx="695" cy="527" r="5" /><circle style="fill:none;stroke:#000000" cx="102" cy="637" r="5" /><circle style="fill:none;stroke:#000000" cx="849" cy="531" r="5" /><circle style="fill:none;stroke:#000000" cx="614" cy="370" r="5" /><circle style="fill:none;stroke:#000000" cx="161" cy="577" r="5" /><circle style="fill:none;stroke:#000000" cx="166" cy="606" r="5" /><circle style="fill:none;stroke:#000000" cx="412" cy="35" r="5" /><circle style="fill:none;stroke:#000000" cx="917" cy="743" r="5" /><circle style="fill:none;stroke:#000000" cx="109" cy="663" r="5" /><circle style="fill:none;stroke:#000000" cx="388" cy="422" r="5" /><circle style="fill:none;stroke:#000000" cx="164" cy="591" r="5" /><circle style="fill:none;stroke:#000000" cx="241" cy="609" r="5" /><circle style="fill:none;stroke:#000000" cx="358" cy="544" r="5" /><circle style="fill:none;stroke:#000000" cx="452" cy="227" r="5" /><circle style="fill:none;stroke:#000000" cx="545" cy="164" r="5" /><circle style="fill:none;stroke:#000000" cx="421" cy="71" r="5" /><circle style="fill:none;stroke:#000000" cx="228" cy="640" r="5" /><circle style="fill:none;stroke:#000000" cx="12" cy="686" r="5" /><circle style="fill:none;stroke:#000000" cx="106" cy="722" r="5" /><circle style="fill:none;stroke:#000000" cx="868" cy="617" r="5" /><circle style="fill:none;stroke:#000000" cx="857" cy="600" r="5" /><circle style="fill:none;stroke:#000000" cx="214" cy="666" r="5" /><circle style="fill:none;stroke:#000000" cx="117" cy="697" r="5" /><circle style="fill:none;stroke:#000000" cx="964" cy="747" r="5" /><circle style="fill:none;stroke:#000000" cx="465" cy="44" r="5" /><circle style="fill:none;stroke:#000000" cx="250" cy="561" r="5" /><circle style="fill:none;stroke:#000000" cx="466" cy="133" r="5" /><circle style="fill:none;stroke:#000000" cx="393" cy="311" r="5" /><circle style="fill:none;stroke:#000000" cx="337" cy="557" r="5" /><circle style="fill:none;stroke:#000000" cx="184" cy="625" r="5" /><circle style="fill:none;stroke:#000000" cx="232" cy="576" r="5" /><circle style="fill:none;stroke:#000000" cx="709" cy="606" r="5" /><circle style="fill:none;stroke:#000000" cx="130" cy="726" r="5" /><circle style="fill:none;stroke:#000000" cx="946" cy="735" r="5" /><circle style="fill:none;stroke:#000000" cx="833" cy="748" r="5" /><circle style="fill:none;stroke:#000000" cx="561" cy="82" r="5" /><circle style="fill:none;stroke:#000000" cx="88" cy="737" r="5" /><circle style="fill:none;stroke:#000000" cx="884" cy="675" r="5" /><circle style="fill:none;stroke:#000000" cx="847" cy="762" r="5" /><circle style="fill:none;stroke:#000000" cx="38" cy="681" r="5" /><circle style="fill:none;stroke:#000000" cx="817" cy="583" r="5" /><circle style="fill:none;stroke:#000000" cx="200" cy="713" r="5" /><circle style="fill:none;stroke:#000000" cx="321" cy="673" r="5" /><circle style="fill:none;stroke:#000000" cx="752" cy="715" r="5" /><circle style="fill:none;stroke:#000000" cx="788" cy="745" r="5" /><circle style="fill:none;stroke:#000000" cx="210" cy="658" r="5" /><circle style="fill:none;stroke:#000000" cx="678" cy="494" r="5" /><circle style="fill:none;stroke:#000000" cx="40" cy="725" r="5" /><circle style="fill:none;stroke:#000000" cx="616" cy="383" r="5" /><circle style="fill:none;stroke:#000000" cx="96" cy="826" r="5" /><circle style="fill:none;stroke:#000000" cx="313" cy="565" r="5" /><circle style="fill:none;stroke:#000000" cx="565" cy="411" r="5" /><circle style="fill:none;stroke:#000000" cx="609" cy="479" r="5" /><circle style="fill:none;stroke:#000000" cx="314" cy="501" r="5" /><circle style="fill:none;stroke:#000000" cx="881" cy="647" r="5" /><circle style="fill:none;stroke:#000000" cx="154" cy="837" r="5" /><circle style="fill:none;stroke:#000000" cx="406" cy="489" r="5" /><circle style="fill:none;stroke:#000000" cx="636" cy="518" r="5" /><circle style="fill:none;stroke:#000000" cx="686" cy="633" r="5" /><circle style="fill:none;stroke:#000000" cx="367" cy="607" r="5" /><circle style="fill:none;stroke:#000000" cx="234" cy="585" r="5" /><circle style="fill:none;stroke:#000000" cx="578" cy="428" r="5" /><circle style="fill:none;stroke:#000000" cx="852" cy="821" r="5" /><circle style="fill:none;stroke:#000000" cx="42" cy="820" r="5" /><circle style="fill:none;stroke:#000000" cx="631" cy="573" r="5" /><circle style="fill:none;stroke:#000000" cx="427" cy="496" r="5" /><circle style="fill:none;stroke:#000000" cx="451" cy="335" r="5" /><circle style="fill:none;stroke:#000000" cx="336" cy="671" r="5" /><circle style="fill:none;stroke:#000000" cx="640" cy="544" r="5" /><circle style="fill:none;stroke:#000000" cx="554" cy="221" r="5" /><circle style="fill:none;stroke:#000000" cx="73" cy="774" r="5" /><circle style="fill:none;stroke:#000000" cx="222" cy="802" r="5" /><circle style="fill:none;stroke:#000000" cx="913" cy="783" r="5" /><circle style="fill:none;stroke:#000000" cx="453" cy="307" r="5" /><circle style="fill:none;stroke:#000000" cx="406" cy="422" r="5" /><circle style="fill:none;stroke:#000000" cx="660" cy="600" r="5" /><circle style="fill:none;stroke:#000000" cx="858" cy="871" r="5" /><circle style="fill:none;stroke:#000000" cx="913" cy="927" r="5" /><circle style="fill:none;stroke:#000000" cx="394" cy="487" r="5" /><circle style="fill:none;stroke:#000000" cx="858" cy="787" r="5" /><circle style="fill:none;stroke:#000000" cx="780" cy="841" r="5" /><circle style="fill:none;stroke:#000000" cx="617" cy="507" r="5" /><circle style="fill:none;stroke:#000000" cx="420" cy="435" r="5" /><circle style="fill:none;stroke:#000000" cx="740" cy="811" r="5" /><circle style="fill:none;stroke:#000000" cx="553" cy="320" r="5" /><circle style="fill:none;stroke:#000000" cx="954" cy="946" r="5" /><circle style="fill:none;stroke:#000000" cx="15" cy="787" r="5" /><circle style="fill:none;stroke:#000000" cx="755" cy="752" r="5" /><circle style="fill:none;stroke:#000000" cx="173" cy="862" r="5" /><circle style="fill:none;stroke:#000000" cx="289" cy="711" r="5" /><circle style="fill:none;stroke:#000000" cx="184" cy="914" r="5" /><circle style="fill:none;stroke:#000000" cx="940" cy="864" r="5" /><circle style="fill:none;stroke:#000000" cx="870" cy="795" r="5" /><circle style="fill:none;stroke:#000000" cx="380" cy="557" r="5" /><circle style="fill:none;stroke:#000000" cx="967" cy="987" r="5" /><circle style="fill:none;stroke:#000000" cx="297" cy="721" r="5" /><circle style="fill:none;stroke:#000000" cx="353" cy="570" r="5" /><circle style="fill:none;stroke:#000000" cx="716" cy="767" r="5" /><circle style="fill:none;stroke:#000000" cx="955" cy="975" r="5" /><circle style="fill:none;stroke:#000000" cx="838" cy="794" r="5" /><circle style="fill:none;stroke:#000000" cx="471" cy="195" r="5" /><circle style="fill:none;stroke:#000000" cx="884" cy="852" r="5" /><circle style="fill:none;stroke:#000000" cx="478" cy="183" r="5" /><circle style="fill:none;stroke:#000000" cx="232" cy="671" r="5" /><circle style="fill:none;stroke:#000000" cx="304" cy="720" r="5" /><circle style="fill:none;stroke:#000000" cx="292" cy="729" r="5" /><circle style="fill:none;stroke:#000000" cx="956" cy="826" r="5" /><circle style="fill:none;stroke:#000000" cx="567" cy="527" r="5" /><circle style="fill:none;stroke:#000000" cx="145" cy="861" r="5" /><circle style="fill:none;stroke:#000000" cx="934" cy="894" r="5" /><circle style="fill:none;stroke:#000000" cx="300" cy="758" r="5" /><circle style="fill:none;stroke:#000000" cx="788" cy="907" r="5" /><circle style="fill:none;stroke:#000000" cx="937" cy="814" r="5" /><circle style="fill:none;stroke:#000000" cx="687" cy="726" r="5" /><circle style="fill:none;stroke:#000000" cx="763" cy="904" r="5" /><circle style="fill:none;stroke:#000000" cx="755" cy="874" r="5" /><circle style="fill:none;stroke:#000000" cx="803" cy="911" r="5" /><circle style="fill:none;stroke:#000000" cx="99" cy="998" r="5" /><circle style="fill:none;stroke:#000000" cx="733" cy="685" r="5" /><circle style="fill:none;stroke:#000000" cx="613" cy="604" r="5" /><circle style="fill:none;stroke:#000000" cx="902" cy="883" r="5" /><circle style="fill:none;stroke:#000000" cx="186" cy="954" r="5" /><circle style="fill:none;stroke:#000000" cx="89" cy="994" r="5" /><circle style="fill:none;stroke:#000000" cx="60" cy="953" r="5" /><circle style="fill:none;stroke:#000000" cx="386" cy="648" r="5" /><circle style="fill:none;stroke:#000000" cx="175" cy="950" r="5" /><circle style="fill:none;stroke:#000000" cx="640" cy="744" r="5" /><circle style="fill:none;stroke:#000000" cx="273" cy="834" r="5" /><circle style="fill:none;stroke:#000000" cx="446" cy="489" r="5" /><circle style="fill:none;stroke:#000000" cx="940" cy="927" r="5" /><circle style="fill:none;stroke:#000000" cx="345" cy="846" r="5" /><circle style="fill:none;stroke:#000000" cx="212" cy="905" r="5" /><circle style="fill:none;stroke:#000000" cx="359" cy="767" r="5" /><circle style="fill:none;stroke:#000000" cx="308" cy="628" r="5" /><circle style="fill:none;stroke:#000000" cx="298" cy="731" r="5" /><circle style="fill:none;stroke:#000000" cx="319" cy="795" r="5" /><circle style="fill:none;stroke:#000000" cx="422" cy="716" r="5" /><circle style="fill:none;stroke:#000000" cx="753" cy="790" r="5" /><circle style="fill:none;stroke:#000000" cx="304" cy="899" r="5" /><circle style="fill:none;stroke:#000000" cx="350" cy="731" r="5" /><circle style="fill:none;stroke:#000000" cx="278" cy="806" r="5" /><circle style="fill:none;stroke:#000000" cx="614" cy="707" r="5" /><circle style="fill:none;stroke:#000000" cx="351" cy="712" r="5" /><circle style="fill:none;stroke:#000000" cx="343" cy="721" r="5" /><circle style="fill:none;stroke:#000000" cx="206" cy="897" r="5" /><circle style="fill:none;stroke:#000000" cx="709" cy="779" r="5" /><circle style="fill:none;stroke:#000000" cx="673" cy="925" r="5" /><circle style="fill:none;stroke:#000000" cx="612" cy="770" r="5" /><circle style="fill:none;stroke:#000000" cx="717" cy="911" r="5" /><circle style="fill:none;stroke:#000000" cx="230" cy="923" r="5" /><circle style="fill:none;stroke:#000000" cx="569" cy="462" r="5" /><circle style="fill:none;stroke:#000000" cx="50" cy="921" r="5" /><circle style="fill:none;stroke:#000000" cx="699" cy="886" r="5" /><circle style="fill:none;stroke:#000000" cx="367" cy="801" r="5" /><circle style="fill:none;stroke:#000000" cx="486" cy="317" r="5" /><circle style="fill:none;stroke:#000000" cx="879" cy="944" r="5" /><circle style="fill:none;stroke:#000000" cx="455" cy="563" r="5" /><circle style="fill:none;stroke:#000000" cx="650" cy="858" r="5" /><circle style="fill:none;stroke:#000000" cx="534" cy="532" r="5" /><circle style="fill:none;stroke:#000000" cx="780" cy="964" r="5" /><circle style="fill:none;stroke:#000000" cx="662" cy="869" r="5" /><circle style="fill:none;stroke:#000000" cx="755" cy="953" r="5" /><circle style="fill:none;stroke:#000000" cx="469" cy="476" r="5" /><circle style="fill:none;stroke:#000000" cx="704" cy="896" r="5" /><circle style="fill:none;stroke:#000000" cx="555" cy="521" r="5" /><circle style="fill:none;stroke:#000000" cx="534" cy="494" r="5" /><circle style="fill:none;stroke:#000000" cx="363" cy="943" r="5" /><circle style="fill:none;stroke:#000000" cx="549" cy="539" r="5" /><circle style="fill:none;stroke:#000000" cx="426" cy="626" r="5" /><circle style="fill:none;stroke:#000000" cx="442" cy="676" r="5" /><circle style="fill:none;stroke:#000000" cx="609" cy="775" r="5" /><circle style="fill:none;stroke:#000000" cx="588" cy="813" r="5" /><circle style="fill:none;stroke:#000000" cx="448" cy="788" r="5" /><circle style="fill:none;stroke:#000000" cx="626" cy="798" r="5" /><circle style="fill:none;stroke:#000000" cx="369" cy="885" r="5" /><circle style="fill:none;stroke:#000000" cx="395" cy="933" r="5" /><circle style="fill:none;stroke:#000000" cx="601" cy="884" r="5" /><circle style="fill:none;stroke:#000000" cx="446" cy="667" r="5" /><circle style="fill:none;stroke:#000000" cx="444" cy="649" r="5" /><circle style="fill:none;stroke:#000000" cx="644" cy="916" r="5" /><circle style="fill:none;stroke:#000000" cx="407" cy="881" r="5" /><circle style="fill:none;stroke:#000000" cx="575" cy="904" r="5" /><circle style="fill:none;stroke:#000000" cx="469" cy="726" r="5" /><circle style="fill:none;stroke:#000000" cx="486" cy="335" r="5" /><circle style="fill:none;stroke:#000000" cx="647" cy="929" r="5" /><circle style="fill:none;stroke:#000000" cx="582" cy="891" r="5" /><circle style="fill:none;stroke:#000000" cx="563" cy="958" r="5" /><circle style="fill:none;stroke:#000000" cx="563" cy="901" r="5" /><circle style="fill:none;stroke:#000000" cx="560" cy="806" r="5" /><circle style="fill:none;stroke:#000000" cx="363" cy="946" r="5" /><circle style="fill:none;stroke:#000000" cx="571" cy="941" r="5" /><circle style="fill:none;stroke:#000000" cx="449" cy="921" r="5" /><circle style="fill:none;stroke:#000000" cx="490" cy="511" r="5" /><circle style="fill:none;stroke:#000000" cx="537" cy="824" r="5" /><circle style="fill:none;stroke:#000000" cx="533" cy="795" r="5" /><circle style="fill:none;stroke:#000000" cx="392" cy="991" r="5" /><circle style="fill:none;stroke:#000000" cx="569" cy="921" r="5" /><circle style="fill:none;stroke:#000000" cx="448" cy="829" r="5" /><circle style="fill:none;stroke:#000000" cx="509" cy="470" r="5" /><circle style="fill:none;stroke:#000000" cx="549" cy="822" r="5" /><circle style="fill:none;stroke:#000000" cx="560" cy="915" r="5" /><circle style="fill:none;stroke:#000000" cx="481" cy="600" r="5" /><circle style="fill:none;stroke:#000000" cx="547" cy="946" r="5" /><circle style="fill:none;stroke:#000000" cx="550" cy="895" r="5" /><circle style="fill:none;stroke:#000000" cx="458" cy="892" r="5" /><circle style="fill:none;stroke:#000000" cx="527" cy="766" r="5" /><circle style="fill:none;stroke:#000000" cx="428" cy="952" r="5" /><circle style="fill:none;stroke:#000000" cx="543" cy="872" r="5" /><circle style="fill:none;stroke:#000000" cx="524" cy="844" r="5" /><circle style="fill:none;stroke:#000000" cx="536" cy="934" r="5" /><circle style="fill:none;stroke:#000000" cx="528" cy="968" r="5" /><circle style="fill:none;stroke:#000000" cx="512" cy="873" r="5" /><circle style="fill:none;stroke:#000000" cx="498" cy="127" r="5" /><circle style="fill:none;stroke:#000000" cx="491" cy="766" r="5" /><circle style="fill:none;stroke:#000000" cx="514" cy="830" r="5" /><circle style="fill:none;stroke:#000000" cx="507" cy="682" r="5" /><circle style="fill:none;stroke:#000000" cx="481" cy="908" r="5" /><circle style="fill:none;stroke:#000000" cx="496" cy="796" r="5" /><circle style="fill:none;stroke:#000000" cx="503" cy="832" r="5" /><circle style="fill:none;stroke:#000000" cx="503" cy="592" r="5" /><circle style="fill:none;stroke:#000000" cx="501" cy="798" r="5" /><circle style="fill:none;stroke:#0000ff" cx="30" cy="10" r="10" /><circle style="fill:none;stroke:#0000ff" cx="690" cy="10" r="10" /><circle style="fill:none;stroke:#0000ff" cx="700" cy="10" r="10" /><circle style="fill:none;stroke:#0000ff" cx="80" cy="10" r="10" /><circle style="fill:none;stroke:#0000ff" cx="60" cy="10" r="10" /><circle style="fill:none;stroke:#0000ff" cx="790" cy="10" r="10" /><circle style="fill:none;stroke:#0000ff" cx="160" cy="10" r="10" /><circle style="fill:none;stroke:#0000ff" cx="170" cy="10" r="10" /><circle style="fill:none;stroke:#0000ff" cx="90" cy="10" r="10" /><circle style="fill:none;stroke:#0000ff" cx="710" cy="10" r="10" /><circle style="fill:none;stroke:#0000ff" cx="70" cy="10" r="10" /><circle style="fill:none;stroke:#0000ff" cx="680" cy="10" r="10" /><circle style="fill:none;stroke:#0000ff" cx="230" cy="10" r="10" /><circle style="fill:none;stroke:#0000ff" cx="50" cy="10" r="10" /><circle style="fill:none;stroke:#0000ff" cx="720" cy="10" r="10" /><circle style="fill:none;stroke:#0000ff" cx="220" cy="10" r="10" /><text text-anchor="start" x="0" y="0" style="font-family:sans-serif;font-size:20;fill:#ff0000;fill-opacity:1;stroke:#ffffff;stroke-opacity:1;stroke-width:3;paint-order:stroke fill">Score = 45510828</text>
<text text-anchor="end" x="1000" y="40" style="font-family:sans-serif;font-size:20;fill:#ff0000;fill-opacity:1;stroke:#ffffff;stroke-opacity:1;stroke-width:3;paint-order:stroke fill">Score = 45510828</text>
</svg>
