<?xml version="1.0" encoding="UTF-8" standalone="no"?>
<svg width="1000" height="1000" xmlns="http://www.w3.org/2000/svg" xmlns:svg="http://www.w3.org/2000/svg">
<rect style="fill:none;stroke:#000000" x="0" y="0" width="1000" height="1000" />
<rect style="fill:none;stroke:#ff0000" x="379" y="380" width="159" height="248" />
<circle style="fill:none;stroke:#000000" cx="372" cy="634" r="5" /><circle style="fill:none;stroke:#000000" cx="500" cy="377" r="5" /><circle style="fill:none;stroke:#000000" cx="523" cy="650" r="5" /><circle style="fill:none;stroke:#000000" cx="512" cy="361" r="5" /><circle style="fill:none;stroke:#000000" cx="547" cy="652" r="5" /><circle style="fill:none;stroke:#000000" cx="544" cy="573" r="5" /><circle style="fill:none;stroke:#000000" cx="352" cy="382" r="5" /><circle style="fill:none;stroke:#000000" cx="352" cy="605" r="5" /><circle style="fill:none;stroke:#000000" cx="342" cy="349" r="5" /><circle style="fill:none;stroke:#000000" cx="480" cy="667" r="5" /><circle style="fill:none;stroke:#000000" cx="518" cy="677" r="5" /><circle style="fill:none;stroke:#000000" cx="564" cy="660" r="5" /><circle style="fill:none;stroke:#000000" cx="583" cy="610" r="5" /><circle style="fill:none;stroke:#000000" cx="552" cy="444" r="5" /><circle style="fill:none;stroke:#000000" cx="328" cy="612" r="5" /><circle style="fill:none;stroke:#000000" cx="610" cy="393" r="5" /><circle style="fill:none;stroke:#000000" cx="499" cy="321" r="5" /><circle style="fill:none;stroke:#000000" cx="573" cy="565" r="5" /><circle style="fill:none;stroke:#000000" cx="596" cy="642" r="5" /><circle style="fill:none;stroke:#000000" cx="325" cy="555" r="5" /><circle style="fill:none;stroke:#000000" cx="546" cy="682" r="5" /><circle style="fill:none;stroke:#000000" cx="324" cy="545" r="5" /><circle style="fill:none;stroke:#000000" cx="364" cy="540" r="5" /><circle style="fill:none;stroke:#000000" cx="586" cy="439" r="5" /><circle style="fill:none;stroke:#000000" cx="326" cy="457" r="5" /><circle style="fill:none;stroke:#000000" cx="553" cy="463" r="5" /><circle style="fill:none;stroke:#000000" cx="612" cy="415" r="5" /><circle style="fill:none;stroke:#000000" cx="355" cy="541" r="5" /><circle style="fill:none;stroke:#000000" cx="316" cy="320" r="5" /><circle style="fill:none;stroke:#000000" cx="594" cy="483" r="5" /><circle style="fill:none;stroke:#000000" cx="564" cy="489" r="5" /><circle style="fill:none;stroke:#000000" cx="420" cy="292" r="5" /><circle style="fill:none;stroke:#000000" cx="482" cy="703" r="5" /><circle style="fill:none;stroke:#000000" cx="350" cy="284" r="5" /><circle style="fill:none;stroke:#000000" cx="503" cy="298" r="5" /><circle style="fill:none;stroke:#000000" cx="569" cy="725" r="5" /><circle style="fill:none;stroke:#000000" cx="392" cy="736" r="5" /><circle style="fill:none;stroke:#000000" cx="524" cy="748" r="5" /><circle style="fill:none;stroke:#000000" cx="529" cy="748" r="5" /><circle style="fill:none;stroke:#000000" cx="414" cy="286" r="5" /><circle style="fill:none;stroke:#000000" cx="654" cy="595" r="5" /><circle style="fill:none;stroke:#000000" cx="352" cy="314" r="5" /><circle style="fill:none;stroke:#000000" cx="634" cy="392" r="5" /><circle style="fill:none;stroke:#000000" cx="468" cy="751" r="5" /><circle style="fill:none;stroke:#000000" cx="302" cy="488" r="5" /><circle style="fill:none;stroke:#000000" cx="319" cy="312" r="5" /><circle style="fill:none;stroke:#000000" cx="603" cy="704" r="5" /><circle style="fill:none;stroke:#000000" cx="336" cy="261" r="5" /><circle style="fill:none;stroke:#000000" cx="315" cy="285" r="5" /><circle style="fill:none;stroke:#000000" cx="576" cy="733" r="5" /><circle style="fill:none;stroke:#000000" cx="516" cy="731" r="5" /><circle style="fill:none;stroke:#000000" cx="273" cy="354" r="5" /><circle style="fill:none;stroke:#000000" cx="290" cy="715" r="5" /><circle style="fill:none;stroke:#000000" cx="679" cy="702" r="5" /><circle style="fill:none;stroke:#000000" cx="300" cy="307" r="5" /><circle style="fill:none;stroke:#000000" cx="239" cy="588" r="5" /><circle style="fill:none;stroke:#000000" cx="700" cy="695" r="5" /><circle style="fill:none;stroke:#000000" cx="410" cy="269" r="5" /><circle style="fill:none;stroke:#000000" cx="445" cy="765" r="5" /><circle style="fill:none;stroke:#000000" cx="338" cy="298" r="5" /><circle style="fill:none;stroke:#000000" cx="333" cy="732" r="5" /><circle style="fill:none;stroke:#000000" cx="345" cy="208" r="5" /><circle style="fill:none;stroke:#000000" cx="623" cy="753" r="5" /><circle style="fill:none;stroke:#000000" cx="721" cy="662" r="5" /><circle style="fill:none;stroke:#000000" cx="638" cy="539" r="5" /><circle style="fill:none;stroke:#000000" cx="412" cy="251" r="5" /><circle style="fill:none;stroke:#000000" cx="323" cy="248" r="5" /><circle style="fill:none;stroke:#000000" cx="262" cy="736" r="5" /><circle style="fill:none;stroke:#000000" cx="253" cy="701" r="5" /><circle style="fill:none;stroke:#000000" cx="667" cy="742" r="5" /><circle style="fill:none;stroke:#000000" cx="631" cy="456" r="5" /><circle style="fill:none;stroke:#000000" cx="245" cy="669" r="5" /><circle style="fill:none;stroke:#000000" cx="301" cy="755" r="5" /><circle style="fill:none;stroke:#000000" cx="581" cy="270" r="5" /><circle style="fill:none;stroke:#000000" cx="260" cy="459" r="5" /><circle style="fill:none;stroke:#000000" cx="210" cy="563" r="5" /><circle style="fill:none;stroke:#000000" cx="259" cy="397" r="5" /><circle style="fill:none;stroke:#000000" cx="478" cy="820" r="5" /><circle style="fill:none;stroke:#000000" cx="471" cy="740" r="5" /><circle style="fill:none;stroke:#000000" cx="357" cy="215" r="5" /><circle style="fill:none;stroke:#000000" cx="267" cy="764" r="5" /><circle style="fill:none;stroke:#000000" cx="173" cy="602" r="5" /><circle style="fill:none;stroke:#000000" cx="413" cy="190" r="5" /><circle style="fill:none;stroke:#000000" cx="516" cy="841" r="5" /><circle style="fill:none;stroke:#000000" cx="718" cy="681" r="5" /><circle style="fill:none;stroke:#000000" cx="485" cy="826" r="5" /><circle style="fill:none;stroke:#000000" cx="359" cy="153" r="5" /><circle style="fill:none;stroke:#000000" cx="720" cy="646" r="5" /><circle style="fill:none;stroke:#000000" cx="412" cy="195" r="5" /><circle style="fill:none;stroke:#000000" cx="660" cy="792" r="5" /><circle style="fill:none;stroke:#000000" cx="632" cy="819" r="5" /><circle style="fill:none;stroke:#000000" cx="573" cy="203" r="5" /><circle style="fill:none;stroke:#000000" cx="499" cy="168" r="5" /><circle style="fill:none;stroke:#000000" cx="574" cy="190" r="5" /><circle style="fill:none;stroke:#000000" cx="433" cy="785" r="5" /><circle style="fill:none;stroke:#000000" cx="707" cy="622" r="5" /><circle style="fill:none;stroke:#000000" cx="398" cy="782" r="5" /><circle style="fill:none;stroke:#000000" cx="686" cy="585" r="5" /><circle style="fill:none;stroke:#000000" cx="658" cy="769" r="5" /><circle style="fill:none;stroke:#000000" cx="579" cy="190" r="5" /><circle style="fill:none;stroke:#000000" cx="729" cy="717" r="5" /><circle style="fill:none;stroke:#000000" cx="214" cy="726" r="5" /><circle style="fill:none;stroke:#000000" cx="149" cy="573" r="5" /><circle style="fill:none;stroke:#000000" cx="274" cy="185" r="5" /><circle style="fill:none;stroke:#000000" cx="259" cy="793" r="5" /><circle style="fill:none;stroke:#000000" cx="197" cy="530" r="5" /><circle style="fill:none;stroke:#000000" cx="307" cy="814" r="5" /><circle style="fill:none;stroke:#000000" cx="167" cy="483" r="5" /><circle style="fill:none;stroke:#000000" cx="441" cy="202" r="5" /><circle style="fill:none;stroke:#000000" cx="490" cy="833" r="5" /><circle style="fill:none;stroke:#000000" cx="170" cy="758" r="5" /><circle style="fill:none;stroke:#000000" cx="390" cy="191" r="5" /><circle style="fill:none;stroke:#000000" cx="619" cy="796" r="5" /><circle style="fill:none;stroke:#000000" cx="204" cy="729" r="5" /><circle style="fill:none;stroke:#000000" cx="497" cy="165" r="5" /><circle style="fill:none;stroke:#000000" cx="280" cy="200" r="5" /><circle style="fill:none;stroke:#000000" cx="303" cy="171" r="5" /><circle style="fill:none;stroke:#000000" cx="430" cy="127" r="5" /><circle style="fill:none;stroke:#000000" cx="497" cy="212" r="5" /><circle style="fill:none;stroke:#000000" cx="728" cy="298" r="5" /><circle style="fill:none;stroke:#000000" cx="764" cy="701" r="5" /><circle style="fill:none;stroke:#000000" cx="728" cy="250" r="5" /><circle style="fill:none;stroke:#000000" cx="377" cy="793" r="5" /><circle style="fill:none;stroke:#000000" cx="228" cy="493" r="5" /><circle style="fill:none;stroke:#000000" cx="147" cy="335" r="5" /><circle style="fill:none;stroke:#000000" cx="712" cy="698" r="5" /><circle style="fill:none;stroke:#000000" cx="505" cy="865" r="5" /><circle style="fill:none;stroke:#000000" cx="208" cy="794" r="5" /><circle style="fill:none;stroke:#000000" cx="478" cy="855" r="5" /><circle style="fill:none;stroke:#000000" cx="743" cy="530" r="5" /><circle style="fill:none;stroke:#000000" cx="742" cy="588" r="5" /><circle style="fill:none;stroke:#000000" cx="434" cy="127" r="5" /><circle style="fill:none;stroke:#000000" cx="468" cy="816" r="5" /><circle style="fill:none;stroke:#000000" cx="796" cy="662" r="5" /><circle style="fill:none;stroke:#000000" cx="401" cy="155" r="5" /><circle style="fill:none;stroke:#000000" cx="698" cy="543" r="5" /><circle style="fill:none;stroke:#000000" cx="629" cy="824" r="5" /><circle style="fill:none;stroke:#000000" cx="750" cy="652" r="5" /><circle style="fill:none;stroke:#000000" cx="738" cy="316" r="5" /><circle style="fill:none;stroke:#000000" cx="606" cy="160" r="5" /><circle style="fill:none;stroke:#000000" cx="767" cy="637" r="5" /><circle style="fill:none;stroke:#000000" cx="516" cy="879" r="5" /><circle style="fill:none;stroke:#000000" cx="443" cy="826" r="5" /><circle style="fill:none;stroke:#000000" cx="377" cy="867" r="5" /><circle style="fill:none;stroke:#000000" cx="577" cy="99" r="5" /><circle style="fill:none;stroke:#000000" cx="103" cy="457" r="5" /><circle style="fill:none;stroke:#000000" cx="679" cy="807" r="5" /><circle style="fill:none;stroke:#000000" cx="157" cy="564" r="5" /><circle style="fill:none;stroke:#000000" cx="728" cy="704" r="5" /><circle style="fill:none;stroke:#000000" cx="747" cy="776" r="5" /><circle style="fill:none;stroke:#000000" cx="705" cy="842" r="5" /><circle style="fill:none;stroke:#000000" cx="792" cy="376" r="5" /><circle style="fill:none;stroke:#000000" cx="771" cy="275" r="5" /><circle style="fill:none;stroke:#000000" cx="481" cy="877" r="5" /><circle style="fill:none;stroke:#000000" cx="413" cy="129" r="5" /><circle style="fill:none;stroke:#000000" cx="111" cy="654" r="5" /><circle style="fill:none;stroke:#000000" cx="263" cy="172" r="5" /><circle style="fill:none;stroke:#000000" cx="142" cy="291" r="5" /><circle style="fill:none;stroke:#000000" cx="276" cy="889" r="5" /><circle style="fill:none;stroke:#000000" cx="206" cy="394" r="5" /><circle style="fill:none;stroke:#000000" cx="141" cy="568" r="5" /><circle style="fill:none;stroke:#000000" cx="404" cy="866" r="5" /><circle style="fill:none;stroke:#000000" cx="801" cy="324" r="5" /><circle style="fill:none;stroke:#000000" cx="481" cy="889" r="5" /><circle style="fill:none;stroke:#000000" cx="106" cy="346" r="5" /><circle style="fill:none;stroke:#000000" cx="383" cy="785" r="5" /><circle style="fill:none;stroke:#000000" cx="668" cy="113" r="5" /><circle style="fill:none;stroke:#000000" cx="280" cy="881" r="5" /><circle style="fill:none;stroke:#000000" cx="361" cy="884" r="5" /><circle style="fill:none;stroke:#000000" cx="773" cy="540" r="5" /><circle style="fill:none;stroke:#000000" cx="420" cy="210" r="5" /><circle style="fill:none;stroke:#000000" cx="171" cy="543" r="5" /><circle style="fill:none;stroke:#000000" cx="769" cy="850" r="5" /><circle style="fill:none;stroke:#000000" cx="211" cy="901" r="5" /><circle style="fill:none;stroke:#000000" cx="359" cy="95" r="5" /><circle style="fill:none;stroke:#000000" cx="152" cy="362" r="5" /><circle style="fill:none;stroke:#000000" cx="765" cy="881" r="5" /><circle style="fill:none;stroke:#000000" cx="685" cy="73" r="5" /><circle style="fill:none;stroke:#000000" cx="140" cy="741" r="5" /><circle style="fill:none;stroke:#000000" cx="564" cy="100" r="5" /><circle style="fill:none;stroke:#000000" cx="859" cy="301" r="5" /><circle style="fill:none;stroke:#000000" cx="583" cy="166" r="5" /><circle style="fill:none;stroke:#000000" cx="786" cy="663" r="5" /><circle style="fill:none;stroke:#000000" cx="135" cy="776" r="5" /><circle style="fill:none;stroke:#000000" cx="838" cy="694" r="5" /><circle style="fill:none;stroke:#000000" cx="476" cy="931" r="5" /><circle style="fill:none;stroke:#000000" cx="735" cy="170" r="5" /><circle style="fill:none;stroke:#000000" cx="822" cy="179" r="5" /><circle style="fill:none;stroke:#000000" cx="528" cy="883" r="5" /><circle style="fill:none;stroke:#000000" cx="384" cy="94" r="5" /><circle style="fill:none;stroke:#000000" cx="67" cy="371" r="5" /><circle style="fill:none;stroke:#000000" cx="881" cy="410" r="5" /><circle style="fill:none;stroke:#000000" cx="72" cy="730" r="5" /><circle style="fill:none;stroke:#000000" cx="331" cy="959" r="5" /><circle style="fill:none;stroke:#000000" cx="260" cy="84" r="5" /><circle style="fill:none;stroke:#000000" cx="120" cy="480" r="5" /><circle style="fill:none;stroke:#000000" cx="451" cy="889" r="5" /><circle style="fill:none;stroke:#000000" cx="476" cy="135" r="5" /><circle style="fill:none;stroke:#000000" cx="793" cy="552" r="5" /><circle style="fill:none;stroke:#000000" cx="191" cy="907" r="5" /><circle style="fill:none;stroke:#000000" cx="128" cy="446" r="5" /><circle style="fill:none;stroke:#000000" cx="186" cy="93" r="5" /><circle style="fill:none;stroke:#000000" cx="483" cy="44" r="5" /><circle style="fill:none;stroke:#000000" cx="108" cy="189" r="5" /><circle style="fill:none;stroke:#000000" cx="109" cy="367" r="5" /><circle style="fill:none;stroke:#000000" cx="137" cy="949" r="5" /><circle style="fill:none;stroke:#000000" cx="437" cy="958" r="5" /><circle style="fill:none;stroke:#000000" cx="414" cy="28" r="5" /><circle style="fill:none;stroke:#000000" cx="576" cy="8" r="5" /><circle style="fill:none;stroke:#000000" cx="659" cy="68" r="5" /><circle style="fill:none;stroke:#000000" cx="821" cy="195" r="5" /><circle style="fill:none;stroke:#000000" cx="664" cy="953" r="5" /><circle style="fill:none;stroke:#000000" cx="770" cy="100" r="5" /><circle style="fill:none;stroke:#000000" cx="389" cy="968" r="5" /><circle style="fill:none;stroke:#000000" cx="203" cy="953" r="5" /><circle style="fill:none;stroke:#000000" cx="315" cy="973" r="5" /><circle style="fill:none;stroke:#000000" cx="560" cy="40" r="5" /><circle style="fill:none;stroke:#000000" cx="392" cy="78" r="5" /><circle style="fill:none;stroke:#000000" cx="815" cy="838" r="5" /><circle style="fill:none;stroke:#000000" cx="593" cy="927" r="5" /><circle style="fill:none;stroke:#000000" cx="139" cy="104" r="5" /><circle style="fill:none;stroke:#000000" cx="716" cy="896" r="5" /><circle style="fill:none;stroke:#000000" cx="624" cy="950" r="5" /><circle style="fill:none;stroke:#000000" cx="269" cy="162" r="5" /><circle style="fill:none;stroke:#000000" cx="325" cy="42" r="5" /><circle style="fill:none;stroke:#000000" cx="757" cy="913" r="5" /><circle style="fill:none;stroke:#000000" cx="206" cy="148" r="5" /><circle style="fill:none;stroke:#000000" cx="890" cy="334" r="5" /><circle style="fill:none;stroke:#000000" cx="507" cy="913" r="5" /><circle style="fill:none;stroke:#000000" cx="648" cy="820" r="5" /><circle style="fill:none;stroke:#000000" cx="87" cy="912" r="5" /><circle style="fill:none;stroke:#000000" cx="843" cy="729" r="5" /><circle style="fill:none;stroke:#000000" cx="499" cy="990" r="5" /><circle style="fill:none;stroke:#000000" cx="876" cy="442" r="5" /><circle style="fill:none;stroke:#000000" cx="718" cy="874" r="5" /><circle style="fill:none;stroke:#000000" cx="533" cy="50" r="5" /><circle style="fill:none;stroke:#000000" cx="534" cy="13" r="5" /><circle style="fill:none;stroke:#000000" cx="870" cy="736" r="5" /><circle style="fill:none;stroke:#000000" cx="838" cy="512" r="5" /><circle style="fill:none;stroke:#000000" cx="726" cy="103" r="5" /><circle style="fill:none;stroke:#000000" cx="71" cy="149" r="5" /><circle style="fill:none;stroke:#000000" cx="712" cy="854" r="5" /><circle style="fill:none;stroke:#000000" cx="8" cy="607" r="5" /><circle style="fill:none;stroke:#000000" cx="44" cy="581" r="5" /><circle style="fill:none;stroke:#000000" cx="39" cy="260" r="5" /><circle style="fill:none;stroke:#000000" cx="177" cy="25" r="5" /><circle style="fill:none;stroke:#000000" cx="838" cy="563" r="5" /><circle style="fill:none;stroke:#000000" cx="798" cy="581" r="5" /><circle style="fill:none;stroke:#000000" cx="167" cy="101" r="5" /><circle style="fill:none;stroke:#000000" cx="632" cy="101" r="5" /><circle style="fill:none;stroke:#000000" cx="87" cy="441" r="5" /><circle style="fill:none;stroke:#000000" cx="40" cy="796" r="5" /><circle style="fill:none;stroke:#000000" cx="25" cy="708" r="5" /><circle style="fill:none;stroke:#000000" cx="339" cy="989" r="5" /><circle style="fill:none;stroke:#000000" cx="251" cy="7" r="5" /><circle style="fill:none;stroke:#000000" cx="821" cy="634" r="5" /><circle style="fill:none;stroke:#000000" cx="741" cy="35" r="5" /><circle style="fill:none;stroke:#000000" cx="811" cy="474" r="5" /><circle style="fill:none;stroke:#000000" cx="850" cy="154" r="5" /><circle style="fill:none;stroke:#000000" cx="342" cy="984" r="5" /><circle style="fill:none;stroke:#000000" cx="36" cy="637" r="5" /><circle style="fill:none;stroke:#000000" cx="122" cy="201" r="5" /><circle style="fill:none;stroke:#000000" cx="59" cy="375" r="5" /><circle style="fill:none;stroke:#000000" cx="448" cy="975" r="5" /><circle style="fill:none;stroke:#000000" cx="333" cy="118" r="5" /><circle style="fill:none;stroke:#000000" cx="831" cy="852" r="5" /><circle style="fill:none;stroke:#000000" cx="109" cy="960" r="5" /><circle style="fill:none;stroke:#000000" cx="273" cy="125" r="5" /><circle style="fill:none;stroke:#000000" cx="842" cy="779" r="5" /><circle style="fill:none;stroke:#000000" cx="683" cy="927" r="5" /><circle style="fill:none;stroke:#000000" cx="59" cy="761" r="5" /><circle style="fill:none;stroke:#000000" cx="777" cy="173" r="5" /><circle style="fill:none;stroke:#000000" cx="549" cy="105" r="5" /><circle style="fill:none;stroke:#000000" cx="466" cy="47" r="5" /><circle style="fill:none;stroke:#000000" cx="29" cy="513" r="5" /><circle style="fill:none;stroke:#000000" cx="215" cy="101" r="5" /><circle style="fill:none;stroke:#000000" cx="86" cy="862" r="5" /><circle style="fill:none;stroke:#000000" cx="957" cy="361" r="5" /><circle style="fill:none;stroke:#000000" cx="104" cy="71" r="5" /><circle style="fill:none;stroke:#000000" cx="875" cy="192" r="5" /><circle style="fill:none;stroke:#000000" cx="787" cy="891" r="5" /><circle style="fill:none;stroke:#000000" cx="475" cy="20" r="5" /><circle style="fill:none;stroke:#000000" cx="842" cy="291" r="5" /><circle style="fill:none;stroke:#000000" cx="562" cy="64" r="5" /><circle style="fill:none;stroke:#000000" cx="132" cy="485" r="5" /><circle style="fill:none;stroke:#000000" cx="490" cy="17" r="5" /><circle style="fill:none;stroke:#000000" cx="821" cy="153" r="5" /><circle style="fill:none;stroke:#000000" cx="924" cy="738" r="5" /><circle style="fill:none;stroke:#000000" cx="900" cy="585" r="5" /><circle style="fill:none;stroke:#000000" cx="736" cy="847" r="5" /><circle style="fill:none;stroke:#000000" cx="674" cy="114" r="5" /><circle style="fill:none;stroke:#000000" cx="406" cy="977" r="5" /><circle style="fill:none;stroke:#000000" cx="817" cy="101" r="5" /><circle style="fill:none;stroke:#000000" cx="90" cy="983" r="5" /><circle style="fill:none;stroke:#000000" cx="818" cy="876" r="5" /><circle style="fill:none;stroke:#000000" cx="434" cy="6" r="5" /><circle style="fill:none;stroke:#000000" cx="267" cy="42" r="5" /><circle style="fill:none;stroke:#000000" cx="888" cy="128" r="5" /><circle style="fill:none;stroke:#000000" cx="927" cy="837" r="5" /><circle style="fill:none;stroke:#000000" cx="61" cy="39" r="5" /><circle style="fill:none;stroke:#000000" cx="909" cy="759" r="5" /><circle style="fill:none;stroke:#000000" cx="981" cy="234" r="5" /><circle style="fill:none;stroke:#000000" cx="19" cy="595" r="5" /><circle style="fill:none;stroke:#000000" cx="643" cy="12" r="5" /><circle style="fill:none;stroke:#000000" cx="661" cy="46" r="5" /><circle style="fill:none;stroke:#000000" cx="78" cy="498" r="5" /><circle style="fill:none;stroke:#000000" cx="711" cy="913" r="5" /><circle style="fill:none;stroke:#000000" cx="880" cy="470" r="5" /><circle style="fill:none;stroke:#000000" cx="901" cy="22" r="5" /><circle style="fill:none;stroke:#000000" cx="33" cy="517" r="5" /><circle style="fill:none;stroke:#000000" cx="54" cy="995" r="5" /><circle style="fill:none;stroke:#000000" cx="894" cy="415" r="5" /><circle style="fill:none;stroke:#000000" cx="110" cy="951" r="5" /><circle style="fill:none;stroke:#000000" cx="432" cy="20" r="5" /><circle style="fill:none;stroke:#000000" cx="140" cy="953" r="5" /><circle style="fill:none;stroke:#000000" cx="838" cy="317" r="5" /><circle style="fill:none;stroke:#000000" cx="27" cy="884" r="5" /><circle style="fill:none;stroke:#000000" cx="166" cy="784" r="5" /><circle style="fill:none;stroke:#000000" cx="933" cy="719" r="5" /><circle style="fill:none;stroke:#000000" cx="328" cy="923" r="5" /><circle style="fill:none;stroke:#000000" cx="36" cy="159" r="5" /><circle style="fill:none;stroke:#000000" cx="810" cy="68" r="5" /><circle style="fill:none;stroke:#000000" cx="529" cy="27" r="5" /><circle style="fill:none;stroke:#000000" cx="4" cy="627" r="5" /><circle style="fill:none;stroke:#000000" cx="771" cy="940" r="5" /><circle style="fill:none;stroke:#000000" cx="816" cy="18" r="5" /><circle style="fill:none;stroke:#000000" cx="8" cy="286" r="5" /><circle style="fill:none;stroke:#000000" cx="0" cy="532" r="5" /><circle style="fill:none;stroke:#000000" cx="582" cy="0" r="5" /><circle style="fill:none;stroke:#000000" cx="683" cy="975" r="5" /><circle style="fill:none;stroke:#000000" cx="924" cy="221" r="5" /><circle style="fill:none;stroke:#000000" cx="87" cy="746" r="5" /><circle style="fill:none;stroke:#000000" cx="879" cy="814" r="5" /><circle style="fill:none;stroke:#000000" cx="128" cy="982" r="5" /><circle style="fill:none;stroke:#000000" cx="27" cy="676" r="5" /><circle style="fill:none;stroke:#000000" cx="863" cy="553" r="5" /><circle style="fill:none;stroke:#000000" cx="960" cy="838" r="5" /><circle style="fill:none;stroke:#000000" cx="953" cy="744" r="5" /><circle style="fill:none;stroke:#000000" cx="110" cy="93" r="5" /><circle style="fill:none;stroke:#000000" cx="945" cy="524" r="5" /><circle style="fill:none;stroke:#000000" cx="111" cy="680" r="5" /><circle style="fill:none;stroke:#000000" cx="940" cy="479" r="5" /><circle style="fill:none;stroke:#000000" cx="987" cy="355" r="5" /><circle style="fill:none;stroke:#000000" cx="676" cy="929" r="5" /><circle style="fill:none;stroke:#000000" cx="846" cy="562" r="5" /><circle style="fill:none;stroke:#000000" cx="200" cy="41" r="5" /><circle style="fill:none;stroke:#000000" cx="900" cy="821" r="5" /><circle style="fill:none;stroke:#000000" cx="864" cy="495" r="5" /><circle style="fill:none;stroke:#000000" cx="668" cy="10" r="5" /><circle style="fill:none;stroke:#000000" cx="907" cy="894" r="5" /><circle style="fill:none;stroke:#000000" cx="977" cy="698" r="5" /><circle style="fill:none;stroke:#000000" cx="839" cy="43" r="5" /><circle style="fill:none;stroke:#000000" cx="911" cy="963" r="5" /><circle style="fill:none;stroke:#000000" cx="605" cy="967" r="5" /><circle style="fill:none;stroke:#000000" cx="4" cy="260" r="5" /><circle style="fill:none;stroke:#000000" cx="432" cy="56" r="5" /><circle style="fill:none;stroke:#000000" cx="982" cy="251" r="5" /><circle style="fill:none;stroke:#000000" cx="946" cy="824" r="5" /><circle style="fill:none;stroke:#000000" cx="634" cy="981" r="5" /><circle style="fill:none;stroke:#000000" cx="972" cy="423" r="5" /><circle style="fill:none;stroke:#000000" cx="889" cy="8" r="5" /><circle style="fill:none;stroke:#000000" cx="889" cy="949" r="5" /><circle style="fill:none;stroke:#000000" cx="848" cy="57" r="5" /><circle style="fill:none;stroke:#000000" cx="993" cy="392" r="5" /><circle style="fill:none;stroke:#000000" cx="979" cy="511" r="5" /><circle style="fill:none;stroke:#000000" cx="200" cy="27" r="5" /><circle style="fill:none;stroke:#000000" cx="197" cy="841" r="5" /><circle style="fill:none;stroke:#000000" cx="854" cy="460" r="5" /><circle style="fill:none;stroke:#000000" cx="126" cy="3" r="5" /><circle style="fill:none;stroke:#000000" cx="990" cy="534" r="5" /><circle style="fill:none;stroke:#000000" cx="841" cy="961" r="5" /><circle style="fill:none;stroke:#000000" cx="9" cy="30" r="5" /><circle style="fill:none;stroke:#000000" cx="942" cy="900" r="5" /><circle style="fill:none;stroke:#000000" cx="814" cy="68" r="5" /><circle style="fill:none;stroke:#000000" cx="876" cy="952" r="5" /><circle style="fill:none;stroke:#000000" cx="974" cy="0" r="5" /><circle style="fill:none;stroke:#000000" cx="954" cy="103" r="5" /><circle style="fill:none;stroke:#000000" cx="986" cy="81" r="5" /><circle style="fill:none;stroke:#000000" cx="981" cy="896" r="5" /><circle style="fill:none;stroke:#000000" cx="989" cy="90" r="5" /><circle style="fill:none;stroke:#000000" cx="975" cy="387" r="5" /><circle style="fill:none;stroke:#000000" cx="907" cy="832" r="5" /><circle style="fill:none;stroke:#000000" cx="931" cy="500" r="5" /><circle style="fill:none;stroke:#000000" cx="961" cy="778" r="5" /><circle style="fill:none;stroke:#000000" cx="702" cy="990" r="5" /><circle style="fill:none;stroke:#000000" cx="5" cy="797" r="5" /><circle style="fill:none;stroke:#000000" cx="994" cy="587" r="5" /><circle style="fill:none;stroke:#000000" cx="961" cy="584" r="5" /><circle style="fill:none;stroke:#000000" cx="977" cy="75" r="5" /><circle style="fill:none;stroke:#000000" cx="927" cy="959" r="5" /><circle style="fill:none;stroke:#000000" cx="74" cy="96" r="5" /><circle style="fill:none;stroke:#000000" cx="962" cy="4" r="5" /><circle style="fill:none;stroke:#000000" cx="967" cy="26" r="5" /><circle style="fill:none;stroke:#000000" cx="979" cy="897" r="5" /><circle style="fill:none;stroke:#000000" cx="979" cy="952" r="5" /><circle style="fill:none;stroke:#000000" cx="952" cy="909" r="5" /><circle style="fill:none;stroke:#000000" cx="842" cy="999" r="5" /><circle style="fill:none;stroke:#000000" cx="948" cy="908" r="5" /><circle style="fill:none;stroke:#000000" cx="6" cy="75" r="5" /><circle style="fill:none;stroke:#000000" cx="969" cy="971" r="5" /><circle style="fill:none;stroke:#0000ff" cx="499" cy="390" r="10" /><circle style="fill:none;stroke:#0000ff" cx="509" cy="390" r="10" /><circle style="fill:none;stroke:#0000ff" cx="389" cy="390" r="10" /><circle style="fill:none;stroke:#0000ff" cx="489" cy="390" r="10" /><circle style="fill:none;stroke:#0000ff" cx="499" cy="570" r="10" /><circle style="fill:none;stroke:#0000ff" cx="519" cy="570" r="10" /><circle style="fill:none;stroke:#0000ff" cx="519" cy="390" r="10" /><circle style="fill:none;stroke:#0000ff" cx="519" cy="580" r="10" /><circle style="fill:none;stroke:#0000ff" cx="519" cy="450" r="10" /><circle style="fill:none;stroke:#0000ff" cx="519" cy="470" r="10" /><text text-anchor="start" x="379" y="380" style="font-family:sans-serif;font-size:20;fill:#ff0000;fill-opacity:1;stroke:#ffffff;stroke-opacity:1;stroke-width:3;paint-order:stroke fill">Score = 11328694</text>
<text text-anchor="end" x="538" y="648" style="font-family:sans-serif;font-size:20;fill:#ff0000;fill-opacity:1;stroke:#ffffff;stroke-opacity:1;stroke-width:3;paint-order:stroke fill">Score = 11328694</text>
</svg>
