<?xml version="1.0" encoding="UTF-8" standalone="no"?>
<svg width="1000" height="1000" xmlns="http://www.w3.org/2000/svg" xmlns:svg="http://www.w3.org/2000/svg">
<rect style="fill:none;stroke:#000000" x="0" y="0" width="1000" height="1000" />
<rect style="fill:none;stroke:#ff0000" x="875" y="107" width="105" height="175" />
<circle style="fill:none;stroke:#000000" cx="853" cy="131" r="5" /><circle style="fill:none;stroke:#000000" cx="890" cy="55" r="5" /><circle style="fill:none;stroke:#000000" cx="866" cy="318" r="5" /><circle style="fill:none;stroke:#000000" cx="849" cy="327" r="5" /><circle style="fill:none;stroke:#000000" cx="843" cy="66" r="5" /><circle style="fill:none;stroke:#000000" cx="792" cy="81" r="5" /><circle style="fill:none;stroke:#000000" cx="951" cy="446" r="5" /><circle style="fill:none;stroke:#000000" cx="723" cy="69" r="5" /><circle style="fill:none;stroke:#000000" cx="756" cy="132" r="5" /><circle style="fill:none;stroke:#000000" cx="730" cy="330" r="5" /><circle style="fill:none;stroke:#000000" cx="985" cy="423" r="5" /><circle style="fill:none;stroke:#000000" cx="756" cy="188" r="5" /><circle style="fill:none;stroke:#000000" cx="694" cy="152" r="5" /><circle style="fill:none;stroke:#000000" cx="625" cy="94" r="5" /><circle style="fill:none;stroke:#000000" cx="634" cy="277" r="5" /><circle style="fill:none;stroke:#000000" cx="798" cy="539" r="5" /><circle style="fill:none;stroke:#000000" cx="688" cy="197" r="5" /><circle style="fill:none;stroke:#000000" cx="611" cy="99" r="5" /><circle style="fill:none;stroke:#000000" cx="822" cy="351" r="5" /><circle style="fill:none;stroke:#000000" cx="730" cy="180" r="5" /><circle style="fill:none;stroke:#000000" cx="911" cy="627" r="5" /><circle style="fill:none;stroke:#000000" cx="561" cy="483" r="5" /><circle style="fill:none;stroke:#000000" cx="875" cy="580" r="5" /><circle style="fill:none;stroke:#000000" cx="596" cy="524" r="5" /><circle style="fill:none;stroke:#000000" cx="542" cy="424" r="5" /><circle style="fill:none;stroke:#000000" cx="554" cy="187" r="5" /><circle style="fill:none;stroke:#000000" cx="479" cy="420" r="5" /><circle style="fill:none;stroke:#000000" cx="466" cy="318" r="5" /><circle style="fill:none;stroke:#000000" cx="499" cy="419" r="5" /><circle style="fill:none;stroke:#000000" cx="659" cy="177" r="5" /><circle style="fill:none;stroke:#000000" cx="708" cy="743" r="5" /><circle style="fill:none;stroke:#000000" cx="848" cy="752" r="5" /><circle style="fill:none;stroke:#000000" cx="419" cy="524" r="5" /><circle style="fill:none;stroke:#000000" cx="404" cy="400" r="5" /><circle style="fill:none;stroke:#000000" cx="627" cy="597" r="5" /><circle style="fill:none;stroke:#000000" cx="954" cy="679" r="5" /><circle style="fill:none;stroke:#000000" cx="827" cy="716" r="5" /><circle style="fill:none;stroke:#000000" cx="522" cy="116" r="5" /><circle style="fill:none;stroke:#000000" cx="436" cy="351" r="5" /><circle style="fill:none;stroke:#000000" cx="589" cy="651" r="5" /><circle style="fill:none;stroke:#000000" cx="737" cy="809" r="5" /><circle style="fill:none;stroke:#000000" cx="562" cy="694" r="5" /><circle style="fill:none;stroke:#000000" cx="395" cy="0" r="5" /><circle style="fill:none;stroke:#000000" cx="738" cy="752" r="5" /><circle style="fill:none;stroke:#000000" cx="888" cy="562" r="5" /><circle style="fill:none;stroke:#000000" cx="336" cy="533" r="5" /><circle style="fill:none;stroke:#000000" cx="493" cy="111" r="5" /><circle style="fill:none;stroke:#000000" cx="321" cy="479" r="5" /><circle style="fill:none;stroke:#000000" cx="441" cy="225" r="5" /><circle style="fill:none;stroke:#000000" cx="428" cy="311" r="5" /><circle style="fill:none;stroke:#000000" cx="965" cy="863" r="5" /><circle style="fill:none;stroke:#000000" cx="338" cy="221" r="5" /><circle style="fill:none;stroke:#000000" cx="607" cy="711" r="5" /><circle style="fill:none;stroke:#000000" cx="207" cy="433" r="5" /><circle style="fill:none;stroke:#000000" cx="767" cy="767" r="5" /><circle style="fill:none;stroke:#000000" cx="263" cy="617" r="5" /><circle style="fill:none;stroke:#000000" cx="256" cy="393" r="5" /><circle style="fill:none;stroke:#000000" cx="748" cy="864" r="5" /><circle style="fill:none;stroke:#000000" cx="338" cy="64" r="5" /><circle style="fill:none;stroke:#000000" cx="807" cy="844" r="5" /><circle style="fill:none;stroke:#000000" cx="192" cy="672" r="5" /><circle style="fill:none;stroke:#000000" cx="184" cy="371" r="5" /><circle style="fill:none;stroke:#000000" cx="473" cy="828" r="5" /><circle style="fill:none;stroke:#000000" cx="715" cy="910" r="5" /><circle style="fill:none;stroke:#000000" cx="122" cy="425" r="5" /><circle style="fill:none;stroke:#000000" cx="286" cy="747" r="5" /><circle style="fill:none;stroke:#000000" cx="415" cy="791" r="5" /><circle style="fill:none;stroke:#000000" cx="158" cy="617" r="5" /><circle style="fill:none;stroke:#000000" cx="602" cy="938" r="5" /><circle style="fill:none;stroke:#000000" cx="176" cy="210" r="5" /><circle style="fill:none;stroke:#000000" cx="338" cy="210" r="5" /><circle style="fill:none;stroke:#000000" cx="213" cy="83" r="5" /><circle style="fill:none;stroke:#000000" cx="246" cy="756" r="5" /><circle style="fill:none;stroke:#000000" cx="191" cy="911" r="5" /><circle style="fill:none;stroke:#000000" cx="21" cy="19" r="5" /><circle style="fill:none;stroke:#000000" cx="178" cy="471" r="5" /><circle style="fill:none;stroke:#000000" cx="259" cy="160" r="5" /><circle style="fill:none;stroke:#000000" cx="186" cy="149" r="5" /><circle style="fill:none;stroke:#000000" cx="305" cy="763" r="5" /><circle style="fill:none;stroke:#000000" cx="127" cy="233" r="5" /><circle style="fill:none;stroke:#000000" cx="844" cy="837" r="5" /><circle style="fill:none;stroke:#000000" cx="6" cy="99" r="5" /><circle style="fill:none;stroke:#000000" cx="161" cy="610" r="5" /><circle style="fill:none;stroke:#000000" cx="93" cy="221" r="5" /><circle style="fill:none;stroke:#000000" cx="92" cy="796" r="5" /><circle style="fill:none;stroke:#000000" cx="78" cy="425" r="5" /><circle style="fill:none;stroke:#000000" cx="143" cy="894" r="5" /><circle style="fill:none;stroke:#000000" cx="21" cy="807" r="5" /><circle style="fill:none;stroke:#000000" cx="53" cy="276" r="5" /><circle style="fill:none;stroke:#000000" cx="51" cy="717" r="5" /><circle style="fill:none;stroke:#000000" cx="31" cy="984" r="5" /><circle style="fill:none;stroke:#000000" cx="46" cy="471" r="5" /><circle style="fill:none;stroke:#000000" cx="59" cy="89" r="5" /><circle style="fill:none;stroke:#000000" cx="4" cy="4" r="5" /><circle style="fill:none;stroke:#000000" cx="341" cy="456" r="5" /><circle style="fill:none;stroke:#000000" cx="159" cy="215" r="5" /><circle style="fill:none;stroke:#000000" cx="67" cy="645" r="5" /><circle style="fill:none;stroke:#000000" cx="267" cy="912" r="5" /><circle style="fill:none;stroke:#000000" cx="74" cy="59" r="5" /><circle style="fill:none;stroke:#000000" cx="122" cy="485" r="5" /><circle style="fill:none;stroke:#0000ff" cx="895" cy="267" r="10" /><circle style="fill:none;stroke:#0000ff" cx="885" cy="127" r="10" /><circle style="fill:none;stroke:#0000ff" cx="905" cy="267" r="10" /><circle style="fill:none;stroke:#0000ff" cx="885" cy="267" r="10" /><circle style="fill:none;stroke:#0000ff" cx="885" cy="137" r="10" /><text text-anchor="start" x="875" y="107" style="font-family:sans-serif;font-size:20;fill:#ff0000;fill-opacity:1;stroke:#ffffff;stroke-opacity:1;stroke-width:3;paint-order:stroke fill">Score = 1552869</text>
<text text-anchor="end" x="980" y="302" style="font-family:sans-serif;font-size:20;fill:#ff0000;fill-opacity:1;stroke:#ffffff;stroke-opacity:1;stroke-width:3;paint-order:stroke fill">Score = 1552869</text>
</svg>
