<?xml version="1.0" encoding="UTF-8" standalone="no"?>
<svg width="9948" height="8811" xmlns="http://www.w3.org/2000/svg" xmlns:svg="http://www.w3.org/2000/svg">
<rect style="fill:none;stroke:#000000" x="0" y="0" width="9948" height="8811" />
<rect style="fill:none;stroke:#ff0000" x="0" y="0" width="1301" height="1815" />
<circle style="fill:none;stroke:#000000" cx="1404" cy="10" r="5" /><circle style="fill:none;stroke:#000000" cx="1327" cy="1646" r="5" /><circle style="fill:none;stroke:#000000" cx="1487" cy="2085" r="5" /><circle style="fill:none;stroke:#000000" cx="1565" cy="2358" r="5" /><circle style="fill:none;stroke:#000000" cx="419" cy="2263" r="5" /><circle style="fill:none;stroke:#000000" cx="1990" cy="1997" r="5" /><circle style="fill:none;stroke:#000000" cx="546" cy="2310" r="5" /><circle style="fill:none;stroke:#000000" cx="1937" cy="2011" r="5" /><circle style="fill:none;stroke:#000000" cx="2000" cy="2240" r="5" /><circle style="fill:none;stroke:#000000" cx="2100" cy="1533" r="5" /><circle style="fill:none;stroke:#000000" cx="2135" cy="1745" r="5" /><circle style="fill:none;stroke:#000000" cx="2082" cy="36" r="5" /><circle style="fill:none;stroke:#000000" cx="2075" cy="1343" r="5" /><circle style="fill:none;stroke:#000000" cx="1760" cy="2769" r="5" /><circle style="fill:none;stroke:#000000" cx="2174" cy="2375" r="5" /><circle style="fill:none;stroke:#000000" cx="2124" cy="90" r="5" /><circle style="fill:none;stroke:#000000" cx="2449" cy="1635" r="5" /><circle style="fill:none;stroke:#000000" cx="2576" cy="686" r="5" /><circle style="fill:none;stroke:#000000" cx="884" cy="3120" r="5" /><circle style="fill:none;stroke:#000000" cx="2607" cy="1234" r="5" /><circle style="fill:none;stroke:#000000" cx="2844" cy="574" r="5" /><circle style="fill:none;stroke:#000000" cx="2351" cy="78" r="5" /><circle style="fill:none;stroke:#000000" cx="1072" cy="3511" r="5" /><circle style="fill:none;stroke:#000000" cx="2984" cy="1806" r="5" /><circle style="fill:none;stroke:#000000" cx="1491" cy="3254" r="5" /><circle style="fill:none;stroke:#000000" cx="307" cy="3592" r="5" /><circle style="fill:none;stroke:#000000" cx="1972" cy="3603" r="5" /><circle style="fill:none;stroke:#000000" cx="3069" cy="323" r="5" /><circle style="fill:none;stroke:#000000" cx="3179" cy="357" r="5" /><circle style="fill:none;stroke:#000000" cx="1849" cy="2892" r="5" /><circle style="fill:none;stroke:#000000" cx="3106" cy="2788" r="5" /><circle style="fill:none;stroke:#000000" cx="719" cy="3550" r="5" /><circle style="fill:none;stroke:#000000" cx="3001" cy="2471" r="5" /><circle style="fill:none;stroke:#000000" cx="1018" cy="3841" r="5" /><circle style="fill:none;stroke:#000000" cx="3075" cy="879" r="5" /><circle style="fill:none;stroke:#000000" cx="3521" cy="202" r="5" /><circle style="fill:none;stroke:#000000" cx="2930" cy="3091" r="5" /><circle style="fill:none;stroke:#000000" cx="496" cy="4363" r="5" /><circle style="fill:none;stroke:#000000" cx="3186" cy="3508" r="5" /><circle style="fill:none;stroke:#000000" cx="4147" cy="1775" r="5" /><circle style="fill:none;stroke:#000000" cx="2684" cy="3890" r="5" /><circle style="fill:none;stroke:#000000" cx="3735" cy="2891" r="5" /><circle style="fill:none;stroke:#000000" cx="4404" cy="89" r="5" /><circle style="fill:none;stroke:#000000" cx="4104" cy="205" r="5" /><circle style="fill:none;stroke:#000000" cx="2313" cy="4386" r="5" /><circle style="fill:none;stroke:#000000" cx="3576" cy="3721" r="5" /><circle style="fill:none;stroke:#000000" cx="1379" cy="4926" r="5" /><circle style="fill:none;stroke:#000000" cx="3589" cy="1345" r="5" /><circle style="fill:none;stroke:#000000" cx="4519" cy="3267" r="5" /><circle style="fill:none;stroke:#000000" cx="4333" cy="2928" r="5" /><circle style="fill:none;stroke:#000000" cx="3581" cy="3269" r="5" /><circle style="fill:none;stroke:#000000" cx="2036" cy="3977" r="5" /><circle style="fill:none;stroke:#000000" cx="4874" cy="3029" r="5" /><circle style="fill:none;stroke:#000000" cx="4628" cy="2850" r="5" /><circle style="fill:none;stroke:#000000" cx="3997" cy="2400" r="5" /><circle style="fill:none;stroke:#000000" cx="4543" cy="4183" r="5" /><circle style="fill:none;stroke:#000000" cx="3680" cy="3088" r="5" /><circle style="fill:none;stroke:#000000" cx="4199" cy="615" r="5" /><circle style="fill:none;stroke:#000000" cx="3611" cy="4258" r="5" /><circle style="fill:none;stroke:#000000" cx="21" cy="5390" r="5" /><circle style="fill:none;stroke:#000000" cx="4546" cy="2690" r="5" /><circle style="fill:none;stroke:#000000" cx="972" cy="3019" r="5" /><circle style="fill:none;stroke:#000000" cx="4235" cy="271" r="5" /><circle style="fill:none;stroke:#000000" cx="4747" cy="1927" r="5" /><circle style="fill:none;stroke:#000000" cx="1877" cy="4818" r="5" /><circle style="fill:none;stroke:#000000" cx="2294" cy="4984" r="5" /><circle style="fill:none;stroke:#000000" cx="1490" cy="5284" r="5" /><circle style="fill:none;stroke:#000000" cx="2588" cy="4780" r="5" /><circle style="fill:none;stroke:#000000" cx="2997" cy="3956" r="5" /><circle style="fill:none;stroke:#000000" cx="1626" cy="6027" r="5" /><circle style="fill:none;stroke:#000000" cx="4920" cy="2470" r="5" /><circle style="fill:none;stroke:#000000" cx="4852" cy="1162" r="5" /><circle style="fill:none;stroke:#000000" cx="3525" cy="4363" r="5" /><circle style="fill:none;stroke:#000000" cx="3387" cy="5295" r="5" /><circle style="fill:none;stroke:#000000" cx="4974" cy="4661" r="5" /><circle style="fill:none;stroke:#000000" cx="4884" cy="932" r="5" /><circle style="fill:none;stroke:#000000" cx="5073" cy="4892" r="5" /><circle style="fill:none;stroke:#000000" cx="4318" cy="3870" r="5" /><circle style="fill:none;stroke:#000000" cx="1746" cy="6160" r="5" /><circle style="fill:none;stroke:#000000" cx="4680" cy="5018" r="5" /><circle style="fill:none;stroke:#000000" cx="2674" cy="5640" r="5" /><circle style="fill:none;stroke:#000000" cx="5090" cy="134" r="5" /><circle style="fill:none;stroke:#000000" cx="1487" cy="5723" r="5" /><circle style="fill:none;stroke:#000000" cx="2753" cy="6113" r="5" /><circle style="fill:none;stroke:#000000" cx="3948" cy="4274" r="5" /><circle style="fill:none;stroke:#000000" cx="4214" cy="4124" r="5" /><circle style="fill:none;stroke:#000000" cx="5153" cy="1532" r="5" /><circle style="fill:none;stroke:#000000" cx="5000" cy="2058" r="5" /><circle style="fill:none;stroke:#000000" cx="6122" cy="1847" r="5" /><circle style="fill:none;stroke:#000000" cx="3073" cy="5533" r="5" /><circle style="fill:none;stroke:#000000" cx="728" cy="6235" r="5" /><circle style="fill:none;stroke:#000000" cx="2380" cy="5942" r="5" /><circle style="fill:none;stroke:#000000" cx="6001" cy="1382" r="5" /><circle style="fill:none;stroke:#000000" cx="3048" cy="7295" r="5" /><circle style="fill:none;stroke:#000000" cx="4864" cy="5348" r="5" /><circle style="fill:none;stroke:#000000" cx="3554" cy="6921" r="5" /><circle style="fill:none;stroke:#000000" cx="4594" cy="4340" r="5" /><circle style="fill:none;stroke:#000000" cx="4405" cy="6195" r="5" /><circle style="fill:none;stroke:#000000" cx="3635" cy="5492" r="5" /><circle style="fill:none;stroke:#000000" cx="3546" cy="5629" r="5" /><circle style="fill:none;stroke:#000000" cx="4409" cy="4675" r="5" /><circle style="fill:none;stroke:#000000" cx="5308" cy="4061" r="5" /><circle style="fill:none;stroke:#000000" cx="1770" cy="6751" r="5" /><circle style="fill:none;stroke:#000000" cx="1175" cy="6444" r="5" /><circle style="fill:none;stroke:#000000" cx="5943" cy="2378" r="5" /><circle style="fill:none;stroke:#000000" cx="587" cy="6618" r="5" /><circle style="fill:none;stroke:#000000" cx="4483" cy="6063" r="5" /><circle style="fill:none;stroke:#000000" cx="5971" cy="2630" r="5" /><circle style="fill:none;stroke:#000000" cx="6558" cy="246" r="5" /><circle style="fill:none;stroke:#000000" cx="7049" cy="2319" r="5" /><circle style="fill:none;stroke:#000000" cx="5290" cy="6148" r="5" /><circle style="fill:none;stroke:#000000" cx="6787" cy="4059" r="5" /><circle style="fill:none;stroke:#000000" cx="6392" cy="1097" r="5" /><circle style="fill:none;stroke:#000000" cx="4156" cy="4665" r="5" /><circle style="fill:none;stroke:#000000" cx="173" cy="6683" r="5" /><circle style="fill:none;stroke:#000000" cx="7103" cy="2103" r="5" /><circle style="fill:none;stroke:#000000" cx="4552" cy="5739" r="5" /><circle style="fill:none;stroke:#000000" cx="3131" cy="7092" r="5" /><circle style="fill:none;stroke:#000000" cx="6663" cy="1747" r="5" /><circle style="fill:none;stroke:#000000" cx="5646" cy="6895" r="5" /><circle style="fill:none;stroke:#000000" cx="5741" cy="1717" r="5" /><circle style="fill:none;stroke:#000000" cx="4794" cy="1707" r="5" /><circle style="fill:none;stroke:#000000" cx="5691" cy="5489" r="5" /><circle style="fill:none;stroke:#000000" cx="5104" cy="6822" r="5" /><circle style="fill:none;stroke:#000000" cx="2667" cy="7758" r="5" /><circle style="fill:none;stroke:#000000" cx="5806" cy="1864" r="5" /><circle style="fill:none;stroke:#000000" cx="753" cy="7758" r="5" /><circle style="fill:none;stroke:#000000" cx="6176" cy="2426" r="5" /><circle style="fill:none;stroke:#000000" cx="926" cy="7354" r="5" /><circle style="fill:none;stroke:#000000" cx="1237" cy="8076" r="5" /><circle style="fill:none;stroke:#000000" cx="3261" cy="7358" r="5" /><circle style="fill:none;stroke:#000000" cx="6440" cy="6046" r="5" /><circle style="fill:none;stroke:#000000" cx="5802" cy="2861" r="5" /><circle style="fill:none;stroke:#000000" cx="5007" cy="6666" r="5" /><circle style="fill:none;stroke:#000000" cx="5175" cy="7228" r="5" /><circle style="fill:none;stroke:#000000" cx="5632" cy="5195" r="5" /><circle style="fill:none;stroke:#000000" cx="7472" cy="5357" r="5" /><circle style="fill:none;stroke:#000000" cx="6303" cy="753" r="5" /><circle style="fill:none;stroke:#000000" cx="7083" cy="1229" r="5" /><circle style="fill:none;stroke:#000000" cx="6662" cy="5064" r="5" /><circle style="fill:none;stroke:#000000" cx="2122" cy="8274" r="5" /><circle style="fill:none;stroke:#000000" cx="6609" cy="499" r="5" /><circle style="fill:none;stroke:#000000" cx="5737" cy="1763" r="5" /><circle style="fill:none;stroke:#000000" cx="3841" cy="6196" r="5" /><circle style="fill:none;stroke:#000000" cx="2681" cy="7655" r="5" /><circle style="fill:none;stroke:#000000" cx="3279" cy="7248" r="5" /><circle style="fill:none;stroke:#000000" cx="5944" cy="6662" r="5" /><circle style="fill:none;stroke:#000000" cx="7718" cy="3459" r="5" /><circle style="fill:none;stroke:#000000" cx="6557" cy="2682" r="5" /><circle style="fill:none;stroke:#000000" cx="2849" cy="7789" r="5" /><circle style="fill:none;stroke:#000000" cx="7551" cy="4081" r="5" /><circle style="fill:none;stroke:#000000" cx="7573" cy="1901" r="5" /><circle style="fill:none;stroke:#000000" cx="5882" cy="3870" r="5" /><circle style="fill:none;stroke:#000000" cx="3400" cy="8047" r="5" /><circle style="fill:none;stroke:#000000" cx="5934" cy="5214" r="5" /><circle style="fill:none;stroke:#000000" cx="5373" cy="5423" r="5" /><circle style="fill:none;stroke:#000000" cx="7315" cy="3174" r="5" /><circle style="fill:none;stroke:#000000" cx="2674" cy="7699" r="5" /><circle style="fill:none;stroke:#000000" cx="6013" cy="7152" r="5" /><circle style="fill:none;stroke:#000000" cx="7234" cy="650" r="5" /><circle style="fill:none;stroke:#000000" cx="4619" cy="6451" r="5" /><circle style="fill:none;stroke:#000000" cx="5359" cy="1065" r="5" /><circle style="fill:none;stroke:#000000" cx="4832" cy="6935" r="5" /><circle style="fill:none;stroke:#000000" cx="6959" cy="5650" r="5" /><circle style="fill:none;stroke:#000000" cx="5862" cy="380" r="5" /><circle style="fill:none;stroke:#000000" cx="7435" cy="3599" r="5" /><circle style="fill:none;stroke:#000000" cx="7038" cy="5739" r="5" /><circle style="fill:none;stroke:#000000" cx="7711" cy="4632" r="5" /><circle style="fill:none;stroke:#000000" cx="4255" cy="7025" r="5" /><circle style="fill:none;stroke:#000000" cx="4552" cy="7677" r="5" /><circle style="fill:none;stroke:#000000" cx="6731" cy="3029" r="5" /><circle style="fill:none;stroke:#000000" cx="921" cy="7737" r="5" /><circle style="fill:none;stroke:#000000" cx="5344" cy="7859" r="5" /><circle style="fill:none;stroke:#000000" cx="6278" cy="8225" r="5" /><circle style="fill:none;stroke:#000000" cx="6716" cy="7256" r="5" /><circle style="fill:none;stroke:#000000" cx="6028" cy="7187" r="5" /><circle style="fill:none;stroke:#000000" cx="8158" cy="2544" r="5" /><circle style="fill:none;stroke:#000000" cx="1183" cy="7571" r="5" /><circle style="fill:none;stroke:#000000" cx="5832" cy="6910" r="5" /><circle style="fill:none;stroke:#000000" cx="6495" cy="677" r="5" /><circle style="fill:none;stroke:#000000" cx="5380" cy="7039" r="5" /><circle style="fill:none;stroke:#000000" cx="6840" cy="3315" r="5" /><circle style="fill:none;stroke:#000000" cx="3106" cy="8356" r="5" /><circle style="fill:none;stroke:#000000" cx="7561" cy="3709" r="5" /><circle style="fill:none;stroke:#000000" cx="2716" cy="7619" r="5" /><circle style="fill:none;stroke:#000000" cx="8107" cy="1465" r="5" /><circle style="fill:none;stroke:#000000" cx="6849" cy="3803" r="5" /><circle style="fill:none;stroke:#000000" cx="7905" cy="4848" r="5" /><circle style="fill:none;stroke:#000000" cx="2354" cy="7724" r="5" /><circle style="fill:none;stroke:#000000" cx="2431" cy="8512" r="5" /><circle style="fill:none;stroke:#000000" cx="7364" cy="3819" r="5" /><circle style="fill:none;stroke:#000000" cx="6492" cy="1977" r="5" /><circle style="fill:none;stroke:#000000" cx="6945" cy="1221" r="5" /><circle style="fill:none;stroke:#000000" cx="6587" cy="6968" r="5" /><circle style="fill:none;stroke:#000000" cx="2142" cy="8580" r="5" /><circle style="fill:none;stroke:#000000" cx="6266" cy="992" r="5" /><circle style="fill:none;stroke:#000000" cx="7410" cy="118" r="5" /><circle style="fill:none;stroke:#000000" cx="7151" cy="8198" r="5" /><circle style="fill:none;stroke:#000000" cx="6845" cy="7526" r="5" /><circle style="fill:none;stroke:#000000" cx="7127" cy="6188" r="5" /><circle style="fill:none;stroke:#000000" cx="5603" cy="6836" r="5" /><circle style="fill:none;stroke:#000000" cx="6268" cy="7704" r="5" /><circle style="fill:none;stroke:#000000" cx="7305" cy="4976" r="5" /><circle style="fill:none;stroke:#000000" cx="6126" cy="8214" r="5" /><circle style="fill:none;stroke:#000000" cx="8393" cy="2504" r="5" /><circle style="fill:none;stroke:#000000" cx="8691" cy="6904" r="5" /><circle style="fill:none;stroke:#000000" cx="9007" cy="3890" r="5" /><circle style="fill:none;stroke:#000000" cx="6728" cy="8782" r="5" /><circle style="fill:none;stroke:#000000" cx="7719" cy="4023" r="5" /><circle style="fill:none;stroke:#000000" cx="9711" cy="2803" r="5" /><circle style="fill:none;stroke:#000000" cx="9851" cy="3679" r="5" /><circle style="fill:none;stroke:#000000" cx="7258" cy="3750" r="5" /><circle style="fill:none;stroke:#000000" cx="3365" cy="8395" r="5" /><circle style="fill:none;stroke:#000000" cx="5886" cy="8783" r="5" /><circle style="fill:none;stroke:#000000" cx="8500" cy="2114" r="5" /><circle style="fill:none;stroke:#000000" cx="8017" cy="5592" r="5" /><circle style="fill:none;stroke:#000000" cx="8343" cy="3737" r="5" /><circle style="fill:none;stroke:#000000" cx="8163" cy="7443" r="5" /><circle style="fill:none;stroke:#000000" cx="7937" cy="5619" r="5" /><circle style="fill:none;stroke:#000000" cx="8334" cy="4146" r="5" /><circle style="fill:none;stroke:#000000" cx="8217" cy="6182" r="5" /><circle style="fill:none;stroke:#000000" cx="9424" cy="373" r="5" /><circle style="fill:none;stroke:#000000" cx="4321" cy="7887" r="5" /><circle style="fill:none;stroke:#000000" cx="7976" cy="6647" r="5" /><circle style="fill:none;stroke:#000000" cx="9500" cy="2930" r="5" /><circle style="fill:none;stroke:#000000" cx="9440" cy="1934" r="5" /><circle style="fill:none;stroke:#000000" cx="8456" cy="1958" r="5" /><circle style="fill:none;stroke:#000000" cx="5767" cy="8730" r="5" /><circle style="fill:none;stroke:#000000" cx="7247" cy="8242" r="5" /><circle style="fill:none;stroke:#000000" cx="6484" cy="2061" r="5" /><circle style="fill:none;stroke:#000000" cx="6133" cy="8648" r="5" /><circle style="fill:none;stroke:#000000" cx="9764" cy="2969" r="5" /><circle style="fill:none;stroke:#000000" cx="9403" cy="2692" r="5" /><circle style="fill:none;stroke:#000000" cx="8641" cy="263" r="5" /><circle style="fill:none;stroke:#000000" cx="7309" cy="6098" r="5" /><circle style="fill:none;stroke:#000000" cx="8875" cy="6340" r="5" /><circle style="fill:none;stroke:#000000" cx="9494" cy="2507" r="5" /><circle style="fill:none;stroke:#000000" cx="9296" cy="90" r="5" /><circle style="fill:none;stroke:#000000" cx="7778" cy="8408" r="5" /><circle style="fill:none;stroke:#000000" cx="8617" cy="747" r="5" /><circle style="fill:none;stroke:#000000" cx="1087" cy="8341" r="5" /><circle style="fill:none;stroke:#000000" cx="3050" cy="7980" r="5" /><circle style="fill:none;stroke:#000000" cx="9485" cy="4933" r="5" /><circle style="fill:none;stroke:#000000" cx="8520" cy="6522" r="5" /><circle style="fill:none;stroke:#000000" cx="7179" cy="8472" r="5" /><circle style="fill:none;stroke:#000000" cx="7480" cy="4906" r="5" /><circle style="fill:none;stroke:#000000" cx="8987" cy="6589" r="5" /><circle style="fill:none;stroke:#000000" cx="8000" cy="4216" r="5" /><circle style="fill:none;stroke:#000000" cx="7311" cy="8712" r="5" /><circle style="fill:none;stroke:#000000" cx="544" cy="8799" r="5" /><circle style="fill:none;stroke:#000000" cx="8873" cy="7950" r="5" /><circle style="fill:none;stroke:#000000" cx="7103" cy="7096" r="5" /><circle style="fill:none;stroke:#000000" cx="6987" cy="7035" r="5" /><circle style="fill:none;stroke:#000000" cx="8409" cy="3335" r="5" /><circle style="fill:none;stroke:#000000" cx="7671" cy="8181" r="5" /><circle style="fill:none;stroke:#000000" cx="8171" cy="1247" r="5" /><circle style="fill:none;stroke:#000000" cx="3309" cy="7428" r="5" /><circle style="fill:none;stroke:#000000" cx="7255" cy="8403" r="5" /><circle style="fill:none;stroke:#000000" cx="7089" cy="1310" r="5" /><circle style="fill:none;stroke:#000000" cx="7774" cy="7989" r="5" /><circle style="fill:none;stroke:#000000" cx="3368" cy="7068" r="5" /><circle style="fill:none;stroke:#000000" cx="2702" cy="7902" r="5" /><circle style="fill:none;stroke:#000000" cx="9851" cy="7457" r="5" /><circle style="fill:none;stroke:#000000" cx="9274" cy="4810" r="5" /><circle style="fill:none;stroke:#000000" cx="8339" cy="292" r="5" /><circle style="fill:none;stroke:#000000" cx="8981" cy="4573" r="5" /><circle style="fill:none;stroke:#000000" cx="8433" cy="8762" r="5" /><circle style="fill:none;stroke:#000000" cx="8333" cy="4174" r="5" /><circle style="fill:none;stroke:#000000" cx="9621" cy="6042" r="5" /><circle style="fill:none;stroke:#000000" cx="8928" cy="6648" r="5" /><circle style="fill:none;stroke:#000000" cx="9294" cy="1034" r="5" /><circle style="fill:none;stroke:#000000" cx="8667" cy="8393" r="5" /><circle style="fill:none;stroke:#000000" cx="8911" cy="8651" r="5" /><circle style="fill:none;stroke:#000000" cx="9595" cy="192" r="5" /><circle style="fill:none;stroke:#000000" cx="8351" cy="7862" r="5" /><circle style="fill:none;stroke:#000000" cx="9915" cy="6361" r="5" /><circle style="fill:none;stroke:#000000" cx="9291" cy="1183" r="5" /><circle style="fill:none;stroke:#000000" cx="6988" cy="2163" r="5" /><circle style="fill:none;stroke:#000000" cx="6801" cy="1614" r="5" /><circle style="fill:none;stroke:#000000" cx="7741" cy="3847" r="5" /><circle style="fill:none;stroke:#000000" cx="9687" cy="4259" r="5" /><circle style="fill:none;stroke:#000000" cx="8510" cy="1483" r="5" /><circle style="fill:none;stroke:#000000" cx="9707" cy="8242" r="5" /><circle style="fill:none;stroke:#000000" cx="9632" cy="2831" r="5" /><circle style="fill:none;stroke:#000000" cx="9838" cy="7231" r="5" /><circle style="fill:none;stroke:#000000" cx="8476" cy="4024" r="5" /><circle style="fill:none;stroke:#000000" cx="7362" cy="6395" r="5" /><circle style="fill:none;stroke:#000000" cx="8654" cy="6766" r="5" /><circle style="fill:none;stroke:#000000" cx="7926" cy="6773" r="5" /><circle style="fill:none;stroke:#000000" cx="9255" cy="1695" r="5" /><circle style="fill:none;stroke:#000000" cx="9670" cy="4037" r="5" /><circle style="fill:none;stroke:#000000" cx="4666" cy="7261" r="5" /><circle style="fill:none;stroke:#000000" cx="9757" cy="5682" r="5" /><circle style="fill:none;stroke:#000000" cx="9765" cy="7980" r="5" /><circle style="fill:none;stroke:#000000" cx="7441" cy="6853" r="5" /><circle style="fill:none;stroke:#000000" cx="9867" cy="4510" r="5" /><circle style="fill:none;stroke:#000000" cx="9527" cy="553" r="5" /><circle style="fill:none;stroke:#000000" cx="9121" cy="5190" r="5" /><circle style="fill:none;stroke:#000000" cx="7765" cy="2678" r="5" /><circle style="fill:none;stroke:#000000" cx="8990" cy="8774" r="5" /><circle style="fill:none;stroke:#0000ff" cx="1290" cy="1650" r="10" /><circle style="fill:none;stroke:#0000ff" cx="1290" cy="1680" r="10" /><circle style="fill:none;stroke:#0000ff" cx="1290" cy="1580" r="10" /><circle style="fill:none;stroke:#0000ff" cx="1270" cy="10" r="10" /><circle style="fill:none;stroke:#0000ff" cx="1280" cy="30" r="10" /><circle style="fill:none;stroke:#0000ff" cx="1240" cy="1530" r="10" /><circle style="fill:none;stroke:#0000ff" cx="1290" cy="1610" r="10" /><circle style="fill:none;stroke:#0000ff" cx="1290" cy="1690" r="10" /><circle style="fill:none;stroke:#0000ff" cx="1290" cy="1670" r="10" /><circle style="fill:none;stroke:#0000ff" cx="1290" cy="1630" r="10" /><circle style="fill:none;stroke:#0000ff" cx="1290" cy="1620" r="10" /><circle style="fill:none;stroke:#0000ff" cx="1290" cy="1640" r="10" /><circle style="fill:none;stroke:#0000ff" cx="1290" cy="1660" r="10" /><circle style="fill:none;stroke:#0000ff" cx="1290" cy="1710" r="10" /><text text-anchor="start" x="0" y="0" style="font-family:sans-serif;font-size:20;fill:#ff0000;fill-opacity:1;stroke:#ffffff;stroke-opacity:1;stroke-width:3;paint-order:stroke fill">Score = 4088013</text>
<text text-anchor="end" x="1301" y="1835" style="font-family:sans-serif;font-size:20;fill:#ff0000;fill-opacity:1;stroke:#ffffff;stroke-opacity:1;stroke-width:3;paint-order:stroke fill">Score = 4088013</text>
</svg>
