<?xml version="1.0" encoding="UTF-8" standalone="no"?>
<svg width="5144" height="3291" xmlns="http://www.w3.org/2000/svg" xmlns:svg="http://www.w3.org/2000/svg">
<rect style="fill:none;stroke:#000000" x="0" y="0" width="5144" height="3291" />
<rect style="fill:none;stroke:#ff0000" x="0" y="0" width="1611" height="801" />
<circle style="fill:none;stroke:#000000" cx="1578" cy="947" r="5" /><circle style="fill:none;stroke:#000000" cx="1406" cy="830" r="5" /><circle style="fill:none;stroke:#000000" cx="95" cy="972" r="5" /><circle style="fill:none;stroke:#000000" cx="1745" cy="176" r="5" /><circle style="fill:none;stroke:#000000" cx="1621" cy="1011" r="5" /><circle style="fill:none;stroke:#000000" cx="1802" cy="924" r="5" /><circle style="fill:none;stroke:#000000" cx="1854" cy="754" r="5" /><circle style="fill:none;stroke:#000000" cx="1950" cy="150" r="5" /><circle style="fill:none;stroke:#000000" cx="1698" cy="378" r="5" /><circle style="fill:none;stroke:#000000" cx="1735" cy="396" r="5" /><circle style="fill:none;stroke:#000000" cx="1625" cy="401" r="5" /><circle style="fill:none;stroke:#000000" cx="324" cy="1120" r="5" /><circle style="fill:none;stroke:#000000" cx="1845" cy="1212" r="5" /><circle style="fill:none;stroke:#000000" cx="1366" cy="1245" r="5" /><circle style="fill:none;stroke:#000000" cx="2051" cy="261" r="5" /><circle style="fill:none;stroke:#000000" cx="1984" cy="427" r="5" /><circle style="fill:none;stroke:#000000" cx="2121" cy="183" r="5" /><circle style="fill:none;stroke:#000000" cx="1506" cy="1332" r="5" /><circle style="fill:none;stroke:#000000" cx="2085" cy="257" r="5" /><circle style="fill:none;stroke:#000000" cx="2168" cy="18" r="5" /><circle style="fill:none;stroke:#000000" cx="614" cy="949" r="5" /><circle style="fill:none;stroke:#000000" cx="1336" cy="1378" r="5" /><circle style="fill:none;stroke:#000000" cx="2261" cy="994" r="5" /><circle style="fill:none;stroke:#000000" cx="2097" cy="1219" r="5" /><circle style="fill:none;stroke:#000000" cx="1338" cy="1425" r="5" /><circle style="fill:none;stroke:#000000" cx="1285" cy="1329" r="5" /><circle style="fill:none;stroke:#000000" cx="1047" cy="1129" r="5" /><circle style="fill:none;stroke:#000000" cx="968" cy="1129" r="5" /><circle style="fill:none;stroke:#000000" cx="2406" cy="776" r="5" /><circle style="fill:none;stroke:#000000" cx="2179" cy="1288" r="5" /><circle style="fill:none;stroke:#000000" cx="554" cy="1324" r="5" /><circle style="fill:none;stroke:#000000" cx="2376" cy="681" r="5" /><circle style="fill:none;stroke:#000000" cx="2359" cy="389" r="5" /><circle style="fill:none;stroke:#000000" cx="1605" cy="1554" r="5" /><circle style="fill:none;stroke:#000000" cx="2284" cy="1289" r="5" /><circle style="fill:none;stroke:#000000" cx="706" cy="1031" r="5" /><circle style="fill:none;stroke:#000000" cx="85" cy="1634" r="5" /><circle style="fill:none;stroke:#000000" cx="2425" cy="1064" r="5" /><circle style="fill:none;stroke:#000000" cx="2486" cy="155" r="5" /><circle style="fill:none;stroke:#000000" cx="146" cy="1743" r="5" /><circle style="fill:none;stroke:#000000" cx="406" cy="1645" r="5" /><circle style="fill:none;stroke:#000000" cx="1947" cy="1646" r="5" /><circle style="fill:none;stroke:#000000" cx="312" cy="1624" r="5" /><circle style="fill:none;stroke:#000000" cx="1081" cy="1581" r="5" /><circle style="fill:none;stroke:#000000" cx="1152" cy="1597" r="5" /><circle style="fill:none;stroke:#000000" cx="880" cy="1248" r="5" /><circle style="fill:none;stroke:#000000" cx="97" cy="1696" r="5" /><circle style="fill:none;stroke:#000000" cx="1396" cy="1729" r="5" /><circle style="fill:none;stroke:#000000" cx="1633" cy="1839" r="5" /><circle style="fill:none;stroke:#000000" cx="1521" cy="1792" r="5" /><circle style="fill:none;stroke:#000000" cx="2562" cy="1274" r="5" /><circle style="fill:none;stroke:#000000" cx="2350" cy="1558" r="5" /><circle style="fill:none;stroke:#000000" cx="2584" cy="1364" r="5" /><circle style="fill:none;stroke:#000000" cx="2603" cy="1140" r="5" /><circle style="fill:none;stroke:#000000" cx="1552" cy="1848" r="5" /><circle style="fill:none;stroke:#000000" cx="2530" cy="1431" r="5" /><circle style="fill:none;stroke:#000000" cx="2717" cy="61" r="5" /><circle style="fill:none;stroke:#000000" cx="2744" cy="135" r="5" /><circle style="fill:none;stroke:#000000" cx="2777" cy="865" r="5" /><circle style="fill:none;stroke:#000000" cx="2771" cy="1111" r="5" /><circle style="fill:none;stroke:#000000" cx="2661" cy="1492" r="5" /><circle style="fill:none;stroke:#000000" cx="2703" cy="1386" r="5" /><circle style="fill:none;stroke:#000000" cx="2812" cy="716" r="5" /><circle style="fill:none;stroke:#000000" cx="2459" cy="1743" r="5" /><circle style="fill:none;stroke:#000000" cx="1557" cy="1968" r="5" /><circle style="fill:none;stroke:#000000" cx="2792" cy="1069" r="5" /><circle style="fill:none;stroke:#000000" cx="2565" cy="1645" r="5" /><circle style="fill:none;stroke:#000000" cx="2892" cy="83" r="5" /><circle style="fill:none;stroke:#000000" cx="1976" cy="1923" r="5" /><circle style="fill:none;stroke:#000000" cx="1942" cy="2069" r="5" /><circle style="fill:none;stroke:#000000" cx="957" cy="1780" r="5" /><circle style="fill:none;stroke:#000000" cx="1978" cy="2058" r="5" /><circle style="fill:none;stroke:#000000" cx="2887" cy="197" r="5" /><circle style="fill:none;stroke:#000000" cx="2972" cy="978" r="5" /><circle style="fill:none;stroke:#000000" cx="679" cy="1757" r="5" /><circle style="fill:none;stroke:#000000" cx="2760" cy="1602" r="5" /><circle style="fill:none;stroke:#000000" cx="2587" cy="1917" r="5" /><circle style="fill:none;stroke:#000000" cx="2582" cy="1790" r="5" /><circle style="fill:none;stroke:#000000" cx="3007" cy="1352" r="5" /><circle style="fill:none;stroke:#000000" cx="1231" cy="2206" r="5" /><circle style="fill:none;stroke:#000000" cx="1632" cy="2208" r="5" /><circle style="fill:none;stroke:#000000" cx="2642" cy="2080" r="5" /><circle style="fill:none;stroke:#000000" cx="1495" cy="2231" r="5" /><circle style="fill:none;stroke:#000000" cx="1718" cy="2367" r="5" /><circle style="fill:none;stroke:#000000" cx="3246" cy="404" r="5" /><circle style="fill:none;stroke:#000000" cx="349" cy="2248" r="5" /><circle style="fill:none;stroke:#000000" cx="3214" cy="986" r="5" /><circle style="fill:none;stroke:#000000" cx="3168" cy="1418" r="5" /><circle style="fill:none;stroke:#000000" cx="2541" cy="2093" r="5" /><circle style="fill:none;stroke:#000000" cx="567" cy="2253" r="5" /><circle style="fill:none;stroke:#000000" cx="2719" cy="2129" r="5" /><circle style="fill:none;stroke:#000000" cx="941" cy="2183" r="5" /><circle style="fill:none;stroke:#000000" cx="3411" cy="19" r="5" /><circle style="fill:none;stroke:#000000" cx="1164" cy="2395" r="5" /><circle style="fill:none;stroke:#000000" cx="3398" cy="271" r="5" /><circle style="fill:none;stroke:#000000" cx="3388" cy="1640" r="5" /><circle style="fill:none;stroke:#000000" cx="543" cy="2435" r="5" /><circle style="fill:none;stroke:#000000" cx="2427" cy="2414" r="5" /><circle style="fill:none;stroke:#000000" cx="2866" cy="2185" r="5" /><circle style="fill:none;stroke:#000000" cx="2700" cy="2074" r="5" /><circle style="fill:none;stroke:#000000" cx="3339" cy="1543" r="5" /><circle style="fill:none;stroke:#000000" cx="3293" cy="1948" r="5" /><circle style="fill:none;stroke:#000000" cx="1304" cy="2461" r="5" /><circle style="fill:none;stroke:#000000" cx="3334" cy="1659" r="5" /><circle style="fill:none;stroke:#000000" cx="2669" cy="2486" r="5" /><circle style="fill:none;stroke:#000000" cx="3205" cy="1827" r="5" /><circle style="fill:none;stroke:#000000" cx="1002" cy="2396" r="5" /><circle style="fill:none;stroke:#000000" cx="3632" cy="269" r="5" /><circle style="fill:none;stroke:#000000" cx="3366" cy="1690" r="5" /><circle style="fill:none;stroke:#000000" cx="3550" cy="1597" r="5" /><circle style="fill:none;stroke:#000000" cx="2391" cy="2573" r="5" /><circle style="fill:none;stroke:#000000" cx="3248" cy="2194" r="5" /><circle style="fill:none;stroke:#000000" cx="3715" cy="820" r="5" /><circle style="fill:none;stroke:#000000" cx="227" cy="2674" r="5" /><circle style="fill:none;stroke:#000000" cx="1919" cy="2909" r="5" /><circle style="fill:none;stroke:#000000" cx="2245" cy="2756" r="5" /><circle style="fill:none;stroke:#000000" cx="3405" cy="2055" r="5" /><circle style="fill:none;stroke:#000000" cx="1435" cy="2855" r="5" /><circle style="fill:none;stroke:#000000" cx="3603" cy="1754" r="5" /><circle style="fill:none;stroke:#000000" cx="1999" cy="2791" r="5" /><circle style="fill:none;stroke:#000000" cx="2735" cy="2593" r="5" /><circle style="fill:none;stroke:#000000" cx="3932" cy="455" r="5" /><circle style="fill:none;stroke:#000000" cx="972" cy="2793" r="5" /><circle style="fill:none;stroke:#000000" cx="3928" cy="1058" r="5" /><circle style="fill:none;stroke:#000000" cx="1141" cy="2798" r="5" /><circle style="fill:none;stroke:#000000" cx="3884" cy="334" r="5" /><circle style="fill:none;stroke:#000000" cx="3808" cy="1832" r="5" /><circle style="fill:none;stroke:#000000" cx="3916" cy="574" r="5" /><circle style="fill:none;stroke:#000000" cx="4046" cy="793" r="5" /><circle style="fill:none;stroke:#000000" cx="1599" cy="3041" r="5" /><circle style="fill:none;stroke:#000000" cx="4156" cy="981" r="5" /><circle style="fill:none;stroke:#000000" cx="3991" cy="1369" r="5" /><circle style="fill:none;stroke:#000000" cx="1943" cy="3105" r="5" /><circle style="fill:none;stroke:#000000" cx="3543" cy="2120" r="5" /><circle style="fill:none;stroke:#000000" cx="3939" cy="566" r="5" /><circle style="fill:none;stroke:#000000" cx="3111" cy="2758" r="5" /><circle style="fill:none;stroke:#000000" cx="4020" cy="505" r="5" /><circle style="fill:none;stroke:#000000" cx="3484" cy="2394" r="5" /><circle style="fill:none;stroke:#000000" cx="3025" cy="2693" r="5" /><circle style="fill:none;stroke:#000000" cx="1975" cy="3054" r="5" /><circle style="fill:none;stroke:#000000" cx="1516" cy="3158" r="5" /><circle style="fill:none;stroke:#000000" cx="3869" cy="372" r="5" /><circle style="fill:none;stroke:#000000" cx="4016" cy="105" r="5" /><circle style="fill:none;stroke:#000000" cx="2843" cy="3042" r="5" /><circle style="fill:none;stroke:#000000" cx="210" cy="3197" r="5" /><circle style="fill:none;stroke:#000000" cx="3718" cy="1934" r="5" /><circle style="fill:none;stroke:#000000" cx="3372" cy="2356" r="5" /><circle style="fill:none;stroke:#000000" cx="263" cy="3049" r="5" /><circle style="fill:none;stroke:#000000" cx="4003" cy="1607" r="5" /><circle style="fill:none;stroke:#000000" cx="2221" cy="3259" r="5" /><circle style="fill:none;stroke:#000000" cx="902" cy="2886" r="5" /><circle style="fill:none;stroke:#000000" cx="4229" cy="220" r="5" /><circle style="fill:none;stroke:#000000" cx="4281" cy="143" r="5" /><circle style="fill:none;stroke:#000000" cx="4129" cy="68" r="5" /><circle style="fill:none;stroke:#000000" cx="4207" cy="650" r="5" /><circle style="fill:none;stroke:#000000" cx="4366" cy="607" r="5" /><circle style="fill:none;stroke:#000000" cx="2516" cy="3253" r="5" /><circle style="fill:none;stroke:#000000" cx="1316" cy="3141" r="5" /><circle style="fill:none;stroke:#000000" cx="4336" cy="1007" r="5" /><circle style="fill:none;stroke:#000000" cx="4292" cy="1923" r="5" /><circle style="fill:none;stroke:#000000" cx="3746" cy="2703" r="5" /><circle style="fill:none;stroke:#000000" cx="3469" cy="3183" r="5" /><circle style="fill:none;stroke:#000000" cx="2019" cy="3233" r="5" /><circle style="fill:none;stroke:#000000" cx="439" cy="3179" r="5" /><circle style="fill:none;stroke:#000000" cx="4662" cy="562" r="5" /><circle style="fill:none;stroke:#000000" cx="454" cy="3136" r="5" /><circle style="fill:none;stroke:#000000" cx="3636" cy="2754" r="5" /><circle style="fill:none;stroke:#000000" cx="4261" cy="1257" r="5" /><circle style="fill:none;stroke:#000000" cx="4611" cy="58" r="5" /><circle style="fill:none;stroke:#000000" cx="4566" cy="83" r="5" /><circle style="fill:none;stroke:#000000" cx="4172" cy="2503" r="5" /><circle style="fill:none;stroke:#000000" cx="4051" cy="2456" r="5" /><circle style="fill:none;stroke:#000000" cx="3694" cy="2905" r="5" /><circle style="fill:none;stroke:#000000" cx="3752" cy="2855" r="5" /><circle style="fill:none;stroke:#000000" cx="3784" cy="3009" r="5" /><circle style="fill:none;stroke:#000000" cx="4393" cy="1985" r="5" /><circle style="fill:none;stroke:#000000" cx="4697" cy="911" r="5" /><circle style="fill:none;stroke:#000000" cx="762" cy="3234" r="5" /><circle style="fill:none;stroke:#000000" cx="4632" cy="1422" r="5" /><circle style="fill:none;stroke:#000000" cx="4731" cy="1702" r="5" /><circle style="fill:none;stroke:#000000" cx="3790" cy="2981" r="5" /><circle style="fill:none;stroke:#000000" cx="4824" cy="1085" r="5" /><circle style="fill:none;stroke:#000000" cx="4426" cy="2324" r="5" /><circle style="fill:none;stroke:#000000" cx="4896" cy="318" r="5" /><circle style="fill:none;stroke:#000000" cx="4925" cy="1332" r="5" /><circle style="fill:none;stroke:#000000" cx="4900" cy="323" r="5" /><circle style="fill:none;stroke:#000000" cx="5075" cy="53" r="5" /><circle style="fill:none;stroke:#000000" cx="4793" cy="360" r="5" /><circle style="fill:none;stroke:#000000" cx="3851" cy="3286" r="5" /><circle style="fill:none;stroke:#000000" cx="4908" cy="622" r="5" /><circle style="fill:none;stroke:#000000" cx="5084" cy="144" r="5" /><circle style="fill:none;stroke:#000000" cx="4792" cy="299" r="5" /><circle style="fill:none;stroke:#000000" cx="4757" cy="3205" r="5" /><circle style="fill:none;stroke:#000000" cx="4395" cy="3070" r="5" /><circle style="fill:none;stroke:#000000" cx="4798" cy="3201" r="5" /><circle style="fill:none;stroke:#000000" cx="4909" cy="3089" r="5" /><circle style="fill:none;stroke:#000000" cx="4999" cy="2273" r="5" /><circle style="fill:none;stroke:#000000" cx="4751" cy="2954" r="5" /><circle style="fill:none;stroke:#000000" cx="4936" cy="2739" r="5" /><circle style="fill:none;stroke:#000000" cx="5117" cy="153" r="5" /><circle style="fill:none;stroke:#0000ff" cx="1600" cy="430" r="10" /><circle style="fill:none;stroke:#0000ff" cx="1420" cy="790" r="10" /><circle style="fill:none;stroke:#0000ff" cx="1600" cy="240" r="10" /><circle style="fill:none;stroke:#0000ff" cx="1600" cy="280" r="10" /><circle style="fill:none;stroke:#0000ff" cx="1400" cy="790" r="10" /><circle style="fill:none;stroke:#0000ff" cx="1600" cy="420" r="10" /><circle style="fill:none;stroke:#0000ff" cx="1380" cy="790" r="10" /><circle style="fill:none;stroke:#0000ff" cx="1530" cy="790" r="10" /><circle style="fill:none;stroke:#0000ff" cx="1600" cy="490" r="10" /><circle style="fill:none;stroke:#0000ff" cx="1300" cy="790" r="10" /><circle style="fill:none;stroke:#0000ff" cx="1600" cy="340" r="10" /><circle style="fill:none;stroke:#0000ff" cx="1550" cy="790" r="10" /><circle style="fill:none;stroke:#0000ff" cx="1390" cy="790" r="10" /><circle style="fill:none;stroke:#0000ff" cx="1410" cy="790" r="10" /><circle style="fill:none;stroke:#0000ff" cx="1600" cy="790" r="10" /><circle style="fill:none;stroke:#0000ff" cx="1460" cy="790" r="10" /><circle style="fill:none;stroke:#0000ff" cx="440" cy="790" r="10" /><circle style="fill:none;stroke:#0000ff" cx="1600" cy="390" r="10" /><circle style="fill:none;stroke:#0000ff" cx="1600" cy="370" r="10" /><circle style="fill:none;stroke:#0000ff" cx="670" cy="790" r="10" /><circle style="fill:none;stroke:#0000ff" cx="1570" cy="790" r="10" /><circle style="fill:none;stroke:#0000ff" cx="1450" cy="790" r="10" /><circle style="fill:none;stroke:#0000ff" cx="1600" cy="360" r="10" /><circle style="fill:none;stroke:#0000ff" cx="1600" cy="410" r="10" /><circle style="fill:none;stroke:#0000ff" cx="1600" cy="520" r="10" /><circle style="fill:none;stroke:#0000ff" cx="1600" cy="290" r="10" /><circle style="fill:none;stroke:#0000ff" cx="1370" cy="790" r="10" /><circle style="fill:none;stroke:#0000ff" cx="1600" cy="380" r="10" /><circle style="fill:none;stroke:#0000ff" cx="1440" cy="790" r="10" /><circle style="fill:none;stroke:#0000ff" cx="1430" cy="790" r="10" /><circle style="fill:none;stroke:#0000ff" cx="1590" cy="780" r="10" /><circle style="fill:none;stroke:#0000ff" cx="1600" cy="440" r="10" /><circle style="fill:none;stroke:#0000ff" cx="1600" cy="460" r="10" /><circle style="fill:none;stroke:#0000ff" cx="1600" cy="310" r="10" /><circle style="fill:none;stroke:#0000ff" cx="1600" cy="330" r="10" /><circle style="fill:none;stroke:#0000ff" cx="1490" cy="790" r="10" /><circle style="fill:none;stroke:#0000ff" cx="1350" cy="790" r="10" /><circle style="fill:none;stroke:#0000ff" cx="1470" cy="790" r="10" /><circle style="fill:none;stroke:#0000ff" cx="1360" cy="790" r="10" /><circle style="fill:none;stroke:#0000ff" cx="1600" cy="400" r="10" /><text text-anchor="start" x="0" y="0" style="font-family:sans-serif;font-size:20;fill:#ff0000;fill-opacity:1;stroke:#ffffff;stroke-opacity:1;stroke-width:3;paint-order:stroke fill">Score = 10856642</text>
<text text-anchor="end" x="1611" y="821" style="font-family:sans-serif;font-size:20;fill:#ff0000;fill-opacity:1;stroke:#ffffff;stroke-opacity:1;stroke-width:3;paint-order:stroke fill">Score = 10856642</text>
</svg>
