<?xml version="1.0" encoding="UTF-8" standalone="no"?>
<svg width="4922" height="2260" xmlns="http://www.w3.org/2000/svg" xmlns:svg="http://www.w3.org/2000/svg">
<rect style="fill:none;stroke:#000000" x="0" y="0" width="4922" height="2260" />
<rect style="fill:none;stroke:#ff0000" x="0" y="0" width="626" height="474" />
<circle style="fill:none;stroke:#000000" cx="18" cy="569" r="5" /><circle style="fill:none;stroke:#000000" cx="719" cy="537" r="5" /><circle style="fill:none;stroke:#000000" cx="731" cy="521" r="5" /><circle style="fill:none;stroke:#000000" cx="746" cy="403" r="5" /><circle style="fill:none;stroke:#000000" cx="481" cy="526" r="5" /><circle style="fill:none;stroke:#000000" cx="759" cy="93" r="5" /><circle style="fill:none;stroke:#000000" cx="769" cy="67" r="5" /><circle style="fill:none;stroke:#000000" cx="708" cy="598" r="5" /><circle style="fill:none;stroke:#000000" cx="471" cy="625" r="5" /><circle style="fill:none;stroke:#000000" cx="798" cy="114" r="5" /><circle style="fill:none;stroke:#000000" cx="498" cy="564" r="5" /><circle style="fill:none;stroke:#000000" cx="640" cy="272" r="5" /><circle style="fill:none;stroke:#000000" cx="870" cy="86" r="5" /><circle style="fill:none;stroke:#000000" cx="518" cy="726" r="5" /><circle style="fill:none;stroke:#000000" cx="314" cy="621" r="5" /><circle style="fill:none;stroke:#000000" cx="686" cy="796" r="5" /><circle style="fill:none;stroke:#000000" cx="886" cy="253" r="5" /><circle style="fill:none;stroke:#000000" cx="1055" cy="349" r="5" /><circle style="fill:none;stroke:#000000" cx="270" cy="840" r="5" /><circle style="fill:none;stroke:#000000" cx="438" cy="934" r="5" /><circle style="fill:none;stroke:#000000" cx="631" cy="874" r="5" /><circle style="fill:none;stroke:#000000" cx="1118" cy="720" r="5" /><circle style="fill:none;stroke:#000000" cx="146" cy="755" r="5" /><circle style="fill:none;stroke:#000000" cx="832" cy="900" r="5" /><circle style="fill:none;stroke:#000000" cx="831" cy="1013" r="5" /><circle style="fill:none;stroke:#000000" cx="1251" cy="431" r="5" /><circle style="fill:none;stroke:#000000" cx="1297" cy="126" r="5" /><circle style="fill:none;stroke:#000000" cx="993" cy="1130" r="5" /><circle style="fill:none;stroke:#000000" cx="1205" cy="990" r="5" /><circle style="fill:none;stroke:#000000" cx="747" cy="826" r="5" /><circle style="fill:none;stroke:#000000" cx="1374" cy="647" r="5" /><circle style="fill:none;stroke:#000000" cx="882" cy="1216" r="5" /><circle style="fill:none;stroke:#000000" cx="1241" cy="52" r="5" /><circle style="fill:none;stroke:#000000" cx="1493" cy="456" r="5" /><circle style="fill:none;stroke:#000000" cx="642" cy="1264" r="5" /><circle style="fill:none;stroke:#000000" cx="1300" cy="652" r="5" /><circle style="fill:none;stroke:#000000" cx="1271" cy="334" r="5" /><circle style="fill:none;stroke:#000000" cx="1678" cy="884" r="5" /><circle style="fill:none;stroke:#000000" cx="1674" cy="243" r="5" /><circle style="fill:none;stroke:#000000" cx="1095" cy="866" r="5" /><circle style="fill:none;stroke:#000000" cx="1378" cy="10" r="5" /><circle style="fill:none;stroke:#000000" cx="569" cy="1463" r="5" /><circle style="fill:none;stroke:#000000" cx="881" cy="1431" r="5" /><circle style="fill:none;stroke:#000000" cx="1401" cy="1348" r="5" /><circle style="fill:none;stroke:#000000" cx="1695" cy="489" r="5" /><circle style="fill:none;stroke:#000000" cx="1529" cy="163" r="5" /><circle style="fill:none;stroke:#000000" cx="1846" cy="672" r="5" /><circle style="fill:none;stroke:#000000" cx="355" cy="1463" r="5" /><circle style="fill:none;stroke:#000000" cx="179" cy="1469" r="5" /><circle style="fill:none;stroke:#000000" cx="1808" cy="269" r="5" /><circle style="fill:none;stroke:#000000" cx="1343" cy="960" r="5" /><circle style="fill:none;stroke:#000000" cx="533" cy="1791" r="5" /><circle style="fill:none;stroke:#000000" cx="1048" cy="1390" r="5" /><circle style="fill:none;stroke:#000000" cx="740" cy="1530" r="5" /><circle style="fill:none;stroke:#000000" cx="966" cy="1522" r="5" /><circle style="fill:none;stroke:#000000" cx="1709" cy="731" r="5" /><circle style="fill:none;stroke:#000000" cx="1528" cy="955" r="5" /><circle style="fill:none;stroke:#000000" cx="1838" cy="260" r="5" /><circle style="fill:none;stroke:#000000" cx="1524" cy="1570" r="5" /><circle style="fill:none;stroke:#000000" cx="1868" cy="548" r="5" /><circle style="fill:none;stroke:#000000" cx="766" cy="1549" r="5" /><circle style="fill:none;stroke:#000000" cx="1899" cy="842" r="5" /><circle style="fill:none;stroke:#000000" cx="1502" cy="1487" r="5" /><circle style="fill:none;stroke:#000000" cx="795" cy="1384" r="5" /><circle style="fill:none;stroke:#000000" cx="1881" cy="868" r="5" /><circle style="fill:none;stroke:#000000" cx="614" cy="1298" r="5" /><circle style="fill:none;stroke:#000000" cx="1857" cy="487" r="5" /><circle style="fill:none;stroke:#000000" cx="1742" cy="200" r="5" /><circle style="fill:none;stroke:#000000" cx="1754" cy="23" r="5" /><circle style="fill:none;stroke:#000000" cx="1393" cy="972" r="5" /><circle style="fill:none;stroke:#000000" cx="556" cy="1459" r="5" /><circle style="fill:none;stroke:#000000" cx="1446" cy="1113" r="5" /><circle style="fill:none;stroke:#000000" cx="1047" cy="1942" r="5" /><circle style="fill:none;stroke:#000000" cx="2072" cy="1116" r="5" /><circle style="fill:none;stroke:#000000" cx="1050" cy="2035" r="5" /><circle style="fill:none;stroke:#000000" cx="757" cy="1960" r="5" /><circle style="fill:none;stroke:#000000" cx="1849" cy="1421" r="5" /><circle style="fill:none;stroke:#000000" cx="276" cy="1835" r="5" /><circle style="fill:none;stroke:#000000" cx="1965" cy="1160" r="5" /><circle style="fill:none;stroke:#000000" cx="1593" cy="1793" r="5" /><circle style="fill:none;stroke:#000000" cx="1890" cy="1544" r="5" /><circle style="fill:none;stroke:#000000" cx="2234" cy="1100" r="5" /><circle style="fill:none;stroke:#000000" cx="2130" cy="1028" r="5" /><circle style="fill:none;stroke:#000000" cx="1733" cy="433" r="5" /><circle style="fill:none;stroke:#000000" cx="1975" cy="1086" r="5" /><circle style="fill:none;stroke:#000000" cx="246" cy="1893" r="5" /><circle style="fill:none;stroke:#000000" cx="2453" cy="567" r="5" /><circle style="fill:none;stroke:#000000" cx="2114" cy="1467" r="5" /><circle style="fill:none;stroke:#000000" cx="498" cy="1726" r="5" /><circle style="fill:none;stroke:#000000" cx="1131" cy="2103" r="5" /><circle style="fill:none;stroke:#000000" cx="1085" cy="1745" r="5" /><circle style="fill:none;stroke:#000000" cx="414" cy="2160" r="5" /><circle style="fill:none;stroke:#000000" cx="1104" cy="2069" r="5" /><circle style="fill:none;stroke:#000000" cx="1983" cy="1175" r="5" /><circle style="fill:none;stroke:#000000" cx="1512" cy="1218" r="5" /><circle style="fill:none;stroke:#000000" cx="2330" cy="1553" r="5" /><circle style="fill:none;stroke:#000000" cx="1878" cy="1701" r="5" /><circle style="fill:none;stroke:#000000" cx="330" cy="1769" r="5" /><circle style="fill:none;stroke:#000000" cx="487" cy="2026" r="5" /><circle style="fill:none;stroke:#000000" cx="1981" cy="1635" r="5" /><circle style="fill:none;stroke:#000000" cx="192" cy="2171" r="5" /><circle style="fill:none;stroke:#000000" cx="449" cy="2094" r="5" /><circle style="fill:none;stroke:#000000" cx="2508" cy="1109" r="5" /><circle style="fill:none;stroke:#000000" cx="1044" cy="1699" r="5" /><circle style="fill:none;stroke:#000000" cx="1240" cy="1469" r="5" /><circle style="fill:none;stroke:#000000" cx="1439" cy="884" r="5" /><circle style="fill:none;stroke:#000000" cx="2307" cy="703" r="5" /><circle style="fill:none;stroke:#000000" cx="2410" cy="121" r="5" /><circle style="fill:none;stroke:#000000" cx="1511" cy="1783" r="5" /><circle style="fill:none;stroke:#000000" cx="1467" cy="2210" r="5" /><circle style="fill:none;stroke:#000000" cx="2149" cy="1064" r="5" /><circle style="fill:none;stroke:#000000" cx="2064" cy="440" r="5" /><circle style="fill:none;stroke:#000000" cx="848" cy="2079" r="5" /><circle style="fill:none;stroke:#000000" cx="2553" cy="111" r="5" /><circle style="fill:none;stroke:#000000" cx="2519" cy="80" r="5" /><circle style="fill:none;stroke:#000000" cx="1366" cy="2091" r="5" /><circle style="fill:none;stroke:#000000" cx="2281" cy="1389" r="5" /><circle style="fill:none;stroke:#000000" cx="2213" cy="822" r="5" /><circle style="fill:none;stroke:#000000" cx="1192" cy="1992" r="5" /><circle style="fill:none;stroke:#000000" cx="2202" cy="1467" r="5" /><circle style="fill:none;stroke:#000000" cx="2021" cy="309" r="5" /><circle style="fill:none;stroke:#000000" cx="2153" cy="171" r="5" /><circle style="fill:none;stroke:#000000" cx="1491" cy="1950" r="5" /><circle style="fill:none;stroke:#000000" cx="2524" cy="929" r="5" /><circle style="fill:none;stroke:#000000" cx="2492" cy="1874" r="5" /><circle style="fill:none;stroke:#000000" cx="2129" cy="1919" r="5" /><circle style="fill:none;stroke:#000000" cx="1892" cy="1304" r="5" /><circle style="fill:none;stroke:#000000" cx="2197" cy="2089" r="5" /><circle style="fill:none;stroke:#000000" cx="1782" cy="2061" r="5" /><circle style="fill:none;stroke:#000000" cx="2176" cy="1635" r="5" /><circle style="fill:none;stroke:#000000" cx="2170" cy="1320" r="5" /><circle style="fill:none;stroke:#000000" cx="1537" cy="1085" r="5" /><circle style="fill:none;stroke:#000000" cx="2780" cy="139" r="5" /><circle style="fill:none;stroke:#000000" cx="2906" cy="235" r="5" /><circle style="fill:none;stroke:#000000" cx="2377" cy="1879" r="5" /><circle style="fill:none;stroke:#000000" cx="1961" cy="881" r="5" /><circle style="fill:none;stroke:#000000" cx="2872" cy="1435" r="5" /><circle style="fill:none;stroke:#000000" cx="982" cy="2217" r="5" /><circle style="fill:none;stroke:#000000" cx="686" cy="1685" r="5" /><circle style="fill:none;stroke:#000000" cx="2509" cy="1713" r="5" /><circle style="fill:none;stroke:#000000" cx="2219" cy="249" r="5" /><circle style="fill:none;stroke:#000000" cx="2387" cy="1431" r="5" /><circle style="fill:none;stroke:#000000" cx="2390" cy="36" r="5" /><circle style="fill:none;stroke:#000000" cx="2498" cy="916" r="5" /><circle style="fill:none;stroke:#000000" cx="2908" cy="1200" r="5" /><circle style="fill:none;stroke:#000000" cx="2486" cy="205" r="5" /><circle style="fill:none;stroke:#000000" cx="2455" cy="1866" r="5" /><circle style="fill:none;stroke:#000000" cx="2700" cy="935" r="5" /><circle style="fill:none;stroke:#000000" cx="3100" cy="1448" r="5" /><circle style="fill:none;stroke:#000000" cx="2548" cy="706" r="5" /><circle style="fill:none;stroke:#000000" cx="3130" cy="958" r="5" /><circle style="fill:none;stroke:#000000" cx="1703" cy="2195" r="5" /><circle style="fill:none;stroke:#000000" cx="2394" cy="300" r="5" /><circle style="fill:none;stroke:#000000" cx="966" cy="1854" r="5" /><circle style="fill:none;stroke:#000000" cx="2268" cy="18" r="5" /><circle style="fill:none;stroke:#000000" cx="3160" cy="1313" r="5" /><circle style="fill:none;stroke:#000000" cx="2642" cy="1538" r="5" /><circle style="fill:none;stroke:#000000" cx="2954" cy="246" r="5" /><circle style="fill:none;stroke:#000000" cx="3149" cy="219" r="5" /><circle style="fill:none;stroke:#000000" cx="1266" cy="1841" r="5" /><circle style="fill:none;stroke:#000000" cx="2720" cy="496" r="5" /><circle style="fill:none;stroke:#000000" cx="2838" cy="982" r="5" /><circle style="fill:none;stroke:#000000" cx="1887" cy="2127" r="5" /><circle style="fill:none;stroke:#000000" cx="3226" cy="1433" r="5" /><circle style="fill:none;stroke:#000000" cx="3109" cy="31" r="5" /><circle style="fill:none;stroke:#000000" cx="1820" cy="1828" r="5" /><circle style="fill:none;stroke:#000000" cx="3086" cy="209" r="5" /><circle style="fill:none;stroke:#000000" cx="3353" cy="2232" r="5" /><circle style="fill:none;stroke:#000000" cx="2316" cy="2028" r="5" /><circle style="fill:none;stroke:#000000" cx="3051" cy="1822" r="5" /><circle style="fill:none;stroke:#000000" cx="3126" cy="714" r="5" /><circle style="fill:none;stroke:#000000" cx="208" cy="1823" r="5" /><circle style="fill:none;stroke:#000000" cx="3340" cy="947" r="5" /><circle style="fill:none;stroke:#000000" cx="2397" cy="1892" r="5" /><circle style="fill:none;stroke:#000000" cx="3264" cy="1297" r="5" /><circle style="fill:none;stroke:#000000" cx="3630" cy="1741" r="5" /><circle style="fill:none;stroke:#000000" cx="3252" cy="1513" r="5" /><circle style="fill:none;stroke:#000000" cx="2444" cy="313" r="5" /><circle style="fill:none;stroke:#000000" cx="3659" cy="1241" r="5" /><circle style="fill:none;stroke:#000000" cx="3282" cy="1426" r="5" /><circle style="fill:none;stroke:#000000" cx="3881" cy="681" r="5" /><circle style="fill:none;stroke:#000000" cx="3217" cy="1242" r="5" /><circle style="fill:none;stroke:#000000" cx="3651" cy="1985" r="5" /><circle style="fill:none;stroke:#000000" cx="1827" cy="1064" r="5" /><circle style="fill:none;stroke:#000000" cx="3824" cy="1163" r="5" /><circle style="fill:none;stroke:#000000" cx="3405" cy="1455" r="5" /><circle style="fill:none;stroke:#000000" cx="4099" cy="788" r="5" /><circle style="fill:none;stroke:#000000" cx="3338" cy="1792" r="5" /><circle style="fill:none;stroke:#000000" cx="2270" cy="622" r="5" /><circle style="fill:none;stroke:#000000" cx="3201" cy="1401" r="5" /><circle style="fill:none;stroke:#000000" cx="2529" cy="998" r="5" /><circle style="fill:none;stroke:#000000" cx="3839" cy="1029" r="5" /><circle style="fill:none;stroke:#000000" cx="3513" cy="457" r="5" /><circle style="fill:none;stroke:#000000" cx="3288" cy="1624" r="5" /><circle style="fill:none;stroke:#000000" cx="3996" cy="1210" r="5" /><circle style="fill:none;stroke:#000000" cx="4103" cy="513" r="5" /><circle style="fill:none;stroke:#000000" cx="3862" cy="222" r="5" /><circle style="fill:none;stroke:#000000" cx="2685" cy="1126" r="5" /><circle style="fill:none;stroke:#000000" cx="3615" cy="1655" r="5" /><circle style="fill:none;stroke:#000000" cx="2246" cy="1087" r="5" /><circle style="fill:none;stroke:#000000" cx="4088" cy="2007" r="5" /><circle style="fill:none;stroke:#000000" cx="2667" cy="755" r="5" /><circle style="fill:none;stroke:#000000" cx="4184" cy="968" r="5" /><circle style="fill:none;stroke:#000000" cx="4317" cy="1355" r="5" /><circle style="fill:none;stroke:#000000" cx="3928" cy="1093" r="5" /><circle style="fill:none;stroke:#000000" cx="3647" cy="1164" r="5" /><circle style="fill:none;stroke:#000000" cx="4121" cy="1091" r="5" /><circle style="fill:none;stroke:#000000" cx="4109" cy="1017" r="5" /><circle style="fill:none;stroke:#000000" cx="3154" cy="637" r="5" /><circle style="fill:none;stroke:#000000" cx="2448" cy="1608" r="5" /><circle style="fill:none;stroke:#000000" cx="3307" cy="1876" r="5" /><circle style="fill:none;stroke:#000000" cx="3967" cy="418" r="5" /><circle style="fill:none;stroke:#000000" cx="3801" cy="846" r="5" /><circle style="fill:none;stroke:#000000" cx="4033" cy="1850" r="5" /><circle style="fill:none;stroke:#000000" cx="4067" cy="1879" r="5" /><circle style="fill:none;stroke:#000000" cx="2728" cy="114" r="5" /><circle style="fill:none;stroke:#000000" cx="4039" cy="1489" r="5" /><circle style="fill:none;stroke:#000000" cx="3312" cy="2173" r="5" /><circle style="fill:none;stroke:#000000" cx="4099" cy="1457" r="5" /><circle style="fill:none;stroke:#000000" cx="4291" cy="438" r="5" /><circle style="fill:none;stroke:#000000" cx="4307" cy="1892" r="5" /><circle style="fill:none;stroke:#000000" cx="3857" cy="49" r="5" /><circle style="fill:none;stroke:#000000" cx="3262" cy="1477" r="5" /><circle style="fill:none;stroke:#000000" cx="4241" cy="2112" r="5" /><circle style="fill:none;stroke:#000000" cx="3432" cy="1193" r="5" /><circle style="fill:none;stroke:#000000" cx="3828" cy="1459" r="5" /><circle style="fill:none;stroke:#000000" cx="4331" cy="1914" r="5" /><circle style="fill:none;stroke:#000000" cx="3837" cy="886" r="5" /><circle style="fill:none;stroke:#000000" cx="3525" cy="1862" r="5" /><circle style="fill:none;stroke:#000000" cx="2847" cy="2122" r="5" /><circle style="fill:none;stroke:#000000" cx="3938" cy="176" r="5" /><circle style="fill:none;stroke:#000000" cx="3612" cy="1180" r="5" /><circle style="fill:none;stroke:#000000" cx="4649" cy="2086" r="5" /><circle style="fill:none;stroke:#000000" cx="4431" cy="2026" r="5" /><circle style="fill:none;stroke:#000000" cx="4014" cy="1737" r="5" /><circle style="fill:none;stroke:#000000" cx="3906" cy="573" r="5" /><circle style="fill:none;stroke:#000000" cx="4469" cy="1305" r="5" /><circle style="fill:none;stroke:#000000" cx="4313" cy="428" r="5" /><circle style="fill:none;stroke:#000000" cx="4416" cy="1287" r="5" /><circle style="fill:none;stroke:#000000" cx="4444" cy="1402" r="5" /><circle style="fill:none;stroke:#000000" cx="3233" cy="2029" r="5" /><circle style="fill:none;stroke:#000000" cx="3731" cy="1501" r="5" /><circle style="fill:none;stroke:#000000" cx="2933" cy="851" r="5" /><circle style="fill:none;stroke:#000000" cx="3492" cy="1633" r="5" /><circle style="fill:none;stroke:#000000" cx="4273" cy="459" r="5" /><circle style="fill:none;stroke:#000000" cx="4854" cy="713" r="5" /><circle style="fill:none;stroke:#000000" cx="4615" cy="1216" r="5" /><circle style="fill:none;stroke:#000000" cx="4792" cy="332" r="5" /><circle style="fill:none;stroke:#000000" cx="3152" cy="1904" r="5" /><circle style="fill:none;stroke:#000000" cx="3046" cy="1615" r="5" /><circle style="fill:none;stroke:#000000" cx="4916" cy="348" r="5" /><circle style="fill:none;stroke:#000000" cx="3252" cy="861" r="5" /><circle style="fill:none;stroke:#000000" cx="4913" cy="1956" r="5" /><circle style="fill:none;stroke:#000000" cx="4275" cy="1908" r="5" /><circle style="fill:none;stroke:#000000" cx="4794" cy="62" r="5" /><circle style="fill:none;stroke:#000000" cx="4664" cy="2221" r="5" /><circle style="fill:none;stroke:#000000" cx="3760" cy="1058" r="5" /><circle style="fill:none;stroke:#000000" cx="3795" cy="29" r="5" /><circle style="fill:none;stroke:#000000" cx="4245" cy="2025" r="5" /><circle style="fill:none;stroke:#000000" cx="3448" cy="934" r="5" /><circle style="fill:none;stroke:#000000" cx="4134" cy="317" r="5" /><circle style="fill:none;stroke:#000000" cx="3351" cy="1342" r="5" /><circle style="fill:none;stroke:#000000" cx="4177" cy="1995" r="5" /><circle style="fill:none;stroke:#000000" cx="4744" cy="829" r="5" /><circle style="fill:none;stroke:#000000" cx="4337" cy="1159" r="5" /><circle style="fill:none;stroke:#000000" cx="4833" cy="703" r="5" /><circle style="fill:none;stroke:#000000" cx="3622" cy="1647" r="5" /><circle style="fill:none;stroke:#000000" cx="4592" cy="753" r="5" /><circle style="fill:none;stroke:#000000" cx="4642" cy="2179" r="5" /><circle style="fill:none;stroke:#000000" cx="4162" cy="2210" r="5" /><circle style="fill:none;stroke:#000000" cx="4495" cy="372" r="5" /><circle style="fill:none;stroke:#000000" cx="3588" cy="1728" r="5" /><circle style="fill:none;stroke:#000000" cx="4298" cy="2155" r="5" /><circle style="fill:none;stroke:#000000" cx="4835" cy="203" r="5" /><circle style="fill:none;stroke:#000000" cx="3859" cy="864" r="5" /><circle style="fill:none;stroke:#000000" cx="4566" cy="1301" r="5" /><circle style="fill:none;stroke:#000000" cx="4338" cy="0" r="5" /><circle style="fill:none;stroke:#000000" cx="3236" cy="2169" r="5" /><circle style="fill:none;stroke:#000000" cx="3753" cy="2115" r="5" /><circle style="fill:none;stroke:#000000" cx="4086" cy="796" r="5" /><circle style="fill:none;stroke:#000000" cx="4644" cy="149" r="5" /><circle style="fill:none;stroke:#000000" cx="4738" cy="475" r="5" /><circle style="fill:none;stroke:#000000" cx="4420" cy="192" r="5" /><circle style="fill:none;stroke:#000000" cx="4567" cy="1596" r="5" /><circle style="fill:none;stroke:#000000" cx="4553" cy="1100" r="5" /><circle style="fill:none;stroke:#000000" cx="3820" cy="2127" r="5" /><circle style="fill:none;stroke:#000000" cx="4518" cy="1347" r="5" /><circle style="fill:none;stroke:#000000" cx="4635" cy="428" r="5" /><circle style="fill:none;stroke:#000000" cx="4466" cy="1951" r="5" /><circle style="fill:none;stroke:#000000" cx="4859" cy="789" r="5" /><circle style="fill:none;stroke:#000000" cx="4852" cy="947" r="5" /><circle style="fill:none;stroke:#000000" cx="4568" cy="1945" r="5" /><circle style="fill:none;stroke:#000000" cx="4203" cy="2193" r="5" /><circle style="fill:none;stroke:#000000" cx="4859" cy="10" r="5" /><circle style="fill:none;stroke:#000000" cx="2963" cy="640" r="5" /><circle style="fill:none;stroke:#000000" cx="4894" cy="48" r="5" /><circle style="fill:none;stroke:#000000" cx="4837" cy="2238" r="5" /><circle style="fill:none;stroke:#000000" cx="4527" cy="1953" r="5" /><circle style="fill:none;stroke:#000000" cx="4518" cy="1946" r="5" /><circle style="fill:none;stroke:#000000" cx="4371" cy="1138" r="5" /><circle style="fill:none;stroke:#0000ff" cx="500" cy="460" r="10" /><circle style="fill:none;stroke:#0000ff" cx="610" cy="280" r="10" /><circle style="fill:none;stroke:#0000ff" cx="580" cy="460" r="10" /><circle style="fill:none;stroke:#0000ff" cx="460" cy="460" r="10" /><circle style="fill:none;stroke:#0000ff" cx="610" cy="240" r="10" /><circle style="fill:none;stroke:#0000ff" cx="610" cy="270" r="10" /><circle style="fill:none;stroke:#0000ff" cx="610" cy="250" r="10" /><circle style="fill:none;stroke:#0000ff" cx="610" cy="450" r="10" /><circle style="fill:none;stroke:#0000ff" cx="560" cy="460" r="10" /><circle style="fill:none;stroke:#0000ff" cx="610" cy="340" r="10" /><circle style="fill:none;stroke:#0000ff" cx="610" cy="360" r="10" /><circle style="fill:none;stroke:#0000ff" cx="490" cy="460" r="10" /><circle style="fill:none;stroke:#0000ff" cx="470" cy="460" r="10" /><circle style="fill:none;stroke:#0000ff" cx="430" cy="460" r="10" /><circle style="fill:none;stroke:#0000ff" cx="440" cy="460" r="10" /><circle style="fill:none;stroke:#0000ff" cx="610" cy="460" r="10" /><circle style="fill:none;stroke:#0000ff" cx="610" cy="430" r="10" /><circle style="fill:none;stroke:#0000ff" cx="480" cy="460" r="10" /><circle style="fill:none;stroke:#0000ff" cx="610" cy="290" r="10" /><circle style="fill:none;stroke:#0000ff" cx="610" cy="230" r="10" /><circle style="fill:none;stroke:#0000ff" cx="540" cy="460" r="10" /><circle style="fill:none;stroke:#0000ff" cx="520" cy="460" r="10" /><circle style="fill:none;stroke:#0000ff" cx="610" cy="380" r="10" /><circle style="fill:none;stroke:#0000ff" cx="510" cy="460" r="10" /><circle style="fill:none;stroke:#0000ff" cx="420" cy="460" r="10" /><circle style="fill:none;stroke:#0000ff" cx="610" cy="320" r="10" /><circle style="fill:none;stroke:#0000ff" cx="610" cy="260" r="10" /><circle style="fill:none;stroke:#0000ff" cx="410" cy="460" r="10" /><circle style="fill:none;stroke:#0000ff" cx="380" cy="460" r="10" /><circle style="fill:none;stroke:#0000ff" cx="610" cy="400" r="10" /><circle style="fill:none;stroke:#0000ff" cx="610" cy="210" r="10" /><circle style="fill:none;stroke:#0000ff" cx="610" cy="300" r="10" /><circle style="fill:none;stroke:#0000ff" cx="610" cy="310" r="10" /><circle style="fill:none;stroke:#0000ff" cx="450" cy="460" r="10" /><text text-anchor="start" x="0" y="0" style="font-family:sans-serif;font-size:20;fill:#ff0000;fill-opacity:1;stroke:#ffffff;stroke-opacity:1;stroke-width:3;paint-order:stroke fill">Score = 9671598</text>
<text text-anchor="end" x="626" y="494" style="font-family:sans-serif;font-size:20;fill:#ff0000;fill-opacity:1;stroke:#ffffff;stroke-opacity:1;stroke-width:3;paint-order:stroke fill">Score = 9671598</text>
</svg>
