<?xml version="1.0" encoding="UTF-8" standalone="no"?>
<svg width="7948" height="3504" xmlns="http://www.w3.org/2000/svg" xmlns:svg="http://www.w3.org/2000/svg">
<rect style="fill:none;stroke:#000000" x="0" y="0" width="7948" height="3504" />
<rect style="fill:none;stroke:#ff0000" x="384" y="1162" width="1704" height="415" />
<circle style="fill:none;stroke:#000000" cx="2093" cy="1115" r="5" /><circle style="fill:none;stroke:#000000" cx="330" cy="1092" r="5" /><circle style="fill:none;stroke:#000000" cx="223" cy="1541" r="5" /><circle style="fill:none;stroke:#000000" cx="262" cy="1534" r="5" /><circle style="fill:none;stroke:#000000" cx="2269" cy="1107" r="5" /><circle style="fill:none;stroke:#000000" cx="288" cy="1763" r="5" /><circle style="fill:none;stroke:#000000" cx="2251" cy="1710" r="5" /><circle style="fill:none;stroke:#000000" cx="290" cy="1025" r="5" /><circle style="fill:none;stroke:#000000" cx="2299" cy="1490" r="5" /><circle style="fill:none;stroke:#000000" cx="499" cy="1842" r="5" /><circle style="fill:none;stroke:#000000" cx="164" cy="1590" r="5" /><circle style="fill:none;stroke:#000000" cx="2256" cy="1785" r="5" /><circle style="fill:none;stroke:#000000" cx="1931" cy="1130" r="5" /><circle style="fill:none;stroke:#000000" cx="610" cy="1765" r="5" /><circle style="fill:none;stroke:#000000" cx="112" cy="1449" r="5" /><circle style="fill:none;stroke:#000000" cx="258" cy="1811" r="5" /><circle style="fill:none;stroke:#000000" cx="2387" cy="1678" r="5" /><circle style="fill:none;stroke:#000000" cx="187" cy="1718" r="5" /><circle style="fill:none;stroke:#000000" cx="564" cy="1127" r="5" /><circle style="fill:none;stroke:#000000" cx="1739" cy="1156" r="5" /><circle style="fill:none;stroke:#000000" cx="2389" cy="1420" r="5" /><circle style="fill:none;stroke:#000000" cx="600" cy="980" r="5" /><circle style="fill:none;stroke:#000000" cx="2256" cy="766" r="5" /><circle style="fill:none;stroke:#000000" cx="2131" cy="2039" r="5" /><circle style="fill:none;stroke:#000000" cx="18" cy="1164" r="5" /><circle style="fill:none;stroke:#000000" cx="0" cy="1831" r="5" /><circle style="fill:none;stroke:#000000" cx="2376" cy="1325" r="5" /><circle style="fill:none;stroke:#000000" cx="2401" cy="1347" r="5" /><circle style="fill:none;stroke:#000000" cx="2017" cy="1920" r="5" /><circle style="fill:none;stroke:#000000" cx="2468" cy="1715" r="5" /><circle style="fill:none;stroke:#000000" cx="625" cy="745" r="5" /><circle style="fill:none;stroke:#000000" cx="1702" cy="895" r="5" /><circle style="fill:none;stroke:#000000" cx="238" cy="725" r="5" /><circle style="fill:none;stroke:#000000" cx="2590" cy="1774" r="5" /><circle style="fill:none;stroke:#000000" cx="2029" cy="927" r="5" /><circle style="fill:none;stroke:#000000" cx="2551" cy="901" r="5" /><circle style="fill:none;stroke:#000000" cx="2588" cy="1039" r="5" /><circle style="fill:none;stroke:#000000" cx="76" cy="771" r="5" /><circle style="fill:none;stroke:#000000" cx="2680" cy="1893" r="5" /><circle style="fill:none;stroke:#000000" cx="2410" cy="708" r="5" /><circle style="fill:none;stroke:#000000" cx="2088" cy="550" r="5" /><circle style="fill:none;stroke:#000000" cx="114" cy="447" r="5" /><circle style="fill:none;stroke:#000000" cx="2106" cy="2130" r="5" /><circle style="fill:none;stroke:#000000" cx="2109" cy="621" r="5" /><circle style="fill:none;stroke:#000000" cx="1511" cy="849" r="5" /><circle style="fill:none;stroke:#000000" cx="2457" cy="2107" r="5" /><circle style="fill:none;stroke:#000000" cx="1615" cy="2071" r="5" /><circle style="fill:none;stroke:#000000" cx="1507" cy="949" r="5" /><circle style="fill:none;stroke:#000000" cx="2690" cy="1865" r="5" /><circle style="fill:none;stroke:#000000" cx="2110" cy="2129" r="5" /><circle style="fill:none;stroke:#000000" cx="2871" cy="1716" r="5" /><circle style="fill:none;stroke:#000000" cx="1484" cy="1860" r="5" /><circle style="fill:none;stroke:#000000" cx="2708" cy="660" r="5" /><circle style="fill:none;stroke:#000000" cx="2854" cy="982" r="5" /><circle style="fill:none;stroke:#000000" cx="1684" cy="2304" r="5" /><circle style="fill:none;stroke:#000000" cx="110" cy="2230" r="5" /><circle style="fill:none;stroke:#000000" cx="1703" cy="2084" r="5" /><circle style="fill:none;stroke:#000000" cx="2229" cy="373" r="5" /><circle style="fill:none;stroke:#000000" cx="6" cy="2420" r="5" /><circle style="fill:none;stroke:#000000" cx="2947" cy="1002" r="5" /><circle style="fill:none;stroke:#000000" cx="255" cy="663" r="5" /><circle style="fill:none;stroke:#000000" cx="2706" cy="2201" r="5" /><circle style="fill:none;stroke:#000000" cx="2876" cy="770" r="5" /><circle style="fill:none;stroke:#000000" cx="1579" cy="2337" r="5" /><circle style="fill:none;stroke:#000000" cx="2902" cy="1110" r="5" /><circle style="fill:none;stroke:#000000" cx="815" cy="476" r="5" /><circle style="fill:none;stroke:#000000" cx="621" cy="2414" r="5" /><circle style="fill:none;stroke:#000000" cx="996" cy="1691" r="5" /><circle style="fill:none;stroke:#000000" cx="2963" cy="1008" r="5" /><circle style="fill:none;stroke:#000000" cx="2705" cy="1848" r="5" /><circle style="fill:none;stroke:#000000" cx="610" cy="458" r="5" /><circle style="fill:none;stroke:#000000" cx="2346" cy="2457" r="5" /><circle style="fill:none;stroke:#000000" cx="2639" cy="454" r="5" /><circle style="fill:none;stroke:#000000" cx="137" cy="305" r="5" /><circle style="fill:none;stroke:#000000" cx="1535" cy="2172" r="5" /><circle style="fill:none;stroke:#000000" cx="1690" cy="2229" r="5" /><circle style="fill:none;stroke:#000000" cx="30" cy="2640" r="5" /><circle style="fill:none;stroke:#000000" cx="1804" cy="331" r="5" /><circle style="fill:none;stroke:#000000" cx="211" cy="245" r="5" /><circle style="fill:none;stroke:#000000" cx="2789" cy="1562" r="5" /><circle style="fill:none;stroke:#000000" cx="3225" cy="1051" r="5" /><circle style="fill:none;stroke:#000000" cx="2684" cy="464" r="5" /><circle style="fill:none;stroke:#000000" cx="1591" cy="161" r="5" /><circle style="fill:none;stroke:#000000" cx="419" cy="2687" r="5" /><circle style="fill:none;stroke:#000000" cx="3150" cy="1815" r="5" /><circle style="fill:none;stroke:#000000" cx="2040" cy="107" r="5" /><circle style="fill:none;stroke:#000000" cx="1276" cy="1017" r="5" /><circle style="fill:none;stroke:#000000" cx="1726" cy="303" r="5" /><circle style="fill:none;stroke:#000000" cx="338" cy="2659" r="5" /><circle style="fill:none;stroke:#000000" cx="2809" cy="2307" r="5" /><circle style="fill:none;stroke:#000000" cx="395" cy="441" r="5" /><circle style="fill:none;stroke:#000000" cx="3048" cy="2099" r="5" /><circle style="fill:none;stroke:#000000" cx="2989" cy="993" r="5" /><circle style="fill:none;stroke:#000000" cx="1073" cy="2143" r="5" /><circle style="fill:none;stroke:#000000" cx="2850" cy="2210" r="5" /><circle style="fill:none;stroke:#000000" cx="3074" cy="722" r="5" /><circle style="fill:none;stroke:#000000" cx="2821" cy="1088" r="5" /><circle style="fill:none;stroke:#000000" cx="1965" cy="243" r="5" /><circle style="fill:none;stroke:#000000" cx="1209" cy="1633" r="5" /><circle style="fill:none;stroke:#000000" cx="1608" cy="2403" r="5" /><circle style="fill:none;stroke:#000000" cx="3414" cy="1765" r="5" /><circle style="fill:none;stroke:#000000" cx="1270" cy="1625" r="5" /><circle style="fill:none;stroke:#000000" cx="1426" cy="203" r="5" /><circle style="fill:none;stroke:#000000" cx="1194" cy="641" r="5" /><circle style="fill:none;stroke:#000000" cx="3163" cy="31" r="5" /><circle style="fill:none;stroke:#000000" cx="3112" cy="2696" r="5" /><circle style="fill:none;stroke:#000000" cx="155" cy="2730" r="5" /><circle style="fill:none;stroke:#000000" cx="3415" cy="1395" r="5" /><circle style="fill:none;stroke:#000000" cx="1392" cy="634" r="5" /><circle style="fill:none;stroke:#000000" cx="295" cy="2920" r="5" /><circle style="fill:none;stroke:#000000" cx="2482" cy="2742" r="5" /><circle style="fill:none;stroke:#000000" cx="1857" cy="2728" r="5" /><circle style="fill:none;stroke:#000000" cx="3269" cy="1702" r="5" /><circle style="fill:none;stroke:#000000" cx="1901" cy="2618" r="5" /><circle style="fill:none;stroke:#000000" cx="3042" cy="1251" r="5" /><circle style="fill:none;stroke:#000000" cx="3173" cy="2428" r="5" /><circle style="fill:none;stroke:#000000" cx="2573" cy="3020" r="5" /><circle style="fill:none;stroke:#000000" cx="3155" cy="538" r="5" /><circle style="fill:none;stroke:#000000" cx="2706" cy="3039" r="5" /><circle style="fill:none;stroke:#000000" cx="2967" cy="570" r="5" /><circle style="fill:none;stroke:#000000" cx="3546" cy="1282" r="5" /><circle style="fill:none;stroke:#000000" cx="2172" cy="2983" r="5" /><circle style="fill:none;stroke:#000000" cx="3249" cy="2371" r="5" /><circle style="fill:none;stroke:#000000" cx="3630" cy="686" r="5" /><circle style="fill:none;stroke:#000000" cx="3469" cy="1005" r="5" /><circle style="fill:none;stroke:#000000" cx="2304" cy="3220" r="5" /><circle style="fill:none;stroke:#000000" cx="543" cy="3159" r="5" /><circle style="fill:none;stroke:#000000" cx="577" cy="3163" r="5" /><circle style="fill:none;stroke:#000000" cx="12" cy="3128" r="5" /><circle style="fill:none;stroke:#000000" cx="2316" cy="3348" r="5" /><circle style="fill:none;stroke:#000000" cx="3405" cy="850" r="5" /><circle style="fill:none;stroke:#000000" cx="1474" cy="2950" r="5" /><circle style="fill:none;stroke:#000000" cx="784" cy="262" r="5" /><circle style="fill:none;stroke:#000000" cx="1061" cy="2185" r="5" /><circle style="fill:none;stroke:#000000" cx="2251" cy="2412" r="5" /><circle style="fill:none;stroke:#000000" cx="2378" cy="3069" r="5" /><circle style="fill:none;stroke:#000000" cx="459" cy="3210" r="5" /><circle style="fill:none;stroke:#000000" cx="2908" cy="1638" r="5" /><circle style="fill:none;stroke:#000000" cx="3468" cy="1093" r="5" /><circle style="fill:none;stroke:#000000" cx="1171" cy="1791" r="5" /><circle style="fill:none;stroke:#000000" cx="722" cy="3070" r="5" /><circle style="fill:none;stroke:#000000" cx="686" cy="2832" r="5" /><circle style="fill:none;stroke:#000000" cx="1895" cy="3078" r="5" /><circle style="fill:none;stroke:#000000" cx="936" cy="75" r="5" /><circle style="fill:none;stroke:#000000" cx="1497" cy="2960" r="5" /><circle style="fill:none;stroke:#000000" cx="1747" cy="2915" r="5" /><circle style="fill:none;stroke:#000000" cx="2096" cy="3245" r="5" /><circle style="fill:none;stroke:#000000" cx="3593" cy="2603" r="5" /><circle style="fill:none;stroke:#000000" cx="4071" cy="1551" r="5" /><circle style="fill:none;stroke:#000000" cx="3799" cy="2024" r="5" /><circle style="fill:none;stroke:#000000" cx="2182" cy="3282" r="5" /><circle style="fill:none;stroke:#000000" cx="755" cy="3209" r="5" /><circle style="fill:none;stroke:#000000" cx="3798" cy="2206" r="5" /><circle style="fill:none;stroke:#000000" cx="4068" cy="622" r="5" /><circle style="fill:none;stroke:#000000" cx="2985" cy="2663" r="5" /><circle style="fill:none;stroke:#000000" cx="3815" cy="137" r="5" /><circle style="fill:none;stroke:#000000" cx="3220" cy="2936" r="5" /><circle style="fill:none;stroke:#000000" cx="4037" cy="2469" r="5" /><circle style="fill:none;stroke:#000000" cx="3167" cy="2647" r="5" /><circle style="fill:none;stroke:#000000" cx="4183" cy="2118" r="5" /><circle style="fill:none;stroke:#000000" cx="1505" cy="172" r="5" /><circle style="fill:none;stroke:#000000" cx="1098" cy="218" r="5" /><circle style="fill:none;stroke:#000000" cx="2344" cy="2692" r="5" /><circle style="fill:none;stroke:#000000" cx="3718" cy="1039" r="5" /><circle style="fill:none;stroke:#000000" cx="1617" cy="928" r="5" /><circle style="fill:none;stroke:#000000" cx="3881" cy="366" r="5" /><circle style="fill:none;stroke:#000000" cx="4002" cy="693" r="5" /><circle style="fill:none;stroke:#000000" cx="3369" cy="1860" r="5" /><circle style="fill:none;stroke:#000000" cx="3897" cy="1204" r="5" /><circle style="fill:none;stroke:#000000" cx="1239" cy="2801" r="5" /><circle style="fill:none;stroke:#000000" cx="707" cy="228" r="5" /><circle style="fill:none;stroke:#000000" cx="40" cy="3047" r="5" /><circle style="fill:none;stroke:#000000" cx="2901" cy="3123" r="5" /><circle style="fill:none;stroke:#000000" cx="3846" cy="2406" r="5" /><circle style="fill:none;stroke:#000000" cx="3891" cy="220" r="5" /><circle style="fill:none;stroke:#000000" cx="3872" cy="1181" r="5" /><circle style="fill:none;stroke:#000000" cx="2576" cy="3073" r="5" /><circle style="fill:none;stroke:#000000" cx="1124" cy="427" r="5" /><circle style="fill:none;stroke:#000000" cx="1482" cy="2894" r="5" /><circle style="fill:none;stroke:#000000" cx="662" cy="3190" r="5" /><circle style="fill:none;stroke:#000000" cx="389" cy="3438" r="5" /><circle style="fill:none;stroke:#000000" cx="3966" cy="597" r="5" /><circle style="fill:none;stroke:#000000" cx="3950" cy="274" r="5" /><circle style="fill:none;stroke:#000000" cx="2039" cy="3400" r="5" /><circle style="fill:none;stroke:#000000" cx="249" cy="2766" r="5" /><circle style="fill:none;stroke:#000000" cx="499" cy="3451" r="5" /><circle style="fill:none;stroke:#000000" cx="4262" cy="2163" r="5" /><circle style="fill:none;stroke:#000000" cx="3072" cy="1523" r="5" /><circle style="fill:none;stroke:#000000" cx="3278" cy="3501" r="5" /><circle style="fill:none;stroke:#000000" cx="4816" cy="433" r="5" /><circle style="fill:none;stroke:#000000" cx="3600" cy="1466" r="5" /><circle style="fill:none;stroke:#000000" cx="1321" cy="34" r="5" /><circle style="fill:none;stroke:#000000" cx="1355" cy="3319" r="5" /><circle style="fill:none;stroke:#000000" cx="2988" cy="2596" r="5" /><circle style="fill:none;stroke:#000000" cx="4868" cy="59" r="5" /><circle style="fill:none;stroke:#000000" cx="4608" cy="2739" r="5" /><circle style="fill:none;stroke:#000000" cx="4475" cy="1078" r="5" /><circle style="fill:none;stroke:#000000" cx="3845" cy="3127" r="5" /><circle style="fill:none;stroke:#000000" cx="3949" cy="2238" r="5" /><circle style="fill:none;stroke:#000000" cx="4580" cy="1079" r="5" /><circle style="fill:none;stroke:#000000" cx="3977" cy="1806" r="5" /><circle style="fill:none;stroke:#000000" cx="3288" cy="2913" r="5" /><circle style="fill:none;stroke:#000000" cx="4019" cy="133" r="5" /><circle style="fill:none;stroke:#000000" cx="2453" cy="3500" r="5" /><circle style="fill:none;stroke:#000000" cx="3504" cy="3054" r="5" /><circle style="fill:none;stroke:#000000" cx="3818" cy="2535" r="5" /><circle style="fill:none;stroke:#000000" cx="4039" cy="2828" r="5" /><circle style="fill:none;stroke:#000000" cx="4900" cy="1986" r="5" /><circle style="fill:none;stroke:#000000" cx="5175" cy="930" r="5" /><circle style="fill:none;stroke:#000000" cx="4767" cy="2951" r="5" /><circle style="fill:none;stroke:#000000" cx="5102" cy="560" r="5" /><circle style="fill:none;stroke:#000000" cx="5125" cy="801" r="5" /><circle style="fill:none;stroke:#000000" cx="937" cy="3367" r="5" /><circle style="fill:none;stroke:#000000" cx="3680" cy="2889" r="5" /><circle style="fill:none;stroke:#000000" cx="4406" cy="2954" r="5" /><circle style="fill:none;stroke:#000000" cx="1942" cy="3207" r="5" /><circle style="fill:none;stroke:#000000" cx="4547" cy="54" r="5" /><circle style="fill:none;stroke:#000000" cx="4455" cy="2066" r="5" /><circle style="fill:none;stroke:#000000" cx="4269" cy="81" r="5" /><circle style="fill:none;stroke:#000000" cx="4847" cy="328" r="5" /><circle style="fill:none;stroke:#000000" cx="5373" cy="1273" r="5" /><circle style="fill:none;stroke:#000000" cx="5324" cy="384" r="5" /><circle style="fill:none;stroke:#000000" cx="4565" cy="52" r="5" /><circle style="fill:none;stroke:#000000" cx="5082" cy="1664" r="5" /><circle style="fill:none;stroke:#000000" cx="5357" cy="544" r="5" /><circle style="fill:none;stroke:#000000" cx="5440" cy="801" r="5" /><circle style="fill:none;stroke:#000000" cx="4646" cy="2286" r="5" /><circle style="fill:none;stroke:#000000" cx="4882" cy="1983" r="5" /><circle style="fill:none;stroke:#000000" cx="3979" cy="16" r="5" /><circle style="fill:none;stroke:#000000" cx="4462" cy="2399" r="5" /><circle style="fill:none;stroke:#000000" cx="4788" cy="3205" r="5" /><circle style="fill:none;stroke:#000000" cx="5557" cy="1167" r="5" /><circle style="fill:none;stroke:#000000" cx="4067" cy="191" r="5" /><circle style="fill:none;stroke:#000000" cx="5228" cy="1974" r="5" /><circle style="fill:none;stroke:#000000" cx="1290" cy="6" r="5" /><circle style="fill:none;stroke:#000000" cx="5295" cy="2071" r="5" /><circle style="fill:none;stroke:#000000" cx="5956" cy="2087" r="5" /><circle style="fill:none;stroke:#000000" cx="4237" cy="774" r="5" /><circle style="fill:none;stroke:#000000" cx="3406" cy="2826" r="5" /><circle style="fill:none;stroke:#000000" cx="5303" cy="2449" r="5" /><circle style="fill:none;stroke:#000000" cx="5802" cy="402" r="5" /><circle style="fill:none;stroke:#000000" cx="5146" cy="2936" r="5" /><circle style="fill:none;stroke:#000000" cx="5668" cy="2908" r="5" /><circle style="fill:none;stroke:#000000" cx="3872" cy="434" r="5" /><circle style="fill:none;stroke:#000000" cx="5153" cy="2650" r="5" /><circle style="fill:none;stroke:#000000" cx="6287" cy="937" r="5" /><circle style="fill:none;stroke:#000000" cx="5893" cy="2558" r="5" /><circle style="fill:none;stroke:#000000" cx="4642" cy="1539" r="5" /><circle style="fill:none;stroke:#000000" cx="5227" cy="135" r="5" /><circle style="fill:none;stroke:#000000" cx="5363" cy="2971" r="5" /><circle style="fill:none;stroke:#000000" cx="5570" cy="3374" r="5" /><circle style="fill:none;stroke:#000000" cx="5815" cy="1930" r="5" /><circle style="fill:none;stroke:#000000" cx="5413" cy="550" r="5" /><circle style="fill:none;stroke:#000000" cx="6253" cy="3021" r="5" /><circle style="fill:none;stroke:#000000" cx="5879" cy="678" r="5" /><circle style="fill:none;stroke:#000000" cx="4572" cy="988" r="5" /><circle style="fill:none;stroke:#000000" cx="6412" cy="2843" r="5" /><circle style="fill:none;stroke:#000000" cx="3712" cy="3502" r="5" /><circle style="fill:none;stroke:#000000" cx="5122" cy="2425" r="5" /><circle style="fill:none;stroke:#000000" cx="5677" cy="250" r="5" /><circle style="fill:none;stroke:#000000" cx="5008" cy="895" r="5" /><circle style="fill:none;stroke:#000000" cx="6560" cy="3050" r="5" /><circle style="fill:none;stroke:#000000" cx="5585" cy="1923" r="5" /><circle style="fill:none;stroke:#000000" cx="5234" cy="901" r="5" /><circle style="fill:none;stroke:#000000" cx="6145" cy="549" r="5" /><circle style="fill:none;stroke:#000000" cx="4792" cy="3379" r="5" /><circle style="fill:none;stroke:#000000" cx="6369" cy="3499" r="5" /><circle style="fill:none;stroke:#000000" cx="6659" cy="717" r="5" /><circle style="fill:none;stroke:#000000" cx="6602" cy="1340" r="5" /><circle style="fill:none;stroke:#000000" cx="5514" cy="1427" r="5" /><circle style="fill:none;stroke:#000000" cx="6844" cy="722" r="5" /><circle style="fill:none;stroke:#000000" cx="6748" cy="1299" r="5" /><circle style="fill:none;stroke:#000000" cx="6427" cy="781" r="5" /><circle style="fill:none;stroke:#000000" cx="6637" cy="2275" r="5" /><circle style="fill:none;stroke:#000000" cx="5514" cy="601" r="5" /><circle style="fill:none;stroke:#000000" cx="6681" cy="3334" r="5" /><circle style="fill:none;stroke:#000000" cx="4287" cy="3203" r="5" /><circle style="fill:none;stroke:#000000" cx="6239" cy="137" r="5" /><circle style="fill:none;stroke:#000000" cx="5795" cy="1219" r="5" /><circle style="fill:none;stroke:#000000" cx="6863" cy="1615" r="5" /><circle style="fill:none;stroke:#000000" cx="6264" cy="933" r="5" /><circle style="fill:none;stroke:#000000" cx="5859" cy="2193" r="5" /><circle style="fill:none;stroke:#000000" cx="6802" cy="2577" r="5" /><circle style="fill:none;stroke:#000000" cx="6078" cy="3217" r="5" /><circle style="fill:none;stroke:#000000" cx="6063" cy="1810" r="5" /><circle style="fill:none;stroke:#000000" cx="5862" cy="2869" r="5" /><circle style="fill:none;stroke:#000000" cx="5556" cy="26" r="5" /><circle style="fill:none;stroke:#000000" cx="6870" cy="2462" r="5" /><circle style="fill:none;stroke:#000000" cx="5947" cy="3145" r="5" /><circle style="fill:none;stroke:#000000" cx="6322" cy="2860" r="5" /><circle style="fill:none;stroke:#000000" cx="6433" cy="2385" r="5" /><circle style="fill:none;stroke:#000000" cx="5090" cy="2790" r="5" /><circle style="fill:none;stroke:#000000" cx="6441" cy="2720" r="5" /><circle style="fill:none;stroke:#000000" cx="6165" cy="2133" r="5" /><circle style="fill:none;stroke:#000000" cx="5624" cy="2952" r="5" /><circle style="fill:none;stroke:#000000" cx="5718" cy="2088" r="5" /><circle style="fill:none;stroke:#000000" cx="6137" cy="3235" r="5" /><circle style="fill:none;stroke:#000000" cx="6402" cy="897" r="5" /><circle style="fill:none;stroke:#000000" cx="6800" cy="476" r="5" /><circle style="fill:none;stroke:#000000" cx="4880" cy="988" r="5" /><circle style="fill:none;stroke:#000000" cx="5884" cy="3359" r="5" /><circle style="fill:none;stroke:#000000" cx="7010" cy="710" r="5" /><circle style="fill:none;stroke:#000000" cx="6028" cy="2171" r="5" /><circle style="fill:none;stroke:#000000" cx="7273" cy="2739" r="5" /><circle style="fill:none;stroke:#000000" cx="7153" cy="1102" r="5" /><circle style="fill:none;stroke:#000000" cx="6844" cy="3329" r="5" /><circle style="fill:none;stroke:#000000" cx="6878" cy="827" r="5" /><circle style="fill:none;stroke:#000000" cx="7112" cy="2835" r="5" /><circle style="fill:none;stroke:#000000" cx="6296" cy="861" r="5" /><circle style="fill:none;stroke:#000000" cx="6888" cy="1879" r="5" /><circle style="fill:none;stroke:#000000" cx="6126" cy="3465" r="5" /><circle style="fill:none;stroke:#000000" cx="6654" cy="2333" r="5" /><circle style="fill:none;stroke:#000000" cx="4835" cy="2014" r="5" /><circle style="fill:none;stroke:#000000" cx="4983" cy="736" r="5" /><circle style="fill:none;stroke:#000000" cx="6172" cy="782" r="5" /><circle style="fill:none;stroke:#000000" cx="7072" cy="2273" r="5" /><circle style="fill:none;stroke:#000000" cx="5200" cy="2858" r="5" /><circle style="fill:none;stroke:#000000" cx="7315" cy="3320" r="5" /><circle style="fill:none;stroke:#000000" cx="6220" cy="2665" r="5" /><circle style="fill:none;stroke:#000000" cx="7395" cy="1414" r="5" /><circle style="fill:none;stroke:#000000" cx="6382" cy="220" r="5" /><circle style="fill:none;stroke:#000000" cx="6945" cy="1299" r="5" /><circle style="fill:none;stroke:#000000" cx="6817" cy="1235" r="5" /><circle style="fill:none;stroke:#000000" cx="6545" cy="2042" r="5" /><circle style="fill:none;stroke:#000000" cx="7737" cy="35" r="5" /><circle style="fill:none;stroke:#000000" cx="7175" cy="1874" r="5" /><circle style="fill:none;stroke:#000000" cx="6245" cy="2833" r="5" /><circle style="fill:none;stroke:#000000" cx="7007" cy="733" r="5" /><circle style="fill:none;stroke:#000000" cx="6294" cy="3492" r="5" /><circle style="fill:none;stroke:#000000" cx="6433" cy="239" r="5" /><circle style="fill:none;stroke:#000000" cx="7913" cy="757" r="5" /><circle style="fill:none;stroke:#000000" cx="7407" cy="2133" r="5" /><circle style="fill:none;stroke:#000000" cx="6649" cy="2919" r="5" /><circle style="fill:none;stroke:#000000" cx="7681" cy="3017" r="5" /><circle style="fill:none;stroke:#000000" cx="6401" cy="1843" r="5" /><circle style="fill:none;stroke:#000000" cx="6232" cy="3478" r="5" /><circle style="fill:none;stroke:#000000" cx="7132" cy="3304" r="5" /><circle style="fill:none;stroke:#000000" cx="7271" cy="1673" r="5" /><circle style="fill:none;stroke:#000000" cx="6933" cy="2844" r="5" /><circle style="fill:none;stroke:#000000" cx="6026" cy="260" r="5" /><circle style="fill:none;stroke:#000000" cx="5912" cy="2024" r="5" /><circle style="fill:none;stroke:#000000" cx="5624" cy="608" r="5" /><circle style="fill:none;stroke:#000000" cx="7215" cy="1504" r="5" /><circle style="fill:none;stroke:#000000" cx="6845" cy="460" r="5" /><circle style="fill:none;stroke:#000000" cx="7012" cy="31" r="5" /><circle style="fill:none;stroke:#000000" cx="6266" cy="1343" r="5" /><circle style="fill:none;stroke:#000000" cx="5991" cy="1794" r="5" /><circle style="fill:none;stroke:#000000" cx="7330" cy="2621" r="5" /><circle style="fill:none;stroke:#000000" cx="5198" cy="2510" r="5" /><circle style="fill:none;stroke:#000000" cx="6896" cy="3044" r="5" /><circle style="fill:none;stroke:#000000" cx="4828" cy="3186" r="5" /><circle style="fill:none;stroke:#000000" cx="6432" cy="818" r="5" /><circle style="fill:none;stroke:#000000" cx="5461" cy="3352" r="5" /><circle style="fill:none;stroke:#000000" cx="7353" cy="1723" r="5" /><circle style="fill:none;stroke:#000000" cx="6590" cy="724" r="5" /><circle style="fill:none;stroke:#000000" cx="6037" cy="2214" r="5" /><circle style="fill:none;stroke:#000000" cx="6903" cy="839" r="5" /><circle style="fill:none;stroke:#000000" cx="6592" cy="1859" r="5" /><circle style="fill:none;stroke:#000000" cx="7918" cy="2946" r="5" /><circle style="fill:none;stroke:#000000" cx="6983" cy="1843" r="5" /><circle style="fill:none;stroke:#000000" cx="7631" cy="1829" r="5" /><circle style="fill:none;stroke:#000000" cx="7743" cy="1119" r="5" /><circle style="fill:none;stroke:#000000" cx="7793" cy="1054" r="5" /><circle style="fill:none;stroke:#000000" cx="7505" cy="3067" r="5" /><circle style="fill:none;stroke:#000000" cx="1135" cy="3473" r="5" /><circle style="fill:none;stroke:#000000" cx="7786" cy="3438" r="5" /><circle style="fill:none;stroke:#000000" cx="7429" cy="2874" r="5" /><circle style="fill:none;stroke:#000000" cx="7883" cy="2886" r="5" /><circle style="fill:none;stroke:#000000" cx="7702" cy="805" r="5" /><circle style="fill:none;stroke:#000000" cx="5953" cy="1955" r="5" /><circle style="fill:none;stroke:#000000" cx="7622" cy="2852" r="5" /><circle style="fill:none;stroke:#000000" cx="6868" cy="1221" r="5" /><circle style="fill:none;stroke:#000000" cx="7357" cy="1731" r="5" /><circle style="fill:none;stroke:#000000" cx="6896" cy="2532" r="5" /><circle style="fill:none;stroke:#000000" cx="7851" cy="3261" r="5" /><circle style="fill:none;stroke:#000000" cx="6674" cy="2300" r="5" /><circle style="fill:none;stroke:#000000" cx="7841" cy="438" r="5" /><circle style="fill:none;stroke:#000000" cx="7585" cy="958" r="5" /><circle style="fill:none;stroke:#000000" cx="7503" cy="718" r="5" /><circle style="fill:none;stroke:#000000" cx="6975" cy="339" r="5" /><circle style="fill:none;stroke:#000000" cx="6791" cy="2751" r="5" /><circle style="fill:none;stroke:#000000" cx="5055" cy="1646" r="5" /><circle style="fill:none;stroke:#000000" cx="5841" cy="2264" r="5" /><circle style="fill:none;stroke:#000000" cx="7659" cy="1406" r="5" /><circle style="fill:none;stroke:#000000" cx="7314" cy="830" r="5" /><circle style="fill:none;stroke:#000000" cx="7583" cy="285" r="5" /><circle style="fill:none;stroke:#000000" cx="6093" cy="2891" r="5" /><circle style="fill:none;stroke:#000000" cx="7774" cy="3228" r="5" /><circle style="fill:none;stroke:#000000" cx="7884" cy="4" r="5" /><circle style="fill:none;stroke:#000000" cx="7196" cy="1087" r="5" /><circle style="fill:none;stroke:#000000" cx="5833" cy="1224" r="5" /><circle style="fill:none;stroke:#000000" cx="7010" cy="3089" r="5" /><circle style="fill:none;stroke:#000000" cx="6152" cy="2216" r="5" /><circle style="fill:none;stroke:#000000" cx="6104" cy="3154" r="5" /><circle style="fill:none;stroke:#000000" cx="6546" cy="1802" r="5" /><circle style="fill:none;stroke:#000000" cx="7693" cy="1186" r="5" /><circle style="fill:none;stroke:#000000" cx="7029" cy="193" r="5" /><circle style="fill:none;stroke:#000000" cx="6620" cy="2690" r="5" /><circle style="fill:none;stroke:#000000" cx="7319" cy="1118" r="5" /><circle style="fill:none;stroke:#000000" cx="7238" cy="1424" r="5" /><circle style="fill:none;stroke:#0000ff" cx="1744" cy="1172" r="10" /><circle style="fill:none;stroke:#0000ff" cx="1734" cy="1172" r="10" /><text text-anchor="start" x="384" y="1162" style="font-family:sans-serif;font-size:20;fill:#ff0000;fill-opacity:1;stroke:#ffffff;stroke-opacity:1;stroke-width:3;paint-order:stroke fill">Score = 4165760</text>
<text text-anchor="end" x="2088" y="1597" style="font-family:sans-serif;font-size:20;fill:#ff0000;fill-opacity:1;stroke:#ffffff;stroke-opacity:1;stroke-width:3;paint-order:stroke fill">Score = 4165760</text>
</svg>
